<?xml version="1.0" encoding="UTF-8" standalone="no"?>
<!-- Created with Inkscape (http://www.inkscape.org/) -->

<svg
   xmlns:dc="http://purl.org/dc/elements/1.1/"
   xmlns:cc="http://creativecommons.org/ns#"
   xmlns:rdf="http://www.w3.org/1999/02/22-rdf-syntax-ns#"
   xmlns:svg="http://www.w3.org/2000/svg"
   xmlns="http://www.w3.org/2000/svg"
   xmlns:sodipodi="http://sodipodi.sourceforge.net/DTD/sodipodi-0.dtd"
   xmlns:inkscape="http://www.inkscape.org/namespaces/inkscape"
   width="210mm"
   height="297mm"
   viewBox="0 0 210 297"
   version="1.1"
   id="svg1277"
   inkscape:version="0.92.3 (2405546, 2018-03-11)"
   sodipodi:docname="Alte_Ideen.svg">
  <defs
     id="defs1271" />
  <sodipodi:namedview
     id="base"
     pagecolor="#ffffff"
     bordercolor="#666666"
     borderopacity="1.0"
     inkscape:pageopacity="0.0"
     inkscape:pageshadow="2"
     inkscape:zoom="0.175"
     inkscape:cx="1604.5379"
     inkscape:cy="1770.8237"
     inkscape:document-units="mm"
     inkscape:current-layer="layer1"
     showgrid="false"
     inkscape:window-width="1920"
     inkscape:window-height="1017"
     inkscape:window-x="1912"
     inkscape:window-y="-8"
     inkscape:window-maximized="1" />
  <metadata
     id="metadata1274">
    <rdf:RDF>
      <cc:Work
         rdf:about="">
        <dc:format>image/svg+xml</dc:format>
        <dc:type
           rdf:resource="http://purl.org/dc/dcmitype/StillImage" />
        <dc:title></dc:title>
      </cc:Work>
    </rdf:RDF>
  </metadata>
  <g
     inkscape:label="Ebene 1"
     inkscape:groupmode="layer"
     id="layer1">
    <path
       style="fill:#941680;fill-opacity:1;stroke-width:0.26458335"
       d="m 290.3071,-177.26455 c -0.33558,-0.47912 -0.41228,-1.47157 -0.41406,-5.35782 l -0.002,-4.76977 -0.99,-0.54508 c -0.5445,-0.29979 -3.43079,-1.9544 -6.41397,-3.6769 -2.98317,-1.72251 -5.9002,-3.40058 -6.48229,-3.72906 -0.58208,-0.32848 -1.59411,-0.90486 -2.24896,-1.28085 -0.65484,-0.37598 -1.32511,-0.68504 -1.48948,-0.6868 -0.274,-0.003 -6.15374,3.29693 -7.36678,4.13442 -0.69449,0.47948 -2.10996,0.45849 -2.5215,-0.0374 -0.4384,-0.52824 -0.41998,-1.68081 0.0337,-2.11175 0.2001,-0.19005 2.09021,-1.33279 4.20026,-2.53943 2.11006,-1.20665 3.92215,-2.32045 4.02688,-2.47512 0.10472,-0.15467 0.19163,-5.14052 0.19313,-11.07967 0.001,-5.93916 0.058,-10.88791 0.12556,-10.99722 0.0676,-0.10932 4.35379,-2.63189 9.52495,-5.60571 l 9.40212,-5.40695 0.005,-10.19735 0.005,-10.19735 -3.37344,-1.94854 c -1.85539,-1.07169 -3.76059,-2.17795 -4.23378,-2.45835 -1.05457,-0.62493 -1.33882,-1.55411 -0.75023,-2.45242 0.55732,-0.85058 1.45172,-0.84996 2.8012,0.002 0.5763,0.3638 1.10297,0.66146 1.17038,0.66146 0.0674,0 1.43617,0.78404 3.0417,1.74232 l 2.91914,1.74232 7.48074,-4.30315 c 4.11441,-2.36673 8.10582,-4.66414 8.86981,-5.10536 l 1.38906,-0.80222 v -4.93033 c 0,-4.4404 0.0481,-4.97383 0.48385,-5.3682 0.6506,-0.58878 1.51857,-0.55213 2.16198,0.0913 0.49087,0.49087 0.52917,0.88194 0.52917,5.40319 v 4.87402 l 3.50573,2.00382 c 11.63897,6.65265 15.15202,8.79067 15.46979,9.4148 0.25753,0.50581 0.32956,3.13916 0.30612,11.19095 -0.0169,5.79121 0.0327,10.59281 0.11006,10.6702 0.0774,0.0774 1.01444,0.64321 2.08232,1.25736 1.06788,0.61416 4.88022,2.80749 8.47187,4.87407 3.59165,2.06658 6.68786,3.75743 6.88047,3.75743 0.19262,0 1.57956,-0.71438 3.08209,-1.5875 1.50254,-0.87313 2.93771,-1.58751 3.18928,-1.58751 0.91144,0 1.39573,0.62519 1.30541,1.68522 -0.0831,0.97538 -0.16459,1.04817 -2.99585,2.67641 l -2.91041,1.67376 -0.0692,10.17704 -0.0692,10.17704 2.58277,1.52727 c 1.42052,0.84001 2.79112,1.70739 3.04578,1.92753 0.64437,0.55701 0.61394,2.07093 -0.0487,2.42559 -0.85877,0.4596 -1.25579,0.33166 -4.07619,-1.3136 -1.49677,-0.87313 -2.87253,-1.5875 -3.05726,-1.5875 -0.18473,0 -1.60598,0.73687 -3.15834,1.6375 -1.55237,0.90062 -3.45742,2.00195 -4.23345,2.44739 -0.77604,0.44544 -1.60947,0.92957 -1.85209,1.07585 -3.69089,2.22526 -9.57889,5.42259 -9.9859,5.42259 -0.29083,0 -4.65765,-2.38125 -9.70403,-5.29167 -5.04639,-2.91041 -9.32827,-5.29023 -9.5153,-5.28848 -0.18702,0.002 -0.8163,0.27873 -1.39838,0.61551 -0.58208,0.33677 -3.49911,2.0175 -6.48229,3.73495 -2.98318,1.71744 -6.40623,3.71064 -7.60677,4.42933 l -2.18281,1.30671 v 4.76214 c 0,2.77668 -0.1142,4.9755 -0.2739,5.2739 -0.39844,0.74451 -1.94758,0.69705 -2.48923,-0.0763 z m 6.50475,-15.8549 c 2.81705,-1.62205 6.72926,-3.87378 8.69379,-5.00386 l 3.57188,-2.05467 0.0692,-10.18393 0.0692,-10.18393 -8.40361,-4.83482 c -4.62198,-2.65915 -8.60114,-4.95481 -8.84257,-5.10146 -0.34177,-0.2076 -1.07407,0.10295 -3.30729,1.40257 -1.57758,0.91806 -3.40411,1.97024 -4.05895,2.33817 -4.58607,2.57673 -9.99724,5.74818 -10.3849,6.08652 -0.42567,0.37151 -0.46302,1.21034 -0.46302,10.39785 v 9.99374 l 1.38906,0.78761 c 0.76399,0.43318 1.80578,1.02005 2.31511,1.30415 0.50932,0.2841 1.85861,1.06951 2.99842,1.74536 1.13981,0.67584 2.111,1.2288 2.1582,1.2288 0.0472,0 1.25775,0.69553 2.69012,1.54562 3.27098,1.94128 5.99245,3.4625 6.21364,3.47323 0.0934,0.005 2.47461,-1.3189 5.29166,-2.94095 z m -1.49267,-4.97386 c -1.05912,-0.43349 -1.56673,-1.41866 -2.62562,-5.09593 l -1.07946,-3.74867 -0.92558,-0.2354 c -0.50907,-0.12948 -1.2979,-0.59264 -1.75294,-1.02925 l -0.82736,-0.79385 -2.61223,0.66467 c -5.49085,1.39713 -5.29854,1.36993 -6.30206,0.89139 -1.24583,-0.5941 -1.86641,-1.62579 -1.86641,-3.10283 0,-1.51351 0.65178,-2.55824 1.92894,-3.09187 0.91275,-0.38138 1.16326,-0.35289 4.91754,0.55926 l 3.95579,0.9611 0.76714,-0.73497 c 0.42193,-0.40424 1.20472,-0.85774 1.73954,-1.0078 l 0.9724,-0.27283 1.08441,-3.76586 c 0.71064,-2.46787 1.29406,-3.98904 1.69267,-4.41334 0.69692,-0.74184 2.43791,-1.10532 3.44678,-0.71962 0.96243,0.36795 2.05724,1.5589 2.25319,2.45106 0.31379,1.42868 -0.11515,2.18022 -2.93368,5.14008 -2.57201,2.70097 -2.75815,2.96753 -2.58661,3.70416 0.23295,1.00036 0.23185,1.38557 -0.007,2.41134 -0.18009,0.77367 -0.0324,0.99114 2.42627,3.57187 1.43992,1.51143 2.76641,3.02847 2.94774,3.37122 0.37908,0.71652 0.18227,2.18542 -0.41494,3.09688 -0.75746,1.15603 -2.8391,1.74562 -4.19859,1.18919 z m -2.9461,-11.14616 c 1.2036,-0.94675 0.79323,-2.51811 -0.78264,-2.99684 -0.79321,-0.24097 -1.96092,0.74191 -1.95575,1.64619 0.005,0.83448 0.20331,1.17532 0.92199,1.58286 0.74918,0.42483 1.02612,0.38943 1.8164,-0.23221 z m 43.99026,15.48631 c 3.43795,-1.97059 7.36687,-4.23972 8.73094,-5.04251 l 2.48011,-1.45963 v -10.14833 -10.14833 l -1.32689,-0.81644 c -0.72979,-0.44905 -1.38044,-0.81645 -1.44588,-0.81645 -0.0654,0 -1.28406,-0.69699 -2.70801,-1.54887 -2.19787,-1.31488 -7.8653,-4.59077 -11.20006,-6.47387 l -0.93814,-0.52976 -3.42749,1.99781 c -1.88512,1.0988 -3.96327,2.29929 -4.61811,2.66775 -0.65484,0.36847 -3.03609,1.73402 -5.29167,3.03457 l -4.10104,2.36463 -0.0692,10.20683 -0.0692,10.20682 2.54594,1.49837 c 1.40027,0.8241 4.88424,2.83862 7.74215,4.47672 2.85792,1.63809 5.61293,3.23333 6.12226,3.54498 0.50932,0.31165 1.01548,0.56707 1.12479,0.56762 0.10932,5.3e-4 3.01163,-1.61132 6.44957,-3.58191 z m -4.75214,-4.00183 c -0.097,-0.097 -0.17639,-0.44255 -0.17639,-0.76786 0,-0.48738 -0.86061,-1.09658 -4.89021,-3.46163 -4.03191,-2.36641 -4.89101,-2.97464 -4.89479,-3.46547 -0.003,-0.41667 0.15122,-0.59531 0.5146,-0.59531 0.28555,0 2.51798,1.17832 4.96094,2.6185 4.12686,2.43287 4.45622,2.5802 4.64587,2.07825 0.11227,-0.29714 0.1718,-0.57239 0.13229,-0.61168 -0.0395,-0.0393 -1.70325,-1.03621 -3.69721,-2.21537 -1.99397,-1.17917 -3.69099,-2.25008 -3.77117,-2.37982 -0.23023,-0.37251 0.13814,-1.07738 0.56303,-1.07738 0.33074,0 2.66089,1.28586 5.84134,3.22345 l 0.85989,0.52387 v -0.67928 c 0,-0.50524 -0.27116,-0.84972 -1.05833,-1.3445 -0.58208,-0.36587 -1.5247,-0.95802 -2.09471,-1.3159 -0.79655,-0.5001 -1.00371,-0.77563 -0.89519,-1.19062 0.178,-0.68065 0.78233,-0.68427 1.79927,-0.0108 0.94858,0.62822 1.30488,0.6716 1.08665,0.13229 -0.0883,-0.21828 -0.23287,-0.57547 -0.3212,-0.79375 -0.12526,-0.30953 0.0515,-0.39687 0.80315,-0.39687 0.89687,0 1.00156,0.0872 1.50864,1.25677 1.04206,2.40351 1.39359,4.91441 1.04095,7.43519 -0.17337,1.23933 -0.43093,2.46954 -0.57237,2.7338 -0.25374,0.47414 -1.04196,0.64719 -1.38505,0.3041 z m -13.20712,-7.79014 c -0.82765,-0.46805 -0.51566,-1.2217 0.99381,-2.40061 3.25342,-2.54095 5.45527,-3.28868 10.40876,-3.5347 5.34435,-0.26545 7.29617,-0.93042 10.61646,-3.617 1.44259,-1.16725 1.71847,-1.29527 2.25976,-1.04864 0.91933,0.41887 0.57341,1.1834 -1.15961,2.56287 -1.95034,1.55246 -4.54103,2.89906 -6.51658,3.38723 -0.87312,0.21574 -3.07578,0.46093 -4.89479,0.54485 -4.59285,0.21189 -6.27235,0.71565 -8.78804,2.63592 -2.07825,1.58636 -2.41465,1.75574 -2.91977,1.47008 z m 9.82925,-7.50983 c -0.90884,-2.05459 -1.17865,-5.18058 -0.69482,-8.05008 0.45295,-2.68633 0.93336,-3.53151 1.71845,-3.02327 0.28155,0.18227 0.44473,0.5982 0.42346,1.07938 -0.0328,0.742 0.20888,0.92789 4.63021,3.56164 3.30499,1.96876 4.68816,2.93487 4.74494,3.31423 0.17852,1.19286 -0.79272,0.87019 -5.24098,-1.74114 -4.27788,-2.51132 -4.45307,-2.58736 -4.56859,-1.98304 -0.12792,0.66917 -0.0176,0.7505 4.72442,3.48334 2.37079,1.36629 2.78901,1.82379 2.11664,2.31545 -0.48561,0.35508 -1.04678,0.15629 -3.03448,-1.07494 -1.54103,-0.95455 -3.44242,-1.98437 -3.66381,-1.98437 -0.14401,0 -0.20869,0.27796 -0.14375,0.61769 0.10741,0.56186 0.56013,0.93309 2.26612,1.85822 1.32559,0.71885 1.77575,1.11553 1.77575,1.56478 0,0.79378 -0.72439,0.81273 -2.021,0.0529 -1.29695,-0.76006 -1.35229,-0.70646 -0.75883,0.73508 0.16113,0.3914 0.0407,0.46302 -0.77861,0.46302 -0.89409,0 -1.01,-0.0922 -1.49512,-1.18886 z m -14.8404,-11.77623 c 1.2093,-0.72732 2.24556,-1.32241 2.30279,-1.32241 0.0572,0 1.27046,-0.69551 2.69605,-1.54558 1.4256,-0.85006 4.22255,-2.48717 6.21545,-3.63802 2.11102,-1.21905 3.6767,-2.29444 3.75102,-2.57639 0.0702,-0.26617 0.10648,-4.8491 0.0807,-10.18428 l -0.0468,-9.70033 -8.80827,-5.09381 -8.80827,-5.0938 -6.27298,3.61411 c -3.45014,1.98776 -7.43353,4.27899 -8.85199,5.09162 l -2.57901,1.47752 -8e-4,10.2036 -7.9e-4,10.2036 0.8599,0.43666 c 0.95461,0.48476 1.35646,0.71392 8.53281,4.86602 7.7501,4.48405 7.91183,4.5729 8.33437,4.57857 0.21828,0.003 1.38631,-0.58975 2.59562,-1.31708 z m -0.21437,-6.79099 c 0,-0.0825 0.48707,-0.63699 1.08237,-1.2323 1.69905,-1.69905 2.6844,-3.89163 2.82904,-6.29511 0.0697,-1.15795 -0.008,-2.40827 -0.18307,-2.93807 -0.30432,-0.92209 -1.9917,-3.11594 -2.3966,-3.11594 -0.11798,0 -0.2953,0.44649 -0.39404,0.99219 -0.33347,1.84295 -2.05936,3.9976 -3.79591,4.73894 -1.60478,0.68508 -3.00438,0.0932 -4.48006,-1.89467 -0.71586,-0.96432 -0.9653,-0.71323 -1.41127,1.42062 -0.50952,2.43788 0.20325,5.13117 1.92818,7.2859 l 0.82744,1.0336 -1.39745,-0.76059 c -4.23617,-2.30561 -5.90101,-7.71512 -3.78141,-12.28682 0.64421,-1.38949 2.28338,-3.53486 3.41867,-4.47443 l 1.00723,-0.83359 0.35006,1.57892 c 0.63128,2.8474 2.31535,3.71507 4.12562,2.12564 1.4232,-1.24959 2.09315,-3.30961 1.93085,-5.93717 -0.11441,-1.85218 -0.36843,-2.8139 -1.3942,-5.27837 -0.3325,-0.79887 2.87966,1.74877 5.17413,4.10373 6.12387,6.28527 6.70801,13.09573 1.59594,18.6069 -0.65948,0.71096 -1.63106,1.56652 -2.15906,1.90123 -1.11452,0.7065 -2.87646,1.47793 -2.87646,1.25939 z"
       id="path1909"
       inkscape:connector-curvature="0" />
    <path
       style="fill:#941680;fill-opacity:1;stroke-width:0.26458335"
       d="m 391.45625,-171.15273 c -0.60795,-0.49173 -0.62815,-0.64095 -0.75691,-5.59349 l -0.13229,-5.08828 -8.20209,-4.74487 c -4.51114,-2.60967 -8.45716,-4.86837 -8.76893,-5.01934 -0.48188,-0.23332 -1.19594,0.0869 -4.7631,2.13628 -2.30793,1.32592 -4.44541,2.41076 -4.74995,2.41076 -1.23512,0 -1.9125,-1.88788 -0.96645,-2.69356 0.25466,-0.21688 2.21736,-1.39619 4.36155,-2.6207 l 3.89853,-2.22637 0.004,-10.76932 c 0.003,-6.95005 0.1026,-10.98486 0.28187,-11.37709 0.18708,-0.40927 3.34076,-2.37912 9.65665,-6.03172 l 9.37884,-5.42395 5.3e-4,-10.36034 5.3e-4,-10.36033 -3.9822,-2.30587 c -2.19021,-1.26823 -4.15474,-2.47841 -4.36563,-2.6893 -0.88535,-0.88535 -0.0996,-2.46393 1.22491,-2.46075 0.35235,8.4e-4 2.48043,1.06369 4.72909,2.36189 3.46055,1.99786 4.17165,2.3171 4.6302,2.07868 0.53546,-0.27828 12.09852,-6.94979 15.5571,-8.9758 l 1.78594,-1.04619 v -4.97426 c 0,-4.48296 0.0478,-5.01751 0.48385,-5.41214 0.6906,-0.62498 1.78693,-0.55275 2.27927,0.15016 0.3364,0.48028 0.41263,1.48635 0.41598,5.4901 l 0.004,4.90206 9.40348,5.40714 c 5.17191,2.97392 9.48608,5.53376 9.58704,5.68854 0.10097,0.15477 0.2431,5.2797 0.31586,11.38872 l 0.13229,11.10732 8.8024,5.10075 8.80239,5.10074 3.06902,-1.76219 c 2.63765,-1.5145 3.16622,-1.728 3.7606,-1.51897 0.82871,0.29144 1.34664,1.49698 0.93057,2.16598 -0.15361,0.24698 -1.6068,1.22296 -3.22931,2.16885 l -2.95002,1.71979 0.0645,10.30333 0.0645,10.30334 2.98542,1.72445 c 3.02861,1.7494 3.48614,2.24914 3.1188,3.40651 -0.0887,0.27946 -0.46178,0.64503 -0.82908,0.81239 -0.75153,0.34241 -1.21358,0.15306 -4.79903,-1.96672 -1.18618,-0.70128 -2.18773,-1.1259 -2.43336,-1.03164 -0.2296,0.0881 -4.55995,2.54727 -9.62299,5.46481 -6.06774,3.49648 -9.37764,5.2596 -9.71045,5.17257 -0.2777,-0.0726 -4.69091,-2.54181 -9.80713,-5.48709 l -9.30223,-5.35505 -0.96664,0.54593 c -0.53166,0.30027 -4.47899,2.5602 -8.77186,5.02208 l -7.80521,4.47614 -0.13229,5.09045 c -0.12876,4.95485 -0.14893,5.10391 -0.75691,5.59562 -0.78435,0.63435 -1.14143,0.63434 -1.92576,-5e-5 z m 7.57746,-17.09056 c 3.4925,-2.00127 7.45133,-4.28521 8.7974,-5.07542 l 2.4474,-1.43675 V -204.92273 -215.09 l -0.99219,-0.63897 c -0.5457,-0.35143 -4.555,-2.69077 -8.90954,-5.19852 l -7.91735,-4.55956 -0.8139,0.44722 c -0.44764,0.24597 -4.4453,2.55385 -8.88369,5.12862 l -8.06979,4.68141 -0.0693,10.24371 -0.0692,10.2437 2.18386,1.26567 c 9.3168,5.39961 15.69881,9.01099 15.81195,8.94749 0.0739,-0.0415 2.99184,-1.7128 6.48434,-3.71406 z m -7.72271,-4.68185 c -0.18128,-0.23171 -0.18835,-2.23684 -0.0216,-6.13365 0.20208,-4.72344 0.18274,-5.85397 -0.10502,-6.14005 -0.29319,-0.29148 -0.97773,0.0483 -4.05687,2.0137 -2.03729,1.30039 -3.88871,2.36678 -4.11427,2.36974 -0.22556,0.003 -0.55298,-0.13748 -0.72761,-0.31211 -0.75032,-0.75033 -0.31894,-1.45965 2.35906,-3.87902 2.57338,-2.32485 2.72448,-2.41806 3.91975,-2.41806 1.16029,0 1.27264,-0.0618 1.68479,-0.92604 0.24288,-0.50933 0.58086,-0.92604 0.75106,-0.92604 0.23011,0 0.26934,-1.13171 0.15298,-4.41368 -0.0949,-2.67521 -0.0551,-4.60317 0.101,-4.89479 0.29464,-0.55054 1.3668,-0.64191 1.76478,-0.15039 0.14728,0.1819 0.59489,1.87375 0.99469,3.75967 l 0.7269,3.42893 -0.61329,1.15607 c -0.42327,0.79788 -0.52161,1.21273 -0.31739,1.33895 0.16275,0.10058 0.41429,0.49424 0.55897,0.87479 0.20366,0.53567 1.19313,1.17948 4.38218,2.85132 4.17802,2.1903 4.40776,2.39738 3.95851,3.56811 -0.24298,0.6332 -1.24872,0.50294 -4.60045,-0.59584 -2.67412,-0.87665 -3.1155,-1.10716 -3.65623,-1.90955 -1.16032,-1.72181 -1.24001,-1.38089 -1.24001,5.30516 v 6.2177 l -0.81628,0.0797 c -0.44896,0.0438 -0.93748,-0.0752 -1.0856,-0.26458 z m 1.98126,-13.49403 c 0.17462,-0.17463 0.3175,-0.56754 0.3175,-0.87313 0,-0.76033 -0.49387,-1.19062 -1.36653,-1.19062 -0.46864,0 -0.8367,0.19653 -1.02422,0.5469 -0.61712,1.1531 1.14661,2.44348 2.07325,1.51685 z m 46.40458,17.08576 c 4.70216,-2.71017 8.6982,-5.04647 8.8801,-5.19178 0.25437,-0.2032 0.33035,-2.62388 0.32906,-10.4844 l -0.002,-10.22021 -0.72593,-0.41652 c -0.39926,-0.22908 -4.28993,-2.48417 -8.64594,-5.0113 -4.356,-2.52713 -8.10647,-4.60189 -8.33437,-4.61057 -0.2279,-0.009 -4.31366,2.23919 -9.07947,4.99526 l -8.66511,5.01105 0.008,10.33479 0.008,10.33479 8.78974,5.07587 c 4.83436,2.79173 8.81207,5.08368 8.83934,5.09323 0.0273,0.01 3.8968,-2.20005 8.59896,-4.91021 z m -6.83593,-3.477 c -0.16723,-0.10692 -0.34583,-0.4874 -0.39687,-0.84552 -0.0758,-0.532 -0.92836,-1.13931 -4.65931,-3.31916 -5.19796,-3.03698 -5.60258,-3.35056 -5.10183,-3.95393 0.18722,-0.22559 0.43673,-0.41015 0.55446,-0.41015 0.11773,0 2.24183,1.20039 4.72023,2.66755 2.47839,1.46715 4.62968,2.59121 4.78063,2.49792 0.71083,-0.43931 -0.008,-1.08392 -3.56201,-3.19456 -2.11005,-1.25308 -3.83645,-2.43271 -3.83645,-2.62139 0,-0.18868 0.17911,-0.49171 0.39803,-0.6734 0.33065,-0.27442 0.93176,-0.0112 3.55119,1.5551 1.73425,1.03699 3.26503,1.88544 3.40174,1.88544 0.13672,0 0.19217,-0.29504 0.12324,-0.65565 -0.092,-0.48126 -0.6437,-0.95631 -2.0741,-1.78594 -2.09543,-1.21535 -2.46403,-1.6662 -1.85785,-2.27239 0.33922,-0.33922 0.54052,-0.29656 1.63927,0.34735 0.93378,0.54723 1.20819,0.62393 1.07823,0.30138 -0.0959,-0.23797 -0.2466,-0.61126 -0.33494,-0.82954 -0.12695,-0.31374 0.063,-0.39687 0.90704,-0.39687 1.05311,0 1.07511,0.02 1.61805,1.47113 1.12691,3.01195 1.31072,4.90973 0.77796,8.03219 -0.38162,2.23669 -0.81204,2.78519 -1.72671,2.20044 z m -13.76232,-8.14974 c -0.24828,-0.64699 0.34131,-1.47905 1.8406,-2.59758 1.83538,-1.36925 4.24614,-2.48562 6.01785,-2.78672 0.79498,-0.13511 2.87417,-0.31081 4.62042,-0.39045 4.71726,-0.21513 7.05139,-1.07201 10.15649,-3.72855 1.48503,-1.2705 2.02241,-1.39362 2.51516,-0.57625 0.65454,1.08576 -4.88217,4.95047 -8.17373,5.70538 -0.7276,0.16688 -3.04932,0.41506 -5.15937,0.55152 -2.11006,0.13646 -4.19474,0.35526 -4.63265,0.48621 -1.43457,0.42901 -3.41444,1.55935 -4.66837,2.66527 -1.27874,1.1278 -2.24253,1.38486 -2.5164,0.67117 z m 10.35106,-6.8472 c -0.85623,-2.04923 -1.24006,-4.45111 -1.08044,-6.76099 0.26516,-3.83707 1.08298,-5.64798 2.15055,-4.76198 0.29153,0.24195 0.39473,0.60237 0.30333,1.05938 -0.1307,0.65352 0.12597,0.84994 4.54125,3.47515 3.99727,2.37667 4.67979,2.8754 4.67979,3.41957 0,0.35914 -0.17315,0.6673 -0.39687,0.70633 -0.21828,0.0381 -2.36141,-1.10219 -4.7625,-2.53394 -3.42662,-2.04325 -4.41307,-2.52341 -4.58621,-2.23235 -0.12132,0.20395 -0.16376,0.51241 -0.0943,0.68547 0.0694,0.17306 1.68133,1.20763 3.58198,2.29904 1.90065,1.0914 3.52506,2.15434 3.60978,2.36207 0.0847,0.20774 -0.0229,0.5547 -0.23928,0.77103 -0.34804,0.34804 -0.64615,0.24563 -2.58941,-0.88957 -4.4444,-2.59629 -4.55662,-2.65134 -4.35984,-2.13854 0.0987,0.2571 0.17938,0.62287 0.17938,0.81283 0,0.18996 0.89808,0.85923 1.99574,1.48726 1.57259,0.89977 1.97931,1.25614 1.91823,1.6808 -0.11447,0.79585 -0.8233,0.79704 -2.08037,0.003 l -1.11585,-0.70441 0.18723,0.62262 c 0.36659,1.21905 0.3083,1.36692 -0.58128,1.47466 -0.78218,0.0947 -0.90542,0.0128 -1.26089,-0.83792 z m -13.55635,-12.55228 c 2.22337,-1.29344 6.18562,-3.59233 8.805,-5.10865 l 4.7625,-2.75695 0.0658,-10.30332 0.0658,-10.30333 -8.88911,-5.13498 c -8.72208,-5.03849 -8.90229,-5.12743 -9.59081,-4.73314 -0.38594,0.22102 -4.36288,2.5176 -8.83765,5.10353 l -8.13594,4.70168 5.3e-4,10.3502 5.3e-4,10.35021 2.84368,1.63096 c 1.56403,0.89703 5.52259,3.18639 8.79681,5.08747 3.27422,1.90108 5.97947,3.4591 6.01167,3.46227 0.0322,0.003 1.87767,-1.05251 4.10104,-2.34595 z m -8.53956,-7.39149 c -1.55351,-0.98704 -2.8206,-2.46701 -3.65379,-4.26765 -0.54683,-1.18178 -0.68031,-1.87913 -0.686,-3.58395 -0.009,-2.73877 0.55132,-4.33651 2.43748,-6.94872 3.16795,-4.38739 3.53095,-4.98081 4.02469,-6.57935 0.28055,-0.90832 0.53761,-2.25445 0.57123,-2.9914 0.0336,-0.73695 0.17787,-1.3399 0.32054,-1.3399 0.14267,0 0.90225,0.48535 1.68795,1.07856 2.82182,2.13049 4.58575,5.38509 4.99814,9.22198 l 0.18289,1.70158 0.61421,-0.77029 c 0.33782,-0.42367 0.68831,-1.10763 0.77886,-1.51993 0.15378,-0.70013 0.18886,-0.71795 0.53127,-0.26983 0.66504,0.87033 1.9461,4.49548 2.25974,6.39461 0.66973,4.05542 -0.88427,7.6596 -4.22761,9.80501 -1.57485,1.01058 -1.93815,1.04213 -1.02525,0.089 1.39392,-1.45529 1.87558,-3.69651 1.21403,-5.64906 -0.1676,-0.49466 -0.94386,-1.81382 -1.72503,-2.93147 -1.46453,-2.09536 -2.20358,-3.74877 -2.20358,-4.92984 v -0.6777 l -0.81843,0.77711 c -1.58365,1.50371 -2.40949,3.72825 -2.40949,6.49039 0,0.85952 -0.0864,1.56275 -0.19201,1.56275 -0.49787,0 -1.37594,-1.35675 -1.55432,-2.40166 l -0.19852,-1.16284 -0.61844,1.43761 c -1.22349,2.84408 -1.02074,5.51434 0.55496,7.30896 0.965,1.09908 0.69701,1.14749 -0.86352,0.15599 z"
       id="path1905"
       inkscape:connector-curvature="0" />
    <path
       style="fill:#941680;fill-opacity:1;stroke-width:0.26458332"
       d="m 494.69277,-172.40887 c -0.66425,-0.66426 -0.66586,-0.67789 -0.66586,-5.64538 v -4.97952 l -8.81484,-5.08667 c -4.84817,-2.79768 -8.94513,-5.08668 -9.10436,-5.08668 -0.15924,0 -2.13692,1.07156 -4.39485,2.38125 -2.25793,1.30968 -4.35222,2.38125 -4.65397,2.38125 -0.70309,0 -1.60698,-0.8997 -1.60698,-1.59953 0,-0.83013 0.90383,-1.52047 5.11509,-3.90685 l 3.88074,-2.19909 v -11.03735 c 0,-8.97278 0.0685,-11.13498 0.36623,-11.55925 0.20143,-0.28704 4.60342,-2.96267 9.78221,-5.94585 l 9.41598,-5.42396 -0.0588,-10.54719 -0.0588,-10.54719 -4.21373,-2.44632 c -4.59735,-2.66903 -5.06559,-3.15848 -4.17166,-4.3606 0.27554,-0.37053 0.75928,-0.71205 1.07499,-0.75893 0.35488,-0.0527 2.16281,0.83892 4.73595,2.33565 2.28907,1.33149 4.24054,2.44141 4.33659,2.46649 0.096,0.0251 4.22862,-2.27612 9.18348,-5.11378 l 9.00884,-5.15938 0.0148,-5.02708 c 0.008,-2.76489 0.10232,-5.15809 0.20923,-5.3182 0.10691,-0.16012 0.47714,-0.44015 0.82274,-0.62231 0.53663,-0.28284 0.72974,-0.25552 1.32292,0.1871 l 0.69456,0.51829 0.0788,5.1311 0.0788,5.1311 9.42542,5.42206 c 5.18398,2.98214 9.5836,5.58025 9.77694,5.77359 0.28124,0.28124 0.35152,2.59142 0.35152,11.55458 v 11.20306 l 8.00365,4.61484 c 4.40201,2.53816 8.49115,4.89192 9.087,5.23057 l 1.08335,0.61574 2.75311,-1.60252 c 1.5142,-0.88139 3.00228,-1.67914 3.30684,-1.77279 0.73249,-0.22523 1.9598,0.73729 1.9598,1.53699 0,0.79669 -0.55281,1.26056 -3.63008,3.04602 l -2.58762,1.50136 v 10.53423 10.53422 l 2.8737,1.65478 c 1.58053,0.91013 2.97769,1.81897 3.1048,2.01965 0.6426,1.01456 -0.13648,2.35055 -1.36913,2.34783 -0.35234,-7.9e-4 -1.95274,-0.75101 -3.55644,-1.66718 l -2.91583,-1.66576 -9.51959,5.49968 c -5.23578,3.02483 -9.79402,5.50146 -10.12942,5.50364 -0.33541,0.002 -4.38353,-2.17884 -8.99584,-4.8467 -11.24958,-6.507 -10.52846,-6.12836 -11.12775,-5.84293 -0.28007,0.1334 -4.33069,2.4452 -9.00137,5.13733 l -8.49214,4.8948 -0.003,4.93162 c -0.002,4.31396 -0.0607,4.9987 -0.46571,5.46711 -0.77385,0.89497 -1.55661,0.96714 -2.31069,0.21306 z m 10.28006,-18.65715 8.90383,-5.13495 -0.0691,-10.44085 -0.0691,-10.44086 -3.43959,-1.98147 c -15.60746,-8.99113 -14.43553,-8.37738 -15.18657,-7.95332 -0.37863,0.21379 -4.46866,2.56238 -9.08895,5.21909 l -8.40052,4.83038 v 10.26054 c 0,9.03665 0.05,10.302 0.41882,10.60813 0.68732,0.57043 17.68182,10.30938 17.86171,10.23592 0.0911,-0.0372 4.17245,-2.3784 9.06956,-5.20261 z m -19.148,-4.97379 c -0.21829,-0.0798 -0.66477,-0.38881 -0.99219,-0.68669 -0.57609,-0.52412 -0.59504,-0.69606 -0.5869,-5.32414 0.006,-3.34174 0.10552,-4.90899 0.33073,-5.20233 0.68557,-0.89293 1.45499,-1.0354 5.59155,-1.0354 h 4.11339 l 0.17513,-0.69776 c 0.0963,-0.38377 0.067,-1.12791 -0.0652,-1.65365 -0.18881,-0.75093 -0.35291,-0.9359 -0.76539,-0.86269 -1.78991,0.31768 -3.01224,0.15642 -3.71469,-0.49007 -0.92285,-0.84933 -2.2386,-2.9211 -2.99521,-4.71623 -0.86298,-2.04748 -0.6166,-2.24793 2.60401,-2.11857 2.8234,0.1134 4.71157,0.81916 5.64916,2.11153 0.54734,0.75446 0.66497,2.52549 0.22048,3.31974 -0.18283,0.3267 -0.13299,0.69494 0.17094,1.26307 l 0.42901,0.80192 0.15761,-1.05833 c 0.22398,-1.504 0.69972,-2.23821 1.72893,-2.66824 1.06705,-0.44584 1.51677,-0.46109 2.83147,-0.096 1.16104,0.32244 1.25932,0.82753 0.49045,2.52043 -0.68287,1.50353 -1.68669,2.22816 -3.08662,2.22816 -0.91182,0 -1.24385,0.13745 -1.68411,0.69714 -1.00986,1.28383 -0.84002,1.37007 2.88462,1.46465 4.08214,0.10365 4.49089,0.32757 4.70718,2.57863 l 0.12924,1.345 h 1.00577 c 1.3977,0 1.83732,0.53283 1.83732,2.22685 0,1.676 -0.50807,2.27106 -1.93906,2.27106 -0.93121,0 -0.97135,0.0378 -0.97135,0.9136 0,0.50247 -0.14225,1.22578 -0.3161,1.60734 -0.62904,1.3806 -1.09614,1.44961 -9.65879,1.42693 -4.33647,-0.0115 -8.06308,-0.0862 -8.28136,-0.16597 z m 16.37864,-1.76677 c 0.2078,-0.25039 0.28077,-1.69312 0.23083,-4.56406 l -0.073,-4.19794 -8.03794,-0.0701 c -5.7103,-0.0498 -8.14294,0.0171 -8.40052,0.23084 -0.48635,0.40363 -0.52681,8.16813 -0.0451,8.64986 0.49551,0.49551 15.91225,0.4496 16.32573,-0.0486 z m -9.14248,-0.83302 c -0.0938,-0.24448 0.0836,-0.96766 0.39423,-1.60706 l 0.56481,-1.16255 h -0.79861 c -0.43924,0 -0.86229,-0.16592 -0.94011,-0.36872 -0.0778,-0.20279 0.28848,-1.22252 0.81399,-2.26606 0.69578,-1.38162 1.07809,-1.87397 1.40657,-1.81138 0.60668,0.11559 0.70599,1.06033 0.21189,2.0158 -0.3992,0.77198 -0.39506,0.78216 0.38082,0.93734 1.0396,0.20792 1.02029,0.89422 -0.0829,2.94668 -0.86256,1.60475 -1.63888,2.12846 -1.95067,1.31595 z m 12.55901,-3.49721 c -0.0657,-0.57149 -0.23983,-0.74557 -0.81132,-0.81132 -0.65376,-0.0752 -0.7276,-0.001 -0.7276,0.7276 0,0.72899 0.0823,0.81132 0.81132,0.81132 0.72899,0 0.80283,-0.0738 0.7276,-0.7276 z m -6.16104,-10.47674 c 0.56527,-0.80704 0.47786,-1.23107 -0.25378,-1.23107 -1.02156,0 -1.92956,1.30843 -1.32649,1.9115 0.27322,0.27322 1.18828,-0.12079 1.58027,-0.68043 z m -6.6325,-0.42142 c 0.0845,-0.13678 -0.26563,-0.58326 -0.77813,-0.99219 -0.99036,-0.79021 -1.11689,-1.11408 -0.62672,-1.60425 0.35009,-0.35008 1.04307,-0.0729 2.00308,0.80115 0.51173,0.46592 0.6092,0.48155 0.74798,0.11991 0.2623,-0.68356 -0.38535,-1.53461 -1.55745,-2.04658 -1.23603,-0.5399 -3.80822,-0.85743 -4.03062,-0.49758 -0.21844,0.35344 1.47186,3.37015 2.21655,3.95592 0.68795,0.54114 1.76699,0.68159 2.02531,0.26362 z m 51.2067,22.10487 8.86354,-5.1306 v -10.54395 -10.54395 l -8.73125,-5.07321 c -4.80219,-2.79027 -8.85031,-5.08083 -8.99583,-5.09012 -0.14552,-0.009 -4.25318,2.28877 -9.12813,5.10682 l -8.86354,5.12372 -0.0691,10.44307 -0.0692,10.44306 8.9327,5.18287 c 4.91297,2.85059 8.99221,5.18963 9.06497,5.19788 0.0728,0.008 4.12089,-2.29376 8.99584,-5.11559 z m -7.12003,-2.78593 c -0.20524,-0.12992 -0.39264,-0.50074 -0.41646,-0.82404 -0.0344,-0.46664 -1.04306,-1.17733 -4.89257,-3.44719 -2.6671,-1.57265 -4.93922,-3.00491 -5.04917,-3.18281 -0.2931,-0.47424 10e-4,-1.03289 0.54445,-1.03289 0.25966,0 2.55721,1.23736 5.10566,2.74969 4.45357,2.64288 4.63824,2.72516 4.75424,2.11835 0.146,-0.76373 0.33858,-0.61182 -3.97306,-3.13398 -1.92848,-1.12809 -3.56597,-2.14759 -3.63888,-2.26556 -0.23143,-0.37446 0.17358,-1.05615 0.62506,-1.05208 0.23909,0.002 1.84511,0.83559 3.56892,1.85208 1.72381,1.0165 3.18233,1.84817 3.24115,1.84817 0.0588,0 0.10694,-0.29113 0.10694,-0.64694 0,-0.52701 -0.39403,-0.88264 -2.12533,-1.91823 -1.64545,-0.98424 -2.10844,-1.39016 -2.05052,-1.79775 0.1114,-0.78397 0.82682,-0.78066 2.0787,0.01 0.94161,0.59441 1.08529,0.62801 0.91554,0.21408 -0.56658,-1.38161 -0.53584,-1.45802 0.55071,-1.36897 0.98748,0.0809 1.05227,0.14613 1.65271,1.6629 0.89529,2.26159 1.1934,4.82141 0.85464,7.33857 -0.38916,2.89168 -0.80629,3.53942 -1.85273,2.87699 z m -13.72914,-8.01068 c -0.61223,-0.61223 -0.30452,-1.2515 1.18741,-2.46681 3.13743,-2.55574 5.17297,-3.21733 10.93051,-3.55263 5.28172,-0.3076 7.30829,-1.0229 10.5337,-3.71798 1.23369,-1.03085 1.76138,-1.31838 2.17728,-1.18638 2.34992,0.74583 -3.63365,5.39898 -8.18256,6.36319 -0.96266,0.20406 -2.7028,0.37544 -3.86696,0.38084 -4.76946,0.0222 -7.61998,0.90896 -10.49934,3.26633 -1.6203,1.32656 -1.79638,1.3971 -2.28004,0.91344 z m 9.9873,-7.81843 c -0.74192,-1.94226 -0.98631,-5.98808 -0.52129,-8.62982 0.37639,-2.13821 0.61245,-2.54883 1.46537,-2.54883 0.6886,0 0.92014,0.41596 0.74573,1.33969 -0.11127,0.58932 0.27605,0.87936 4.50976,3.37714 2.54732,1.50285 4.77206,2.90184 4.94387,3.10886 0.2409,0.29026 0.23701,0.46722 -0.017,0.77327 -0.18116,0.21828 -0.46363,0.39613 -0.62771,0.39522 -0.16409,-8e-4 -2.30757,-1.19154 -4.76329,-2.64583 -2.45573,-1.4543 -4.51747,-2.64418 -4.58164,-2.64418 -0.0642,0 -0.079,0.3215 -0.033,0.71444 0.0711,0.607 0.57437,0.9996 3.34632,2.61059 3.85863,2.24256 4.24197,2.5631 3.75987,3.14398 -0.18721,0.22559 -0.47464,0.40494 -0.63872,0.39856 -0.16409,-0.006 -1.66756,-0.8291 -3.34105,-1.82828 -2.23489,-1.33438 -3.06621,-1.71354 -3.13123,-1.42816 -0.16603,0.72874 0.1874,1.10788 2.08202,2.23345 2.02804,1.20484 2.35737,1.60539 1.83623,2.23333 -0.2895,0.34882 -0.50664,0.29886 -1.7494,-0.40251 -1.49566,-0.8441 -1.63406,-0.80861 -1.02199,0.2621 0.55437,0.96976 0.5006,1.05833 -0.64245,1.05833 -1.02149,0 -1.04929,-0.0261 -1.62046,-1.52135 z m -8.70826,-15.49038 8.8545,-5.10549 0.0692,-10.48332 0.0692,-10.48332 -2.45041,-1.38603 c -1.34773,-0.76232 -3.10526,-1.77392 -3.90563,-2.24801 -0.80036,-0.47409 -3.75105,-2.18844 -6.55707,-3.80967 l -5.10187,-2.9477 -5.21688,3.02138 c -2.86929,1.66176 -6.91352,4.00226 -8.9872,5.2011 l -3.77031,2.17972 0.002,10.49018 0.002,10.49018 1.25454,0.678 c 1.56432,0.84541 13.22013,7.57074 15.01288,8.66233 0.7276,0.44304 1.44605,0.81466 1.59654,0.82582 0.15049,0.0112 4.25814,-2.27716 9.12812,-5.08517 z m -16.30938,-3.40725 c -0.34287,-0.55477 -0.14799,-2.75192 0.37644,-4.244 0.49281,-1.40216 2.26843,-4.25099 3.98331,-6.39093 0.4512,-0.56304 0.74494,-1.14574 0.65276,-1.2949 -0.0922,-0.14916 -0.15757,-0.6243 -0.1453,-1.05588 0.0178,-0.62657 -0.44528,-1.3116 -2.29836,-3.39986 -2.80199,-3.1576 -3.83093,-5.05952 -3.84989,-7.11628 -0.0122,-1.32715 0.0408,-1.46289 0.60304,-1.54253 1.69598,-0.24023 4.23646,2.71068 6.08777,7.07126 0.99804,2.3508 1.40884,3.02288 2.15365,3.52345 l 0.92038,0.61855 2.6515,-0.62319 c 1.60428,-0.37706 3.59198,-0.63877 5.03275,-0.66263 2.05064,-0.034 2.56492,0.0516 3.70417,0.61647 1.05981,0.52546 1.32291,0.78746 1.32291,1.31737 0,0.52544 -0.25901,0.78993 -1.25965,1.28623 -1.72202,0.8541 -4.75522,1.0199 -8.47443,0.46322 -2.79478,-0.41832 -2.86688,-0.41616 -3.42333,0.10224 -0.31262,0.29126 -0.69564,0.52956 -0.85115,0.52956 -0.15551,0 -0.55458,0.98226 -0.88683,2.18281 -1.14385,4.13321 -1.91719,5.76873 -3.50294,7.40833 -1.43817,1.48702 -2.37531,1.8927 -2.7968,1.21071 z m 7.30171,-12.25369 c 0.47144,-0.56804 0.1224,-1.24783 -0.58863,-1.14641 -0.67811,0.0967 -0.96235,0.96633 -0.42679,1.30572 0.49602,0.31434 0.64123,0.29156 1.01542,-0.15931 z"
       id="path1907"
       inkscape:connector-curvature="0" />
    <path
       style="fill:#941680;fill-opacity:1;stroke-width:0.26458335"
       d="m 285.0523,-305.79815 c -0.61776,-0.30059 -10.76575,-17.95981 -10.91674,-18.99698 -0.0741,-0.5092 1.16303,-2.89497 4.83325,-9.32047 l 4.93289,-8.63608 -4.91338,-8.59273 c -2.70236,-4.726 -4.91338,-8.85898 -4.91338,-9.1844 0,-0.51543 8.99232,-16.6381 10.37124,-18.59498 l 0.51271,-0.7276 h 10.7975 c 9.63988,0 10.83644,0.0461 11.16063,0.42979 0.19972,0.23638 2.52002,4.19521 5.15623,8.79739 l 4.79309,8.36761 10.08055,0.13229 c 8.48674,0.11137 10.14256,0.19504 10.47275,0.52917 0.44946,0.45481 10.38567,17.82554 10.62163,18.56901 0.10566,0.33289 -1.34996,3.13918 -4.54053,8.75371 -2.58282,4.54505 -4.8459,8.50186 -5.02906,8.7929 -0.29165,0.46343 -0.15958,0.82498 1.0631,2.91042 4.46618,7.61759 8.65456,15.25251 8.57876,15.63808 -0.0482,0.24498 -0.41498,0.68965 -0.81516,0.98814 -0.72226,0.53874 -0.73253,0.53895 -1.39912,0.028 -0.36934,-0.28307 -2.84389,-4.32468 -5.49901,-8.98134 l -4.82748,-8.46667 -9.28166,-0.0695 -9.28165,-0.0695 -4.99695,8.76398 c -3.5917,6.29936 -5.1692,8.83012 -5.60948,8.99917 -0.84443,0.32425 -20.67565,0.269 -21.35073,-0.0595 z m 24.65441,-11.07062 c 2.52989,-4.4319 4.54484,-8.18237 4.47768,-8.33437 -0.0672,-0.15201 -2.13755,-3.78872 -4.60085,-8.08159 l -4.47874,-7.8052 -9.27586,-0.0695 -9.27587,-0.0695 -4.56337,7.984 c -2.50985,4.39121 -4.56337,8.12488 -4.56337,8.29706 0,0.17218 2.05611,3.90474 4.56912,8.29458 l 4.56913,7.98153 9.27117,-0.0695 9.27116,-0.0695 z m -18.19534,3.75852 c -0.0143,-0.25466 -0.0441,-0.76067 -0.0662,-1.12448 -0.0373,-0.61566 0.0607,-0.67061 1.41514,-0.79375 l 1.45521,-0.13229 0.0697,-8.92969 0.0697,-8.92968 h -2.25248 -2.25248 v 1.71979 1.71979 h -1.19929 -1.19929 l 0.0748,-2.95901 0.0748,-2.95902 8.06979,-0.0175 8.0698,-0.0175 0.0748,2.97656 0.0748,2.97657 h -1.19929 -1.19929 v -1.7198 -1.71979 h -2.24896 -2.24896 v 8.99584 8.99583 h 1.5875 1.5875 v 1.19062 1.19063 h -4.36562 c -3.97142,0 -4.36798,-0.0418 -4.3917,-0.46302 z m 47.96688,-20.26316 c 2.14997,-3.75956 4.22574,-7.41745 4.61282,-8.12865 l 0.70379,-1.29309 -4.60215,-8.07325 -4.60214,-8.07325 -9.28974,-0.004 -9.28973,-0.004 -4.62258,8.10377 -4.62259,8.10377 4.6519,8.16859 4.6519,8.16859 9.24975,-0.0666 9.24974,-0.0666 z m -18.90279,0.23922 -1.52135,-1.70125 v -1.88497 -1.88498 l 1.25677,0.0806 1.25677,0.0806 0.0817,1.32292 c 0.0655,1.06145 0.24571,1.49287 0.91179,2.18281 0.82337,0.85287 0.85093,0.8599 3.37219,0.8599 2.52571,0 2.54721,-0.005 3.35043,-0.8599 0.77355,-0.82281 0.80694,-0.95335 0.77437,-3.02685 -0.0298,-1.89843 -0.11288,-2.2509 -0.67033,-2.84428 -0.61179,-0.65122 -0.75454,-0.6773 -3.70668,-0.6773 h -3.07037 l -1.64601,-1.66077 -1.646,-1.66076 v -2.93118 -2.93118 l 1.61094,-1.75806 1.61094,-1.75806 h 3.39271 3.3927 l 1.61094,1.75806 1.61094,1.75806 v 1.81382 1.81382 h -1.32292 -1.32291 v -1.40331 c 0,-1.24002 -0.10153,-1.5017 -0.8725,-2.24895 -0.84255,-0.81664 -0.9498,-0.84566 -3.1255,-0.84566 -2.1231,0 -2.29399,0.0428 -2.96396,0.74209 -0.6577,0.68649 -0.71096,0.9107 -0.71096,2.9932 0,2.12104 0.0429,2.29221 0.74208,2.96209 0.71774,0.68763 0.84227,0.71096 3.79618,0.71096 h 3.05411 l 1.49548,1.56785 1.49548,1.56786 v 3.08074 3.08075 l -1.52135,1.70125 -1.52136,1.70125 h -3.83645 -3.83646 z m -10.83144,-19.33801 4.58053,-8.06819 -4.58053,-8.062 -4.58054,-8.06201 -9.36183,0.0601 -9.36183,0.0602 -4.58649,8.00296 -4.5865,8.00297 4.25094,7.47516 c 2.33801,4.11134 4.42055,7.74305 4.62786,8.07047 l 0.37693,0.59531 9.32046,-0.003 9.32046,-0.003 4.58054,-8.06818 z m -15.79326,1.65883 c -0.12068,-0.32742 -1.39025,-4.43508 -2.82126,-9.12813 l -2.60185,-8.53281 h -0.74406 c -0.69169,0 -0.74407,-0.0745 -0.74407,-1.05833 v -1.05834 h 2.91042 2.91042 v 1.05834 c 0,1.03911 -0.0173,1.05833 -0.95435,1.05833 -0.65361,0 -0.91505,0.10422 -0.82963,0.33073 0.0686,0.1819 1.10757,3.54542 2.30883,7.47448 1.20125,3.92906 2.27144,7.30601 2.3782,7.50432 0.12576,0.23363 0.29699,-0.0458 0.48634,-0.79375 0.16074,-0.63488 1.19028,-4.06518 2.28789,-7.6229 1.0976,-3.55773 1.99563,-6.55651 1.99563,-6.66397 0,-0.10746 -0.3754,-0.23269 -0.83423,-0.27829 -0.75907,-0.0754 -0.84006,-0.1723 -0.89897,-1.0751 l -0.0648,-0.99219 h 2.88335 2.88335 v 1.04076 c 0,0.92969 -0.0752,1.0497 -0.70435,1.12448 -0.78315,0.0931 -0.47301,-0.76407 -4.45792,12.3207 l -1.79286,5.88698 h -1.68835 c -1.50949,0 -1.71161,-0.0631 -1.90778,-0.59531 z"
       id="path1903"
       inkscape:connector-curvature="0" />
    <path
       id="path2024"
       style="fill:#941680;fill-opacity:1;stroke-width:0.43283683"
       d="m 417.41133,-349.46644 c -0.44803,-1.07228 -0.58631,-2.1769 -0.40118,-3.20454 0.46627,-2.58796 4.34149,-11.95627 4.94575,-11.95627 0.74755,0 5.62841,11.72891 5.64059,13.5546 0.005,0.78935 -0.19205,1.81193 -0.43849,2.2724 -0.55302,1.03333 -0.0115,1.09713 1.71852,0.20248 1.87635,-0.97031 4.7318,-4.47059 5.26936,-6.45936 0.58963,-2.1813 0.29008,-5.47149 -0.72972,-8.01553 l -0.76489,-1.9081 -0.57962,1.98781 c -0.50517,1.73252 -2.97598,4.9772 -3.43815,4.51502 -0.0911,-0.0911 0.0555,-0.79971 0.32552,-1.57466 0.65105,-1.86758 0.23469,-5.55734 -0.87185,-7.72634 -0.49025,-0.96097 -1.70433,-2.68653 -2.69796,-3.83458 -0.99364,-1.14804 -2.06997,-2.71772 -2.39189,-3.48816 -0.69634,-1.66659 -0.76096,-4.18711 -0.13725,-5.35257 0.65522,-1.22428 -0.10895,-1.02209 -1.4577,0.38566 -1.79204,1.87048 -2.06458,3.44504 -1.2674,7.3222 0.47407,2.30566 0.57645,3.90047 0.32673,5.08927 l -0.3637,1.73135 -0.27619,-1.73135 c -0.34711,-2.1757 -1.49458,-4.38396 -2.57988,-4.9648 -1.22324,-0.65466 -1.32248,-0.58258 -1.32248,0.96068 0,0.83219 -1.08211,3.66104 -2.65063,6.92925 -3.77213,7.85975 -3.84998,10.56639 -0.40085,13.93439 1.42232,1.38886 4.72076,3.36013 5.11313,3.0558 0.0627,-0.0486 -0.19377,-0.82467 -0.5698,-1.72465 z m 7.48951,0.93831 c 1.44364,-1.31088 1.24052,-3.33609 -0.8441,-8.41628 -1.00128,-2.4401 -1.92704,-4.43628 -2.05725,-4.43594 -0.42933,0.001 -3.48298,8.50043 -3.48298,9.69428 0,1.61386 1.15244,3.69277 2.29504,4.1401 1.26427,0.49496 2.89352,0.10372 4.08929,-0.98216 z m -8.46022,1.90424 c -3.77395,-1.40901 -6.7152,-4.437 -7.48068,-7.7013 -0.58798,-2.50732 0.2856,-5.83712 2.8996,-11.05234 1.75811,-3.50759 2.32859,-5.11173 2.32859,-6.54774 0,-2.4014 0.83741,-3.23748 2.58277,-2.57868 l 1.21487,0.45856 0.19425,-2.34248 c 0.216,-2.60462 1.13239,-4.1437 3.37656,-5.67092 1.56856,-1.06743 2.07399,-1.06791 2.74598,-0.003 0.30302,0.48039 0.26346,1.22064 -0.12875,2.40894 -0.75766,2.29574 -0.1595,4.03279 2.42939,7.0558 1.10341,1.28839 2.47632,3.36484 3.05092,4.61436 0.92824,2.01854 1.11705,2.1995 1.69342,1.62312 1.28871,-1.28869 2.27547,-0.4369 3.6355,3.13835 2.04181,5.36743 1.00912,10.37225 -2.87988,13.957 -2.66107,2.45288 -4.29444,3.03692 -9.18458,3.28416 -3.46598,0.17524 -4.57985,0.0645 -6.47799,-0.64421 z m 17.77292,-0.0389 8.55523,-4.92287 -0.11484,-11.84842 -0.11484,-11.84844 -10.1193,-5.8179 c -5.56561,-3.19986 -10.15889,-5.81791 -10.20728,-5.81791 -0.0484,0 -4.6492,2.61786 -10.22404,5.81749 l -10.13604,5.81749 -0.11484,11.83315 -0.11484,11.83318 10.27031,5.92454 10.27034,5.92455 1.74757,-0.986 c 0.96116,-0.54229 5.59744,-3.20128 10.30282,-5.90886 z m -14.9435,8.0327 c -9.26762,-4.95984 -19.19243,-10.98447 -19.67877,-11.94557 -0.39184,-0.77433 -0.54141,-4.35014 -0.54604,-13.05357 -0.007,-11.83098 0.007,-12.00095 0.9675,-13.05298 1.59692,-1.74782 20.68567,-12.53346 22.18288,-12.53392 1.50341,-4.4e-4 20.59579,10.78255 22.18289,12.52849 0.96107,1.05724 0.9738,1.22903 0.9675,13.05841 -0.005,8.65195 -0.15508,12.27674 -0.54105,13.0281 -0.34644,0.6745 -4.03937,3.07024 -10.4899,6.80512 -5.47539,3.17027 -10.49265,5.95481 -11.14947,6.18787 -1.00209,0.35556 -1.62884,0.19114 -3.89554,-1.02195 z m 33.50853,12.89594 c -3.36139,-5.82811 -3.9461,-7.53379 -2.57036,-7.49799 0.43269,0.0115 7.01391,10.84408 7.61453,12.53367 0.074,0.20812 -0.219,0.56758 -0.65104,0.7988 -0.68689,0.36761 -1.23879,-0.36535 -4.39313,-5.83448 z m -17.97859,5.78073 c -0.67669,-0.49482 -0.42458,-1.1051 2.84902,-6.89628 1.97529,-3.49439 3.84101,-6.3632 4.14606,-6.37515 1.35083,-0.0528 0.83419,1.61305 -2.10286,6.78095 -4.24994,7.47802 -3.99828,7.14414 -4.89222,6.49048 z m -6.02199,-1.23602 c -0.89231,-6.65268 3.83174,-14.60921 10.25453,-17.27131 2.22511,-0.92227 2.35942,-1.06189 2.12911,-2.21346 -0.13513,-0.676 -0.0644,-1.2291 0.15705,-1.2291 0.44124,0 5.87712,1.76667 6.15133,1.9992 0.26991,0.22889 -0.78236,1.35207 -3.02864,3.23278 l -2.08138,1.74263 -0.34739,-1.34064 -0.34738,-1.34065 -2.66505,1.33173 c -5.10784,2.55243 -7.95864,7.1331 -8.28449,13.31156 -0.15999,3.03476 -0.30161,3.5709 -0.94274,3.5709 -0.55725,0 -0.81728,-0.46876 -0.99498,-1.79364 z m 31.27041,4.08891 c -0.53456,-1.61949 -1.07004,-3.20988 -1.18997,-3.53424 -0.16981,-0.45918 0.097,-0.52051 1.20539,-0.27705 l 1.42346,0.31265 -0.20879,-3.18564 c -0.32713,-4.99096 -3.02481,-9.50461 -7.11232,-11.90003 -1.03861,-0.60868 -1.8884,-1.36884 -1.8884,-1.68927 0,-2.9679 6.79457,2.19349 9.22831,7.01014 1.28899,2.55107 2.19768,6.70931 1.88594,8.63029 -0.20914,1.28883 -0.11517,1.44257 1.03684,1.69558 0.69677,0.15312 1.25807,0.40887 1.24734,0.56848 -0.0114,0.15967 -1.06271,1.42051 -2.33771,2.80192 l -2.31818,2.51168 z m -21.6214,3.53781 v -1.0923 l 7.46643,0.11844 c 7.37253,0.11696 7.46818,0.13071 7.60475,1.0923 l 0.1384,0.97388 h -7.60475 -7.60475 z m 1.76147,7.16549 c -1.29275,-0.47828 -3.099,-1.38836 -4.01389,-2.02236 l -1.66343,-1.15277 -0.97208,0.91321 -0.97207,0.91322 -0.91379,-3.44433 c -0.51328,-1.93467 -0.72672,-3.44433 -0.48698,-3.44433 0.59327,0 5.65809,1.32696 6.09463,1.59675 0.19627,0.12139 0.0218,0.59075 -0.38768,1.04324 -0.70421,0.77815 -0.70406,0.86743 0.003,1.64836 1.55312,1.71619 4.98595,2.80601 8.90936,2.82843 4.20848,0.024 6.01895,-0.50036 9.14073,-2.64776 1.93833,-1.33334 2.29298,-1.44472 2.84445,-0.89325 0.55147,0.55147 0.41453,0.8007 -1.09839,1.99893 -3.05374,2.41863 -5.46552,3.23475 -10.02111,3.39113 -3.29905,0.11321 -4.57662,-0.0307 -6.46242,-0.72847 z m 16.20126,1.53266 9.95524,-5.78682 0.11516,-11.71969 0.11517,-11.71971 -1.63006,-1.06017 c -4.57755,-2.97718 -18.53985,-10.67141 -19.16235,-10.55981 -0.3938,0.0705 -5.13099,2.66045 -10.52711,5.75523 l -9.81111,5.62687 0.10683,11.84029 0.10682,11.84031 9.95526,5.77239 c 5.47538,3.17481 10.15002,5.77813 10.38808,5.78515 0.23806,0.007 4.9127,-2.5913 10.38809,-5.77404 z m -21.42543,2.54346 c -5.59442,-3.21813 -10.60992,-6.34215 -11.14555,-6.94227 -0.96137,-1.07709 -0.97388,-1.24875 -0.97388,-13.35487 0,-11.05975 0.0744,-12.34919 0.75746,-13.13388 1.21171,-1.39192 21.14599,-12.64374 22.40026,-12.64374 1.57783,0 21.92082,11.74268 22.60838,13.05033 0.3867,0.73545 0.53644,4.35143 0.54105,13.06519 l 0.007,12.04829 -1.40671,1.33033 c -1.78641,1.6894 -20.59277,12.44265 -21.75005,12.43642 -0.47614,-0.003 -5.44293,-2.63767 -11.03735,-5.8558 z m -23.84463,-18.45268 c -0.0213,-0.31337 -0.0699,-2.25573 -0.1083,-4.31635 -0.0648,-3.48299 -0.16326,-3.86362 -1.39987,-5.41046 -0.73163,-0.91515 -2.48464,-2.28445 -3.89553,-3.04287 -1.9955,-1.07271 -2.56527,-1.60145 -2.56527,-2.38061 0,-1.53274 1.55049,-1.48055 4.62005,0.15558 4.16257,2.21861 6.36774,5.80957 6.33316,10.31304 -0.0299,3.90667 -0.39095,4.95708 -1.75748,5.11459 -0.75033,0.0865 -1.20247,-0.073 -1.22684,-0.43285 z m -27.47526,0.0331 c -0.17977,-0.29085 -0.41866,-1.95949 -0.53087,-3.70809 -0.34979,-5.45041 1.91713,-9.34463 6.90564,-11.86281 2.92923,-1.47868 2.71831,-1.44305 3.55989,-0.60145 0.9862,0.98618 0.41027,1.84885 -2.06067,3.08675 -4.43552,2.22208 -5.62599,4.25628 -5.65877,9.66941 -0.0208,3.4298 -0.0856,3.68813 -0.95535,3.81207 -0.51317,0.0731 -1.08011,-0.10503 -1.25987,-0.39588 z m 17.88324,0.68623 c 0.54773,-0.63036 0.97388,-1.69307 0.97388,-2.42852 0,-1.80319 -2.06534,-3.83809 -3.89553,-3.83809 -0.93167,0 -1.76681,0.40171 -2.63031,1.26522 -1.72127,1.72126 -1.70281,3.55781 0.0533,5.314 1.1393,1.13931 1.53657,1.2839 2.92165,1.06341 0.95638,-0.1523 1.99592,-0.70733 2.57693,-1.37602 z m -19.08088,7.29561 c -0.15868,-0.15868 -0.28856,-0.69855 -0.28856,-1.19966 0,-0.70337 1.09669,-1.55043 4.81009,-3.71518 l 4.81008,-2.80408 0.073,-1.96235 c 0.0946,-2.5429 1.39479,-4.72144 3.53246,-5.91891 l 1.70723,-0.95635 0.21641,-5.53644 0.21642,-5.53645 h 1.08209 1.0821 l 0.21641,5.53645 0.21642,5.53644 1.70723,0.95635 c 2.3282,1.3042 3.46474,3.36881 3.42353,6.21915 l -0.0327,2.26796 4.72464,2.66838 c 3.93435,2.22207 4.70258,2.82299 4.59281,3.59261 -0.2416,1.69414 -1.87655,1.3389 -6.63287,-1.44118 l -4.52621,-2.64558 -1.261,0.9323 c -1.81556,1.3423 -5.1717,1.28316 -7.29906,-0.12858 l -1.59864,-1.0609 -4.68947,2.74229 c -4.57591,2.67589 -5.49101,3.04507 -6.08233,2.45375 z m 13.62573,5.88296 c -3.24206,-0.63743 -7.72378,-3.75016 -7.23467,-5.02475 0.13513,-0.35225 0.24577,-0.7219 0.24577,-0.82146 0,-0.6477 2.08795,0.0499 3.91877,1.3093 2.31152,1.59005 5.06577,2.25435 7.30636,1.76223 0.74235,-0.1631 2.35177,-0.97077 3.57646,-1.79493 2.47842,-1.66785 3.95225,-1.76574 4.16391,-0.27657 0.10928,0.76838 -0.40074,1.31229 -2.5062,2.67309 -2.19216,1.41687 -6.03901,2.78545 -7.28283,2.59097 -0.16683,-0.026 -1.15123,-0.21412 -2.18757,-0.41788 z m 13.04079,1.98025 9.82326,-5.62689 v -11.90301 -11.90301 l -9.82326,-5.62687 c -5.40278,-3.09479 -10.12324,-5.67399 -10.4899,-5.73156 -0.36664,-0.0576 -5.1465,2.4996 -10.62189,5.68259 l -9.95524,5.78725 v 11.7916 11.7916 l 9.95524,5.78725 c 5.47539,3.18299 10.25525,5.74016 10.62189,5.68259 0.36666,-0.0576 5.08712,-2.63676 10.4899,-5.73154 z m -21.74286,2.60106 c -5.58441,-3.20926 -10.4975,-6.17904 -10.91798,-6.59952 -0.69395,-0.69396 -0.76772,-1.92378 -0.79937,-13.32688 -0.0191,-6.90931 0.0764,-12.85231 0.21237,-13.20666 0.33545,-0.87416 21.5002,-12.96811 22.69455,-12.96811 1.12307,0 21.12737,11.37839 22.2289,12.64374 0.68368,0.78537 0.75746,2.08329 0.75746,13.32647 0,11.24205 -0.0738,12.54148 -0.75746,13.32947 -1.12982,1.30229 -21.10419,12.64108 -22.26417,12.63863 -0.55046,-10e-4 -5.56988,-2.62787 -11.1543,-5.83714 z"
       inkscape:connector-curvature="0"
       sodipodi:nodetypes="ccscccccccccccccccccccsccccccscscccccscccsccccccsccccccccsscccccccccccccccccccsccsscccsccccssccccccsccccccccscccccccccccccccccccccsccccssccccccccccscccscccccscscccccccccccsccccccccccccccsssccccssccccccccccccccccccccccssccsccsccccscccscscccscscsccscsccc" />
    <path
       id="path1901"
       style="fill:#941680;fill-opacity:1;stroke-width:0.26458332"
       d="m 583.79615,-352.54714 v -0.66146 h 5.42395 5.42396 v 0.66146 0.66145 h -5.42396 -5.42395 z m -6.73156,9.18754 c -0.24759,-0.24759 -0.15176,-4.08633 0.13282,-5.32075 0.78546,-3.40701 3.53157,-6.7372 6.81189,-8.26072 1.90948,-0.88685 1.93131,-0.90846 1.79877,-1.78102 -0.0942,-0.62043 -0.0396,-0.84741 0.18373,-0.76275 0.17484,0.0663 1.18109,0.3979 2.23612,0.73691 1.05502,0.33902 1.91823,0.69749 1.91823,0.79659 0,0.31942 -3.36287,3.14375 -3.53648,2.97015 -0.0922,-0.0922 -0.16769,-0.4455 -0.16769,-0.78505 0,-0.83854 -0.52699,-0.79057 -2.42428,0.22067 -1.90494,1.01532 -3.8953,3.12687 -4.88446,5.18186 -0.61389,1.27537 -0.74972,1.95455 -0.84182,4.20947 -0.0952,2.33064 -0.17438,2.70563 -0.59452,2.8155 -0.26658,0.0697 -0.55112,0.0603 -0.63231,-0.0209 z m 22.3589,1.46193 c -0.33902,-1.05502 -0.68007,-2.08587 -0.75789,-2.29077 -0.11185,-0.2945 0.0618,-0.33956 0.8289,-0.21507 l 0.9704,0.15747 v -1.13788 c 0,-4.11691 -2.2232,-8.0568 -5.69407,-10.09086 -1.01354,-0.59398 -1.1408,-0.76181 -0.90779,-1.19719 0.26517,-0.49548 0.29473,-0.49427 1.37411,0.0564 1.79596,0.91623 4.0742,3.28982 5.07197,5.28424 0.97712,1.95316 1.63054,5.03557 1.36617,6.44478 -0.15741,0.83905 -0.11908,0.89377 0.77671,1.10892 l 0.94229,0.22632 -1.53084,1.76767 c -0.84197,0.97221 -1.59671,1.77588 -1.67721,1.78593 -0.0805,0.0101 -0.42373,-0.84492 -0.76275,-1.89995 z m -7.5167,3.16653 c -0.387,-0.28737 -0.15466,-0.80684 2.14647,-4.799 1.41926,-2.46222 2.69833,-4.51411 2.8424,-4.55976 0.14407,-0.0457 0.42792,0.022 0.63078,0.15028 0.29209,0.18476 -0.169,1.17582 -2.21602,4.76311 -1.42167,2.49139 -2.67143,4.58331 -2.77725,4.64871 -0.10582,0.0654 -0.38769,-0.0261 -0.62638,-0.20334 z m -8.5809,-4.29212 c -2.54806,-4.42675 -2.64181,-4.64416 -2.12246,-4.9221 0.41629,-0.2228 0.59709,-0.20707 0.77317,0.0673 0.98456,1.53383 4.99455,8.67069 4.99455,8.88914 0,0.22119 -0.57175,0.59703 -0.90824,0.59703 -0.0392,0 -1.27082,-2.08409 -2.73702,-4.63132 z m 2.9838,9.29226 c -1.85706,-0.498 -2.45566,-0.76947 -4.00965,-1.81847 l -1.36381,-0.92062 -0.64244,0.64244 -0.64244,0.64245 -0.57701,-2.19868 c -0.31735,-1.20928 -0.5754,-2.28039 -0.57343,-2.38026 0.002,-0.0999 0.86677,0.0528 1.9218,0.33924 2.86656,0.77832 2.74254,0.69322 2.06364,1.41588 l -0.59532,0.63368 1.13511,0.82227 c 2.75742,1.99746 7.49369,2.43951 10.64846,0.99384 0.84925,-0.38917 1.99408,-1.06398 2.54408,-1.49959 0.9723,-0.77007 1.01245,-0.77826 1.44937,-0.29547 0.4299,0.47504 0.38411,0.54328 -1.05733,1.57547 -0.82869,0.59341 -2.17574,1.33306 -2.99345,1.64367 -1.8638,0.70798 -5.43754,0.90563 -7.30758,0.40415 z m 9.96702,1.1253 c 3.83147,-2.20184 7.17467,-4.18482 7.42933,-4.40663 0.42247,-0.36797 0.46302,-1.12669 0.46302,-8.66426 0,-6.46671 -0.0749,-8.32314 -0.34487,-8.54719 -0.18968,-0.15742 -3.54964,-2.13305 -7.46657,-4.39029 -6.40434,-3.69068 -7.17579,-4.06961 -7.65877,-3.76191 -0.29539,0.18819 -3.60294,2.10129 -7.3501,4.25133 l -6.81302,3.90917 v 8.5578 8.55779 l 2.4474,1.42671 c 3.90903,2.27878 12.23272,7.07068 12.28213,7.07076 0.0248,4e-5 3.17998,-1.80144 7.01145,-4.00328 z m -14.99534,1.36626 c -4.0562,-2.32352 -7.62027,-4.46995 -7.92017,-4.76985 -0.52952,-0.52952 -0.54526,-0.80835 -0.54526,-9.65869 0,-8.76429 0.0203,-9.13328 0.52917,-9.63166 0.8717,-0.8537 15.29772,-9.01892 15.93664,-9.02024 0.77678,-0.002 14.80674,8.04663 15.74721,9.03333 l 0.7276,0.76338 v 8.71462 c 0,5.96302 -0.0953,8.92379 -0.30182,9.37705 -0.36665,0.80472 -15.13859,9.41665 -16.15226,9.41665 -0.35542,0 -3.96492,-1.90107 -8.02111,-4.22459 z m -29.10331,-3.64677 c -0.49171,-1.20272 -0.69621,-2.34127 -0.55431,-3.08605 0.0856,-0.4491 0.83248,-2.5773 1.65982,-4.72933 1.12719,-2.93198 1.60786,-3.89282 1.91757,-3.83318 0.25593,0.0493 1.09161,1.69036 2.1946,4.30966 1.88632,4.47946 2.19218,6.0576 1.3947,7.19616 -0.39166,0.55917 -0.38266,0.56549 0.46127,0.32345 0.47341,-0.13577 0.89639,-0.24685 0.93997,-0.24685 0.33815,0 2.86765,-2.71679 3.31957,-3.56536 0.87964,-1.65175 0.81542,-5.06368 -0.13211,-7.01798 -0.61424,-1.26688 -0.70841,-1.35994 -0.7276,-0.7191 -0.0343,1.14641 -0.6611,2.35358 -1.74705,3.36494 -0.9346,0.87041 -0.98261,0.88631 -0.79911,0.26458 0.10737,-0.3638 0.25377,-1.37583 0.32533,-2.24896 0.17546,-2.14086 -0.55074,-4.0114 -2.45236,-6.31683 -2.26639,-2.74765 -3.03015,-5.01669 -2.2066,-6.55551 0.53345,-0.99676 -0.0577,-0.88782 -1.06972,0.19711 -1.26586,1.35707 -1.53622,2.6671 -0.95463,4.62555 0.46294,1.55888 0.5448,4.13277 0.15083,4.74239 -0.19308,0.29877 -0.25748,0.17226 -0.26053,-0.51178 -0.006,-1.27451 -0.97141,-3.13175 -1.87009,-3.59648 -0.41443,-0.21431 -0.80386,-0.38966 -0.86539,-0.38966 -0.0615,0 -0.12311,0.5598 -0.13685,1.244 -0.0194,0.96815 -0.37242,1.92207 -1.59186,4.30186 -1.64576,3.21176 -2.42293,5.38207 -2.41322,6.73914 0.0136,1.89707 1.66587,4.13001 3.92787,5.3082 1.47958,0.77065 1.73733,0.80526 1.4899,0.20003 z m -0.43084,1.3719 c -1.66484,-0.51262 -3.60616,-1.8644 -4.64601,-3.23511 -1.99206,-2.6259 -1.79006,-4.93531 0.90329,-10.32679 1.48132,-2.96529 1.75778,-3.73078 1.74132,-4.82171 -0.0275,-1.82511 0.58704,-2.19374 2.39622,-1.43728 0.43558,0.18213 0.47246,0.11355 0.31773,-0.59092 -0.43297,-1.97128 1.31569,-5.06138 3.12053,-5.51437 1.13824,-0.28568 1.70074,0.39493 1.28244,1.55171 -0.72644,2.00896 -0.3002,3.39029 1.81863,5.89355 1.34368,1.58748 2.62199,3.91622 2.6291,4.78951 0.003,0.36882 0.0808,0.32682 0.33735,-0.18205 0.1834,-0.3638 0.59532,-0.69911 0.91538,-0.74512 0.73065,-0.10504 1.45455,1.00452 2.18735,3.35268 1.23783,3.96642 0.0991,7.60424 -3.11283,9.94427 -1.2572,0.91592 -2.47597,1.31298 -4.96136,1.61632 l -1.32292,0.16146 1.38906,-1.3181 c 1.20479,-1.14324 1.38938,-1.45316 1.39146,-2.33616 0.002,-0.99019 -2.55171,-7.76493 -2.92733,-7.76493 -0.28562,0 -2.6314,6.5441 -2.63032,7.33789 10e-4,0.81431 0.75501,2.20498 1.79528,3.31159 l 0.68398,0.7276 -1.04169,-0.0184 c -0.57293,-0.0101 -1.59293,-0.18816 -2.26666,-0.39561 z m 10.61768,0.87778 c 3.27422,-1.88133 6.39961,-3.70949 6.94531,-4.06259 l 0.99219,-0.64199 v -8.28962 c 0,-7.56747 -0.0403,-8.32414 -0.46302,-8.686 -0.41909,-0.35878 -2.95626,-1.83877 -11.56544,-6.74639 l -2.90033,-1.65332 -1.68378,0.94162 c -0.92607,0.51789 -4.20483,2.40577 -7.28612,4.19529 l -5.60235,3.25368 v 8.65725 8.65725 l 7.26557,4.18401 c 6.23004,3.58768 7.34248,4.14321 7.80521,3.89771 0.2968,-0.15746 3.21854,-1.82557 6.49276,-3.7069 z m -8.33438,5.17652 c -2.99586,-1.60018 -14.12189,-8.15866 -14.55208,-8.57803 -0.50492,-0.49222 -0.53268,-0.91806 -0.60577,-9.29233 -0.0503,-5.76398 0.0198,-9.00828 0.20434,-9.45183 0.21011,-0.5051 2.21415,-1.79264 7.94917,-5.10713 4.42139,-2.5553 7.95266,-4.43177 8.33997,-4.43177 0.86083,0 15.28614,8.28758 15.99593,9.18993 0.5034,0.63998 0.52782,1.07916 0.52782,9.4947 v 8.82369 l -0.72761,0.77122 c -0.90939,0.96391 -15.03248,9.03055 -15.78543,9.01611 -0.30392,-0.006 -0.90977,-0.20137 -1.34634,-0.43456 z m -23.51373,-16.8024 c -0.4269,-0.23891 -0.46084,-0.50065 -0.30021,-2.31523 0.12206,-1.3789 0.0719,-2.41021 -0.15374,-3.16345 -0.49124,-1.63961 -2.16519,-3.39887 -3.98505,-4.18812 -1.58942,-0.68931 -2.10631,-1.38517 -1.53777,-2.07021 0.45521,-0.5485 0.8623,-0.48544 2.63139,0.40759 3.95531,1.99664 5.49136,5.00742 4.91366,9.63117 -0.20237,1.61968 -0.71559,2.17543 -1.56828,1.69825 z m -19.84977,-0.0293 c -0.70106,-0.51262 -0.89471,-4.45866 -0.30582,-6.23164 0.72219,-2.17429 2.16321,-3.76934 4.48276,-4.96189 1.61193,-0.82873 2.09606,-0.97313 2.47162,-0.73719 0.90479,0.56845 0.54636,1.25198 -1.12047,2.13675 -1.92659,1.02267 -3.04102,2.04598 -3.72118,3.41692 -0.41776,0.84206 -0.50048,1.50565 -0.4493,3.60426 0.0553,2.26921 0.005,2.60301 -0.42653,2.83402 -0.33953,0.1817 -0.62448,0.16297 -0.93108,-0.0612 z m 12.43372,0.50232 c 1.01902,-1.01902 1.16732,-2.04852 0.48513,-3.36773 -0.49205,-0.95152 -1.97549,-1.65177 -3.01536,-1.42337 -0.9495,0.20854 -2.07801,1.40112 -2.26441,2.39297 -0.18633,0.99148 0.56386,2.51119 1.46089,2.95941 1.22425,0.61172 2.35034,0.42213 3.33375,-0.56128 z m 4.8865,3.43298 -3.28911,-1.91905 -1.07651,0.61568 c -0.75246,0.43035 -1.49988,0.61665 -2.48297,0.61887 -1.46519,0.003 -2.18476,-0.24912 -3.11251,-1.09197 -0.54465,-0.4948 -0.58483,-0.47977 -3.96875,1.4842 -1.88019,1.09123 -3.6227,1.98589 -3.87224,1.98813 -0.24954,0.002 -0.57969,-0.23132 -0.73367,-0.51902 -0.39375,-0.73573 0.0687,-1.1288 3.84024,-3.26425 l 3.179,-1.79993 -0.10108,-1.05991 c -0.20163,-2.11426 1.12748,-4.18177 3.19314,-4.96713 l 0.71949,-0.27355 0.0731,-4.04075 c 0.066,-3.64606 0.11955,-4.04967 0.54882,-4.13208 1.09106,-0.20946 1.24406,0.33832 1.24406,4.454 v 3.90767 l 0.6566,0.1648 c 0.98657,0.24761 2.44717,1.65317 2.78657,2.68156 0.16526,0.50075 0.26837,1.51541 0.22912,2.25481 l -0.0713,1.34435 3.29276,1.90126 c 2.58551,1.4929 3.31194,2.03646 3.38205,2.53069 0.0857,0.60421 -0.32644,1.09867 -0.88304,1.05935 -0.14552,-0.0103 -1.74469,-0.88226 -3.5537,-1.93773 z m -9.86533,5.42055 c -1.88245,-0.73591 -3.9567,-2.34778 -3.85912,-2.99886 0.17262,-1.15187 0.87033,-1.15767 2.50777,-0.0208 3.30012,2.29113 5.3179,2.26626 8.76689,-0.10806 1.50693,-1.03738 2.21129,-0.9956 2.38118,0.14127 0.10115,0.67682 -2.58589,2.59516 -4.39964,3.14102 -1.63892,0.49324 -3.90621,0.42833 -5.39708,-0.15451 z m 10.50954,1.96221 c 3.49199,-2.00797 6.55744,-3.77951 6.8121,-3.93674 0.42544,-0.26267 0.46302,-0.97623 0.46302,-8.79231 v -8.50645 l -2.71198,-1.56935 c -1.49159,-0.86314 -4.81563,-2.78837 -7.38676,-4.27827 l -4.67478,-2.70893 -7.36376,4.23418 -7.36376,4.23418 -0.0699,8.3841 c -0.0482,5.78459 0.02,8.49239 0.21995,8.73336 0.15942,0.19209 0.90525,0.70018 1.65741,1.12909 0.75215,0.42891 3.97637,2.28138 7.16493,4.11661 5.31558,3.05948 5.84339,3.30664 6.35093,2.97409 0.30444,-0.19948 3.41062,-2.00558 6.90261,-4.01356 z m -15.71131,1.58978 c -4.12957,-2.39446 -7.66789,-4.56386 -7.86294,-4.82089 -0.28,-0.36899 -0.3564,-2.36818 -0.36305,-9.5 -0.008,-8.22826 0.0328,-9.08065 0.45461,-9.57141 0.25466,-0.29631 3.32052,-2.17712 6.81302,-4.17958 3.4925,-2.00245 6.82625,-3.9149 7.40833,-4.24988 0.58208,-0.33498 1.35923,-0.61048 1.727,-0.61224 0.76794,-0.004 15.22196,8.1899 15.93394,9.03248 0.42112,0.49838 0.46302,1.3609 0.46302,9.53188 0,5.34336 -0.10477,9.17967 -0.25855,9.467 -0.14219,0.2657 -0.76727,0.77479 -1.38906,1.13131 -0.62178,0.35652 -4.05919,2.33395 -7.63868,4.3943 -3.57949,2.06036 -6.79418,3.74261 -7.14375,3.73834 -0.34957,-0.004 -4.01432,-1.96685 -8.14389,-4.36131 z"
       inkscape:connector-curvature="0" />
    <path
       id="path1917"
       style="fill:#941680;fill-opacity:1;stroke-width:0.26458335"
       d="m 616.99337,-219.42835 c -2.20886,-1.21434 -3.83066,-3.93957 -3.8324,-6.43987 -0.002,-2.09099 0.34832,-3.26181 1.43684,-4.80941 2.71121,-3.85468 3.30539,-4.84507 3.69126,-6.15267 0.23325,-0.7904 0.42409,-1.77266 0.42409,-2.18282 0,-0.41015 0.13138,-0.74572 0.29195,-0.74572 0.16057,0 1.0942,0.80367 2.07472,1.78593 1.98168,1.98521 2.92499,3.92964 2.92499,6.0292 0,0.64938 0.10449,1.1807 0.23219,1.1807 0.35515,0 0.84153,-0.68016 1.0537,-1.47348 0.17764,-0.66423 0.25142,-0.58214 1.06697,1.18722 1.22258,2.65244 1.55673,5.00049 0.98934,6.95222 -0.54233,1.86556 -1.78624,3.50577 -3.3422,4.40699 l -1.19062,0.68963 0.72768,-0.8746 c 1.51944,-1.8262 1.35739,-3.70754 -0.56437,-6.55215 -0.78693,-1.16483 -1.42538,-2.44049 -1.52114,-3.03931 -0.19085,-1.1935 -0.33371,-1.25132 -1.07864,-0.43663 -0.96533,1.05573 -1.47686,2.40196 -1.60774,4.23123 -0.0704,0.98343 -0.22794,1.78805 -0.35017,1.78805 -0.32554,0 -1.02769,-1.46306 -1.04127,-2.16967 -0.0213,-1.1074 -1.07721,1.30166 -1.23326,2.81363 -0.14433,1.39842 0.23673,2.57335 1.18557,3.65552 0.46688,0.53248 0.40191,0.56251 -0.33749,0.15601 z m 9.92187,3.26897 6.74688,-3.90971 0.0699,-8.06142 0.0699,-8.06142 -6.91499,-3.99178 -6.91499,-3.99178 -6.91322,3.99692 -6.91323,3.99691 -0.07,7.98376 -0.07,7.98376 0.73146,0.42556 c 9.37442,5.45403 12.95059,7.49507 13.16688,7.51478 0.14552,0.0133 3.30067,-1.73525 7.01145,-3.88558 z m 6.71292,11.68196 c -0.89638,-2.14533 -1.01894,-5.10776 -0.32468,-7.84738 0.20988,-0.8282 0.35952,-0.99389 0.83629,-0.92604 0.41086,0.0585 0.60517,0.29549 0.66443,0.8105 0.0717,0.62298 0.54833,1 3.30729,2.61593 3.33493,1.95327 4.14958,2.52717 4.14958,2.92322 0,0.73128 -1.12708,0.33524 -4.2039,-1.47718 -1.87834,-1.10644 -3.48681,-2.01172 -3.57438,-2.01172 -0.0876,0 -0.15922,0.21532 -0.15922,0.47849 0,0.32793 0.83967,0.96418 2.66863,2.02214 2.65054,1.53319 3.19992,2.05541 2.69426,2.56107 -0.17512,0.17512 -0.96366,-0.15024 -2.34863,-0.96905 -3.14471,-1.85921 -3.01426,-1.80682 -3.01426,-1.2107 0,0.35119 0.51398,0.83155 1.5875,1.48368 1.51298,0.91909 1.91444,1.4865 1.31421,1.85747 -0.15031,0.0929 -0.68609,-0.0746 -1.19062,-0.37234 -0.93624,-0.55239 -1.13161,-0.39551 -0.64344,0.51664 0.24329,0.45459 0.18265,0.51177 -0.54267,0.51177 -0.68963,0 -0.87933,-0.15023 -1.22039,-0.9665 z m -7.85945,5.8172 c -0.48313,-0.48314 -0.0311,-1.21088 1.4381,-2.31531 2.05945,-1.54811 4.20658,-2.18106 8.14273,-2.40037 3.42196,-0.19065 5.06707,-0.69542 6.91153,-2.12064 2.456,-1.89776 2.36102,-1.85218 2.84702,-1.36617 0.40231,0.40231 0.37745,0.49309 -0.34036,1.24231 -0.42591,0.44456 -1.33902,1.17061 -2.02913,1.61345 -2.23168,1.43207 -3.75899,1.85511 -7.56238,2.09468 -3.91383,0.24653 -5.50143,0.76901 -7.62556,2.50957 -1.13182,0.92745 -1.46017,1.06426 -1.78195,0.74248 z m 10.48826,5.9727 c -0.1675,-0.1675 -0.25633,-0.43887 -0.19739,-0.60304 0.0589,-0.16416 -1.61322,-1.31051 -3.71588,-2.54744 -2.10267,-1.23693 -3.87952,-2.38908 -3.94856,-2.56034 -0.069,-0.17126 0.0241,-0.43556 0.20695,-0.58732 0.24385,-0.20238 1.27997,0.28533 3.88687,1.82957 1.95493,1.15802 3.6437,2.10692 3.75284,2.10866 0.10914,0.002 0.19601,-0.20518 0.19305,-0.45984 -0.004,-0.30724 -0.98276,-1.03472 -2.91042,-2.16228 -1.59776,-0.93459 -2.90502,-1.86106 -2.90502,-2.05882 0,-0.79286 0.83801,-0.56942 3.17167,0.84564 1.34558,0.81593 2.50297,1.42703 2.57199,1.35801 0.34657,-0.34657 -0.31993,-1.16817 -1.47113,-1.81348 -1.61157,-0.90338 -2.09007,-1.43393 -1.67109,-1.85291 0.22841,-0.22841 0.57288,-0.15226 1.39089,0.30749 1.04864,0.58937 1.07695,0.59177 0.79644,0.0676 -0.41629,-0.77784 -0.37897,-0.84284 0.48388,-0.84284 0.69431,0 0.82987,0.14733 1.3057,1.4191 0.72301,1.93243 0.91003,4.20223 0.50414,6.11878 -0.33862,1.59892 -0.81091,2.06745 -1.44493,1.43344 z m 5.73952,2.71824 6.74688,-3.89543 0.0699,-8.07709 0.0699,-8.07708 -6.93954,-4.01539 c -6.29591,-3.64297 -6.9895,-3.98266 -7.47823,-3.66249 -0.29628,0.1941 -3.36642,1.98791 -6.82254,3.98624 l -6.28385,3.63334 10e-4,8.11178 10e-4,8.11177 4.29806,2.44904 c 2.36393,1.34698 5.36963,3.09415 6.67931,3.88261 1.30969,0.78846 2.50032,1.43684 2.64584,1.44085 0.14552,0.004 3.30067,-1.74566 7.01146,-3.88815 z m -38.1,-1.07618 c 0,-0.39302 -0.26717,-0.53856 -1.25677,-0.68466 -3.18231,-0.4698 -5.61376,-3.14751 -5.62092,-6.1902 -0.001,-0.60303 0.0596,-0.6227 1.58739,-0.51219 2.11585,0.15305 3.56548,1.14006 4.56269,3.10661 l 0.72761,1.43487 -0.0155,-2.36255 -0.0155,-2.36255 -1.36761,-0.67018 c -1.01433,-0.49705 -1.5742,-1.00395 -2.1673,-1.96224 -0.75274,-1.21623 -0.80486,-1.47581 -0.88798,-4.42305 l -0.0883,-3.13099 h 1.21279 1.21278 v -2.11163 c 0,-2.03465 0.0242,-2.1177 0.6649,-2.2785 1.12925,-0.28342 1.45177,0.25822 1.45177,2.43815 v 1.95198 h 1.19062 1.19063 v -2.11163 c 0,-2.03123 0.0252,-2.11794 0.66087,-2.27749 1.27576,-0.3202 1.4558,-0.0402 1.4558,2.26415 v 2.12497 h 1.19062 1.19063 v 2.549 c 0,1.40194 -0.13818,3.01019 -0.30707,3.57388 -0.41794,1.39496 -1.83854,2.9858 -3.12647,3.50113 l -1.06438,0.42588 0.0106,2.31724 0.0105,2.31725 0.52049,-1.04326 c 1.05697,-2.1186 2.91505,-3.32236 5.12825,-3.32236 h 1.26942 l -0.18794,1.25328 c -0.45877,3.05932 -2.70659,5.25938 -5.54137,5.42364 -1.05447,0.0611 -1.20749,0.14532 -1.20863,0.66526 -10e-4,0.52898 -0.13399,0.59532 -1.19193,0.59532 -0.99035,0 -1.19063,-0.084 -1.19063,-0.49913 z m 7.9375,1.05524 6.74688,-3.91703 0.0699,-8.04298 0.0699,-8.04298 -6.73138,-3.8962 c -3.70225,-2.14291 -6.84831,-3.92885 -6.99125,-3.96875 -0.14293,-0.0399 -3.36586,1.71338 -7.16207,3.8962 l -6.90219,3.96875 0.0653,8.0235 0.0652,8.0235 6.74688,3.92719 c 3.71078,2.15995 6.86594,3.93138 7.01146,3.93651 0.14552,0.005 3.30068,-1.75334 7.01146,-3.90771 z m -7.64236,14.35801 c -0.5268,-0.36898 -0.55973,-0.62111 -0.55973,-4.28649 v -3.89444 l -5.47806,-3.16816 c -3.01293,-1.74249 -6.1443,-3.5486 -6.9586,-4.01359 l -1.48053,-0.84543 -2.50026,1.46567 c -4.02768,2.36104 -4.41473,2.53018 -5.03301,2.19928 -0.40191,-0.21509 -0.5199,-0.5019 -0.45926,-1.11641 0.0747,-0.75681 0.36774,-0.99265 3.45503,-2.78043 l 3.37344,-1.95348 v -8.69921 -8.69921 l 2.4474,-1.443 c 1.34607,-0.79364 4.70958,-2.75095 7.47448,-4.34955 l 5.02708,-2.90656 0.0676,-8.03187 0.0676,-8.03188 -2.81908,-1.5875 c -1.55049,-0.87312 -3.09897,-1.8045 -3.44106,-2.06972 -0.97462,-0.75562 -0.69754,-2.2959 0.41302,-2.2959 0.22,0 1.88135,0.84421 3.69189,1.87603 2.70283,1.54032 3.39116,1.83027 3.84657,1.62032 0.48843,-0.22518 9.24039,-5.25656 12.26248,-7.04952 l 1.12448,-0.66714 v -3.82407 c 0,-4.11744 0.20327,-4.77855 1.41541,-4.60356 0.97437,0.14067 1.22234,1.14834 1.22652,4.98412 l 0.004,3.58097 0.7276,0.41707 c 11.86469,6.80091 13.89176,8.04162 14.12023,8.64254 0.13595,0.35755 0.23752,4.34355 0.22573,8.85778 l -0.0214,8.20769 6.80278,3.92784 c 3.74152,2.16032 6.85934,3.92785 6.92847,3.92785 0.0691,0 1.18059,-0.60367 2.46989,-1.34148 2.44182,-1.39735 3.22321,-1.50695 3.54374,-0.49707 0.30183,0.95099 -0.12283,1.43457 -2.38494,2.71584 l -2.24957,1.27416 v 8.119 8.119 l 1.2284,0.65167 c 2.62692,1.39357 3.5341,2.0939 3.5341,2.72827 0,0.73724 -0.45791,1.24936 -1.11712,1.24936 -0.26516,0 -1.50429,-0.58408 -2.75361,-1.29796 l -2.27151,-1.29795 -1.49294,0.86869 c -9.836,5.72319 -13.11799,7.54806 -13.57511,7.54806 -0.29838,0 -3.71462,-1.83659 -7.59163,-4.08131 -3.87702,-2.24471 -7.18404,-4.11995 -7.34894,-4.16719 -0.1649,-0.0472 -3.4054,1.70006 -7.2011,3.88287 l -6.90128,3.96875 -0.075,4.07103 c -0.0714,3.88107 -0.10129,4.08077 -0.63969,4.27965 -0.36774,0.13584 -0.76002,0.0718 -1.12448,-0.18343 z"
       inkscape:connector-curvature="0" />
  </g>
</svg>
