<?xml version="1.0" encoding="UTF-8" standalone="no"?>
<!-- Created with Inkscape (http://www.inkscape.org/) -->

<svg
   xmlns:osb="http://www.openswatchbook.org/uri/2009/osb"
   xmlns:dc="http://purl.org/dc/elements/1.1/"
   xmlns:cc="http://creativecommons.org/ns#"
   xmlns:rdf="http://www.w3.org/1999/02/22-rdf-syntax-ns#"
   xmlns:svg="http://www.w3.org/2000/svg"
   xmlns="http://www.w3.org/2000/svg"
   xmlns:sodipodi="http://sodipodi.sourceforge.net/DTD/sodipodi-0.dtd"
   xmlns:inkscape="http://www.inkscape.org/namespaces/inkscape"
   inkscape:version="0.92.3 (2405546, 2018-03-11)"
   sodipodi:docname="CIW.svg"
   viewBox="0 0 589.6627 1463.9885"
   height="387.34695mm"
   width="156.01492mm"
   id="svg2"
   version="1.1"
   inkscape:export-filename="D:\Flori\Offiziell\OvGU\FaRa\Logo.png"
   inkscape:export-xdpi="162"
   inkscape:export-ydpi="162">
  <sodipodi:namedview
     units="mm"
     inkscape:current-layer="g6920"
     inkscape:window-maximized="1"
     inkscape:window-y="-8"
     inkscape:window-x="-8"
     inkscape:cy="1005.986"
     inkscape:cx="-775.09552"
     inkscape:zoom="0.125"
     showgrid="false"
     id="namedview4"
     inkscape:window-height="1017"
     inkscape:window-width="1920"
     inkscape:pageshadow="2"
     inkscape:pageopacity="0"
     guidetolerance="10"
     gridtolerance="10"
     objecttolerance="10"
     borderopacity="1"
     bordercolor="#666666"
     pagecolor="#ffffff"
     showguides="false"
     fit-margin-top="0"
     fit-margin-left="0"
     fit-margin-right="0"
     fit-margin-bottom="0" />
  <metadata
     id="metadata8">
    <rdf:RDF>
      <cc:Work
         rdf:about="">
        <dc:format>image/svg+xml</dc:format>
        <dc:type
           rdf:resource="http://purl.org/dc/dcmitype/StillImage" />
        <dc:title></dc:title>
      </cc:Work>
    </rdf:RDF>
  </metadata>
  <defs
     id="defs6">
    <linearGradient
       osb:paint="solid"
       id="linearGradient4047">
      <stop
         id="stop4045"
         offset="0"
         style="stop-color:#941680;stop-opacity:1;" />
    </linearGradient>
    <linearGradient
       osb:paint="solid"
       id="linearGradient3784">
      <stop
         id="stop3782"
         offset="0"
         style="stop-color:#941680;stop-opacity:1;" />
    </linearGradient>
  </defs>
  <g
     id="g5920"
     inkscape:export-xdpi="162"
     inkscape:export-ydpi="162"
     transform="translate(-2979.7369,-465.70526)">
    <g
       transform="translate(3.460182e-5)"
       id="g5756">
      <path
         inkscape:export-ydpi="162.80484"
         inkscape:export-xdpi="162.80484"
         style="fill:#941680;fill-opacity:1;stroke:#941680;stroke-width:0.28967798;stroke-opacity:1"
         d="m 3428.9284,971.79675 c 0,-0.10384 4.439,-12.46771 9.8642,-27.47531 5.4253,-15.00764 9.8248,-27.5625 9.7768,-27.8997 l -0.086,-0.61312 -17.0188,-0.0745 c -9.3602,-0.0411 -17.0165,-0.17172 -17.0142,-0.28965 0,-0.25054 0.3676,-0.71126 15.2225,-19.3526 6.2033,-7.78461 15.4894,-19.43802 20.6353,-25.89654 5.1463,-6.45849 13.0787,-16.41119 17.6278,-22.11715 4.5491,-5.70592 8.3276,-10.31801 8.3966,-10.24907 0.069,0.069 -0.9771,3.17322 -2.3245,6.89833 -14.0626,38.87918 -17.2814,47.9183 -17.2051,48.31476 0.081,0.41493 1.8182,0.46898 17.2483,0.53617 9.4376,0.0411 17.1594,0.13491 17.1594,0.20883 0,0.14009 -61.1771,77.03118 -61.8795,77.77414 -0.2215,0.23328 -0.4013,0.33922 -0.4013,0.23529 z"
         id="path968-5-7-57"
         inkscape:connector-curvature="0" />
      <path
         inkscape:export-ydpi="162.80484"
         inkscape:export-xdpi="162.80484"
         inkscape:connector-curvature="0"
         id="path1190-8-4-3"
         d="m 2986.928,906.86348 c 0,158.85702 128.7774,287.63912 287.6393,287.63912 53.9245,0 101.129,-36.2177 115.0858,-88.3047 13.9568,-52.087 -8.812,-107.05673 -55.512,-134.01882 -46.7,-26.96238 -105.6861,-19.19761 -143.8166,18.93287 -34.0744,34.07435 -85.3243,44.26715 -129.8448,25.82625 -44.5205,-18.44095 -73.5471,-61.88157 -73.5517,-110.07472 z"
         style="opacity:1;fill:#941680;fill-opacity:1;stroke:#941680;stroke-width:14.38223648;stroke-miterlimit:4;stroke-dasharray:none;stroke-opacity:1" />
      <path
         inkscape:export-ydpi="162.80484"
         inkscape:export-xdpi="162.80484"
         inkscape:connector-curvature="0"
         id="path989-5-4-5"
         d="m 3265.2243,1035.567 c 6.0175,-0.2117 10.2126,6.485 13.6577,10.8204 10.5692,13.3004 14.5821,30.8486 13.8092,47.2816 -0.2646,5.6551 1.2703,12.6254 7.0056,13.6744 7.1017,-0.4734 4.8957,-8.8058 5.4552,-13.6406 0.8273,-8.7453 9.0959,-2.0464 10.6293,3.2978 2.4971,8.7026 7.8044,16.6285 8.0676,25.8936 1.249,16.9098 -7.6329,32.5887 -19.7589,44.8321 -4.9434,4.9916 -17.0913,5.3503 -12.1743,-2.8652 3.1909,-7.7975 -0.2531,-16.7634 -6.8427,-21.9048 -7.9713,-6.2194 -19.5326,-7.8477 -25.1241,-16.6014 -2.873,-4.498 -1.2673,-19.2022 -9.9214,-14.5114 -4.7534,4.591 -4.4036,11.8756 -5.3821,17.9441 -0.7942,15.119 6.0267,30.5099 18.1687,39.8152 3.125,2.3948 -1.5354,4.2952 -4.7415,3.2079 -27.2693,-9.2476 -42.1198,-43.9865 -26.6296,-68.2819 10.1499,-15.9197 28.1924,-26.3243 33.905,-45.04 2.3834,-7.8079 -0.032,-16.018 -2.8146,-23.3824 0.9372,-0.3392 1.8314,-0.5091 2.6909,-0.5394 z"
         style="fill:#ffffff;fill-opacity:1;stroke:none;stroke-width:2.8764472;stroke-miterlimit:4;stroke-dasharray:none;stroke-opacity:1" />
      <path
         inkscape:export-ydpi="162.80484"
         inkscape:export-xdpi="162.80484"
         inkscape:connector-curvature="0"
         id="path1027-7-4-7"
         d="m 3055.7507,972.44628 c -7.6154,-1.40618 -10.8005,-2.88275 -13.9594,-6.47132 -3.6099,-4.1013 -4.854,-7.90039 -4.7953,-14.64627 0.081,-9.27424 5.1261,-21.00531 14.3831,-33.44166 5.1537,-6.92378 15.9528,-18.34158 22.5019,-23.7913 l 3.7771,-3.14306 -4.5328,1.54402 c -23.0892,7.86547 -43.9949,29.49339 -50.6151,52.36353 -1.2202,4.21584 -1.3246,4.33875 -2.3923,2.81443 -2.4344,-3.47535 -5.5073,-11.45553 -6.7243,-17.46164 -2.6144,-12.90245 -0.055,-25.06602 8.042,-38.2 5.2731,-8.5549 19.7324,-23.32988 28.2717,-28.88911 24.9239,-16.22578 60.0136,-24.72533 91.1894,-22.08818 5.9359,0.50211 11.9609,1.15958 13.3885,1.46098 l 2.596,0.54805 -3.8481,2.8247 c -2.1162,1.55359 -6.5141,5.65762 -9.7725,9.12009 -9.1508,9.72406 -13.4376,17.8888 -15.7189,29.93881 -5.3381,28.19937 -10.5897,44.11501 -19.6905,59.67492 -5.4166,9.26141 -16.2041,20.01749 -23.7721,23.7034 -9.1741,4.46807 -18.8735,5.88541 -28.3284,4.13961 z"
         style="fill:#941680;fill-opacity:1;stroke:#941680;stroke-width:0.75542152;stroke-opacity:1" />
      <path
         inkscape:export-ydpi="162.80484"
         inkscape:export-xdpi="162.80484"
         sodipodi:nodetypes="scscccs"
         inkscape:connector-curvature="0"
         d="m 2986.9286,906.86187 c 0,53.92447 36.2188,101.12583 88.3061,115.08263 52.087,13.9568 107.0545,-8.8114 134.0165,-55.51141 26.9624,-46.69999 19.1966,-105.68729 -18.9339,-143.81776 -34.0744,-34.0744 -44.2676,-85.31974 -25.8267,-129.84024 18.4409,-44.52051 61.8844,-73.54875 110.0779,-73.55335 -158.857,0 -287.6399,128.77826 -287.6399,287.64013 z"
         style="opacity:0.97000002;fill:none;fill-opacity:1;fill-rule:nonzero;stroke:#941680;stroke-width:14.38223648;stroke-linecap:round;stroke-linejoin:round;stroke-miterlimit:4;stroke-dasharray:none;stroke-dashoffset:0;stroke-opacity:1;paint-order:normal"
         id="path1125-0-2-3-7" />
      <path
         inkscape:export-ydpi="162.80484"
         inkscape:export-xdpi="162.80484"
         sodipodi:nodetypes="scscccs"
         inkscape:connector-curvature="0"
         d="m 3562.2086,906.86175 c 0,-53.92447 -36.2191,-101.12582 -88.3061,-115.08263 -52.087,-13.95681 -107.0544,8.81142 -134.0165,55.51141 -26.9624,46.69998 -19.1966,105.68729 18.9339,143.81776 34.0744,34.07441 44.2677,85.31971 25.8267,129.84021 -18.4409,44.5205 -61.8847,73.5488 -110.0779,73.5534 158.857,0 287.6399,-128.7783 287.6399,-287.64015 z"
         style="opacity:0.97000002;fill:none;fill-opacity:1;fill-rule:nonzero;stroke:#941680;stroke-width:14.38199997;stroke-linecap:round;stroke-linejoin:round;stroke-miterlimit:4;stroke-dasharray:none;stroke-dashoffset:0;stroke-opacity:1;paint-order:normal"
         id="path1125-5-5-5-3" />
      <path
         inkscape:export-ydpi="162.80484"
         inkscape:export-xdpi="162.80484"
         inkscape:connector-curvature="0"
         id="path1183-2-3-0"
         d="m 3274.5673,619.22439 c -53.9245,2e-5 -101.1235,36.2176 -115.0803,88.30468 -13.9568,52.08711 8.812,107.05093 55.512,134.01322 46.6999,26.96232 105.6861,19.19761 143.8166,-18.93286 34.0744,-34.07448 85.3186,-44.2672 129.8391,-25.82624 44.5205,18.44093 73.547,61.88691 73.5516,110.08029 0,-158.85707 -128.7771,-287.63909 -287.639,-287.63909 z"
         style="opacity:1;fill:#941680;fill-opacity:1;stroke:#941680;stroke-width:14.38223648;stroke-linecap:round;stroke-linejoin:miter;stroke-miterlimit:4;stroke-dasharray:none;stroke-opacity:1" />
      <path
         inkscape:export-ydpi="162.80484"
         inkscape:export-xdpi="162.80484"
         inkscape:connector-curvature="0"
         id="path1195-6-8-1"
         d="m 3285.3034,640.18053 c 12.1052,29.10485 37.8488,51.60948 43.9081,83.35099 3.3746,17.67925 -2.3199,39.21469 -19.7351,47.48908 -22.8924,10.87691 -50.4802,2.44112 -61.6126,-20.71344 -6.4916,-13.50199 -5.8518,-30.05177 -1.0315,-43.28075 8.8756,-24.35833 27.5731,-43.47885 38.4711,-66.84588 z"
         style="opacity:1;fill:#941680;fill-opacity:1;stroke:#ffffff;stroke-width:14.38223648;stroke-linecap:round;stroke-linejoin:miter;stroke-miterlimit:4;stroke-dasharray:none;stroke-opacity:1" />
      <path
         inkscape:export-ydpi="162.80484"
         inkscape:export-xdpi="162.80484"
         inkscape:connector-curvature="0"
         id="path1197-5-7-7"
         d="m 3264.007,731.0343 c 2.4571,12.21245 9.6652,19.39355 19.5768,20.08531"
         style="opacity:1;fill:none;stroke:#ffffff;stroke-width:14.38223648;stroke-linecap:round;stroke-linejoin:miter;stroke-miterlimit:4;stroke-dasharray:none;stroke-opacity:1" />
      <ellipse
         ry="99.844269"
         rx="99.844109"
         cy="906.86218"
         cx="3274.5681"
         id="path1199-2-1-3"
         style="opacity:1;fill:#941680;fill-opacity:1;fill-rule:nonzero;stroke:#ffffff;stroke-width:14.38199997;stroke-linecap:round;stroke-linejoin:round;stroke-miterlimit:4;stroke-dasharray:none;stroke-dashoffset:0;stroke-opacity:1;paint-order:normal" />
      <path
         style="fill:#ffffff;fill-opacity:1;stroke:none;stroke-width:0.22964852;stroke-opacity:1"
         d="m 3252.621,971.82606 c -8.7202,-1.01476 -17.2779,-4.50921 -24.3605,-9.94733 -2.6188,-2.01074 -6.6936,-6.10827 -8.8114,-8.86059 -9.7874,-12.7198 -12.6331,-29.80226 -7.5172,-45.12593 1.0682,-3.19944 3.5449,-8.38302 5.2668,-11.02313 6.0032,-9.20421 15.4141,-16.49529 25.3291,-19.62378 6.7684,-2.13564 10.0123,-2.6155 16.6918,-2.46921 5.4901,0.12025 8.034,0.49169 12.7767,1.8656 l 2.7246,0.7893 11.9991,-11.97978 c 6.5996,-6.58888 11.9992,-12.10986 11.9992,-12.26885 0,-0.15899 -0.6557,-1.00354 -1.4571,-1.87679 -1.658,-1.80668 -2.1333,-3.00648 -1.9165,-4.83737 0.1662,-1.40312 0.6094,-2.27979 1.6762,-3.3159 1.5457,-1.50111 4.3267,-1.91763 6.3219,-0.94684 0.9169,0.44613 34.548,34.13068 35.6252,35.68176 0.6783,0.97674 0.7419,1.21832 0.7357,2.79164 -0.01,1.90537 -0.3134,2.69624 -1.5036,3.88636 -1.1995,1.19951 -1.9806,1.50126 -3.8863,1.50126 -2.0295,0 -2.5108,-0.21784 -4.5278,-2.04914 -1.1604,-1.05354 -1.5042,-1.25365 -1.8372,-1.0692 -0.2253,0.1248 -5.698,5.52992 -12.1616,12.01137 l -11.752,11.78445 0.7584,2.75579 c 1.7504,6.36003 2.0479,8.71381 1.9008,15.04197 -0.1222,5.2594 -0.4997,7.99938 -1.6633,12.07168 -5.4861,19.19926 -21.9113,33.06414 -41.7271,35.22265 -2.5618,0.27905 -8.2458,0.27374 -10.6839,-0.01 z m 41.4366,-58.79 c 0.3047,-0.3047 0.2705,-0.42789 -1.3966,-5.02903 -0.7093,-1.95775 -1.2899,-3.71487 -1.2902,-3.90471 -2e-4,-0.18983 6.5102,-6.85515 14.4676,-14.81181 7.9574,-7.95667 14.4422,-14.54086 14.4105,-14.63155 -0.093,-0.26577 -13.2798,-13.50023 -13.4518,-13.50023 -0.086,0 -6.6664,6.51054 -14.6229,14.46786 -7.9566,7.95732 -14.6352,14.46786 -14.8415,14.46786 -0.2062,0 -1.9116,-0.55707 -3.7899,-1.23792 -7.2433,-2.62574 -9.207,-3.00571 -15.4714,-2.99371 -3.9917,0.008 -5.0746,0.0876 -7.1191,0.52578 -5.1828,1.11068 -10.0635,3.1742 -14.3263,6.05703 -2.8553,1.93096 -7.6388,6.739 -9.5319,9.58085 -2.3938,3.59337 -5.3271,10.0513 -4.9783,10.96011 0.1553,0.40464 71.5375,0.45373 71.9418,0.0495 z"
         id="path1550"
         inkscape:connector-curvature="0"
         sodipodi:nodetypes="scccsssccsscccccccsccsccccssccsscssscsscscc" />
    </g>
    <text
       xml:space="preserve"
       style="font-style:normal;font-variant:normal;font-weight:normal;font-stretch:normal;font-size:74.66666412px;line-height:1.25;font-family:Arial;-inkscape-font-specification:'Arial, Normal';font-variant-ligatures:normal;font-variant-caps:normal;font-variant-numeric:normal;font-feature-settings:normal;text-align:start;letter-spacing:0px;word-spacing:0px;writing-mode:lr-tb;text-anchor:start;fill:#000000;fill-opacity:1;stroke:none"
       x="3200.5579"
       y="520.06464"
       id="text1925"><tspan
         sodipodi:role="line"
         id="tspan1923"
         x="3200.5579"
         y="520.06464">CIW</tspan></text>
    <g
       transform="translate(4.9066346,20.196159)"
       id="g5743">
      <path
         inkscape:export-ydpi="162.80484"
         inkscape:export-xdpi="162.80484"
         inkscape:connector-curvature="0"
         id="path1190-8-4-3-8"
         d="m 2982.0214,1614.6673 c 0,158.8571 128.7774,287.6392 287.6393,287.6392 53.9245,0 101.129,-36.2177 115.0858,-88.3047 13.9568,-52.087 -8.812,-107.0568 -55.512,-134.0189 -46.7,-26.9623 -105.6861,-19.1976 -143.8166,18.9329 -34.0744,34.0744 -85.3243,44.2672 -129.8448,25.8263 -44.5205,-18.441 -73.5471,-61.8816 -73.5517,-110.0748 z"
         style="opacity:1;fill:#941680;fill-opacity:1;stroke:#941680;stroke-width:14.38223648;stroke-miterlimit:4;stroke-dasharray:none;stroke-opacity:1" />
      <path
         inkscape:export-ydpi="162.80484"
         inkscape:export-xdpi="162.80484"
         inkscape:connector-curvature="0"
         id="path989-5-4-5-4"
         d="m 3260.3177,1743.3709 c 6.0175,-0.2117 10.2126,6.485 13.6577,10.8204 10.5692,13.3004 14.5821,30.8486 13.8092,47.2816 -0.2646,5.6551 1.2703,12.6254 7.0056,13.6744 7.1017,-0.4734 4.8957,-8.8058 5.4552,-13.6406 0.8273,-8.7453 9.0959,-2.0464 10.6293,3.2978 2.4971,8.7026 7.8044,16.6285 8.0676,25.8936 1.249,16.9098 -7.6329,32.5887 -19.7589,44.8321 -4.9434,4.9916 -17.0913,5.3503 -12.1743,-2.8652 3.1909,-7.7975 -0.2531,-16.7634 -6.8427,-21.9048 -7.9713,-6.2194 -19.5326,-7.8477 -25.1241,-16.6014 -2.873,-4.498 -1.2673,-19.2022 -9.9214,-14.5114 -4.7534,4.591 -4.4036,11.8756 -5.3821,17.9441 -0.7942,15.119 6.0267,30.5099 18.1687,39.8152 3.125,2.3948 -1.5354,4.2952 -4.7415,3.2079 -27.2693,-9.2476 -42.1198,-43.9865 -26.6296,-68.2819 10.1499,-15.9197 28.1924,-26.3243 33.905,-45.04 2.3834,-7.8079 -0.032,-16.018 -2.8146,-23.3824 0.9372,-0.3392 1.8314,-0.5091 2.6909,-0.5394 z"
         style="fill:#ffffff;fill-opacity:1;stroke:none;stroke-width:2.8764472;stroke-miterlimit:4;stroke-dasharray:none;stroke-opacity:1" />
      <path
         inkscape:export-ydpi="162.80484"
         inkscape:export-xdpi="162.80484"
         sodipodi:nodetypes="scscccs"
         inkscape:connector-curvature="0"
         d="m 2982.022,1614.6657 c 0,53.9245 36.2188,101.1259 88.3061,115.0827 52.087,13.9568 107.0545,-8.8114 134.0165,-55.5115 26.9624,-46.6999 19.1966,-105.6872 -18.9339,-143.8177 -34.0744,-34.0744 -44.2676,-85.3198 -25.8267,-129.8403 18.4409,-44.5205 61.8844,-73.5487 110.0779,-73.5533 -158.857,0 -287.6399,128.7783 -287.6399,287.6401 z"
         style="opacity:0.97000002;fill:none;fill-opacity:1;fill-rule:nonzero;stroke:#941680;stroke-width:14.38223648;stroke-linecap:round;stroke-linejoin:round;stroke-miterlimit:4;stroke-dasharray:none;stroke-dashoffset:0;stroke-opacity:1;paint-order:normal"
         id="path1125-0-2-3-7-4" />
      <path
         inkscape:export-ydpi="162.80484"
         inkscape:export-xdpi="162.80484"
         sodipodi:nodetypes="scscccs"
         inkscape:connector-curvature="0"
         d="m 3557.302,1614.6656 c 0,-53.9245 -36.2191,-101.1258 -88.3061,-115.0826 -52.087,-13.9568 -107.0544,8.8114 -134.0165,55.5114 -26.9624,46.7 -19.1966,105.6873 18.9339,143.8177 34.0744,34.0745 44.2677,85.3198 25.8267,129.8403 -18.4409,44.5205 -61.8847,73.5488 -110.0779,73.5534 158.857,0 287.6399,-128.7783 287.6399,-287.6402 z"
         style="opacity:0.97000002;fill:none;fill-opacity:1;fill-rule:nonzero;stroke:#941680;stroke-width:14.38199997;stroke-linecap:round;stroke-linejoin:round;stroke-miterlimit:4;stroke-dasharray:none;stroke-dashoffset:0;stroke-opacity:1;paint-order:normal"
         id="path1125-5-5-5-3-8" />
      <path
         inkscape:export-ydpi="162.80484"
         inkscape:export-xdpi="162.80484"
         inkscape:connector-curvature="0"
         id="path1183-2-3-0-8"
         d="m 3269.6607,1327.0282 c -53.9245,10e-5 -101.1235,36.2176 -115.0803,88.3047 -13.9568,52.0871 8.812,107.051 55.512,134.0132 46.6999,26.9624 105.6861,19.1977 143.8166,-18.9328 34.0744,-34.0745 85.3186,-44.2672 129.8391,-25.8263 44.5205,18.441 73.547,61.887 73.5516,110.0803 0,-158.857 -128.7771,-287.6391 -287.639,-287.6391 z"
         style="opacity:1;fill:#941680;fill-opacity:1;stroke:#941680;stroke-width:14.38223648;stroke-linecap:round;stroke-linejoin:miter;stroke-miterlimit:4;stroke-dasharray:none;stroke-opacity:1" />
      <path
         inkscape:export-ydpi="162.80484"
         inkscape:export-xdpi="162.80484"
         inkscape:connector-curvature="0"
         id="path1195-6-8-1-2"
         d="m 3280.3968,1347.9844 c 12.1052,29.1048 37.8488,51.6095 43.9081,83.351 3.3746,17.6792 -2.3199,39.2147 -19.7351,47.4891 -22.8924,10.8769 -50.4802,2.4411 -61.6126,-20.7135 -6.4916,-13.502 -5.8518,-30.0518 -1.0315,-43.2807 8.8756,-24.3584 27.5731,-43.4789 38.4711,-66.8459 z"
         style="opacity:1;fill:#941680;fill-opacity:1;stroke:#ffffff;stroke-width:14.38223648;stroke-linecap:round;stroke-linejoin:miter;stroke-miterlimit:4;stroke-dasharray:none;stroke-opacity:1" />
      <path
         inkscape:export-ydpi="162.80484"
         inkscape:export-xdpi="162.80484"
         inkscape:connector-curvature="0"
         id="path1197-5-7-7-4"
         d="m 3259.1004,1438.8382 c 2.4571,12.2124 9.6652,19.3935 19.5768,20.0853"
         style="opacity:1;fill:none;stroke:#ffffff;stroke-width:14.38223648;stroke-linecap:round;stroke-linejoin:miter;stroke-miterlimit:4;stroke-dasharray:none;stroke-opacity:1" />
      <ellipse
         ry="99.844269"
         rx="99.844109"
         cy="1614.666"
         cx="3269.6616"
         id="path1199-2-1-3-8"
         style="opacity:1;fill:#941680;fill-opacity:1;fill-rule:nonzero;stroke:#ffffff;stroke-width:14.38199997;stroke-linecap:round;stroke-linejoin:round;stroke-miterlimit:4;stroke-dasharray:none;stroke-dashoffset:0;stroke-opacity:1;paint-order:normal" />
      <path
         style="fill:#ffffff;fill-opacity:1;stroke:none;stroke-width:0.22964852;stroke-opacity:1"
         d="m 3247.7144,1679.6299 c -8.7202,-1.0147 -17.2779,-4.5092 -24.3605,-9.9473 -2.6188,-2.0108 -6.6936,-6.1083 -8.8114,-8.8606 -9.7874,-12.7198 -12.6331,-29.8023 -7.5172,-45.1259 1.0682,-3.1995 3.5449,-8.3831 5.2668,-11.0232 6.0032,-9.2042 15.4141,-16.4953 25.3291,-19.6237 6.7684,-2.1357 10.0123,-2.6155 16.6918,-2.4693 5.4901,0.1203 8.034,0.4917 12.7767,1.8656 l 2.7246,0.7893 11.9991,-11.9797 c 6.5996,-6.5889 11.9992,-12.1099 11.9992,-12.2689 0,-0.159 -0.6557,-1.0035 -1.4571,-1.8768 -1.658,-1.8067 -2.1333,-3.0065 -1.9165,-4.8373 0.1662,-1.4032 0.6094,-2.2798 1.6762,-3.3159 1.5457,-1.5012 4.3267,-1.9177 6.3219,-0.9469 0.9169,0.4461 34.548,34.1307 35.6252,35.6818 0.6783,0.9767 0.7419,1.2183 0.7357,2.7916 -0.01,1.9054 -0.3134,2.6963 -1.5036,3.8864 -1.1995,1.1995 -1.9806,1.5012 -3.8863,1.5012 -2.0295,0 -2.5108,-0.2178 -4.5278,-2.0491 -1.1604,-1.0535 -1.5042,-1.2537 -1.8372,-1.0692 -0.2253,0.1248 -5.698,5.5299 -12.1616,12.0114 l -11.752,11.7844 0.7584,2.7558 c 1.7504,6.36 2.0479,8.7138 1.9008,15.042 -0.1222,5.2594 -0.4997,7.9994 -1.6633,12.0717 -5.4861,19.1992 -21.9113,33.0641 -41.7271,35.2226 -2.5618,0.2791 -8.2458,0.2737 -10.6839,-0.01 z m 41.4366,-58.79 c 0.3047,-0.3047 0.2705,-0.4279 -1.3966,-5.029 -0.7093,-1.9578 -1.2899,-3.7149 -1.2902,-3.9047 -2e-4,-0.1899 6.5102,-6.8552 14.4676,-14.8118 7.9574,-7.9567 14.4422,-14.5409 14.4105,-14.6316 -0.093,-0.2658 -13.2798,-13.5002 -13.4518,-13.5002 -0.086,0 -6.6664,6.5105 -14.6229,14.4678 -7.9566,7.9574 -14.6352,14.4679 -14.8415,14.4679 -0.2062,0 -1.9116,-0.5571 -3.7899,-1.2379 -7.2433,-2.6258 -9.207,-3.0057 -15.4714,-2.9937 -3.9917,0.01 -5.0746,0.088 -7.1191,0.5258 -5.1828,1.1106 -10.0635,3.1742 -14.3263,6.057 -2.8553,1.9309 -7.6388,6.739 -9.5319,9.5808 -2.3938,3.5934 -5.3271,10.0513 -4.9783,10.9601 0.1553,0.4047 71.5375,0.4538 71.9418,0.05 z"
         id="path1550-1"
         inkscape:connector-curvature="0"
         sodipodi:nodetypes="scccsssccsscccccccsccsccccssccsscssscsscscc" />
      <path
         inkscape:connector-curvature="0"
         d="m 3447.9356,1571.5689 38.5896,22.1837 m -0.083,44.5115 -38.6725,22.3276 m -38.5896,-22.1838 0.083,-44.5114 m 98.9011,57.0048 -60.3116,34.8209 -60.3117,-34.8209 v -69.642 l 60.3116,-34.8209 60.3117,34.8209 z"
         style="opacity:1;fill:none;fill-opacity:1;fill-rule:nonzero;stroke:#941680;stroke-width:14.38199997;stroke-linecap:round;stroke-linejoin:round;stroke-miterlimit:4;stroke-dasharray:none;stroke-dashoffset:0;stroke-opacity:1;paint-order:normal"
         id="path2151-8" />
      <path
         inkscape:connector-curvature="0"
         id="path2226"
         d="m 3007.2309,1637.3045 0.5109,18.7004 c 1.261,7.164 27.0215,17.9872 55.352,13.0011 28.3306,-4.9863 45.2523,-13.643 46.7306,-28.7212 v -20.6592"
         style="fill:none;stroke:#941680;stroke-width:14.38199997;stroke-linecap:butt;stroke-linejoin:miter;stroke-miterlimit:4;stroke-dasharray:none;stroke-opacity:1" />
      <path
         inkscape:connector-curvature="0"
         id="path2201"
         d="m 3109.8246,1620.0297 c 2.5218,14.3281 -18.4004,29.9854 -46.7308,34.9717 -28.3305,4.9861 -53.3412,-2.5869 -55.8629,-16.9149 -2.5218,-14.3281 18.4002,-29.9853 46.7306,-34.9716 28.3307,-4.9862 53.3414,2.5867 55.8631,16.9148 z"
         style="fill:none;stroke:#941680;stroke-width:14.38199997;stroke-linecap:butt;stroke-linejoin:miter;stroke-miterlimit:4;stroke-dasharray:none;stroke-opacity:1" />
      <path
         inkscape:connector-curvature="0"
         id="path2222"
         d="m 3069.1571,1579.8714 -11.8152,14.5041 c -3.7191,6.2515 8.7392,31.2622 33.4608,45.97 24.7218,14.7078 43.1933,19.1897 54.1523,8.7284 l 13.4805,-15.655"
         style="fill:#ffffff;fill-opacity:1;stroke:#941680;stroke-width:14.38199997;stroke-linecap:butt;stroke-linejoin:miter;stroke-miterlimit:4;stroke-dasharray:none;stroke-opacity:1" />
      <path
         inkscape:connector-curvature="0"
         id="path2201-3"
         d="m 3158.1719,1633.7253 c -7.4383,12.503 -33.5093,10.7155 -58.231,-3.9921 -24.7216,-14.7078 -38.7325,-36.7663 -31.2941,-49.2692 7.4384,-12.5029 33.5091,-10.7156 58.2308,3.992 24.7218,14.7079 38.7328,36.7664 31.2943,49.2693 z"
         style="fill:#ffffff;fill-opacity:1;stroke:#941680;stroke-width:14.38199997;stroke-linecap:butt;stroke-linejoin:miter;stroke-miterlimit:4;stroke-dasharray:none;stroke-opacity:1" />
    </g>
  </g>
  <g
     id="g6920"
     inkscape:export-xdpi="162"
     inkscape:export-ydpi="162"
     transform="translate(-2979.7369,-465.70526)" />
</svg>
