<?xml version="1.0" encoding="UTF-8" standalone="no"?>
<!-- Created with Inkscape (http://www.inkscape.org/) -->

<svg
   xmlns:osb="http://www.openswatchbook.org/uri/2009/osb"
   xmlns:dc="http://purl.org/dc/elements/1.1/"
   xmlns:cc="http://creativecommons.org/ns#"
   xmlns:rdf="http://www.w3.org/1999/02/22-rdf-syntax-ns#"
   xmlns:svg="http://www.w3.org/2000/svg"
   xmlns="http://www.w3.org/2000/svg"
   xmlns:sodipodi="http://sodipodi.sourceforge.net/DTD/sodipodi-0.dtd"
   xmlns:inkscape="http://www.inkscape.org/namespaces/inkscape"
   inkscape:version="0.92.3 (2405546, 2018-03-11)"
   sodipodi:docname="Empty.svg"
   viewBox="0 0 589.6627 734.42739"
   height="194.31725mm"
   width="156.01492mm"
   id="svg2"
   version="1.1"
   inkscape:export-filename="D:\Flori\Offiziell\OvGU\FaRa\Logo.png"
   inkscape:export-xdpi="162"
   inkscape:export-ydpi="162">
  <sodipodi:namedview
     units="mm"
     inkscape:current-layer="g6920"
     inkscape:window-maximized="1"
     inkscape:window-y="-8"
     inkscape:window-x="-8"
     inkscape:cy="277.33636"
     inkscape:cx="-3346.8399"
     inkscape:zoom="0.125"
     showgrid="false"
     id="namedview4"
     inkscape:window-height="1017"
     inkscape:window-width="1920"
     inkscape:pageshadow="2"
     inkscape:pageopacity="0"
     guidetolerance="10"
     gridtolerance="10"
     objecttolerance="10"
     borderopacity="1"
     bordercolor="#666666"
     pagecolor="#ffffff"
     showguides="false"
     fit-margin-top="0"
     fit-margin-left="0"
     fit-margin-right="0"
     fit-margin-bottom="0" />
  <metadata
     id="metadata8">
    <rdf:RDF>
      <cc:Work
         rdf:about="">
        <dc:format>image/svg+xml</dc:format>
        <dc:type
           rdf:resource="http://purl.org/dc/dcmitype/StillImage" />
        <dc:title></dc:title>
      </cc:Work>
    </rdf:RDF>
  </metadata>
  <defs
     id="defs6">
    <linearGradient
       osb:paint="solid"
       id="linearGradient4047">
      <stop
         id="stop4045"
         offset="0"
         style="stop-color:#941680;stop-opacity:1;" />
    </linearGradient>
    <linearGradient
       osb:paint="solid"
       id="linearGradient3784">
      <stop
         id="stop3782"
         offset="0"
         style="stop-color:#941680;stop-opacity:1;" />
    </linearGradient>
  </defs>
  <g
     id="g6569"
     inkscape:export-xdpi="162"
     inkscape:export-ydpi="162"
     transform="translate(-5551.4813,-466.61672)">
    <g
       id="g6410">
      <path
         inkscape:export-ydpi="162.80484"
         inkscape:export-xdpi="162.80484"
         style="fill:#941680;fill-opacity:1;stroke:#941680;stroke-width:0.28967798;stroke-opacity:1"
         d="m 6000.6728,971.14711 c 0,-0.10384 4.439,-12.46771 9.8642,-27.47531 5.4253,-15.00764 9.8248,-27.5625 9.7768,-27.8997 l -0.086,-0.61312 -17.0188,-0.0745 c -9.3602,-0.0411 -17.0165,-0.17172 -17.0142,-0.28965 0,-0.25054 0.3676,-0.71126 15.2225,-19.3526 6.2033,-7.78461 15.4894,-19.43802 20.6353,-25.89654 5.1463,-6.45849 13.0787,-16.41119 17.6278,-22.11715 4.5491,-5.70592 8.3276,-10.31801 8.3966,-10.24907 0.069,0.069 -0.9771,3.17322 -2.3245,6.89833 -14.0626,38.87918 -17.2814,47.9183 -17.2051,48.31476 0.081,0.41493 1.8182,0.46898 17.2483,0.53617 9.4376,0.0411 17.1594,0.13491 17.1594,0.20883 0,0.14009 -61.1771,77.03118 -61.8795,77.77414 -0.2215,0.23328 -0.4013,0.33922 -0.4013,0.23529 z"
         id="path968-5-7"
         inkscape:connector-curvature="0" />
      <path
         inkscape:export-ydpi="162.80484"
         inkscape:export-xdpi="162.80484"
         inkscape:connector-curvature="0"
         id="path1190-8-4"
         d="m 5558.6724,906.21384 c 0,158.85696 128.7774,287.63916 287.6393,287.63916 53.9245,0 101.129,-36.2177 115.0858,-88.3047 13.9568,-52.087 -8.812,-107.05677 -55.512,-134.01886 -46.7,-26.96238 -105.6861,-19.19761 -143.8166,18.93287 -34.0744,34.07439 -85.3243,44.26709 -129.8448,25.82619 -44.5205,-18.44089 -73.5471,-61.88151 -73.5517,-110.07466 z"
         style="opacity:1;fill:#941680;fill-opacity:1;stroke:#941680;stroke-width:14.38223648;stroke-miterlimit:4;stroke-dasharray:none;stroke-opacity:1" />
      <path
         inkscape:export-ydpi="162.80484"
         inkscape:export-xdpi="162.80484"
         inkscape:connector-curvature="0"
         id="path989-5-4"
         d="m 5836.9687,1034.9174 c 6.0175,-0.2117 10.2125,6.485 13.6577,10.8204 10.5692,13.3004 14.5821,30.8486 13.8092,47.2816 -0.2646,5.6551 1.2703,12.6253 7.0056,13.6744 7.1017,-0.4734 4.8957,-8.8058 5.4552,-13.6407 0.8273,-8.7452 9.0959,-2.0464 10.6293,3.2978 2.4971,8.7027 7.8044,16.6286 8.0676,25.8937 1.2489,16.9098 -7.6329,32.5886 -19.7589,44.8321 -4.9435,4.9915 -17.0913,5.3503 -12.1743,-2.8652 3.1909,-7.7975 -0.2531,-16.7634 -6.8428,-21.9048 -7.9712,-6.2194 -19.5325,-7.8478 -25.124,-16.6014 -2.873,-4.498 -1.2674,-19.2023 -9.9214,-14.5115 -4.7534,4.5911 -4.4036,11.8756 -5.3822,17.9441 -0.7941,15.1191 6.0268,30.51 18.1688,39.8152 3.125,2.3949 -1.5354,4.2952 -4.7415,3.208 -27.2693,-9.2476 -42.1198,-43.9865 -26.6296,-68.282 10.1499,-15.9196 28.1924,-26.3243 33.905,-45.04 2.3834,-7.8078 -0.032,-16.0179 -2.8146,-23.3824 0.9371,-0.3391 1.8314,-0.509 2.6909,-0.5393 z"
         style="fill:#ffffff;fill-opacity:1;stroke:none;stroke-width:2.8764472;stroke-miterlimit:4;stroke-dasharray:none;stroke-opacity:1" />
      <path
         inkscape:export-ydpi="162.80484"
         inkscape:export-xdpi="162.80484"
         inkscape:connector-curvature="0"
         id="path1027-7-4"
         d="m 5627.4951,971.79664 c -7.6154,-1.40618 -10.8005,-2.88275 -13.9594,-6.47132 -3.6099,-4.1013 -4.854,-7.90039 -4.7953,-14.64627 0.081,-9.27424 5.1261,-21.00531 14.3831,-33.44166 5.1537,-6.92378 15.9528,-18.34158 22.5019,-23.7913 l 3.777,-3.14306 -4.5327,1.54402 c -23.0892,7.86547 -43.9949,29.49339 -50.6151,52.36353 -1.2202,4.21584 -1.3246,4.33875 -2.3923,2.81443 -2.4344,-3.47535 -5.5073,-11.45553 -6.7243,-17.46164 -2.6144,-12.90245 -0.055,-25.06602 8.042,-38.2 5.2731,-8.5549 19.7324,-23.32988 28.2717,-28.88911 24.9239,-16.22578 60.0136,-24.72533 91.1894,-22.08818 5.9359,0.50211 11.9609,1.15958 13.3885,1.46098 l 2.596,0.54805 -3.8482,2.8247 c -2.1162,1.55359 -6.514,5.65762 -9.7724,9.12009 -9.1508,9.72406 -13.4376,17.8888 -15.7189,29.93881 -5.3381,28.19937 -10.5897,44.11501 -19.6905,59.67492 -5.4166,9.26141 -16.2041,20.01749 -23.7721,23.7034 -9.1741,4.46807 -18.8735,5.88541 -28.3284,4.13961 z"
         style="fill:#941680;fill-opacity:1;stroke:#941680;stroke-width:0.75542152;stroke-opacity:1" />
      <path
         inkscape:export-ydpi="162.80484"
         inkscape:export-xdpi="162.80484"
         sodipodi:nodetypes="scscccs"
         inkscape:connector-curvature="0"
         d="m 5558.673,906.21223 c 0,53.92447 36.2188,101.12587 88.3061,115.08267 52.087,13.9568 107.0544,-8.8115 134.0165,-55.51145 26.9624,-46.69999 19.1966,-105.68729 -18.9339,-143.81776 -34.0744,-34.0744 -44.2677,-85.31974 -25.8267,-129.84024 18.4409,-44.52051 61.8844,-73.54875 110.0779,-73.55335 -158.857,0 -287.6399,128.77826 -287.6399,287.64013 z"
         style="opacity:0.97000002;fill:none;fill-opacity:1;fill-rule:nonzero;stroke:#941680;stroke-width:14.38223648;stroke-linecap:round;stroke-linejoin:round;stroke-miterlimit:4;stroke-dasharray:none;stroke-dashoffset:0;stroke-opacity:1;paint-order:normal"
         id="path1125-0-2-3" />
      <path
         inkscape:export-ydpi="162.80484"
         inkscape:export-xdpi="162.80484"
         sodipodi:nodetypes="scscccs"
         inkscape:connector-curvature="0"
         d="m 6133.953,906.21211 c 0,-53.92447 -36.2191,-101.12582 -88.3061,-115.08263 -52.087,-13.95681 -107.0545,8.81142 -134.0165,55.51141 -26.9624,46.69998 -19.1966,105.68729 18.9339,143.81776 34.0744,34.07445 44.2676,85.31975 25.8267,129.84025 -18.4409,44.5205 -61.8847,73.5487 -110.0779,73.5533 158.857,0 287.6399,-128.7782 287.6399,-287.64009 z"
         style="opacity:0.97000002;fill:none;fill-opacity:1;fill-rule:nonzero;stroke:#941680;stroke-width:14.38199997;stroke-linecap:round;stroke-linejoin:round;stroke-miterlimit:4;stroke-dasharray:none;stroke-dashoffset:0;stroke-opacity:1;paint-order:normal"
         id="path1125-5-5-5" />
      <path
         inkscape:export-ydpi="162.80484"
         inkscape:export-xdpi="162.80484"
         inkscape:connector-curvature="0"
         id="path1183-2-3"
         d="m 5846.3117,618.57475 c -53.9245,2e-5 -101.1235,36.2176 -115.0803,88.30468 -13.9568,52.08711 8.812,107.05093 55.512,134.01322 46.6999,26.96232 105.6861,19.19761 143.8166,-18.93286 34.0744,-34.07448 85.3186,-44.2672 129.8391,-25.82624 44.5205,18.44093 73.547,61.88691 73.5516,110.08029 0,-158.85707 -128.7771,-287.63909 -287.639,-287.63909 z"
         style="opacity:1;fill:#941680;fill-opacity:1;stroke:#941680;stroke-width:14.38223648;stroke-linecap:round;stroke-linejoin:miter;stroke-miterlimit:4;stroke-dasharray:none;stroke-opacity:1" />
      <path
         inkscape:export-ydpi="162.80484"
         inkscape:export-xdpi="162.80484"
         inkscape:connector-curvature="0"
         id="path1195-6-8"
         d="m 5857.0478,639.53089 c 12.1052,29.10485 37.8488,51.60948 43.9081,83.35099 3.3746,17.67925 -2.3199,39.21469 -19.7351,47.48908 -22.8925,10.87691 -50.4802,2.44112 -61.6126,-20.71344 -6.4916,-13.50199 -5.8518,-30.05177 -1.0315,-43.28075 8.8756,-24.35833 27.5731,-43.47885 38.4711,-66.84588 z"
         style="opacity:1;fill:#941680;fill-opacity:1;stroke:#ffffff;stroke-width:14.38223648;stroke-linecap:round;stroke-linejoin:miter;stroke-miterlimit:4;stroke-dasharray:none;stroke-opacity:1" />
      <path
         inkscape:export-ydpi="162.80484"
         inkscape:export-xdpi="162.80484"
         inkscape:connector-curvature="0"
         id="path1197-5-7"
         d="m 5835.7514,730.38466 c 2.4571,12.21245 9.6651,19.39355 19.5768,20.08531"
         style="opacity:1;fill:none;stroke:#ffffff;stroke-width:14.38223648;stroke-linecap:round;stroke-linejoin:miter;stroke-miterlimit:4;stroke-dasharray:none;stroke-opacity:1" />
      <ellipse
         ry="99.844269"
         rx="99.844109"
         cy="906.21252"
         cx="5846.3125"
         id="path1199-2-1"
         style="opacity:1;fill:#941680;fill-opacity:1;fill-rule:nonzero;stroke:#ffffff;stroke-width:14.38199997;stroke-linecap:round;stroke-linejoin:round;stroke-miterlimit:4;stroke-dasharray:none;stroke-dashoffset:0;stroke-opacity:1;paint-order:normal" />
    </g>
    <text
       xml:space="preserve"
       style="font-style:normal;font-variant:normal;font-weight:normal;font-stretch:normal;font-size:74.66666412px;line-height:1.25;font-family:Arial;-inkscape-font-specification:'Arial, Normal';font-variant-ligatures:normal;font-variant-caps:normal;font-variant-numeric:normal;font-feature-settings:normal;text-align:start;letter-spacing:0px;word-spacing:0px;writing-mode:lr-tb;text-anchor:start;fill:#000000;fill-opacity:1;stroke:none"
       x="5742.5156"
       y="520.06464"
       id="text2018-0-0"><tspan
         id="tspan6521"
         sodipodi:role="line"
         x="5742.5156"
         y="520.06464">Empty</tspan></text>
  </g>
  <g
     id="g6920"
     inkscape:export-xdpi="162"
     inkscape:export-ydpi="162"
     transform="translate(-5551.4813,-466.61672)" />
</svg>
