<?xml version="1.0" encoding="UTF-8" standalone="no"?>
<!-- Created with Inkscape (http://www.inkscape.org/) -->

<svg
   xmlns:osb="http://www.openswatchbook.org/uri/2009/osb"
   xmlns:dc="http://purl.org/dc/elements/1.1/"
   xmlns:cc="http://creativecommons.org/ns#"
   xmlns:rdf="http://www.w3.org/1999/02/22-rdf-syntax-ns#"
   xmlns:svg="http://www.w3.org/2000/svg"
   xmlns="http://www.w3.org/2000/svg"
   xmlns:sodipodi="http://sodipodi.sourceforge.net/DTD/sodipodi-0.dtd"
   xmlns:inkscape="http://www.inkscape.org/namespaces/inkscape"
   inkscape:version="0.92.3 (2405546, 2018-03-11)"
   sodipodi:docname="EPT.svg"
   viewBox="0 0 589.6627 1463.077"
   height="387.10577mm"
   width="156.01492mm"
   id="svg2"
   version="1.1"
   inkscape:export-filename="D:\Flori\Offiziell\OvGU\FaRa\Logo.png"
   inkscape:export-xdpi="162"
   inkscape:export-ydpi="162">
  <sodipodi:namedview
     units="mm"
     inkscape:current-layer="g6920"
     inkscape:window-maximized="1"
     inkscape:window-y="-8"
     inkscape:window-x="-8"
     inkscape:cy="1005.986"
     inkscape:cx="510.77655"
     inkscape:zoom="0.125"
     showgrid="false"
     id="namedview4"
     inkscape:window-height="1017"
     inkscape:window-width="1920"
     inkscape:pageshadow="2"
     inkscape:pageopacity="0"
     guidetolerance="10"
     gridtolerance="10"
     objecttolerance="10"
     borderopacity="1"
     bordercolor="#666666"
     pagecolor="#ffffff"
     showguides="false"
     fit-margin-top="0"
     fit-margin-left="0"
     fit-margin-right="0"
     fit-margin-bottom="0" />
  <metadata
     id="metadata8">
    <rdf:RDF>
      <cc:Work
         rdf:about="">
        <dc:format>image/svg+xml</dc:format>
        <dc:type
           rdf:resource="http://purl.org/dc/dcmitype/StillImage" />
        <dc:title></dc:title>
      </cc:Work>
    </rdf:RDF>
  </metadata>
  <defs
     id="defs6">
    <linearGradient
       osb:paint="solid"
       id="linearGradient4047">
      <stop
         id="stop4045"
         offset="0"
         style="stop-color:#941680;stop-opacity:1;" />
    </linearGradient>
    <linearGradient
       osb:paint="solid"
       id="linearGradient3784">
      <stop
         id="stop3782"
         offset="0"
         style="stop-color:#941680;stop-opacity:1;" />
    </linearGradient>
  </defs>
  <g
     id="g5858"
     transform="translate(-1693.8647,-466.61672)"
     inkscape:export-xdpi="162"
     inkscape:export-ydpi="162">
    <g
       transform="translate(-5.6112063e-5)"
       id="g5698"
       inkscape:export-xdpi="162"
       inkscape:export-ydpi="162">
      <path
         inkscape:export-ydpi="162.80484"
         inkscape:export-xdpi="162.80484"
         style="fill:#941680;fill-opacity:1;stroke:#941680;stroke-width:0.28967798;stroke-opacity:1"
         d="m 2143.0563,971.79676 c 0,-0.10384 4.439,-12.46771 9.8642,-27.47531 5.4253,-15.00764 9.8249,-27.5625 9.7768,-27.8997 l -0.086,-0.61312 -17.0188,-0.0745 c -9.3602,-0.0411 -17.0165,-0.17172 -17.0142,-0.28965 0,-0.25054 0.3676,-0.71126 15.2225,-19.3526 6.2033,-7.78461 15.4894,-19.43802 20.6353,-25.89654 5.1463,-6.45849 13.0787,-16.41119 17.6278,-22.11715 4.5491,-5.70592 8.3276,-10.31801 8.3966,-10.24907 0.069,0.069 -0.9771,3.17322 -2.3245,6.89833 -14.0626,38.87918 -17.2814,47.9183 -17.2051,48.31476 0.081,0.41493 1.8182,0.46898 17.2483,0.53617 9.4376,0.0411 17.1594,0.13491 17.1594,0.20883 0,0.14009 -61.1771,77.03118 -61.8795,77.77414 -0.2215,0.23328 -0.4013,0.33922 -0.4013,0.23529 z"
         id="path968-5-7-2"
         inkscape:connector-curvature="0" />
      <path
         inkscape:export-ydpi="162.80484"
         inkscape:export-xdpi="162.80484"
         inkscape:connector-curvature="0"
         id="path1190-8-4-4"
         d="m 1701.0559,906.86349 c 0,158.85701 128.7774,287.63911 287.6393,287.63911 53.9245,0 101.129,-36.2177 115.0858,-88.3047 13.9568,-52.087 -8.812,-107.05672 -55.512,-134.01881 -46.7,-26.96238 -105.6861,-19.19761 -143.8166,18.93287 -34.0744,34.07444 -85.3243,44.26714 -129.8448,25.82624 -44.5205,-18.44094 -73.5471,-61.88156 -73.5517,-110.07471 z"
         style="opacity:1;fill:#941680;fill-opacity:1;stroke:#941680;stroke-width:14.38223648;stroke-miterlimit:4;stroke-dasharray:none;stroke-opacity:1" />
      <path
         inkscape:export-ydpi="162.80484"
         inkscape:export-xdpi="162.80484"
         inkscape:connector-curvature="0"
         id="path989-5-4-7"
         d="m 1979.3522,1035.5671 c 6.0175,-0.2117 10.2126,6.4849 13.6577,10.8203 10.5692,13.3004 14.5821,30.8487 13.8092,47.2817 -0.2646,5.655 1.2703,12.6253 7.0056,13.6743 7.1017,-0.4734 4.8957,-8.8058 5.4552,-13.6406 0.8273,-8.7453 9.0959,-2.0464 10.6293,3.2978 2.4971,8.7026 7.8044,16.6285 8.0676,25.8936 1.249,16.9098 -7.6329,32.5887 -19.7589,44.8322 -4.9434,4.9915 -17.0913,5.3503 -12.1743,-2.8653 3.1909,-7.7975 -0.2531,-16.7634 -6.8427,-21.9048 -7.9713,-6.2194 -19.5326,-7.8477 -25.1241,-16.6014 -2.873,-4.498 -1.2673,-19.2022 -9.9214,-14.5114 -4.7534,4.591 -4.4036,11.8756 -5.3821,17.9441 -0.7942,15.119 6.0267,30.5099 18.1687,39.8152 3.125,2.3948 -1.5354,4.2952 -4.7415,3.2079 -27.2693,-9.2475 -42.1198,-43.9865 -26.6296,-68.2819 10.1499,-15.9197 28.1924,-26.3243 33.905,-45.04 2.3834,-7.8079 -0.032,-16.018 -2.8146,-23.3824 0.9372,-0.3392 1.8314,-0.5091 2.6909,-0.5393 z"
         style="fill:#ffffff;fill-opacity:1;stroke:none;stroke-width:2.8764472;stroke-miterlimit:4;stroke-dasharray:none;stroke-opacity:1" />
      <path
         inkscape:export-ydpi="162.80484"
         inkscape:export-xdpi="162.80484"
         inkscape:connector-curvature="0"
         id="path1027-7-4-05"
         d="m 1769.8786,972.44629 c -7.6154,-1.40618 -10.8005,-2.88275 -13.9594,-6.47132 -3.6099,-4.1013 -4.854,-7.90039 -4.7953,-14.64627 0.081,-9.27424 5.1261,-21.00531 14.3831,-33.44166 5.1537,-6.92378 15.9528,-18.34158 22.5019,-23.7913 l 3.7771,-3.14306 -4.5328,1.54402 c -23.0892,7.86547 -43.9949,29.49339 -50.6151,52.36353 -1.2202,4.21584 -1.3246,4.33875 -2.3923,2.81443 -2.4344,-3.47535 -5.5073,-11.45553 -6.7243,-17.46164 -2.6144,-12.90245 -0.055,-25.06602 8.042,-38.2 5.2731,-8.5549 19.7324,-23.32988 28.2717,-28.88911 24.9239,-16.22578 60.0136,-24.72533 91.1894,-22.08818 5.9359,0.50211 11.9609,1.15958 13.3885,1.46098 l 2.596,0.54805 -3.8481,2.8247 c -2.1162,1.55359 -6.5141,5.65762 -9.7725,9.12009 -9.1508,9.72406 -13.4376,17.8888 -15.7189,29.93881 -5.3381,28.19937 -10.5897,44.11501 -19.6905,59.67492 -5.4166,9.26141 -16.2041,20.01749 -23.7721,23.7034 -9.1741,4.46807 -18.8735,5.88541 -28.3284,4.13961 z"
         style="fill:#941680;fill-opacity:1;stroke:#941680;stroke-width:0.75542152;stroke-opacity:1" />
      <path
         inkscape:export-ydpi="162.80484"
         inkscape:export-xdpi="162.80484"
         sodipodi:nodetypes="scscccs"
         inkscape:connector-curvature="0"
         d="m 1701.0565,906.86188 c 0,53.92447 36.2188,101.12582 88.3061,115.08262 52.087,13.9568 107.0545,-8.8114 134.0165,-55.5114 26.9624,-46.69999 19.1966,-105.68729 -18.9339,-143.81776 -34.0744,-34.0744 -44.2677,-85.31974 -25.8267,-129.84024 18.4409,-44.52051 61.8844,-73.54875 110.0779,-73.55335 -158.857,0 -287.6399,128.77826 -287.6399,287.64013 z"
         style="opacity:0.97000002;fill:none;fill-opacity:1;fill-rule:nonzero;stroke:#941680;stroke-width:14.38223648;stroke-linecap:round;stroke-linejoin:round;stroke-miterlimit:4;stroke-dasharray:none;stroke-dashoffset:0;stroke-opacity:1;paint-order:normal"
         id="path1125-0-2-3-96" />
      <path
         inkscape:export-ydpi="162.80484"
         inkscape:export-xdpi="162.80484"
         sodipodi:nodetypes="scscccs"
         inkscape:connector-curvature="0"
         d="m 2276.3365,906.86176 c 0,-53.92447 -36.2191,-101.12582 -88.3061,-115.08263 -52.087,-13.95681 -107.0544,8.81142 -134.0165,55.51141 -26.9624,46.69998 -19.1966,105.68729 18.9339,143.81776 34.0744,34.0744 44.2676,85.3197 25.8267,129.8403 -18.4409,44.5205 -61.8847,73.5487 -110.0779,73.5533 158.857,0 287.6399,-128.7783 287.6399,-287.64014 z"
         style="opacity:0.97000002;fill:none;fill-opacity:1;fill-rule:nonzero;stroke:#941680;stroke-width:14.38199997;stroke-linecap:round;stroke-linejoin:round;stroke-miterlimit:4;stroke-dasharray:none;stroke-dashoffset:0;stroke-opacity:1;paint-order:normal"
         id="path1125-5-5-5-8" />
      <path
         inkscape:export-ydpi="162.80484"
         inkscape:export-xdpi="162.80484"
         inkscape:connector-curvature="0"
         id="path1183-2-3-6"
         d="m 1988.6952,619.2244 c -53.9245,2e-5 -101.1235,36.2176 -115.0803,88.30468 -13.9568,52.08711 8.812,107.05093 55.512,134.01322 46.6999,26.96232 105.6861,19.19761 143.8166,-18.93286 34.0744,-34.07448 85.3186,-44.2672 129.8391,-25.82624 44.5205,18.44093 73.547,61.88691 73.5516,110.08029 0,-158.85707 -128.7771,-287.63909 -287.639,-287.63909 z"
         style="opacity:1;fill:#941680;fill-opacity:1;stroke:#941680;stroke-width:14.38223648;stroke-linecap:round;stroke-linejoin:miter;stroke-miterlimit:4;stroke-dasharray:none;stroke-opacity:1" />
      <path
         inkscape:export-ydpi="162.80484"
         inkscape:export-xdpi="162.80484"
         inkscape:connector-curvature="0"
         id="path1195-6-8-00"
         d="m 1999.4313,640.18054 c 12.1052,29.10485 37.8488,51.60948 43.9081,83.35099 3.3746,17.67925 -2.3199,39.21469 -19.7351,47.48908 -22.8924,10.87691 -50.4802,2.44112 -61.6126,-20.71344 -6.4916,-13.50199 -5.8518,-30.05177 -1.0315,-43.28075 8.8756,-24.35833 27.5731,-43.47885 38.4711,-66.84588 z"
         style="opacity:1;fill:#941680;fill-opacity:1;stroke:#ffffff;stroke-width:14.38223648;stroke-linecap:round;stroke-linejoin:miter;stroke-miterlimit:4;stroke-dasharray:none;stroke-opacity:1" />
      <path
         inkscape:export-ydpi="162.80484"
         inkscape:export-xdpi="162.80484"
         inkscape:connector-curvature="0"
         id="path1197-5-7-5"
         d="m 1978.1349,731.03431 c 2.4571,12.21245 9.6652,19.39355 19.5768,20.08531"
         style="opacity:1;fill:none;stroke:#ffffff;stroke-width:14.38223648;stroke-linecap:round;stroke-linejoin:miter;stroke-miterlimit:4;stroke-dasharray:none;stroke-opacity:1" />
      <ellipse
         ry="99.844269"
         rx="99.844109"
         cy="906.86218"
         cx="1988.6962"
         id="path1199-2-1-5"
         style="opacity:1;fill:#941680;fill-opacity:1;fill-rule:nonzero;stroke:#ffffff;stroke-width:14.38199997;stroke-linecap:round;stroke-linejoin:round;stroke-miterlimit:4;stroke-dasharray:none;stroke-dashoffset:0;stroke-opacity:1;paint-order:normal" />
      <path
         id="path1887"
         style="fill:#ffffff;fill-opacity:1;stroke:none;stroke-width:0.27898258;stroke-opacity:0.9591837"
         d="m 1991.5944,918.23079 c 1.1389,-0.5607 2.2813,-1.4132 3.0719,-2.2925 4.0062,-4.456 3.1067,-11.6103 -1.8744,-14.9071 -1.8788,-1.2435 -4.5521,-1.9302 -6.5914,-1.6931 -3.3967,0.3949 -6.6366,2.6991 -8.0734,5.7418 -0.6305,1.3352 -0.7242,1.8967 -0.7216,4.3243 0,2.4836 0.085,2.9462 0.7517,4.2147 0.9594,1.8258 1.8548,2.8808 3.2873,3.8735 3.0073,2.0841 6.8487,2.3636 10.1499,0.7384 z m -67.792,35.769 c -2.0752,0.03 -3.324,-0.8902 -4.9321,-3.6338 -1.633,-2.786 -2.1481,-4.0313 -2.1404,-5.1745 0.01,-1.4933 0.9302,-3.1373 2.2671,-4.0498 0.6677,-0.4558 12.8895,-8.1431 27.1595,-17.0829 14.2699,-8.9399 26.1563,-16.4397 26.4141,-16.6663 0.258,-0.2267 0.7299,-1.2713 1.0488,-2.3213 0.319,-1.0501 1.1482,-2.7566 1.8428,-3.7924 0.6945,-1.0357 1.2038,-2.0168 1.1318,-2.1801 -0.072,-0.1633 -1.7706,-2.4939 -3.7744,-5.1792 -2.004,-2.6852 -3.6443,-5.1491 -3.6453,-5.4754 0,-0.9838 12.8153,-57.35412 13.2948,-58.46599 1.0053,-2.33136 2.5535,-3.01438 6.8326,-3.01438 3.8813,0 5.1465,0.48935 6.2842,2.43068 0.7241,1.23557 0.7446,1.40784 1.0128,8.49209 0.1471,18.7399 0.9034,24.8654 1.4088,38.3538 l 0.9182,24.7944 0.9457,1.8831 c 1.1241,2.2379 0.6453,2.1536 7.5217,1.3252 2.5318,-0.305 5.1956,-0.5552 5.9196,-0.5562 h 1.3163 l 11.3774,10.5174 c 33.6286,31.0867 32.6529,30.1603 33.1557,31.4771 0.6702,1.7548 0.4004,3.1261 -1.1425,5.8061 -2.1431,3.7226 -3.275,4.648 -5.6845,4.648 -1.1211,0 -1.8808,-0.2544 -3.8498,-1.2896 v 0 c -1.3492,-0.7093 -15.2177,-8.0535 -30.8189,-16.3205 -15.6012,-8.2669 -28.6735,-15.0308 -29.0497,-15.0308 -0.3763,0 -0.8137,0.1569 -0.9723,0.3487 -0.1585,0.1918 -1.3719,2.8596 -2.6964,5.9284 -1.3245,3.0688 -2.6853,5.8531 -3.0239,6.1873 -0.4427,0.4368 -5.5975,2.1486 -18.3313,6.0876 -4.7463,2.1105 -30.7132,10.5149 -39.7904,11.9561 z"
         inkscape:connector-curvature="0"
         sodipodi:nodetypes="cccccccccccccsccccsccscccccccccccsccsscccccc" />
    </g>
    <text
       xml:space="preserve"
       style="font-style:normal;font-variant:normal;font-weight:normal;font-stretch:normal;font-size:18.66666603px;line-height:1.25;font-family:Arial;-inkscape-font-specification:'Arial, Normal';font-variant-ligatures:normal;font-variant-caps:normal;font-variant-numeric:normal;font-feature-settings:normal;text-align:start;letter-spacing:0px;word-spacing:0px;writing-mode:lr-tb;text-anchor:start;fill:#000000;fill-opacity:1;stroke:none"
       x="1913.8107"
       y="520.06464"
       id="text1917"
       inkscape:export-xdpi="162"
       inkscape:export-ydpi="162"><tspan
         sodipodi:role="line"
         id="tspan1915"
         x="1913.8107"
         y="520.06464"
         style="font-style:normal;font-variant:normal;font-weight:normal;font-stretch:normal;font-size:74.66666412px;font-family:Arial;-inkscape-font-specification:'Arial, Normal';font-variant-ligatures:normal;font-variant-caps:normal;font-variant-numeric:normal;font-feature-settings:normal;text-align:start;writing-mode:lr-tb;text-anchor:start">EPT</tspan></text>
    <g
       transform="translate(-5.6112063e-5)"
       id="g5685">
      <path
         inkscape:export-ydpi="162.80484"
         inkscape:export-xdpi="162.80484"
         style="opacity:1;fill:#941680;fill-opacity:1;stroke:#941680;stroke-width:0.28967798;stroke-opacity:1"
         d="m 2143.0563,1699.7968 c 0,-0.1039 4.439,-12.4678 9.8642,-27.4754 5.4253,-15.0076 9.8248,-27.5625 9.7768,-27.8997 l -0.086,-0.6131 -17.0188,-0.075 c -9.3602,-0.041 -17.0165,-0.1717 -17.0142,-0.2896 0,-0.2506 0.3676,-0.7113 15.2225,-19.3526 6.2033,-7.7847 15.4893,-19.4381 20.6353,-25.8966 5.1463,-6.4585 13.0786,-16.4112 17.6278,-22.1171 4.5491,-5.706 8.3276,-10.318 8.3966,-10.2491 0.069,0.069 -0.9771,3.1732 -2.3245,6.8983 -14.0626,38.8792 -17.2814,47.9183 -17.2051,48.3148 0.081,0.4149 1.8181,0.469 17.2483,0.5362 9.4376,0.041 17.1594,0.1349 17.1594,0.2088 0,0.1401 -61.1771,77.0312 -61.8796,77.7741 -0.2214,0.2333 -0.4012,0.3393 -0.4012,0.2353 z"
         id="path968-5-7-2-6"
         inkscape:connector-curvature="0" />
      <path
         inkscape:export-ydpi="162.80484"
         inkscape:export-xdpi="162.80484"
         inkscape:connector-curvature="0"
         id="path1190-8-4-4-4"
         d="m 1701.0559,1634.8635 c 0,158.857 128.7774,287.6391 287.6393,287.6391 53.9245,0 101.129,-36.2177 115.0858,-88.3047 13.9568,-52.087 -8.812,-107.0567 -55.512,-134.0188 -46.7,-26.9624 -105.6861,-19.1976 -143.8166,18.9329 -34.0744,34.0743 -85.3243,44.2671 -129.8449,25.8262 -44.5204,-18.4409 -73.547,-61.8816 -73.5516,-110.0747 z"
         style="opacity:1;fill:#941680;fill-opacity:1;stroke:#941680;stroke-width:14.38223648;stroke-miterlimit:4;stroke-dasharray:none;stroke-opacity:1" />
      <path
         inkscape:export-ydpi="162.80484"
         inkscape:export-xdpi="162.80484"
         inkscape:connector-curvature="0"
         id="path1027-7-4-05-3"
         d="m 1769.8786,1700.4463 c -7.6154,-1.4062 -10.8005,-2.8828 -13.9594,-6.4713 -3.6099,-4.1013 -4.854,-7.9004 -4.7953,-14.6463 0.08,-9.2743 5.1261,-21.0053 14.3831,-33.4417 5.1537,-6.9238 15.9528,-18.3416 22.5019,-23.7913 l 3.777,-3.143 -4.5327,1.544 c -23.0892,7.8655 -43.9949,29.4934 -50.6151,52.3635 -1.2202,4.2159 -1.3246,4.3388 -2.3923,2.8144 -2.4344,-3.4753 -5.5073,-11.4555 -6.7243,-17.4616 -2.6144,-12.9024 -0.055,-25.066 8.042,-38.2 5.2731,-8.5549 19.7324,-23.3299 28.2717,-28.8891 24.9239,-16.2258 60.0136,-24.7253 91.1894,-22.0882 5.9359,0.5021 11.9609,1.1596 13.3885,1.461 l 2.596,0.548 -3.8482,2.8247 c -2.1162,1.5536 -6.514,5.6577 -9.7724,9.1201 -9.1508,9.7241 -13.4376,17.8888 -15.7189,29.9388 -5.3381,28.1994 -10.5897,44.1151 -19.6905,59.675 -5.4166,9.2614 -16.2041,20.0175 -23.7721,23.7034 -9.1741,4.468 -18.8735,5.8854 -28.3284,4.1396 z"
         style="opacity:1;fill:#941680;fill-opacity:1;stroke:#941680;stroke-width:0.75542152;stroke-opacity:1" />
      <path
         inkscape:export-ydpi="162.80484"
         inkscape:export-xdpi="162.80484"
         sodipodi:nodetypes="scscccs"
         inkscape:connector-curvature="0"
         d="m 1701.0565,1634.8619 c 0,53.9244 36.2188,101.1258 88.3061,115.0826 52.087,13.9568 107.0544,-8.8114 134.0165,-55.5114 26.9624,-46.7 19.1966,-105.6873 -18.9339,-143.8178 -34.0744,-34.0744 -44.2677,-85.3197 -25.8267,-129.8402 18.4409,-44.5205 61.8844,-73.5488 110.0778,-73.5534 -158.8569,0 -287.6398,128.7783 -287.6398,287.6402 z"
         style="opacity:1;fill:none;fill-opacity:1;fill-rule:nonzero;stroke:#941680;stroke-width:14.38199997;stroke-linecap:round;stroke-linejoin:round;stroke-miterlimit:4;stroke-dasharray:none;stroke-dashoffset:0;stroke-opacity:1;paint-order:normal"
         id="path1125-0-2-3-96-9" />
      <path
         inkscape:export-ydpi="162.80484"
         inkscape:export-xdpi="162.80484"
         sodipodi:nodetypes="scscccs"
         inkscape:connector-curvature="0"
         d="m 2276.3365,1634.8617 c 0,-53.9244 -36.2191,-101.1258 -88.3061,-115.0826 -52.087,-13.9568 -107.0545,8.8114 -134.0165,55.5114 -26.9624,46.7 -19.1966,105.6873 18.9339,143.8178 34.0744,34.0744 44.2676,85.3197 25.8267,129.8402 -18.4409,44.5205 -61.8847,73.5488 -110.0779,73.5534 158.857,0 287.6399,-128.7783 287.6399,-287.6402 z"
         style="opacity:1;fill:none;fill-opacity:1;fill-rule:nonzero;stroke:#941680;stroke-width:14.38199997;stroke-linecap:round;stroke-linejoin:round;stroke-miterlimit:4;stroke-dasharray:none;stroke-dashoffset:0;stroke-opacity:1;paint-order:normal"
         id="path1125-5-5-5-8-2" />
      <path
         inkscape:export-ydpi="162.80484"
         inkscape:export-xdpi="162.80484"
         inkscape:connector-curvature="0"
         id="path1183-2-3-6-5"
         d="m 1988.6952,1347.2244 c -53.9245,0 -101.1235,36.2176 -115.0803,88.3047 -13.9568,52.0871 8.812,107.0509 55.512,134.0132 46.6999,26.9623 105.6861,19.1976 143.8166,-18.9329 34.0743,-34.0745 85.3186,-44.2672 129.8391,-25.8262 44.5204,18.4409 73.547,61.8869 73.5516,110.0803 0,-158.8571 -128.7771,-287.6391 -287.639,-287.6391 z"
         style="opacity:1;fill:#941680;fill-opacity:1;stroke:#941680;stroke-width:14.38223648;stroke-linecap:round;stroke-linejoin:miter;stroke-miterlimit:4;stroke-dasharray:none;stroke-opacity:1" />
      <ellipse
         ry="99.844269"
         rx="99.844109"
         cy="1634.8622"
         cx="1988.6962"
         id="path1199-2-1-5-3"
         style="opacity:1;fill:#941680;fill-opacity:1;fill-rule:nonzero;stroke:#ffffff;stroke-width:14.38199997;stroke-linecap:round;stroke-linejoin:round;stroke-miterlimit:4;stroke-dasharray:none;stroke-dashoffset:0;stroke-opacity:1;paint-order:normal"
         inkscape:export-xdpi="162"
         inkscape:export-ydpi="162" />
      <path
         id="path1887-4"
         style="fill:#ffffff;fill-opacity:1;stroke:none;stroke-width:0.27898258;stroke-opacity:0.9591837"
         d="m 1991.5944,1646.2308 c 1.1389,-0.5607 2.2813,-1.4132 3.0719,-2.2925 4.0062,-4.456 3.1067,-11.6103 -1.8744,-14.9071 -1.8788,-1.2435 -4.5521,-1.9302 -6.5914,-1.6931 -3.3967,0.3949 -6.6366,2.6991 -8.0734,5.7418 -0.6305,1.3352 -0.7242,1.8967 -0.7216,4.3243 0,2.4836 0.085,2.9462 0.7517,4.2147 0.9594,1.8258 1.8548,2.8808 3.2873,3.8735 3.0073,2.0841 6.8487,2.3636 10.1499,0.7384 z m -67.792,35.769 c -2.0752,0.03 -3.324,-0.8902 -4.9321,-3.6338 -1.633,-2.786 -2.1481,-4.0313 -2.1404,-5.1745 0.01,-1.4933 0.9302,-3.1373 2.2671,-4.0498 0.6677,-0.4558 12.8895,-8.1431 27.1595,-17.0829 14.2699,-8.9399 26.1563,-16.4397 26.4141,-16.6663 0.258,-0.2267 0.7299,-1.2713 1.0488,-2.3213 0.319,-1.0501 1.1482,-2.7566 1.8428,-3.7924 0.6945,-1.0357 1.2038,-2.0168 1.1318,-2.1801 -0.072,-0.1633 -1.7706,-2.4939 -3.7744,-5.1792 -2.004,-2.6852 -3.6443,-5.1491 -3.6453,-5.4754 0,-0.9838 12.8153,-57.3542 13.2948,-58.466 1.0053,-2.3314 2.5535,-3.0144 6.8326,-3.0144 3.8813,0 5.1465,0.4893 6.2842,2.4307 0.7241,1.2355 0.7446,1.4078 1.0128,8.4921 0.1471,18.7399 0.9034,24.8654 1.4088,38.3538 l 0.9182,24.7944 0.9457,1.8831 c 1.1241,2.2379 0.6453,2.1536 7.5217,1.3252 2.5318,-0.305 5.1956,-0.5552 5.9196,-0.5562 h 1.3163 l 11.3774,10.5174 c 33.6286,31.0867 32.6529,30.1603 33.1557,31.4771 0.6702,1.7548 0.4004,3.1261 -1.1425,5.8061 -2.1431,3.7226 -3.275,4.648 -5.6845,4.648 -1.1211,0 -1.8808,-0.2544 -3.8498,-1.2896 v 0 c -1.3492,-0.7093 -15.2177,-8.0535 -30.8189,-16.3205 -15.6012,-8.2669 -28.6735,-15.0308 -29.0497,-15.0308 -0.3763,0 -0.8137,0.1569 -0.9723,0.3487 -0.1585,0.1918 -1.3719,2.8596 -2.6964,5.9284 -1.3245,3.0688 -2.6853,5.8531 -3.0239,6.1873 -0.4427,0.4368 -5.5975,2.1486 -18.3313,6.0876 -4.7463,2.1105 -30.7132,10.5149 -39.7904,11.9561 z"
         inkscape:connector-curvature="0"
         sodipodi:nodetypes="cccccccccccccsccccsccscccccccccccsccsscccccc"
         inkscape:export-xdpi="162"
         inkscape:export-ydpi="162" />
      <path
         inkscape:connector-curvature="0"
         d="m 1940.2283,1464.1491 c 13.6829,-13.6101 36.2805,-6.5704 47.8901,0 11.6098,6.5704 34.8292,13.1409 47.8901,0 m -95.7802,-26.7446 c 13.6829,-13.6101 36.2805,-6.5704 47.8901,0 11.6098,6.5704 34.8292,13.1409 47.8901,0 m -95.7802,-26.7446 c 13.6829,-13.6101 36.2805,-6.5704 47.8901,0 11.6098,6.5704 34.8292,13.1409 47.8901,0"
         style="opacity:1;fill:none;stroke:#ffffff;stroke-width:14.38199997;stroke-linecap:round;stroke-linejoin:miter;stroke-miterlimit:4;stroke-dasharray:none;stroke-opacity:1"
         id="path1243-0"
         inkscape:export-xdpi="162"
         inkscape:export-ydpi="162" />
      <path
         inkscape:connector-curvature="0"
         d="m 2011.5034,1799.5657 17.7504,-18.6788 m -81.1152,85.3578 17.7504,-18.6788 m 45.6144,0 17.7504,18.6788 m -81.1152,-85.3578 17.7504,18.6788 m 55.0615,24.0001 h 25.1028 m -114.7142,0 h 25.1028 m 32.2543,33.9413 v 26.4158 m 0,-120.7142 v 26.4158 m 32.2542,33.9413 c 10e-5,18.7453 -14.4407,33.9413 -32.2542,33.9413 -17.8135,0 -32.2543,-15.196 -32.2542,-33.9413 -10e-5,-18.7453 14.4407,-33.9413 32.2542,-33.9413 17.8135,0 32.2543,15.196 32.2542,33.9413 z"
         style="fill:none;stroke:#ffffff;stroke-width:14.38199902;stroke-linecap:round;stroke-linejoin:miter;stroke-miterlimit:4;stroke-dasharray:none;stroke-opacity:1"
         id="path1282-6-2-7"
         sodipodi:nodetypes="cccccccccccccccccscsc"
         inkscape:export-xdpi="162"
         inkscape:export-ydpi="162" />
    </g>
  </g>
  <g
     id="g6920"
     inkscape:export-xdpi="162"
     inkscape:export-ydpi="162"
     transform="translate(-1693.8648,-466.61672)" />
</svg>
