<?xml version="1.0" encoding="UTF-8" standalone="no"?>
<!-- Created with Inkscape (http://www.inkscape.org/) -->

<svg
   xmlns:dc="http://purl.org/dc/elements/1.1/"
   xmlns:cc="http://creativecommons.org/ns#"
   xmlns:rdf="http://www.w3.org/1999/02/22-rdf-syntax-ns#"
   xmlns:svg="http://www.w3.org/2000/svg"
   xmlns="http://www.w3.org/2000/svg"
   xmlns:sodipodi="http://sodipodi.sourceforge.net/DTD/sodipodi-0.dtd"
   xmlns:inkscape="http://www.inkscape.org/namespaces/inkscape"
   version="1.1"
   id="svg2"
   width="628.47791"
   height="628.47791"
   viewBox="0 0 628.47791 628.47791"
   sodipodi:docname="FaRaLogo.svg"
   inkscape:version="0.92.3 (2405546, 2018-03-11)">
  <metadata
     id="metadata8">
    <rdf:RDF>
      <cc:Work
         rdf:about="">
        <dc:format>image/svg+xml</dc:format>
        <dc:type
           rdf:resource="http://purl.org/dc/dcmitype/StillImage" />
        <dc:title />
      </cc:Work>
    </rdf:RDF>
  </metadata>
  <defs
     id="defs6" />
  <sodipodi:namedview
     pagecolor="#ffffff"
     bordercolor="#666666"
     borderopacity="1"
     objecttolerance="10"
     gridtolerance="10"
     guidetolerance="10"
     inkscape:pageopacity="0"
     inkscape:pageshadow="2"
     inkscape:window-width="1920"
     inkscape:window-height="1017"
     id="namedview4"
     showgrid="false"
     inkscape:zoom="1.5020417"
     inkscape:cx="329.68719"
     inkscape:cy="375.42669"
     inkscape:window-x="-8"
     inkscape:window-y="-8"
     inkscape:window-maximized="1"
     inkscape:current-layer="g1053" />
  <path
     style="display:none;fill:#941680;fill-opacity:1;stroke-width:0.15711948"
     d="m 1118.2035,180.71632 c 4.3233,-0.38681 7.2738,-1.10265 9.9852,-2.42256 9.4152,-4.58344 13.5095,-15.83078 9.1092,-25.02377 -0.8937,-1.86707 -1.7383,-3.10028 -3.1188,-4.55356 -3.3167,-3.49166 -7.8155,-5.53053 -19.1366,-8.67277 -9.4316,-2.61779 -11.6083,-3.87636 -11.6083,-6.71201 0,-3.52409 4.0386,-5.45151 10.9004,-5.20219 2.8665,0.10417 4.0095,0.40934 5.419,1.44699 1.6572,1.21997 3.2564,3.61904 3.4197,5.13028 0.2204,2.03984 0.324,2.18052 1.6011,2.17504 0.4907,-0.002 1.1751,-0.0689 1.5207,-0.14845 1.2031,-0.27681 3.4543,-0.49291 6.5161,-0.62551 3.6124,-0.15642 4.1083,-0.29103 4.407,-1.19616 0.3963,-1.20082 -0.045,-3.71426 -1.0939,-6.23006 -1.2027,-2.88479 -4.2668,-6.60607 -6.8456,-8.31368 -8.8022,-5.82869 -24.7322,-5.49819 -32.9357,0.68332 -4.0291,3.03603 -6.3572,8.42905 -6.0556,14.0275 0.3327,6.17608 3.7776,11.26653 9.6611,14.276 2.9972,1.53307 5.4833,2.4021 12.5987,4.40387 7.5339,2.11949 11.0038,3.80292 12.2606,5.94824 0.446,0.76126 0.4789,0.91676 0.4243,2.00566 -0.05,0.99345 -0.1521,1.35751 -0.6465,2.2983 -0.3231,0.61482 -0.9686,1.57991 -1.4344,2.14465 -1.6353,1.98263 -3.6224,2.51246 -9.5042,2.5343 -3.8123,0.0141 -4.5359,-0.10825 -6.599,-1.11639 -2.137,-1.04422 -3.3595,-2.58674 -4.7712,-6.02 -0.8947,-2.17594 -1.2348,-2.69971 -2.0608,-3.1733 -0.5942,-0.3407 -0.7877,-0.36106 -3.3022,-0.34777 -4.1205,0.0218 -6.7162,0.60271 -7.9862,1.78736 -0.5899,0.55019 -0.6185,0.62097 -0.5986,1.48118 0.049,2.11749 1.784,7.08494 3.5141,10.05981 1.5319,2.63411 5.0582,5.45271 9.4923,7.58738 1.8812,0.90567 4.0322,1.52268 6.1054,1.7513 1.7909,0.19752 8.6245,0.2083 10.7627,0.017 z"
     id="path884"
     inkscape:connector-curvature="0" />
  <path
     style="display:none;fill:#941680;fill-opacity:1;stroke-width:0.15711948"
     d="m 995.33604,167.06787 v -13.02558 l 10.72336,-0.081 c 8.5294,-0.0644 11.0449,-0.13031 12.2946,-0.32197 0.8642,-0.13253 1.6192,-0.2444 1.6779,-0.24858 0.059,-0.004 0.2177,-0.1187 0.3535,-0.2545 0.3891,-0.38915 0.3146,-5.27258 -0.1564,-10.24083 l -0.093,-0.98199 h -12.3214 -12.32134 v -0.6002 c 0,-0.7179 -0.42008,-8.9569 -0.55619,-10.90881 l -0.0959,-1.37479 h 14.67923 14.6792 l 0.2066,-3.41735 c 0.2869,-4.74654 0.2913,-8.02762 0.011,-8.20086 -0.4576,-0.28278 -6.7278,-0.38266 -24.60322,-0.39185 l -18.54009,-0.01 -0.0403,31.34533 c -0.0222,17.23993 -0.007,31.43371 0.0344,31.54173 0.0582,0.15307 1.61856,0.1964 7.07139,0.1964 h 6.99675 v -13.02516 z"
     id="path882"
     inkscape:connector-curvature="0" />
  <path
     style="display:none;fill:#941680;fill-opacity:1;stroke-width:0.15711948"
     d="m 1063.9971,179.73994 c 0.083,-0.19444 1.2442,-3.47228 2.5811,-7.28411 1.3369,-3.81181 4.5289,-12.82654 7.0932,-20.03273 8.7201,-24.50492 11.8086,-33.60019 11.639,-34.27563 -0.23,-0.91665 -2.4833,-1.21571 -9.1614,-1.21592 l -4.4243,-1.2e-4 -7.3597,22.16225 -7.3596,22.16226 -6.6701,-19.53051 c -3.6686,-10.74177 -7.0724,-20.69711 -7.5639,-22.12297 l -0.8938,-2.59247 -4.3772,-0.0482 c -5.766,-0.0635 -10.2691,0.24825 -10.2691,0.71105 0,0.41638 2.9131,8.6503 10.5774,29.89693 3.0706,8.51194 6.8258,18.94075 8.345,23.17512 1.5192,4.23437 2.89,7.87561 3.0462,8.09165 0.4103,0.56734 1.2891,0.95085 2.5029,1.09218 0.5832,0.0679 3.5542,0.13277 6.6022,0.14413 l 5.5419,0.0207 z"
     id="path880"
     inkscape:connector-curvature="0" />
  <path
     style="display:none;fill:#941680;fill-opacity:1;stroke-width:0.15711948"
     d="m 1176.3377,154.56154 v -25.53191 h 9.0343 9.0344 v -0.74632 c 0,-1.56021 -0.5119,-10.64938 -0.6077,-10.74366 -0.055,-0.0543 -7.9838,-0.17837 -17.6192,-0.27562 -9.6354,-0.0973 -20.7535,-0.22271 -24.707,-0.27877 l -7.1883,-0.10196 v 6.07317 6.07316 h 8.9559 8.9558 v 25.42716 c 0,13.98495 0.047,25.47431 0.1047,25.53191 0.058,0.0576 3.2393,0.10475 7.0704,0.10475 h 6.9656 v -25.53191 z"
     id="path878"
     inkscape:connector-curvature="0" />
  <path
     style="display:none;fill:#941680;fill-opacity:1;stroke-width:0.15711948"
     d="m 993.41269,75.569725 0.0407,-8.44518 h 7.93321 7.9332 v -4.0851 -4.08511 h -7.9346 -7.93454 v -3.92799 -3.92798 h 9.42724 9.4271 v -4.08511 -4.08511 h -13.98364 -13.98364 v 20.58507 20.58506 l 4.51719,-0.0417 4.51718,-0.0417 z"
     id="path876"
     inkscape:connector-curvature="0" />
  <path
     style="display:none;fill:#941680;fill-opacity:1;stroke-width:0.15711948"
     d="m 1042.9429,83.347135 c 0,-0.41047 -0.105,-3.64517 -0.2329,-7.18822 -0.4051,-11.22759 -0.674,-14.20597 -1.5246,-16.89034 -0.4031,-1.27199 -0.7828,-1.93357 -1.6051,-2.7964 -0.8656,-0.90818 -1.6565,-1.3472 -3.5806,-1.98729 -2.7237,-0.90611 -3.9874,-1.11071 -6.7259,-1.08887 -2.907,0.0232 -4.6764,0.41243 -6.9806,1.53567 -2.1709,1.0583 -4.496,3.28806 -5.4579,5.23422 -0.5496,1.11181 -0.521,1.57293 0.1352,2.18105 1.1031,1.02233 5.7088,1.66202 7.0277,0.97609 0.1795,-0.0933 0.6817,-0.50249 1.1159,-0.9092 0.9582,-0.89736 2.0708,-1.3423 3.9982,-1.59891 1.7058,-0.22712 3.1395,-0.0273 3.7204,0.51845 0.7143,0.67105 0.3533,2.10332 -0.7566,3.00164 -0.4422,0.3579 -0.8322,0.48216 -2.1046,0.67066 -0.859,0.12724 -2.5768,0.4839 -3.8173,0.79256 -4.3446,1.08102 -6.5123,2.04167 -8.2013,3.63452 -2.0548,1.93784 -2.7069,4.12845 -2.1266,7.14441 0.5474,2.84508 2.088,5.42049 3.7581,6.28231 1.1148,0.57526 2.9134,0.93595 5.133,1.02935 3.2431,0.13647 4.4109,-0.0669 8.2985,-1.44498 1.2796,-0.45362 1.6543,-0.41463 1.9503,0.20294 0.2618,0.5462 1.2645,1.09123 2.3343,1.26876 0.4678,0.0776 1.9288,0.14943 3.2467,0.15953 l 2.396,0.0184 v -0.74632 z"
     id="path874"
     inkscape:connector-curvature="0" />
  <path
     style="display:none;fill:#941680;fill-opacity:1;stroke-width:0.15711948"
     d="m 1026.3184,77.499525 c -1.0189,-0.63909 -1.2997,-2.51696 -0.6007,-4.01806 0.651,-1.39788 1.2564,-1.73823 3.9256,-2.20695 1.698,-0.29816 2.515,-0.18983 3.1183,0.41349 0.3675,0.36747 0.4402,0.57301 0.4402,1.24414 0,1.04111 -0.4337,1.88549 -1.5066,2.93298 -1.6773,1.63752 -4.1658,2.39396 -5.3768,1.6344 z"
     id="path872"
     inkscape:connector-curvature="0" />
  <path
     style="display:none;fill:#941680;fill-opacity:1;stroke-width:0.15711948"
     d="m 1057.443,77.455125 c 0.1005,-8.35363 0.274,-9.68083 1.3101,-10.02277 1.2782,-0.42181 2.935,0.39822 5.1924,2.56996 2.0646,1.9863 3.5032,3.85136 7.3397,9.51573 l 3.1243,4.61284 3.8675,-0.0791 c 3.8313,-0.0783 5.3436,-0.27386 5.9389,-0.76787 0.298,-0.24736 0.1275,-0.78007 -0.8459,-2.64214 -1.6351,-3.12801 -4.3673,-7.18675 -7.9158,-11.75884 l -2.1573,-2.77973 1.8313,-0.89094 c 2.1638,-1.05266 3.3567,-2.0461 4.4287,-3.68829 3.4837,-5.33642 2.4128,-12.53925 -2.3282,-15.66005 -1.921,-1.26453 -4.1673,-1.95157 -7.8133,-2.38971 -2.324,-0.27927 -10.1426,-0.53251 -16.6915,-0.54063 l -4.4386,-0.006 v 20.58266 20.58265 h 4.5388 4.5389 z"
     id="path870"
     inkscape:connector-curvature="0" />
  <path
     style="display:none;fill:#941680;fill-opacity:1;stroke-width:0.15711948"
     d="m 1057.398,55.481055 v -4.41597 l 4.8314,0.077 c 5.093,0.0812 6.0684,0.19565 7.7194,0.90589 0.877,0.37724 1.8373,1.32161 1.9989,1.96573 0.1812,0.72163 -0.029,2.46927 -0.38,3.1561 -0.4909,0.96128 -1.4966,1.74514 -2.6964,2.10156 -1.6121,0.47891 -3.3899,0.62564 -7.5805,0.62564 h -3.8928 z"
     id="path868"
     inkscape:connector-curvature="0" />
  <path
     style="display:none;fill:#941680;fill-opacity:1;stroke-width:0.15711948"
     d="m 1099.5071,83.703205 c 0.6475,-0.13465 1.7896,-0.45546 2.538,-0.7129 0.7483,-0.25744 1.6719,-0.46808 2.0523,-0.46808 0.5842,0 0.7449,0.0722 1.0356,0.46535 0.5631,0.76171 1.5551,0.9757 4.9393,1.06549 2.4281,0.0644 2.9459,0.0403 2.9457,-0.13714 0,-0.61843 -0.4736,-12.87697 -0.5538,-14.35605 -0.2377,-4.38121 -0.8034,-9.25647 -1.2671,-10.91981 -0.6562,-2.354 -3.1517,-4.14727 -6.899,-4.9577 -1.558,-0.33695 -5.4212,-0.38309 -7.2275,-0.0863 -5.1702,0.84944 -9.0054,3.3238 -9.6797,6.24515 -0.2481,1.07486 -0.076,1.83722 0.577,2.56033 0.8847,0.97923 1.9011,1.34243 3.7607,1.34378 1.4385,10e-4 1.6343,-0.036 2.3186,-0.43824 0.4112,-0.24166 0.8608,-0.61222 0.9992,-0.82347 0.6369,-0.97205 3.6351,-1.88958 5.7317,-1.75404 1.7528,0.11332 2.4987,0.59181 2.4987,1.60282 0,0.6372 -0.2628,0.99275 -1.1491,1.5543 -1.1846,0.7506 -2.6768,1.2745 -5.6166,1.97194 -3.9667,0.94107 -5.6376,1.59402 -7.2866,2.84751 -2.1882,1.66341 -2.9949,3.79191 -2.884,7.60988 0.057,1.95846 0.1088,2.29746 0.473,3.09135 1.6655,3.63082 7.0801,5.46324 12.6936,4.29585 z"
     id="path866"
     inkscape:connector-curvature="0" />
  <path
     style="display:none;fill:#941680;fill-opacity:1;stroke-width:0.15711948"
     d="m 1096.1574,77.342095 c -0.6807,-0.59765 -0.9674,-1.47396 -0.8388,-2.56364 0.1088,-0.92117 0.7598,-2.15809 1.3755,-2.61327 1.0185,-0.75307 4.8848,-1.3082 5.7562,-0.82651 0.1936,0.10698 0.4587,0.40101 0.5892,0.6534 1.0588,2.04742 -2.1404,5.55371 -5.2738,5.7802 -0.987,0.0713 -1.0591,0.0521 -1.6083,-0.43018 z"
     id="path862"
     inkscape:connector-curvature="0" />
  <g
     id="g1053"
     transform="translate(-633.75159,63.93918)">
    <path
       d="m 747.4015,224.41051 c 0,-1.29151 0.0715,-1.76015 0.41332,-2.70764 1.40708,-3.90076 5.26921,-7.71673 10.31475,-10.19152 4.0894,-2.00579 5.2014,-2.15386 17.632,-2.34779 5.09852,-0.0795 17.66612,-0.1481 27.92799,-0.15238 l 18.65793,-0.008 v -11.94601 c 0,-9.42011 -0.0415,-11.95868 -0.1964,-12.00591 -0.10802,-0.0329 -3.1306,-0.17941 -6.71685,-0.32547 -3.58626,-0.14606 -6.53009,-0.27597 -6.54188,-0.28868 -0.0118,-0.0127 -0.10572,-1.01298 -0.20876,-2.2228 -0.3449,-4.04931 -0.82728,-5.2635 -2.09118,-5.2635 -1.24833,0 -3.85644,-2.10835 -5.21712,-4.21743 -1.14569,-1.77581 -1.39026,-2.60393 -1.39944,-4.73838 -0.0164,-3.80677 1.05779,-5.54116 5.09055,-8.2193 1.06541,-0.70754 2.13411,-1.53389 2.37491,-1.83635 0.71729,-0.901 0.92254,-2.06191 0.92254,-5.21795 v -2.79513 h -24.982 -24.98199 l -0.005,-0.66776 c -0.009,-1.16333 -0.42795,-4.26375 -0.63934,-4.72618 -0.22185,-0.48533 -1.00601,-0.94868 -1.87029,-1.10515 -0.44069,-0.0798 -7.52823,-0.56774 -8.28743,-0.57055 -0.15243,0 -0.1964,-0.98574 -0.1964,-4.40008 v -4.39935 h 54.0491 c 29.727,0 54.0491,-0.054 54.0491,-0.11991 0,-0.58315 -1.05556,-4.77496 -1.61175,-6.40055 -2.52502,-7.37988 -6.37199,-14.32863 -11.06149,-19.98025 -1.66649,-2.00838 -5.03895,-5.30602 -7.12381,-6.96577 -3.66456,-2.917315 -8.40728,-5.637765 -12.96335,-7.435845 -3.26174,-1.28726 -8.61983,-2.78375 -9.93019,-2.77344 -0.79321,0.006 -1.68383,0.55917 -2.74258,1.70272 -1.34595,1.45375 -2.79401,3.57486 -3.63065,5.31814 -0.63552,1.32425 -0.66306,1.44352 -0.66377,2.874215 -0.002,1.76634 -0.28846,2.50116 -1.49609,3.8225 -0.96751,1.05862 -2.07813,1.6613 -3.40858,1.84972 -2.04048,0.28898 -6.22849,2.26614 -11.44508,5.40326 -5.77536,3.47314 -8.32124,5.34649 -11.47696,8.44516 l -2.37264,2.32975 -2.73375,-2.07352 c -3.35741,-2.54658 -5.63535,-4.41476 -6.63105,-5.43828 l -0.75491,-0.776 0.19113,-0.77147 c 0.27828,-1.12319 1.33489,-3.68656 2.80169,-6.79696 2.24658,-4.76394 3.8309,-8.939895 4.80715,-12.670685 0.7975,-3.04769 1.01591,-4.56699 1.01591,-7.06688 0,-1.71858 0.0724,-2.5155 0.3144,-3.46179 0.34769,-1.35948 0.92534,-2.47039 1.47017,-2.82737 0.19678,-0.12894 1.08218,-0.30772 1.98048,-0.3999 1.86453,-0.19134 2.13932,-0.30725 3.4609,-1.45984 1.36767,-1.19279 2.63608,-2.66558 5.70555,-6.62488 12.35932,-15.94225 19.47716,-24.98892 22.80663,-28.98686 2.35163,-2.82376 3.43671,-4.26789 4.52655,-6.02436 1.37356,-2.21373 1.58424,-2.79895 1.68396,-4.67727 0.0804,-1.51462 0.1415,-1.77302 0.67421,-2.85088 0.99572,-2.0147 4.42723,-4.35569 4.42723,-4.35569 0,0 1.43897,0.47242 2.33837,1.1081 1.69169,1.19572 2.31786,0.93959 5.46669,-2.23611 2.22136,-2.24032 3.6883,-4.04769 4.34856,-5.3577 1.06051,-2.10415 5.21076,-7.19297 8.78477,-10.7714297 2.83145,-2.83499 2.84591,-2.86225 2.14852,-4.05226 -0.47934,-0.81791 -0.43646,-1.36907 0.20595,-2.64774998 1.24729,-2.48264002 5.15132,-7.34011002 6.75095,-8.39966002 0.69081,-0.45758 0.73754,-0.46655 1.27039,-0.24391 0.7694,0.32148 3.65743,2.24649 6.07215,4.04737 2.9195,2.17736 15.94213,12.42329 15.95341,12.55181 0.005,0.0596 -0.61495,0.94336 -1.37816,1.9639897 -1.5864,2.12144 -3.16696,3.67656 -4.79187,4.71478 -1.73056,1.10572 -3.62827,3.07272 -6.94302,7.19655 -1.66705,2.07398 -3.58567,4.38532 -4.26356,5.13631 -3.29499,3.6503 -4.72413,5.30627 -6.88967,7.98317 -1.2933,1.59869 -2.85397,3.47391 -3.46815,4.16716 -1.19499,1.34883 -1.48029,1.77676 -1.48029,2.22033 0,0.15427 0.82312,1.0707 1.82916,2.03651 l 1.82915,1.75603 -0.0806,0.7147 c -0.13792,1.22355 -2.90889,5.01271 -4.38013,5.9896 -0.55168,0.36631 -0.92683,0.47729 -1.86865,0.55278 -0.66495,0.0533 -1.41081,0.21836 -1.7118,0.37884 -0.74857,0.39912 -2.82732,2.50695 -4.66543,4.73069 -3.22956,3.90709 -8.20127,10.56473 -8.87368,11.88277 -0.30651,0.6008 -0.3065,0.60566 0.004,0.91579 0.48165,0.48165 1.91849,1.1503 4.32746,2.01381 4.43141,1.58849 10.75137,4.3446 13.11948,5.72136 3.36743,1.95775 7.98049,4.95066 9.44275,6.12638 6.27798,5.04775 20.20285,18.833295 23.97381,23.733955 1.23521,1.60525 5.73777,10.35998 8.42512,16.38172 3.66334,8.20868 6.39533,16.29774 7.08424,20.97545 0.69553,4.72275 1.03807,10.55696 1.03807,17.68084 0,7.14307 -0.2189,9.93853 -1.03306,13.19313 -2.49009,9.95397 -9.35098,20.25661 -16.64288,24.99172 -1.69892,1.10323 -2.97424,1.72579 -4.67138,2.28039 -2.57772,0.84236 -3.26316,1.45683 -3.26316,2.92526 0,0.94808 0.36686,1.36468 1.41408,1.60591 0.3964,0.0913 2.65716,0.16453 5.14566,0.1667 l 4.43863,0.004 v 8.48445 8.48445 h -66.4619 -66.46154 v -1.56183 z m 121.06056,21.51535 c 33.83572,-0.17793 46.85955,-0.40938 49.35258,-0.87706 0.45168,-0.0848 0.52287,-0.16944 0.61859,-0.73593 0.51168,-3.02862 6.21073,-9.18822 11.70815,-12.65431 1.92469,-1.2135 3.28479,-1.80394 5.46663,-2.37317 l 1.67238,-0.4363 -0.0356,-46.49238 c -0.0374,-48.80262 -0.36354,-234.701085 -0.4119,-234.749825 -0.0508,-0.0512 -7.66126,0.25063 -10.708,0.4247 C 767.4585,-38.389198 649.60609,93.300032 644.9601,245.73012 l -5.1e-4,0.35351 97.3748,-0.003 c 53.55614,-0.002 110.31358,-0.0713 126.12766,-0.15448 z m 68.68757,38.51086 -3.86261,-1.90369 c -5.73225,-2.82515 -8.66825,-4.923 -11.28012,-8.05992 -2.80268,-3.36609 -3.89693,-5.66098 -5.47133,-11.47462 -0.6406,-2.36551 -0.81293,-2.82405 -1.10266,-2.93422 -0.58194,-0.22124 -4.89726,-0.46255 -11.23433,-0.62817 -100.36636,-0.69146 -151.71445,-0.4652 -259.26399,-0.46832 l 0.0925,0.98199 c 0.0509,0.5401 0.23546,3.35058 0.41021,6.2455 0.56065,9.28753 1.04253,14.78719 1.87914,21.44681 20.48646,83.02928 44.60551,141.80321 105.89949,194.52275 16.45006,13.21049 34.14219,25.05779 52.39837,35.45942 3.38784,1.91511 6.59209,3.48524 6.884,3.37323 0.27164,-0.10423 0.36709,-0.83907 0.57576,-4.43231 0.50447,-8.68743 1.14566,-29.23858 1.73042,-55.46318 0.52184,-23.40272 0.65332,-28.02513 1.49498,-52.55646 0.29798,-8.68478 0.68377,-20.17414 0.85734,-25.53192 0.17357,-5.35777 0.33562,-10.25401 0.36013,-10.88052 l 0.0446,-1.13912 -1.4957,-0.002 c -3.13681,-0.002 -4.61681,-0.55694 -6.64048,-2.49034 -0.68515,-0.65459 -1.45727,-1.45725 -1.71582,-1.7837 l -0.47009,-0.59353 1.20739,-3.41845 c 1.83809,-5.20416 2.61052,-6.63222 3.93391,-7.27286 0.88917,-0.43044 1.41745,-0.34631 3.08273,0.49098 0.67638,0.34009 1.63307,0.72338 2.12596,0.85176 1.64044,0.42727 3.3211,0.23501 3.67168,-0.42006 0.32417,-0.60574 -0.7809,-1.75453 -3.44448,-3.58078 -3.7994,-2.60502 -9.6932,-7.93822 -23.35777,-21.13611 -4.66645,-4.50707 -9.2622,-8.92557 -10.21277,-9.81889 -4.24159,-3.98608 -24.9903,-21.60301 -38.49427,-32.68397 -8.44313,-6.92819 -10.28713,-8.59401 -10.87285,-9.82228 -0.32643,-0.68454 -0.14959,-1.32307 0.44538,-1.60824 0.76611,-0.36719 1.8112,0.12472 5.38453,2.53438 28.00363,18.39299 50.8354,40.03937 76.45374,60.44858 1.65816,1.31246 3.35472,2.77347 6.38023,5.4944 2.36936,2.13083 4.2456,3.55054 5.51664,4.17431 0.74066,0.3635 1.11598,0.4458 2.0329,0.44583 1.02362,3e-5 1.17859,-0.0437 1.72686,-0.48749 0.38612,-0.31251 0.89245,-1.02965 1.41054,-1.99779 1.02704,-1.91923 2.19915,-3.31506 5.50212,-6.55229 11.01132,-10.79217 30.87745,-25.80111 32.28621,-24.39234 -6.08334,12.58772 -18.01268,23.83047 -27.04196,33.27282 -4.17042,4.35243 -5.40221,5.96724 -6.26332,8.21081 -0.3636,0.94736 -0.40706,1.28329 -0.41148,3.18035 -0.008,3.4487 0.36911,4.8846 5.47298,20.83733 1.68316,5.26091 4.40648,13.80752 6.05185,18.99246 1.64535,5.18494 3.59906,11.15941 4.34155,13.2766 1.67733,4.78281 2.41903,7.16149 3.82135,12.25532 1.32498,4.81288 10.9715,43.37066 11.57641,46.27168 0.54912,2.63342 0.69002,4.79158 0.33226,5.08849 -0.58126,0.4824 -1.16622,-0.33302 -2.46685,-3.43873 -1.74824,-4.17451 -3.52011,-9.58527 -7.92359,-24.1964 -3.5,-11.61336 -5.14104,-16.95238 -7.41305,-24.11784 -11.35452,-35.81006 -21.30661,-62.00661 -22.93699,-60.37624 -0.60991,0.60991 -0.65156,4.35219 -0.1465,13.16183 0.39644,6.91483 0.86678,19.82603 1.18768,32.6023 0.0847,3.37021 0.19384,7.68314 0.24266,9.58428 0.0488,1.90115 0.22702,10.59771 0.39603,19.3257 0.34744,17.94165 0.55957,26.22967 0.78821,30.79542 0.41838,8.3547 0.75174,26.75825 0.79829,44.07201 0.0118,4.36399 0.065,9.30213 0.1183,10.97365 l 0.0969,3.0391 2.27823,0.9378 c 9.9922,4.11315 32.80315,11.39982 43.17153,13.79058 13.08596,3.01738 29.98958,5.63774 46.22945,7.16638 2.28856,0.21541 11.48067,0.93856 12.6874,0.99811 l 0.35352,0.0175 c 0.033,-89.5526 -0.0416,-179.10419 -0.20935,-268.65768 z m 227.11787,124.03834 c -9.4075,-1.01303 -16.0797,-12.06983 -12.5764,-20.86285 2.8535,-9.31845 7.6752,-17.83999 12.0158,-26.51314 -0.3983,-3.1824 4.8862,-4.65524 6.1886,-1.7228 5.4592,9.82153 10.4117,19.98097 13.9033,30.6821 2.1455,9.85955 -7.3944,20.15708 -17.3887,18.77192 -0.7221,-0.0613 -1.4397,-0.17828 -2.1426,-0.35523 z m -168.61722,50.97348 c -2.49772,-0.34558 -3.95272,-0.84783 -5.66487,-1.9554 -5.58071,-3.61015 -8.69986,-12.1876 -6.7397,-18.53383 1.0562,-3.41961 3.31676,-5.4453 43.67129,-39.13403 18.8839,-15.76461 22.1659,-18.5232 31.0311,-26.08282 3.4567,-2.94753 13.3552,-11.29053 21.9968,-18.53999 14.7773,-12.39682 19.1496,-16.08151 22.1527,-18.66914 2.451,-2.11188 3.0793,-2.26695 9.9782,-2.46265 7.9312,-0.22498 10.0997,-0.57653 17.9116,-2.90377 6.6661,-1.98585 10.4497,-2.8893 12.6621,-3.02346 4.4037,-0.26703 9.6912,1.88546 10.8885,4.43267 0.702,1.49339 0.3853,2.04615 -2.5314,4.41868 -3.0213,2.4576 -6.4677,5.33961 -18.1125,15.14639 -9.8416,8.28827 -21.2316,17.85262 -49.0212,41.16378 -6.7405,5.65416 -17.5935,14.77576 -24.1179,20.27022 -12.4133,10.45374 -38.6665,32.35273 -44.4648,37.09006 -7.3,5.96429 -10.1103,7.88608 -12.5009,8.54868 -1.1058,0.30651 -5.56118,0.45293 -7.13902,0.23461 z m 5.26382,3.16392 c 2.5731,-0.5311 4.2497,-1.43089 8.4841,-4.55323 5.3748,-3.96318 11.4873,-8.95157 21.6825,-17.69481 9.4559,-8.10917 18.1099,-15.40901 30.1679,-25.44709 18.3922,-15.31118 40.8103,-34.05964 52.3198,-43.75557 4.6665,-3.93113 13.6812,-11.49332 20.0328,-16.80489 12.2069,-10.20813 18.8893,-15.89358 21.8003,-18.54771 1.5388,-1.40303 1.7675,-1.6758 1.767,-2.1072 0,-0.85381 -0.7251,-1.84806 -4.9382,-6.78035 -1.55,-1.81473 -4.7116,-5.56203 -7.0257,-8.32734 -2.3141,-2.7653 -4.6349,-5.52275 -5.1574,-6.12766 -0.8112,-0.9391 -2.2475,-2.96519 -3.2007,-4.515 -0.1455,-0.23643 -0.4473,-0.5497 -0.6708,-0.69613 -0.3532,-0.23147 -0.5018,-0.24097 -1.1369,-0.0728 -2.2808,0.60386 -6.0307,3.57035 -29.7191,23.51012 -28.274,23.79973 -59.7279,50.18442 -80.4452,67.48051 -7.907,6.60128 -15.2249,12.73557 -16.2619,13.63178 -1.037,0.8962 -4.2893,3.65385 -7.2275,6.12813 -10.22795,8.61328 -14.36097,12.32544 -17.05238,15.3161 -4.05957,4.51094 -5.27698,7.58936 -4.85177,12.26854 0.67595,7.43841 3.69174,12.00845 10.01789,15.1808 3.842,1.92663 7.98662,2.62149 11.41526,1.91383 z m -6.7583,5.58212 c -3.97144,-0.84813 -6.61506,-1.76431 -8.83403,-3.06156 -8.23375,-4.81358 -12.58019,-14.37144 -10.94316,-24.06411 0.42867,-2.53819 1.62793,-5.91253 2.62451,-7.38461 44.78528,-42.91277 92.83928,-78.55853 145.20688,-124.26051 1.1234,-0.98861 2.8987,-2.48846 3.9452,-3.33301 1.0464,-0.84453 2.1976,-1.87658 2.5583,-2.29344 0.8183,-0.94583 1.6974,-2.69717 1.8985,-3.78235 0.2513,-1.35593 0.9477,-2.32593 1.9388,-2.70041 1.4595,-0.55141 2.0807,-0.11849 5.2261,3.64193 1.4624,1.74838 6.4355,7.63409 11.0513,13.07935 16.4816,19.44347 17.4822,20.71765 17.2175,21.92309 -0.184,0.83774 -1.2516,1.82828 -2.7215,2.52498 -0.7496,0.35533 -1.609,0.76268 -1.9097,0.9052 -46.5768,36.3145 -90.3928,74.78238 -135.7544,112.54814 -4.6232,3.84731 -9.5725,8.00039 -10.9984,9.22908 -4.5598,3.92932 -7.0059,5.24207 -12.339,6.62211 -3.31576,0.85803 -5.53428,0.96834 -8.1669,0.40612 z m 2.59431,80.7232 C 1133.665,522.4614 1237.416,412.61616 1249.5438,277.11473 c 0.4038,-4.8523 1.1738,-17.98014 1.0613,-18.09264 -92.5442,0.0654 -185.0885,0.21054 -277.63232,0.49526 l -0.73994,2.90671 c -1.04085,4.08885 -2.36177,7.28701 -4.16227,10.07764 -2.22408,3.44717 -7.4484,7.80963 -11.95988,9.98686 -1.3145,0.63437 -2.21743,0.94567 -3.61375,1.2459 -1.02376,0.22012 -1.94977,0.42702 -2.05779,0.45978 -0.34498,96.57193 -0.1964,149.79737 -0.1964,269.05798 h 0.74631 c 15.18574,-0.8263 31.41586,-2.08667 45.76105,-4.33444 z m -59.3126,15.47663 C 796.63886,562.1626 666.14789,452.96834 639.87791,314.44463 613.22635,190.21506 669.46024,52.714598 777.78694,-14.633288 886.99489,-85.742906 1040.6684,-80.037745 1142.0324,2.9785342 1236.1451,75.524367 1282.4272,203.78774 1254.6855,319.52705 c -25.0693,114.77823 -119.0718,210.85786 -233.9957,236.50921 -27.22185,6.43313 -55.29509,9.24801 -83.25229,8.35815 z"
       style="fill:#941680;fill-opacity:1;stroke-width:0.15711948"
       id="path886"
       inkscape:connector-curvature="0" />
    <text
       id="text989-8"
       y="180.29964"
       x="975.41949"
       style="font-style:normal;font-variant:normal;font-weight:normal;font-stretch:normal;font-size:96px;line-height:1.25;font-family:Arial;-inkscape-font-specification:'Arial, Normal';font-variant-ligatures:normal;font-variant-caps:normal;font-variant-numeric:normal;font-feature-settings:normal;text-align:start;letter-spacing:0px;word-spacing:0px;writing-mode:lr-tb;text-anchor:start;fill:#ffffff;fill-opacity:1;stroke:none"
       xml:space="preserve"><tspan
         style="font-style:normal;font-variant:normal;font-weight:bold;font-stretch:normal;font-size:88px;font-family:Arial;-inkscape-font-specification:'Arial, Bold';font-variant-ligatures:normal;font-variant-caps:normal;font-variant-numeric:normal;font-feature-settings:normal;text-align:start;letter-spacing:-1.42000008px;writing-mode:lr-tb;text-anchor:start;fill:#ffffff;fill-opacity:1"
         y="180.29964"
         x="975.41949"
         id="tspan987-3"
         sodipodi:role="line">FVST</tspan></text>
  </g>
</svg>
