<?xml version="1.0" encoding="UTF-8" standalone="no"?>
<!-- Created with Inkscape (http://www.inkscape.org/) -->

<svg
   xmlns:dc="http://purl.org/dc/elements/1.1/"
   xmlns:cc="http://creativecommons.org/ns#"
   xmlns:rdf="http://www.w3.org/1999/02/22-rdf-syntax-ns#"
   xmlns:svg="http://www.w3.org/2000/svg"
   xmlns="http://www.w3.org/2000/svg"
   xmlns:sodipodi="http://sodipodi.sourceforge.net/DTD/sodipodi-0.dtd"
   xmlns:inkscape="http://www.inkscape.org/namespaces/inkscape"
   width="312.02951mm"
   height="312.03061mm"
   viewBox="0 0 312.02952 312.0306"
   version="1.1"
   id="svg2119"
   sodipodi:docname="Logo_Solo.svg"
   inkscape:version="0.92.3 (2405546, 2018-03-11)">
  <defs
     id="defs2113" />
  <sodipodi:namedview
     id="base"
     pagecolor="#ffffff"
     bordercolor="#666666"
     borderopacity="1.0"
     inkscape:pageopacity="0.0"
     inkscape:pageshadow="2"
     inkscape:zoom="0.35"
     inkscape:cx="39.364354"
     inkscape:cy="802.3844"
     inkscape:document-units="mm"
     inkscape:current-layer="STEP_SMALL_D-01"
     showgrid="false"
     inkscape:window-width="1920"
     inkscape:window-height="1017"
     inkscape:window-x="1912"
     inkscape:window-y="-8"
     inkscape:window-maximized="1"
     fit-margin-top="0"
     fit-margin-left="0"
     fit-margin-right="0"
     fit-margin-bottom="0"
     showborder="true" />
  <metadata
     id="metadata2116">
    <rdf:RDF>
      <cc:Work
         rdf:about="">
        <dc:format>image/svg+xml</dc:format>
        <dc:type
           rdf:resource="http://purl.org/dc/dcmitype/StillImage" />
        <dc:title></dc:title>
      </cc:Work>
    </rdf:RDF>
  </metadata>
  <g
     inkscape:label="Ebene 1"
     inkscape:groupmode="layer"
     id="layer1"
     transform="translate(127.24431,-48.97644)">
    <g
       id="STEP_SMALL_D-01"
       transform="matrix(0.26458333,0,0,0.26458333,-1549.1047,-52.38183)">
      <g
         id="g7175-3-8"
         transform="matrix(2,0,0,2,-5729.0004,-839.67534)">
        <g
           id="g7159-3-1">
          <path
             style="color:#000000;font-style:normal;font-variant:normal;font-weight:normal;font-stretch:normal;font-size:medium;line-height:normal;font-family:sans-serif;font-variant-ligatures:normal;font-variant-position:normal;font-variant-caps:normal;font-variant-numeric:normal;font-variant-alternates:normal;font-feature-settings:normal;text-indent:0;text-align:start;text-decoration:none;text-decoration-line:none;text-decoration-style:solid;text-decoration-color:#000000;letter-spacing:normal;word-spacing:normal;text-transform:none;writing-mode:lr-tb;direction:ltr;text-orientation:mixed;dominant-baseline:auto;baseline-shift:baseline;text-anchor:start;white-space:normal;shape-padding:0;clip-rule:nonzero;display:inline;overflow:visible;visibility:visible;opacity:1;isolation:auto;mix-blend-mode:normal;color-interpolation:sRGB;color-interpolation-filters:linearRGB;solid-color:#000000;solid-opacity:1;vector-effect:none;fill:#941680;fill-opacity:1;fill-rule:nonzero;stroke:none;stroke-width:14.38223648;stroke-linecap:butt;stroke-linejoin:miter;stroke-miterlimit:4;stroke-dasharray:none;stroke-dashoffset:0;stroke-opacity:1;color-rendering:auto;image-rendering:auto;shape-rendering:auto;text-rendering:auto;enable-background:accumulate"
             d="m 5551.4805,906.21289 v 0.002 0.004 c 0,162.74051 132.0857,294.82611 294.832,294.82611 57.1444,0 107.241,-38.4372 122.0313,-93.6347 14.7902,-55.1974 -9.3746,-113.53721 -58.8633,-142.10938 -49.4885,-28.57232 -112.0888,-20.33118 -152.4961,20.07617 -32.0321,32.03201 -80.1555,41.60321 -122.0078,24.26751 -41.8527,-17.33576 -69.109,-58.12547 -69.1133,-103.43157 z"
             id="path1190-8-4-5-1-21-6-4"
             inkscape:connector-curvature="0"
             sodipodi:nodetypes="ccsscccccc" />
          <path
             inkscape:export-ydpi="162.80484"
             inkscape:export-xdpi="162.80484"
             inkscape:connector-curvature="0"
             id="path989-5-4-29-5-99-5-2"
             d="m 5836.9687,1034.9174 c 6.0175,-0.2117 10.2125,6.485 13.6577,10.8204 10.5692,13.3004 14.5821,30.8486 13.8092,47.2816 -0.2646,5.6551 1.2703,12.6253 7.0056,13.6744 7.1017,-0.4734 4.8957,-8.8058 5.4552,-13.6407 0.8273,-8.7452 9.0959,-2.0464 10.6293,3.2978 2.4971,8.7027 7.8044,16.6286 8.0676,25.8937 1.2489,16.9098 -7.6329,32.5886 -19.7589,44.8321 -4.9435,4.9915 -17.0913,5.3503 -12.1743,-2.8652 3.1909,-7.7975 -0.2531,-16.7634 -6.8428,-21.9048 -7.9712,-6.2194 -19.5325,-7.8478 -25.124,-16.6014 -2.873,-4.498 -1.2674,-19.2023 -9.9214,-14.5115 -4.7534,4.5911 -4.4036,11.8756 -5.3822,17.9441 -0.7941,15.1191 6.0268,30.51 18.1688,39.8152 3.125,2.3949 -1.5354,4.2952 -4.7415,3.208 -27.2693,-9.2476 -42.1198,-43.9865 -26.6296,-68.282 10.1499,-15.9196 28.1924,-26.3243 33.905,-45.04 2.3834,-7.8078 -0.032,-16.0179 -2.8146,-23.3824 0.9371,-0.3391 1.8314,-0.509 2.6909,-0.5393 z"
             style="fill:#ffffff;fill-opacity:1;stroke:none;stroke-width:2.8764472;stroke-miterlimit:4;stroke-dasharray:none;stroke-opacity:1" />
        </g>
        <g
           id="g7141-3-8">
          <path
             inkscape:export-ydpi="162.80484"
             inkscape:export-xdpi="162.80484"
             inkscape:connector-curvature="0"
             id="path1027-7-4-3-8-75-9-6"
             d="m 5627.4951,971.79664 c -7.6154,-1.40618 -10.8005,-2.88275 -13.9594,-6.47132 -3.6099,-4.1013 -4.854,-7.90039 -4.7953,-14.64627 0.081,-9.27424 5.1261,-21.00531 14.3831,-33.44166 5.1537,-6.92378 15.9528,-18.34158 22.5019,-23.7913 l 3.777,-3.14306 -4.5327,1.54402 c -23.0892,7.86547 -43.9949,29.49339 -50.6151,52.36353 -1.2202,4.21584 -1.3246,4.33875 -2.3923,2.81443 -2.4344,-3.47535 -5.5073,-11.45553 -6.7243,-17.46164 -2.6144,-12.90245 -0.055,-25.06602 8.042,-38.2 5.2731,-8.5549 19.7324,-23.32988 28.2717,-28.88911 24.9239,-16.22578 60.0136,-24.72533 91.1894,-22.08818 5.9359,0.50211 11.9609,1.15958 13.3885,1.46098 l 2.596,0.54805 -3.8482,2.8247 c -2.1162,1.55359 -6.514,5.65762 -9.7724,9.12009 -9.1508,9.72406 -13.4376,17.8888 -15.7189,29.93881 -5.3381,28.19937 -10.5897,44.11501 -19.6905,59.67492 -5.4166,9.26141 -16.2041,20.01749 -23.7721,23.7034 -9.1741,4.46807 -18.8735,5.88541 -28.3284,4.13961 z"
             style="fill:#941680;fill-opacity:1;stroke:#941680;stroke-width:0.75542152;stroke-opacity:1" />
          <path
             style="color:#000000;font-style:normal;font-variant:normal;font-weight:normal;font-stretch:normal;font-size:medium;line-height:normal;font-family:sans-serif;font-variant-ligatures:normal;font-variant-position:normal;font-variant-caps:normal;font-variant-numeric:normal;font-variant-alternates:normal;font-feature-settings:normal;text-indent:0;text-align:start;text-decoration:none;text-decoration-line:none;text-decoration-style:solid;text-decoration-color:#000000;letter-spacing:normal;word-spacing:normal;text-transform:none;writing-mode:lr-tb;direction:ltr;text-orientation:mixed;dominant-baseline:auto;baseline-shift:baseline;text-anchor:start;white-space:normal;shape-padding:0;clip-rule:nonzero;display:inline;overflow:visible;visibility:visible;opacity:0.97000002;isolation:auto;mix-blend-mode:normal;color-interpolation:sRGB;color-interpolation-filters:linearRGB;solid-color:#000000;solid-opacity:1;vector-effect:none;fill:#941680;fill-opacity:1;fill-rule:nonzero;stroke:none;stroke-width:14.38223648;stroke-linecap:round;stroke-linejoin:round;stroke-miterlimit:4;stroke-dasharray:none;stroke-dashoffset:0;stroke-opacity:1;paint-order:normal;color-rendering:auto;image-rendering:auto;shape-rendering:auto;text-rendering:auto;enable-background:accumulate"
             d="m 5846.3125,611.38086 c -162.7433,0 -294.8301,132.08379 -294.8301,294.83203 0,57.14445 38.4372,107.23711 93.6348,122.02731 55.1973,14.7902 113.5334,-9.3727 142.1055,-58.86129 28.5724,-49.4886 20.3312,-112.0907 -20.0762,-152.49805 -32.0324,-32.03235 -41.6034,-80.15146 -24.2676,-122.00391 17.3355,-41.85185 58.1281,-69.10817 103.4336,-69.11328 7e-4,0 0,0 0,0 a 7.1918374,7.1918374 0 0 0 0,-14.38281 z m -74.5762,24.47266 c -18.2991,13.3928 -33.0921,31.66504 -42.1445,53.51953 -19.5461,47.18855 -8.7317,101.56128 27.3848,137.67773 35.8536,35.85359 43.1434,91.22533 17.791,135.13672 -25.3521,43.9113 -76.9511,65.2855 -125.9278,52.1621 -48.977,-13.1234 -82.9765,-57.43222 -82.9765,-108.13671 0,-129.13768 87.1572,-237.71926 205.873,-270.35937 z"
             id="path1125-0-2-3-3-5-80-2-0"
             inkscape:connector-curvature="0" />
        </g>
        <g
           id="g7155-4-9">
          <path
             inkscape:export-ydpi="162.80484"
             inkscape:export-xdpi="162.80484"
             style="fill:#941680;fill-opacity:1;stroke:#941680;stroke-width:0.28967798;stroke-opacity:1"
             d="m 6000.6728,971.14711 c 0,-0.10384 4.439,-12.46771 9.8642,-27.47531 5.4253,-15.00764 9.8248,-27.5625 9.7768,-27.8997 l -0.086,-0.61312 -17.0188,-0.0745 c -9.3602,-0.0411 -17.0165,-0.17172 -17.0142,-0.28965 0,-0.25054 0.3676,-0.71126 15.2225,-19.3526 6.2033,-7.78461 15.4894,-19.43802 20.6353,-25.89654 5.1463,-6.45849 13.0787,-16.41119 17.6278,-22.11715 4.5491,-5.70592 8.3276,-10.31801 8.3966,-10.24907 0.069,0.069 -0.9771,3.17322 -2.3245,6.89833 -14.0626,38.87918 -17.2814,47.9183 -17.2051,48.31476 0.081,0.41493 1.8182,0.46898 17.2483,0.53617 9.4376,0.0411 17.1594,0.13491 17.1594,0.20883 0,0.14009 -61.1771,77.03118 -61.8795,77.77414 -0.2215,0.23328 -0.4013,0.33922 -0.4013,0.23529 z"
             id="path968-5-7-6-3-28-7-0"
             inkscape:connector-curvature="0" />
          <path
             style="color:#000000;font-style:normal;font-variant:normal;font-weight:normal;font-stretch:normal;font-size:medium;line-height:normal;font-family:sans-serif;font-variant-ligatures:normal;font-variant-position:normal;font-variant-caps:normal;font-variant-numeric:normal;font-variant-alternates:normal;font-feature-settings:normal;text-indent:0;text-align:start;text-decoration:none;text-decoration-line:none;text-decoration-style:solid;text-decoration-color:#000000;letter-spacing:normal;word-spacing:normal;text-transform:none;writing-mode:lr-tb;direction:ltr;text-orientation:mixed;dominant-baseline:auto;baseline-shift:baseline;text-anchor:start;white-space:normal;shape-padding:0;clip-rule:nonzero;display:inline;overflow:visible;visibility:visible;opacity:0.97000002;isolation:auto;mix-blend-mode:normal;color-interpolation:sRGB;color-interpolation-filters:linearRGB;solid-color:#000000;solid-opacity:1;vector-effect:none;fill:#941680;fill-opacity:1;fill-rule:nonzero;stroke:none;stroke-width:14.38199997;stroke-linecap:round;stroke-linejoin:round;stroke-miterlimit:4;stroke-dasharray:none;stroke-dashoffset:0;stroke-opacity:1;paint-order:normal;color-rendering:auto;image-rendering:auto;shape-rendering:auto;text-rendering:auto;enable-background:accumulate"
             d="m 6016.3457,779.88281 c -44.8643,-0.53762 -87.7286,22.95264 -110.9434,63.16211 -28.5723,49.48854 -20.3292,112.09074 20.0782,152.49805 32.0324,32.03243 41.6033,80.15143 24.2675,122.00393 -17.3357,41.8524 -58.1295,69.1109 -103.4355,69.1152 a 7.1917191,7.1917191 0 0 0 0,14.3809 c 7e-4,0 0,0 0,0 0,0 0,0 0,0 162.7405,0 294.8261,-132.0839 294.8261,-294.83011 0,-57.14442 -38.4395,-107.2391 -93.6367,-122.0293 -10.3495,-2.77316 -20.8088,-4.17671 -31.1621,-4.30078 z m -0.1953,14.3711 c 9.1772,0.11394 18.4516,1.36162 27.6348,3.82226 48.9768,13.12343 82.9765,57.43221 82.9765,108.13672 0,129.13821 -87.1564,237.71971 -205.873,270.35941 18.2996,-13.3929 33.0939,-31.6667 42.1465,-53.5215 19.546,-47.1885 8.7297,-101.5613 -27.3868,-137.67775 -35.8536,-35.85363 -43.1434,-91.2253 -17.791,-135.13672 20.5985,-35.67801 58.5251,-56.47616 98.293,-55.98242 z"
             id="path1125-5-5-5-30-7-712-2-9"
             inkscape:connector-curvature="0" />
        </g>
        <g
           id="g7151-4-0">
          <path
             style="color:#000000;font-style:normal;font-variant:normal;font-weight:normal;font-stretch:normal;font-size:medium;line-height:normal;font-family:sans-serif;font-variant-ligatures:normal;font-variant-position:normal;font-variant-caps:normal;font-variant-numeric:normal;font-variant-alternates:normal;font-feature-settings:normal;text-indent:0;text-align:start;text-decoration:none;text-decoration-line:none;text-decoration-style:solid;text-decoration-color:#000000;letter-spacing:normal;word-spacing:normal;text-transform:none;writing-mode:lr-tb;direction:ltr;text-orientation:mixed;dominant-baseline:auto;baseline-shift:baseline;text-anchor:start;white-space:normal;shape-padding:0;clip-rule:nonzero;display:inline;overflow:visible;visibility:visible;opacity:1;isolation:auto;mix-blend-mode:normal;color-interpolation:sRGB;color-interpolation-filters:linearRGB;solid-color:#000000;solid-opacity:1;vector-effect:none;fill:#941680;fill-opacity:1;fill-rule:nonzero;stroke:none;stroke-width:14.38223648;stroke-linecap:round;stroke-linejoin:miter;stroke-miterlimit:4;stroke-dasharray:none;stroke-dashoffset:0;stroke-opacity:1;color-rendering:auto;image-rendering:auto;shape-rendering:auto;text-rendering:auto;enable-background:accumulate"
             d="m 5846.3125,611.38281 c -57.1444,2e-5 -107.2372,38.4376 -122.0273,93.63477 -14.7902,55.19736 9.3749,113.53137 58.8632,142.10351 49.4884,28.57227 112.0888,20.33118 152.4961,-20.07617 32.0324,-32.03245 80.1494,-41.60343 122.002,-24.26758 41.8516,17.33543 69.1082,58.12998 69.1133,103.43555 v 0.002 l 14.3828,-0.002 c 0,-162.74338 -132.0819,-294.83008 -294.8301,-294.83008 z"
             id="path1183-2-3-45-3-48-2-6"
             inkscape:connector-curvature="0"
             sodipodi:nodetypes="sscsscccs" />
          <g
             id="g7145-6-4">
            <path
               style="color:#000000;font-style:normal;font-variant:normal;font-weight:normal;font-stretch:normal;font-size:medium;line-height:normal;font-family:sans-serif;font-variant-ligatures:normal;font-variant-position:normal;font-variant-caps:normal;font-variant-numeric:normal;font-variant-alternates:normal;font-feature-settings:normal;text-indent:0;text-align:start;text-decoration:none;text-decoration-line:none;text-decoration-style:solid;text-decoration-color:#000000;letter-spacing:normal;word-spacing:normal;text-transform:none;writing-mode:lr-tb;direction:ltr;text-orientation:mixed;dominant-baseline:auto;baseline-shift:baseline;text-anchor:start;white-space:normal;shape-padding:0;clip-rule:nonzero;display:inline;overflow:visible;visibility:visible;opacity:1;isolation:auto;mix-blend-mode:normal;color-interpolation:sRGB;color-interpolation-filters:linearRGB;solid-color:#000000;solid-opacity:1;vector-effect:none;fill:#ffffff;fill-opacity:1;fill-rule:nonzero;stroke:none;stroke-width:14.38223648;stroke-linecap:round;stroke-linejoin:miter;stroke-miterlimit:4;stroke-dasharray:none;stroke-dashoffset:0;stroke-opacity:1;color-rendering:auto;image-rendering:auto;shape-rendering:auto;text-rendering:auto;enable-background:accumulate"
               d="m 5857.4238,621.71094 -6.8926,14.78125 c -10.2014,21.87344 -29.1375,41.14859 -38.7109,67.42187 -5.4107,14.84929 -6.2592,33.12294 1.3067,48.85938 12.8471,26.72117 44.9626,36.54828 71.1796,24.09179 v 0.002 c 21.2349,-10.0892 27.5685,-35.13484 23.7129,-55.33399 -6.6453,-34.81151 -33.1103,-57.78308 -44.332,-84.76367 z m -0.6601,33.59765 c 13.5212,24.70469 32.4495,44.40885 37.1289,68.92188 2.8936,15.15935 -2.1623,33.18495 -15.7578,39.64453 -19.568,9.29734 -42.6273,2.25396 -52.045,-17.33398 -5.4173,-11.26754 -4.9857,-26.09446 -0.7558,-37.70313 6.7199,-18.44227 20.3386,-34.58341 31.4297,-53.5293 z"
               id="path1195-6-8-5-8-674-9-4"
               inkscape:connector-curvature="0" />
            <path
               style="color:#000000;font-style:normal;font-variant:normal;font-weight:normal;font-stretch:normal;font-size:medium;line-height:normal;font-family:sans-serif;font-variant-ligatures:normal;font-variant-position:normal;font-variant-caps:normal;font-variant-numeric:normal;font-variant-alternates:normal;font-feature-settings:normal;text-indent:0;text-align:start;text-decoration:none;text-decoration-line:none;text-decoration-style:solid;text-decoration-color:#000000;letter-spacing:normal;word-spacing:normal;text-transform:none;writing-mode:lr-tb;direction:ltr;text-orientation:mixed;dominant-baseline:auto;baseline-shift:baseline;text-anchor:start;white-space:normal;shape-padding:0;clip-rule:nonzero;display:inline;overflow:visible;visibility:visible;opacity:1;isolation:auto;mix-blend-mode:normal;color-interpolation:sRGB;color-interpolation-filters:linearRGB;solid-color:#000000;solid-opacity:1;vector-effect:none;fill:#ffffff;fill-opacity:1;fill-rule:nonzero;stroke:none;stroke-width:14.38223648;stroke-linecap:round;stroke-linejoin:miter;stroke-miterlimit:4;stroke-dasharray:none;stroke-dashoffset:0;stroke-opacity:1;color-rendering:auto;image-rendering:auto;shape-rendering:auto;text-rendering:auto;enable-background:accumulate"
               d="m 5835.6328,723.09375 a 7.1918374,7.1918374 0 0 0 -6.9316,8.70898 c 2.886,14.3441 13.0087,24.92625 26.1269,25.8418 a 7.1918374,7.1918374 0 1 0 1,-14.34765 c -6.7051,-0.46797 -10.9991,-4.24928 -13.0273,-14.33008 a 7.1918374,7.1918374 0 0 0 -7.168,-5.87305 z"
               id="path1197-5-7-00-4-82-3-70"
               inkscape:connector-curvature="0" />
          </g>
        </g>
      </g>
    </g>
  </g>
</svg>
