<?xml version="1.0" encoding="UTF-8" standalone="no"?>
<!-- Created with Inkscape (http://www.inkscape.org/) -->

<svg
   xmlns:dc="http://purl.org/dc/elements/1.1/"
   xmlns:cc="http://creativecommons.org/ns#"
   xmlns:rdf="http://www.w3.org/1999/02/22-rdf-syntax-ns#"
   xmlns:svg="http://www.w3.org/2000/svg"
   xmlns="http://www.w3.org/2000/svg"
   xmlns:sodipodi="http://sodipodi.sourceforge.net/DTD/sodipodi-0.dtd"
   xmlns:inkscape="http://www.inkscape.org/namespaces/inkscape"
   width="294.50522mm"
   height="294.50522mm"
   viewBox="0 0 294.50523 294.50521"
   version="1.1"
   id="svg2119"
   sodipodi:docname="Logo_Solo_Eckig.svg"
   inkscape:version="0.92.3 (2405546, 2018-03-11)">
  <defs
     id="defs2113" />
  <sodipodi:namedview
     id="base"
     pagecolor="#ffffff"
     bordercolor="#666666"
     borderopacity="1.0"
     inkscape:pageopacity="0.0"
     inkscape:pageshadow="2"
     inkscape:zoom="0.45254834"
     inkscape:cx="304.35824"
     inkscape:cy="490.84241"
     inkscape:document-units="mm"
     inkscape:current-layer="layer1"
     showgrid="false"
     inkscape:window-width="1920"
     inkscape:window-height="1017"
     inkscape:window-x="-8"
     inkscape:window-y="-8"
     inkscape:window-maximized="1"
     fit-margin-top="0"
     fit-margin-left="0"
     fit-margin-right="0"
     fit-margin-bottom="0"
     showborder="true" />
  <metadata
     id="metadata2116">
    <rdf:RDF>
      <cc:Work
         rdf:about="">
        <dc:format>image/svg+xml</dc:format>
        <dc:type
           rdf:resource="http://purl.org/dc/dcmitype/StillImage" />
        <dc:title></dc:title>
      </cc:Work>
    </rdf:RDF>
  </metadata>
  <g
     inkscape:label="Ebene 1"
     inkscape:groupmode="layer"
     id="layer1"
     transform="translate(118.48216,-57.73913)">
    <path
       style="opacity:1;fill:none;fill-opacity:1;fill-rule:nonzero;stroke:#941680;stroke-width:20;stroke-linecap:round;stroke-linejoin:round;stroke-miterlimit:4;stroke-dasharray:none;stroke-dashoffset:0;stroke-opacity:1;paint-order:normal"
       d="M 166.02305,204.99174 A 137.25261,137.25261 0 0 1 28.770449,342.24434 137.25261,137.25261 0 0 1 -108.48216,204.99174 137.25261,137.25261 0 0 1 28.770449,67.73913 137.25261,137.25261 0 0 1 166.02305,204.99174 Z"
       id="path837-3"
       inkscape:connector-curvature="0" />
    <g
       id="g931"
       style="opacity:1;stroke:none">
      <path
         sodipodi:nodetypes="cccc"
         style="opacity:1;fill:#941680;fill-opacity:1;fill-rule:nonzero;stroke:none;stroke-width:3;stroke-linecap:round;stroke-linejoin:round;stroke-miterlimit:4;stroke-dasharray:none;stroke-dashoffset:0;stroke-opacity:1;paint-order:normal"
         d="M 28.770445,204.99174 H 166.02305 c 0,75.80252 -61.45008,137.25261 -137.252605,137.25261 z"
         id="path837-5"
         inkscape:connector-curvature="0" />
      <path
         sodipodi:nodetypes="cccc"
         style="opacity:1;fill:#ffffff;fill-opacity:1;fill-rule:nonzero;stroke:none;stroke-width:3;stroke-linecap:round;stroke-linejoin:round;stroke-miterlimit:4;stroke-dasharray:none;stroke-dashoffset:0;stroke-opacity:1;paint-order:normal"
         d="M 28.77044,204.99174 V 67.739128 c 75.80252,0 137.25261,61.450082 137.25261,137.252612 z"
         id="path837-5-4"
         inkscape:connector-curvature="0" />
      <path
         sodipodi:nodetypes="cccc"
         style="opacity:1;fill:#941680;fill-opacity:1;fill-rule:nonzero;stroke:none;stroke-width:3;stroke-linecap:round;stroke-linejoin:round;stroke-miterlimit:4;stroke-dasharray:none;stroke-dashoffset:0;stroke-opacity:1;paint-order:normal"
         d="M 28.770445,204.99174 H -108.48216 c 0,-75.80252 61.450071,-137.252609 137.252605,-137.252609 z"
         id="path837-5-4-3"
         inkscape:connector-curvature="0" />
      <path
         sodipodi:nodetypes="cccc"
         style="opacity:1;fill:#ffffff;fill-opacity:1;fill-rule:nonzero;stroke:none;stroke-width:3;stroke-linecap:round;stroke-linejoin:round;stroke-miterlimit:4;stroke-dasharray:none;stroke-dashoffset:0;stroke-opacity:1;paint-order:normal"
         d="m 28.77044,204.99174 v 137.25261 c -75.802524,0 -137.25261,-61.45008 -137.25261,-137.25261 z"
         id="path837-5-4-2"
         inkscape:connector-curvature="0" />
    </g>
    <g
       id="STEP_SMALL_D-01"
       transform="matrix(0.26458333,0,0,0.26458333,-1559.6168,-57.938417)">
      <g
         style="fill:#ffffff;fill-opacity:1;stroke:none"
         transform="matrix(2,0,0,2,-5619.9245,-1450.1003)"
         id="g7159-3-1">
        <path
           sodipodi:nodetypes="cccccccccccccccc"
           style="fill:#941680;fill-opacity:1;stroke:none;stroke-width:3.36352968;stroke-miterlimit:4;stroke-dasharray:none;stroke-opacity:1"
           d="m 5941.1099,1100.9496 c -0.3094,6.6127 1.4854,14.7632 8.1919,15.9899 8.3042,-0.5535 5.7247,-10.2969 6.3789,-15.9505 0.9674,-10.2261 10.6362,-2.393 12.4292,3.8562 2.92,10.1764 9.126,19.4444 9.4338,30.2784 1.4603,19.7732 -8.9255,38.107 -23.1048,52.4237 -5.7806,5.8368 -19.9855,6.2563 -14.2357,-3.3503 7.8039,-28.4394 -27.6665,-30.8149 -37.38,-45.0267 -3.3594,-5.2596 -1.4819,-22.4539 -11.6015,-16.9688 -5.5582,5.3686 -5.1491,13.8866 -6.2936,20.9827 -0.9285,17.6793 7.0474,35.6764 21.2456,46.5573 3.6541,2.8004 -1.7954,5.0225 -5.5445,3.7512 -31.8869,-10.8135 -49.2522,-51.4349 -31.139,-79.8445 11.8688,-18.6154 32.9664,-30.7819 39.6463,-52.6668 2.787,-9.13 -0.037,-18.7303 -3.2912,-27.3419 27.7494,1.0796 35.9096,49.2452 35.2646,67.3101 z"
           id="path989-5-4-29-5-99-5-2"
           inkscape:connector-curvature="0"
           inkscape:export-xdpi="162.80484"
           inkscape:export-ydpi="162.80484" />
      </g>
      <g
         style="fill:#ffffff;fill-opacity:1;stroke:none;stroke-opacity:1"
         transform="matrix(2.2308008,0,0,2.2308008,-6398.3623,-808.97948)"
         id="g7141-3-8">
        <path
           style="fill:#ffffff;fill-opacity:1;stroke:none;stroke-width:0.75542152;stroke-opacity:1"
           d="m 5627.4951,971.79664 c -7.6154,-1.40618 -10.8005,-2.88275 -13.9594,-6.47132 -3.6099,-4.1013 -4.854,-7.90039 -4.7953,-14.64627 0.081,-9.27424 5.1261,-21.00531 14.3831,-33.44166 5.1537,-6.92378 15.9528,-18.34158 22.5019,-23.7913 l 3.777,-3.14306 -4.5327,1.54402 c -23.0892,7.86547 -43.9949,29.49339 -50.6151,52.36353 -1.2202,4.21584 -1.3246,4.33875 -2.3923,2.81443 -2.4344,-3.47535 -5.5073,-11.45553 -6.7243,-17.46164 -2.6144,-12.90245 -0.055,-25.06602 8.042,-38.2 5.2731,-8.5549 19.7324,-23.32988 28.2717,-28.88911 24.9239,-16.22578 60.0136,-24.72533 91.1894,-22.08818 5.9359,0.50211 11.9609,1.15958 13.3885,1.46098 l 2.596,0.54805 -3.8482,2.8247 c -2.1162,1.55359 -6.514,5.65762 -9.7724,9.12009 -9.1508,9.72406 -13.4376,17.8888 -15.7189,29.93881 -5.3381,28.19937 -10.5897,44.11501 -19.6905,59.67492 -5.4166,9.26141 -16.2041,20.01749 -23.7721,23.7034 -9.1741,4.46807 -18.8735,5.88541 -28.3284,4.13961 z"
           id="path1027-7-4-3-8-75-9-6"
           inkscape:connector-curvature="0"
           inkscape:export-xdpi="162.80484"
           inkscape:export-ydpi="162.80484" />
      </g>
      <g
         style="fill:#ffffff;fill-opacity:1;stroke:none"
         transform="matrix(2.3490372,0,0,2.3490372,-8691.6512,-1317.2257)"
         id="g7155-4-9">
        <path
           sodipodi:nodetypes="ccccccccc"
           inkscape:connector-curvature="0"
           id="path968-5-7-6-3-28-7-0"
           d="m 6143.856,959.80313 19.8976,-56.96912 -34.6293,-0.37053 62.9664,-78.97529 -19.8717,56.1805 35.0105,0.75805 -62.9637,79.13685 -0.4083,0.23942 z"
           style="fill:#ffffff;fill-opacity:1;stroke:none;stroke-width:0.29475352;stroke-opacity:1"
           inkscape:export-xdpi="162.80484"
           inkscape:export-ydpi="162.80484" />
      </g>
      <g
         style="fill:#941680;fill-opacity:1;stroke:none"
         transform="matrix(2,0,0,2,-5912.4347,-196.40287)"
         id="g7151-4-0">
        <g
           style="fill:#941680;fill-opacity:1;stroke:none"
           id="g7145-6-4">
          <path
             inkscape:connector-curvature="0"
             id="path1195-6-8-5-8-674-9-4"
             d="m 5857.4238,621.71094 -6.8926,14.78125 c -10.2014,21.87344 -29.1375,41.14859 -38.7109,67.42187 -5.4107,14.84929 -6.2592,33.12294 1.3067,48.85938 12.8471,26.72117 44.9626,36.54828 71.1796,24.09179 v 0.002 c 21.2349,-10.0892 27.5685,-35.13484 23.7129,-55.33399 -6.6453,-34.81151 -33.1103,-57.78308 -44.332,-84.76367 z m -0.6601,33.59765 c 13.5212,24.70469 32.4495,44.40885 37.1289,68.92188 2.8936,15.15935 -2.1623,33.18495 -15.7578,39.64453 -19.568,9.29734 -42.6273,2.25396 -52.045,-17.33398 -5.4173,-11.26754 -4.9857,-26.09446 -0.7558,-37.70313 6.7199,-18.44227 20.3386,-34.58341 31.4297,-53.5293 z"
             style="color:#000000;font-style:normal;font-variant:normal;font-weight:normal;font-stretch:normal;font-size:medium;line-height:normal;font-family:sans-serif;font-variant-ligatures:normal;font-variant-position:normal;font-variant-caps:normal;font-variant-numeric:normal;font-variant-alternates:normal;font-feature-settings:normal;text-indent:0;text-align:start;text-decoration:none;text-decoration-line:none;text-decoration-style:solid;text-decoration-color:#000000;letter-spacing:normal;word-spacing:normal;text-transform:none;writing-mode:lr-tb;direction:ltr;text-orientation:mixed;dominant-baseline:auto;baseline-shift:baseline;text-anchor:start;white-space:normal;shape-padding:0;clip-rule:nonzero;display:inline;overflow:visible;visibility:visible;opacity:1;isolation:auto;mix-blend-mode:normal;color-interpolation:sRGB;color-interpolation-filters:linearRGB;solid-color:#000000;solid-opacity:1;vector-effect:none;fill:#941680;fill-opacity:1;fill-rule:nonzero;stroke:none;stroke-width:14.38223648;stroke-linecap:round;stroke-linejoin:miter;stroke-miterlimit:4;stroke-dasharray:none;stroke-dashoffset:0;stroke-opacity:1;color-rendering:auto;image-rendering:auto;shape-rendering:auto;text-rendering:auto;enable-background:accumulate" />
          <path
             inkscape:connector-curvature="0"
             id="path1197-5-7-00-4-82-3-70"
             d="m 5835.6328,723.09375 a 7.1918374,7.1918374 0 0 0 -6.9316,8.70898 c 2.886,14.3441 13.0087,24.92625 26.1269,25.8418 a 7.1918374,7.1918374 0 1 0 1,-14.34765 c -6.7051,-0.46797 -10.9991,-4.24928 -13.0273,-14.33008 a 7.1918374,7.1918374 0 0 0 -7.168,-5.87305 z"
             style="color:#000000;font-style:normal;font-variant:normal;font-weight:normal;font-stretch:normal;font-size:medium;line-height:normal;font-family:sans-serif;font-variant-ligatures:normal;font-variant-position:normal;font-variant-caps:normal;font-variant-numeric:normal;font-variant-alternates:normal;font-feature-settings:normal;text-indent:0;text-align:start;text-decoration:none;text-decoration-line:none;text-decoration-style:solid;text-decoration-color:#000000;letter-spacing:normal;word-spacing:normal;text-transform:none;writing-mode:lr-tb;direction:ltr;text-orientation:mixed;dominant-baseline:auto;baseline-shift:baseline;text-anchor:start;white-space:normal;shape-padding:0;clip-rule:nonzero;display:inline;overflow:visible;visibility:visible;opacity:1;isolation:auto;mix-blend-mode:normal;color-interpolation:sRGB;color-interpolation-filters:linearRGB;solid-color:#000000;solid-opacity:1;vector-effect:none;fill:#941680;fill-opacity:1;fill-rule:nonzero;stroke:none;stroke-width:14.38223648;stroke-linecap:round;stroke-linejoin:miter;stroke-miterlimit:4;stroke-dasharray:none;stroke-dashoffset:0;stroke-opacity:1;color-rendering:auto;image-rendering:auto;shape-rendering:auto;text-rendering:auto;enable-background:accumulate" />
        </g>
      </g>
    </g>
  </g>
</svg>
