<?xml version="1.0" encoding="UTF-8" standalone="no"?>
<!-- Created with Inkscape (http://www.inkscape.org/) -->

<svg
   xmlns:osb="http://www.openswatchbook.org/uri/2009/osb"
   xmlns:dc="http://purl.org/dc/elements/1.1/"
   xmlns:cc="http://creativecommons.org/ns#"
   xmlns:rdf="http://www.w3.org/1999/02/22-rdf-syntax-ns#"
   xmlns:svg="http://www.w3.org/2000/svg"
   xmlns="http://www.w3.org/2000/svg"
   xmlns:sodipodi="http://sodipodi.sourceforge.net/DTD/sodipodi-0.dtd"
   xmlns:inkscape="http://www.inkscape.org/namespaces/inkscape"
   inkscape:version="0.92.3 (2405546, 2018-03-11)"
   sodipodi:docname="NVUT.svg"
   viewBox="0 0 589.6627 1463.0772"
   height="387.10583mm"
   width="156.01492mm"
   id="svg2"
   version="1.1"
   inkscape:export-filename="D:\Flori\Offiziell\OvGU\FaRa\Logo.png"
   inkscape:export-xdpi="162"
   inkscape:export-ydpi="162">
  <sodipodi:namedview
     units="mm"
     inkscape:current-layer="svg2"
     inkscape:window-maximized="1"
     inkscape:window-y="-8"
     inkscape:window-x="-8"
     inkscape:cy="1005.9861"
     inkscape:cx="-2134.0858"
     inkscape:zoom="0.125"
     showgrid="false"
     id="namedview4"
     inkscape:window-height="1017"
     inkscape:window-width="1920"
     inkscape:pageshadow="2"
     inkscape:pageopacity="0"
     guidetolerance="10"
     gridtolerance="10"
     objecttolerance="10"
     borderopacity="1"
     bordercolor="#666666"
     pagecolor="#ffffff"
     showguides="false"
     fit-margin-top="0"
     fit-margin-left="0"
     fit-margin-right="0"
     fit-margin-bottom="0" />
  <metadata
     id="metadata8">
    <rdf:RDF>
      <cc:Work
         rdf:about="">
        <dc:format>image/svg+xml</dc:format>
        <dc:type
           rdf:resource="http://purl.org/dc/dcmitype/StillImage" />
        <dc:title></dc:title>
      </cc:Work>
    </rdf:RDF>
  </metadata>
  <defs
     id="defs6">
    <linearGradient
       osb:paint="solid"
       id="linearGradient4047">
      <stop
         id="stop4045"
         offset="0"
         style="stop-color:#941680;stop-opacity:1;" />
    </linearGradient>
    <linearGradient
       osb:paint="solid"
       id="linearGradient3784">
      <stop
         id="stop3782"
         offset="0"
         style="stop-color:#941680;stop-opacity:1;" />
    </linearGradient>
  </defs>
  <g
     id="g6554"
     transform="translate(-4912.738,-466.61672)"
     inkscape:export-xdpi="162"
     inkscape:export-ydpi="162">
    <g
       transform="translate(4.1927891)"
       id="g5831">
      <path
         inkscape:export-ydpi="162.80484"
         inkscape:export-xdpi="162.80484"
         style="fill:#941680;fill-opacity:1;stroke:#941680;stroke-width:0.28967798;stroke-opacity:1"
         d="m 5357.7367,971.79676 c 0,-0.10384 4.439,-12.46771 9.8642,-27.47531 5.4253,-15.00764 9.8248,-27.5625 9.7768,-27.8997 l -0.086,-0.61312 -17.0188,-0.0745 c -9.3602,-0.0411 -17.0165,-0.17172 -17.0142,-0.28965 0,-0.25054 0.3676,-0.71126 15.2225,-19.3526 6.2033,-7.78461 15.4894,-19.43802 20.6353,-25.89654 5.1463,-6.45849 13.0787,-16.41119 17.6278,-22.11715 4.5491,-5.70592 8.3276,-10.31801 8.3966,-10.24907 0.069,0.069 -0.9771,3.17322 -2.3245,6.89833 -14.0626,38.87918 -17.2814,47.9183 -17.2051,48.31476 0.081,0.41493 1.8182,0.46898 17.2483,0.53617 9.4376,0.0411 17.1594,0.13491 17.1594,0.20883 0,0.14009 -61.1771,77.03118 -61.8795,77.77414 -0.2215,0.23328 -0.4013,0.33922 -0.4013,0.23529 z"
         id="path968-5"
         inkscape:connector-curvature="0" />
      <path
         inkscape:export-ydpi="162.80484"
         inkscape:export-xdpi="162.80484"
         inkscape:connector-curvature="0"
         id="path1190-8"
         d="m 4915.7363,906.86349 c 0,158.85701 128.7774,287.63911 287.6393,287.63911 53.9245,0 101.129,-36.2177 115.0858,-88.3047 13.9568,-52.087 -8.812,-107.05672 -55.512,-134.01881 -46.7,-26.96238 -105.6861,-19.19761 -143.8166,18.93287 -34.0744,34.07444 -85.3243,44.26714 -129.8448,25.82624 -44.5205,-18.44094 -73.5471,-61.88156 -73.5517,-110.07471 z"
         style="opacity:1;fill:#941680;fill-opacity:1;stroke:#941680;stroke-width:14.38223648;stroke-miterlimit:4;stroke-dasharray:none;stroke-opacity:1" />
      <path
         inkscape:export-ydpi="162.80484"
         inkscape:export-xdpi="162.80484"
         inkscape:connector-curvature="0"
         id="path989-5"
         d="m 5194.0326,1035.5671 c 6.0175,-0.2117 10.2125,6.4849 13.6577,10.8203 10.5692,13.3004 14.5821,30.8487 13.8092,47.2817 -0.2646,5.655 1.2703,12.6253 7.0056,13.6743 7.1017,-0.4734 4.8957,-8.8058 5.4552,-13.6406 0.8273,-8.7453 9.0959,-2.0464 10.6293,3.2978 2.4971,8.7026 7.8044,16.6285 8.0676,25.8936 1.2489,16.9098 -7.6329,32.5887 -19.7589,44.8322 -4.9435,4.9915 -17.0913,5.3503 -12.1743,-2.8653 3.1909,-7.7975 -0.2531,-16.7634 -6.8427,-21.9048 -7.9713,-6.2194 -19.5326,-7.8477 -25.1241,-16.6014 -2.873,-4.498 -1.2674,-19.2022 -9.9214,-14.5114 -4.7534,4.591 -4.4036,11.8756 -5.3822,17.9441 -0.7941,15.119 6.0268,30.5099 18.1688,39.8152 3.125,2.3948 -1.5354,4.2952 -4.7415,3.2079 -27.2693,-9.2475 -42.1198,-43.9865 -26.6296,-68.2819 10.1499,-15.9197 28.1924,-26.3243 33.905,-45.04 2.3834,-7.8079 -0.032,-16.018 -2.8146,-23.3824 0.9371,-0.3392 1.8314,-0.5091 2.6909,-0.5393 z"
         style="fill:#ffffff;fill-opacity:1;stroke:none;stroke-width:2.8764472;stroke-miterlimit:4;stroke-dasharray:none;stroke-opacity:1" />
      <path
         inkscape:export-ydpi="162.80484"
         inkscape:export-xdpi="162.80484"
         inkscape:connector-curvature="0"
         id="path1027-7"
         d="m 4984.559,972.44629 c -7.6154,-1.40618 -10.8005,-2.88275 -13.9594,-6.47132 -3.6099,-4.1013 -4.854,-7.90039 -4.7953,-14.64627 0.081,-9.27424 5.1261,-21.00531 14.3831,-33.44166 5.1537,-6.92378 15.9528,-18.34158 22.5019,-23.7913 l 3.777,-3.14306 -4.5327,1.54402 c -23.0892,7.86547 -43.9949,29.49339 -50.6151,52.36353 -1.2202,4.21584 -1.3246,4.33875 -2.3923,2.81443 -2.4344,-3.47535 -5.5073,-11.45553 -6.7243,-17.46164 -2.6144,-12.90245 -0.055,-25.06602 8.042,-38.2 5.2731,-8.5549 19.7324,-23.32988 28.2717,-28.88911 24.9239,-16.22578 60.0136,-24.72533 91.1894,-22.08818 5.9359,0.50211 11.9609,1.15958 13.3885,1.46098 l 2.596,0.54805 -3.8482,2.8247 c -2.1162,1.55359 -6.514,5.65762 -9.7724,9.12009 -9.1508,9.72406 -13.4376,17.8888 -15.7189,29.93881 -5.3381,28.19937 -10.5897,44.11501 -19.6905,59.67492 -5.4166,9.26141 -16.2041,20.01749 -23.7721,23.7034 -9.1741,4.46807 -18.8735,5.88541 -28.3284,4.13961 z"
         style="fill:#941680;fill-opacity:1;stroke:#941680;stroke-width:0.75542152;stroke-opacity:1" />
      <path
         inkscape:export-ydpi="162.80484"
         inkscape:export-xdpi="162.80484"
         sodipodi:nodetypes="scscccs"
         inkscape:connector-curvature="0"
         d="m 4915.7369,906.86188 c 0,53.92447 36.2188,101.12582 88.3061,115.08262 52.087,13.9568 107.0544,-8.8114 134.0165,-55.5114 26.9624,-46.69999 19.1966,-105.68729 -18.9339,-143.81776 -34.0744,-34.0744 -44.2677,-85.31974 -25.8267,-129.84024 18.4409,-44.52051 61.8844,-73.54875 110.0779,-73.55335 -158.857,0 -287.6399,128.77826 -287.6399,287.64013 z"
         style="opacity:0.97000002;fill:none;fill-opacity:1;fill-rule:nonzero;stroke:#941680;stroke-width:14.38223648;stroke-linecap:round;stroke-linejoin:round;stroke-miterlimit:4;stroke-dasharray:none;stroke-dashoffset:0;stroke-opacity:1;paint-order:normal"
         id="path1125-0-2" />
      <path
         inkscape:export-ydpi="162.80484"
         inkscape:export-xdpi="162.80484"
         sodipodi:nodetypes="scscccs"
         inkscape:connector-curvature="0"
         d="m 5491.0169,906.86176 c 0,-53.92447 -36.2191,-101.12582 -88.3061,-115.08263 -52.087,-13.95681 -107.0545,8.81142 -134.0165,55.51141 -26.9624,46.69998 -19.1966,105.68729 18.9339,143.81776 34.0744,34.0744 44.2676,85.3197 25.8267,129.8403 -18.4409,44.5205 -61.8847,73.5487 -110.0779,73.5533 158.857,0 287.6399,-128.7783 287.6399,-287.64014 z"
         style="opacity:0.97000002;fill:none;fill-opacity:1;fill-rule:nonzero;stroke:#941680;stroke-width:14.38199997;stroke-linecap:round;stroke-linejoin:round;stroke-miterlimit:4;stroke-dasharray:none;stroke-dashoffset:0;stroke-opacity:1;paint-order:normal"
         id="path1125-5-5" />
      <path
         inkscape:export-ydpi="162.80484"
         inkscape:export-xdpi="162.80484"
         inkscape:connector-curvature="0"
         id="path1183-2"
         d="m 5203.3756,619.2244 c -53.9245,2e-5 -101.1235,36.2176 -115.0803,88.30468 -13.9568,52.08711 8.812,107.05093 55.512,134.01322 46.6999,26.96232 105.6861,19.19761 143.8166,-18.93286 34.0744,-34.07448 85.3186,-44.2672 129.8391,-25.82624 44.5205,18.44093 73.547,61.88691 73.5516,110.08029 0,-158.85707 -128.7771,-287.63909 -287.639,-287.63909 z"
         style="opacity:1;fill:#941680;fill-opacity:1;stroke:#941680;stroke-width:14.38223648;stroke-linecap:round;stroke-linejoin:miter;stroke-miterlimit:4;stroke-dasharray:none;stroke-opacity:1" />
      <path
         inkscape:export-ydpi="162.80484"
         inkscape:export-xdpi="162.80484"
         inkscape:connector-curvature="0"
         id="path1195-6"
         d="m 5214.1117,640.18054 c 12.1052,29.10485 37.8488,51.60948 43.9081,83.35099 3.3746,17.67925 -2.3199,39.21469 -19.7351,47.48908 -22.8925,10.87691 -50.4802,2.44112 -61.6126,-20.71344 -6.4916,-13.50199 -5.8518,-30.05177 -1.0315,-43.28075 8.8756,-24.35833 27.5731,-43.47885 38.4711,-66.84588 z"
         style="opacity:1;fill:#941680;fill-opacity:1;stroke:#ffffff;stroke-width:14.38223648;stroke-linecap:round;stroke-linejoin:miter;stroke-miterlimit:4;stroke-dasharray:none;stroke-opacity:1" />
      <path
         inkscape:export-ydpi="162.80484"
         inkscape:export-xdpi="162.80484"
         inkscape:connector-curvature="0"
         id="path1197-5"
         d="m 5192.8153,731.03431 c 2.4571,12.21245 9.6651,19.39355 19.5768,20.08531"
         style="opacity:1;fill:none;stroke:#ffffff;stroke-width:14.38223648;stroke-linecap:round;stroke-linejoin:miter;stroke-miterlimit:4;stroke-dasharray:none;stroke-opacity:1" />
      <ellipse
         ry="99.844269"
         rx="99.844109"
         cy="906.86218"
         cx="5203.3765"
         id="path1199-2"
         style="opacity:1;fill:#941680;fill-opacity:1;fill-rule:nonzero;stroke:#ffffff;stroke-width:14.38199997;stroke-linecap:round;stroke-linejoin:round;stroke-miterlimit:4;stroke-dasharray:none;stroke-dashoffset:0;stroke-opacity:1;paint-order:normal" />
      <path
         style="fill:#ffffff;fill-opacity:1;stroke-width:0.17013879"
         d="m 5144.0831,961.43655 c 0,-0.24988 0.9968,-0.82306 1.6392,-0.94257 0.2934,-0.0546 0.8179,-0.29226 1.1656,-0.52823 0.3477,-0.23596 0.9116,-0.47339 1.2531,-0.52761 0.3415,-0.0542 1.1185,-0.32361 1.7268,-0.59862 2.4734,-1.1183 9.0068,-2.77501 15.0617,-3.81929 9.0607,-1.56266 19.3894,-2.52835 29.4632,-2.75465 2.6386,-0.0593 4.8859,-0.16242 4.994,-0.22919 0.6094,-0.37668 0.6171,-7.21674 0.011,-9.86281 -0.7091,-3.09602 -1.7895,-5.42806 -3.2605,-7.0375 -0.9863,-1.07916 -0.5965,-0.99192 -5.7764,-1.29305 -6.0432,-0.35132 -10.3299,-1.28314 -15.1917,-3.30232 -8.2763,-3.43733 -15.2394,-8.04334 -18.2833,-15.84455 -3.2261,-8.26809 -4.7029,-11.25716 -6.0605,-16.58853 -0.7549,-2.96551 -3.1693,-13.58183 -3.1693,-13.93562 0,-0.3282 0.2881,-0.20826 2.3843,0.9927 4.87,2.7901 9.3207,4.2063 18.798,5.98151 9.2538,1.73334 13.2801,2.67527 15.993,3.7414 6.4365,2.52946 11.6799,7.44778 14.6477,13.73966 1.0835,2.29705 1.2707,2.90669 1.8897,6.15395 0.4255,2.23251 0.4699,2.8228 0.467,6.21007 0,3.7105 -0.3067,6.55067 -0.7994,7.47918 -0.2134,0.4021 -0.042,0.60856 -2.1182,-2.54516 -4.8835,-7.41672 -10.602,-13.38015 -16.809,-17.5292 -2.2776,-1.52247 -5.8915,-3.40783 -8.1015,-4.22654 -1.9408,-0.71895 -4.1671,-1.34858 -4.4431,-1.25657 -0.1083,0.0361 0.4496,0.41073 1.2399,0.83252 5.2109,2.78152 10.5429,6.93839 16.3281,12.72954 6.2873,6.29377 11.8637,13.45971 15.2679,19.62001 0.7364,1.33273 1.0581,1.77384 1.1784,1.61632 0.091,-0.11915 0.4569,-1.05883 0.813,-2.08817 4.4824,-12.95874 13.4552,-29.72353 22.0367,-41.17358 4.0204,-5.3642 9.0707,-10.79552 13.3577,-14.36546 2.5846,-2.1523 2.4819,-2.1974 -1.0345,-0.45461 -9.2526,4.58562 -17.5219,13.01365 -24.557,25.02839 -2.4584,4.19845 -5.6139,10.6966 -7.415,15.26996 -0.3594,0.91237 -0.7497,1.65885 -0.8675,1.65885 -0.3677,0 -1.5195,-3.27317 -2.5445,-7.2309 -0.8026,-3.09883 -1.0464,-4.54543 -0.9645,-5.7224 0.046,-0.65425 -0.019,-1.12413 -0.2031,-1.48026 -0.2192,-0.42385 -0.2698,-1.14253 -0.2698,-3.82988 0,-7.04087 0.8707,-11.34128 3.3123,-16.3598 2.8218,-5.8001 7.124,-10.70247 12.5106,-14.25583 3.5247,-2.32516 8.9338,-4.68541 18.2048,-7.94362 11.4133,-4.0111 15.2878,-6.10791 21.4789,-11.6242 1.0843,-0.96612 1.3371,-1.12237 1.4289,-0.8831 0.061,0.1599 0.048,1.25855 -0.029,2.44145 -0.1926,2.93717 -0.2461,4.07492 -0.4731,10.06219 -0.2356,6.2116 -1.116,14.40229 -2.1762,20.24651 -3.083,16.99418 -9.1239,26.84222 -20.3359,33.15209 -4.5032,2.53424 -10.2705,4.548 -17.8953,6.24844 -1.9004,0.42382 -3.5683,0.81395 -3.7064,0.86695 -0.3637,0.13956 -1.1004,1.27151 -2.0182,3.10111 -2.2357,4.4565 -4.1097,10.56818 -4.884,15.92798 -0.302,2.09065 -0.3063,7.53186 -0.01,7.71736 0.1219,0.0753 2.3805,0.1855 5.0191,0.24486 11.7529,0.2644 24.3057,1.60672 33.8432,3.61901 2.8411,0.59943 6.9498,1.67284 8.6401,2.25723 0.7954,0.27499 1.829,0.62635 2.2968,0.78078 0.4679,0.15442 1.3593,0.54513 1.9809,0.86822 0.6216,0.32309 1.2765,0.58746 1.4553,0.58746 0.4148,0 2.0933,0.83078 2.0933,1.03604 0,0.2509 -0.9942,0.1774 -1.5603,-0.11534 -0.3377,-0.17463 -0.7204,-0.23317 -1.0814,-0.16544 -0.3296,0.0618 -0.8619,0 -1.2979,-0.1526 -0.4065,-0.14159 -1.1844,-0.25854 -1.7286,-0.2599 -0.5443,-0.002 -1.1568,-0.0922 -1.3612,-0.20185 -0.2044,-0.10964 -0.6858,-0.18326 -1.0698,-0.16359 -0.384,0.0197 -1.9152,-0.11983 -3.4027,-0.31001 -8.5107,-1.08813 -20.611,-1.9818 -32.564,-2.405 -6.6285,-0.23469 -23.6243,-0.2287 -30.706,0.0109 -13.8361,0.468 -28.491,1.67326 -38.4118,3.15912 -0.9117,0.13655 -1.9874,0.24828 -2.3904,0.24828 -0.403,0 -0.8065,0.0738 -0.8967,0.16393 -0.2446,0.24466 -2.1159,0.43362 -2.1159,0.21364 z"
         id="path1408"
         inkscape:connector-curvature="0"
         sodipodi:nodetypes="ccsccsscccssscssssccccsssccscccsccccssccsccscccscsccccccscccsscccccccsccsccc" />
    </g>
    <text
       xml:space="preserve"
       style="font-style:normal;font-variant:normal;font-weight:normal;font-stretch:normal;font-size:74.66666412px;line-height:1.25;font-family:Arial;-inkscape-font-specification:'Arial, Normal';font-variant-ligatures:normal;font-variant-caps:normal;font-variant-numeric:normal;font-feature-settings:normal;text-align:start;letter-spacing:0px;word-spacing:0px;writing-mode:lr-tb;text-anchor:start;fill:#000000;fill-opacity:1;stroke:none"
       x="5103.7725"
       y="520.06464"
       id="text2018-0"><tspan
         sodipodi:role="line"
         id="tspan2016-2"
         x="5103.7725"
         y="520.06464">NVUT</tspan></text>
    <g
       style="stroke-width:20.16652489;stroke-miterlimit:4;stroke-dasharray:none"
       transform="matrix(0.6149951,0.36108322,-0.36108322,0.6149951,2532.8238,-1274.6497)"
       id="g6292">
      <g
         id="g6321">
        <path
           inkscape:export-ydpi="162.80484"
           inkscape:export-xdpi="162.80484"
           inkscape:connector-curvature="0"
           id="path1190-8-2"
           d="m 4919.9291,1634.8636 c 0,158.857 128.7774,287.6391 287.6393,287.6391 53.9245,0 101.129,-36.2177 115.0858,-88.3047 13.9568,-52.087 -8.812,-107.0567 -55.512,-134.0188 -46.7,-26.9624 -105.6861,-19.1976 -143.8166,18.9328 -34.0744,34.0745 -85.3243,44.2672 -129.8448,25.8263 -44.5205,-18.441 -73.5471,-61.8816 -73.5517,-110.0747 z"
           style="opacity:1;fill:#941680;fill-opacity:1;stroke:#941680;stroke-width:14.38223648;stroke-miterlimit:4;stroke-dasharray:none;stroke-opacity:1"
           transform="matrix(1.2091919,-0.70995512,0.70995512,1.2091919,-2157.7258,3339.4875)" />
        <path
           inkscape:export-ydpi="162.80484"
           inkscape:export-xdpi="162.80484"
           inkscape:connector-curvature="0"
           id="path1027-7-6"
           d="m 4988.7518,1700.4464 c -7.6154,-1.4062 -10.8005,-2.8828 -13.9594,-6.4714 -3.6099,-4.1013 -4.854,-7.9003 -4.7953,-14.6462 0.081,-9.2743 5.1261,-21.0053 14.3831,-33.4417 5.1537,-6.9238 15.9528,-18.3416 22.5019,-23.7913 l 3.777,-3.143 -4.5327,1.544 c -23.0892,7.8654 -43.9949,29.4934 -50.6151,52.3635 -1.2202,4.2158 -1.3246,4.3388 -2.3923,2.8144 -2.4344,-3.4753 -5.5073,-11.4555 -6.7243,-17.4616 -2.6144,-12.9025 -0.055,-25.066 8.042,-38.2 5.2731,-8.5549 19.7324,-23.3299 28.2717,-28.8891 24.9239,-16.2258 60.0136,-24.7253 91.1894,-22.0882 5.9359,0.5021 11.9609,1.1596 13.3885,1.461 l 2.596,0.548 -3.8482,2.8247 c -2.1162,1.5536 -6.514,5.6577 -9.7724,9.1201 -9.1508,9.7241 -13.4376,17.8888 -15.7189,29.9388 -5.3381,28.1994 -10.5897,44.115 -19.6905,59.675 -5.4166,9.2614 -16.2041,20.0174 -23.7721,23.7034 -9.1741,4.468 -18.8735,5.8854 -28.3284,4.1396 z"
           style="fill:#941680;fill-opacity:1;stroke:#941680;stroke-width:0.75542152;stroke-opacity:1"
           transform="matrix(1.2091919,-0.70995512,0.70995512,1.2091919,-2157.7258,3339.4875)" />
        <path
           inkscape:export-ydpi="162.80484"
           inkscape:export-xdpi="162.80484"
           sodipodi:nodetypes="scscccs"
           inkscape:connector-curvature="0"
           d="m 4919.9297,1634.862 c 0,53.9244 36.2188,101.1258 88.3061,115.0826 52.087,13.9568 107.0544,-8.8114 134.0165,-55.5114 26.9624,-46.7 19.1966,-105.6873 -18.9339,-143.8178 -34.0744,-34.0744 -44.2677,-85.3197 -25.8267,-129.8402 18.4409,-44.5205 61.8844,-73.5488 110.0779,-73.5534 -158.857,0 -287.6399,128.7783 -287.6399,287.6402 z"
           style="opacity:0.97000002;fill:none;fill-opacity:1;fill-rule:nonzero;stroke:#941680;stroke-width:14.38223648;stroke-linecap:round;stroke-linejoin:round;stroke-miterlimit:4;stroke-dasharray:none;stroke-dashoffset:0;stroke-opacity:1;paint-order:normal"
           id="path1125-0-2-6"
           transform="matrix(1.2091919,-0.70995512,0.70995512,1.2091919,-2157.7258,3339.4875)" />
        <path
           inkscape:export-ydpi="162.80484"
           inkscape:export-xdpi="162.80484"
           sodipodi:nodetypes="scscccs"
           inkscape:connector-curvature="0"
           d="m 5495.2097,1634.8618 c 0,-53.9244 -36.2191,-101.1258 -88.3061,-115.0826 -52.087,-13.9568 -107.0545,8.8114 -134.0165,55.5114 -26.9624,46.7 -19.1966,105.6873 18.9339,143.8178 34.0744,34.0744 44.2676,85.3197 25.8267,129.8403 -18.4409,44.5205 -61.8847,73.5487 -110.0779,73.5533 158.857,0 287.6399,-128.7783 287.6399,-287.6402 z"
           style="opacity:0.97000002;fill:none;fill-opacity:1;fill-rule:nonzero;stroke:#941680;stroke-width:14.38199997;stroke-linecap:round;stroke-linejoin:round;stroke-miterlimit:4;stroke-dasharray:none;stroke-dashoffset:0;stroke-opacity:1;paint-order:normal"
           id="path1125-5-5-0"
           transform="matrix(1.2091919,-0.70995512,0.70995512,1.2091919,-2157.7258,3339.4875)" />
        <path
           inkscape:export-ydpi="162.80484"
           inkscape:export-xdpi="162.80484"
           inkscape:connector-curvature="0"
           id="path1183-2-39"
           d="m 5207.5684,1347.2245 c -53.9245,0 -101.1235,36.2176 -115.0803,88.3046 -13.9568,52.0872 8.812,107.051 55.512,134.0133 46.6999,26.9623 105.6861,19.1976 143.8166,-18.9329 34.0744,-34.0745 85.3186,-44.2672 129.8391,-25.8262 44.5205,18.4409 73.547,61.8869 73.5516,110.0803 0,-158.8571 -128.7771,-287.6391 -287.639,-287.6391 z"
           style="opacity:1;fill:#941680;fill-opacity:1;stroke:#941680;stroke-width:14.38199997;stroke-linecap:round;stroke-linejoin:miter;stroke-miterlimit:4;stroke-dasharray:none;stroke-opacity:1"
           transform="matrix(1.2091919,-0.70995512,0.70995512,1.2091919,-2157.7258,3339.4875)" />
        <path
           inkscape:export-ydpi="162.80484"
           inkscape:export-xdpi="162.80484"
           inkscape:connector-curvature="0"
           id="path1195-6-6"
           d="m 5218.3045,1368.1806 c 12.1052,29.1049 37.8488,51.6095 43.9081,83.351 3.3746,17.6793 -2.3199,39.2147 -19.7351,47.4891 -22.8925,10.8769 -50.4802,2.4411 -61.6126,-20.7135 -6.4916,-13.5019 -5.8518,-30.0517 -1.0315,-43.2807 8.8756,-24.3583 27.5731,-43.4789 38.4711,-66.8459 z"
           style="opacity:1;fill:#941680;fill-opacity:1;stroke:#ffffff;stroke-width:14.38199997;stroke-linecap:round;stroke-linejoin:miter;stroke-miterlimit:4;stroke-dasharray:none;stroke-opacity:1"
           transform="matrix(1.2091919,-0.70995512,0.70995512,1.2091919,-2157.7258,3339.4875)" />
        <path
           inkscape:export-ydpi="162.80484"
           inkscape:export-xdpi="162.80484"
           inkscape:connector-curvature="0"
           id="path1197-5-0"
           d="m 5197.0081,1459.0344 c 2.4571,12.2124 9.6651,19.3935 19.5768,20.0853"
           style="opacity:1;fill:none;stroke:#ffffff;stroke-width:14.38223648;stroke-linecap:round;stroke-linejoin:miter;stroke-miterlimit:4;stroke-dasharray:none;stroke-opacity:1"
           transform="matrix(1.2091919,-0.70995512,0.70995512,1.2091919,-2157.7258,3339.4875)" />
        <ellipse
           ry="99.844269"
           rx="99.844109"
           cy="1634.8623"
           cx="5207.5693"
           id="path1199-2-18"
           style="opacity:1;fill:#941680;fill-opacity:1;fill-rule:nonzero;stroke:#ffffff;stroke-width:14.38199997;stroke-linecap:round;stroke-linejoin:round;stroke-miterlimit:4;stroke-dasharray:none;stroke-dashoffset:0;stroke-opacity:1;paint-order:normal"
           transform="matrix(1.2091919,-0.70995512,0.70995512,1.2091919,-2157.7258,3339.4875)" />
        <path
           style="fill:#ffffff;fill-opacity:1;stroke-width:0.17013879"
           d="m 5148.2759,1689.4366 c 0,-0.2499 0.9968,-0.823 1.6392,-0.9425 0.2934,-0.055 0.8179,-0.2923 1.1656,-0.5283 0.3477,-0.2359 0.9116,-0.4734 1.2531,-0.5276 0.3415,-0.054 1.1185,-0.3236 1.7268,-0.5986 2.4734,-1.1183 9.0068,-2.775 15.0617,-3.8193 9.0607,-1.5627 19.3894,-2.5283 29.4632,-2.7546 2.6386,-0.059 4.8859,-0.1625 4.994,-0.2292 0.6094,-0.3767 0.6171,-7.2168 0.011,-9.8628 -0.7091,-3.0961 -1.7895,-5.4281 -3.2605,-7.0375 -0.9863,-1.0792 -0.5965,-0.992 -5.7764,-1.2931 -6.0432,-0.3513 -10.3299,-1.2831 -15.1917,-3.3023 -8.2763,-3.4373 -15.2394,-8.0434 -18.2833,-15.8446 -3.2261,-8.2681 -4.7029,-11.2571 -6.0605,-16.5885 -0.7549,-2.9655 -3.1693,-13.5818 -3.1693,-13.9356 0,-0.3282 0.2881,-0.2083 2.3843,0.9927 4.87,2.7901 9.3207,4.2063 18.798,5.9815 9.2538,1.7333 13.2801,2.6753 15.993,3.7414 6.4365,2.5295 11.6799,7.4478 14.6477,13.7397 1.0835,2.297 1.2707,2.9066 1.8897,6.1539 0.4255,2.2325 0.4699,2.8228 0.467,6.2101 0,3.7105 -0.3067,6.5506 -0.7994,7.4792 -0.2134,0.4021 -0.042,0.6085 -2.1182,-2.5452 -4.8835,-7.4167 -10.602,-13.3802 -16.809,-17.5292 -2.2776,-1.5225 -5.8915,-3.4078 -8.1015,-4.2265 -1.9408,-0.719 -4.1671,-1.3486 -4.4431,-1.2566 -0.1083,0.036 0.4496,0.4107 1.2399,0.8325 5.2109,2.7815 10.5429,6.9384 16.3281,12.7295 6.2873,6.2938 11.8637,13.4598 15.2679,19.6201 0.7364,1.3327 1.0581,1.7738 1.1784,1.6163 0.091,-0.1192 0.4569,-1.0589 0.813,-2.0882 4.4824,-12.9587 13.4552,-29.7235 22.0367,-41.1736 4.0204,-5.3642 9.0707,-10.7955 13.3577,-14.3654 2.5846,-2.1523 2.4819,-2.1974 -1.0345,-0.4546 -9.2526,4.5856 -17.5219,13.0136 -24.557,25.0283 -2.4584,4.1985 -5.6139,10.6966 -7.415,15.27 -0.3594,0.9124 -0.7497,1.6589 -0.8675,1.6589 -0.3677,0 -1.5195,-3.2732 -2.5445,-7.2309 -0.8026,-3.0989 -1.0464,-4.5455 -0.9645,-5.7224 0.046,-0.6543 -0.019,-1.1242 -0.2031,-1.4803 -0.2192,-0.4239 -0.2698,-1.1425 -0.2698,-3.8299 0,-7.0409 0.8707,-11.3413 3.3123,-16.3598 2.8218,-5.8001 7.124,-10.7025 12.5106,-14.2558 3.5247,-2.3252 8.9338,-4.6854 18.2048,-7.9436 11.4133,-4.0111 15.2878,-6.1079 21.4789,-11.6242 1.0843,-0.9662 1.3371,-1.1224 1.4289,-0.8831 0.061,0.1599 0.048,1.2585 -0.029,2.4414 -0.1926,2.9372 -0.2461,4.0749 -0.4731,10.0622 -0.2356,6.2116 -1.116,14.4023 -2.1762,20.2465 -3.083,16.9942 -9.1239,26.8422 -20.3359,33.1521 -4.5032,2.5342 -10.2705,4.548 -17.8953,6.2484 -1.9004,0.4239 -3.5683,0.814 -3.7064,0.867 -0.3637,0.1395 -1.1004,1.2715 -2.0182,3.1011 -2.2357,4.4565 -4.1097,10.5682 -4.884,15.928 -0.302,2.0906 -0.3063,7.5318 -0.01,7.7173 0.1219,0.075 2.3805,0.1855 5.0191,0.2449 11.7529,0.2644 24.3057,1.6067 33.8432,3.619 2.8411,0.5994 6.9498,1.6729 8.6401,2.2572 0.7954,0.275 1.829,0.6264 2.2968,0.7808 0.4679,0.1544 1.3593,0.5452 1.9809,0.8682 0.6216,0.3231 1.2765,0.5875 1.4553,0.5875 0.4148,0 2.0933,0.8308 2.0933,1.036 0,0.2509 -0.9942,0.1774 -1.5603,-0.1153 -0.3377,-0.1746 -0.7204,-0.2332 -1.0814,-0.1654 -0.3296,0.062 -0.8619,0 -1.2979,-0.1526 -0.4065,-0.1416 -1.1844,-0.2586 -1.7286,-0.2599 -0.5443,0 -1.1568,-0.092 -1.3612,-0.2019 -0.2044,-0.1096 -0.6858,-0.1832 -1.0698,-0.1636 -0.384,0.02 -1.9152,-0.1198 -3.4027,-0.31 -8.5107,-1.0881 -20.611,-1.9818 -32.564,-2.405 -6.6285,-0.2347 -23.6243,-0.2287 -30.706,0.011 -13.8361,0.468 -28.491,1.6733 -38.4118,3.1591 -0.9117,0.1366 -1.9874,0.2483 -2.3904,0.2483 -0.403,0 -0.8065,0.074 -0.8967,0.1639 -0.2446,0.2447 -2.1159,0.4337 -2.1159,0.2137 z"
           id="path1408-4"
           inkscape:connector-curvature="0"
           sodipodi:nodetypes="ccsccsscccssscssssccccsssccscccsccccssccsccscccscsccccccscccsscccccccsccsccc"
           transform="matrix(1.2091919,-0.70995512,0.70995512,1.2091919,-2157.7258,3339.4875)" />
        <path
           style="fill:#ffffff;fill-opacity:1;stroke-width:0.07375018"
           d="m 5220.5227,1884.9607 -8.2476,-14.34 0.9832,-1.825 c 0.5409,-1.0038 4.2689,-7.9048 8.2846,-15.3355 l 7.3013,-13.5102 0.017,0.7171 c 0.01,0.3945 -0.06,3.7208 -0.1541,7.3918 -0.094,3.6708 -0.1518,6.6957 -0.1279,6.7219 0.054,0.059 23.1539,0.2453 23.2121,0.1871 0.023,-0.023 -4.0459,-7.151 -9.0421,-15.8398 -7.3531,-12.7878 -9.0656,-15.8148 -8.9872,-15.8864 0.1304,-0.1192 29.028,-16.7787 29.0988,-16.7755 0.03,0 0.8068,1.3207 1.7248,2.9316 0.9181,1.611 4.2765,7.4861 7.4634,13.0558 4.2731,7.4683 5.8726,10.3273 6.0928,10.8905 1.0195,2.6074 1.3424,5.8574 0.8481,8.5343 -0.2493,1.3501 -0.8108,2.9347 -1.4811,4.1801 -0.5364,0.9964 -1.6983,2.8001 -2.2221,3.4494 -0.2666,0.3306 -4.752,7.3671 -9.9675,15.6367 -5.2155,8.2696 -9.7912,15.5232 -10.168,16.1189 -0.7533,1.1909 -1.4478,1.9871 -2.4051,2.7571 -1.5167,1.2199 -3.215,2.0214 -4.975,2.3477 -0.772,0.1432 -1.8446,0.1458 -11.3844,0.029 -4.0044,-0.049 -7.2953,-0.075 -7.313,-0.057 -0.018,0.018 -0.083,2.9323 -0.1461,6.4762 -0.063,3.544 -0.1236,6.4529 -0.1356,6.4643 -0.012,0.011 -3.7333,-6.4322 -8.2696,-14.3192 z m -46.9911,2.5765 c -2.212,-0.2953 -4.8961,-1.2611 -6.7593,-2.4321 -1.8834,-1.1838 -3.5042,-2.852 -4.6912,-4.8285 -0.5489,-0.9142 -1.4548,-2.7363 -1.7362,-3.4921 -0.1473,-0.396 -3.745,-7.2405 -8.9157,-16.9626 -4.7678,-8.9643 -8.8061,-16.5723 -8.9741,-16.9067 -0.3843,-0.765 -0.6256,-1.5013 -0.836,-2.5511 -0.1356,-0.6763 -0.1653,-1.0737 -0.167,-2.2247 0,-1.8244 0.1822,-2.7293 0.8424,-4.13 0.153,-0.3245 2.2743,-3.9556 4.714,-8.069 2.4397,-4.1135 4.4273,-7.4863 4.4169,-7.4953 -0.011,-0.01 -2.5235,-1.5054 -5.5847,-3.3255 l -5.5659,-3.309 16.5178,-0.019 c 9.0847,-0.011 16.5542,-0.01 16.5988,0.011 0.09,0.034 18.3508,29.5375 18.3082,29.58 -0.015,0.015 -2.864,-1.6959 -6.3317,-3.8012 -3.4678,-2.1053 -6.3382,-3.8178 -6.3788,-3.8056 -0.072,0.022 -11.609,19.8697 -11.6135,19.9794 0,0.03 8.1952,0.056 18.2141,0.056 h 18.2163 v 10.6816 c 0,5.8748 0.022,13.4748 0.049,16.8888 l 0.049,6.2072 -15.0757,-0.011 c -8.2916,-0.01 -15.1752,-0.024 -15.2968,-0.041 z m 4.9781,-81.3947 c -8.0517,-4.4292 -14.7039,-8.0904 -14.7827,-8.1359 -0.1333,-0.077 0.3557,-0.9815 7.0364,-13.0151 3.9488,-7.1128 7.3223,-13.1503 7.4967,-13.4168 0.4531,-0.6925 1.5991,-2.0029 2.3223,-2.6553 2.6995,-2.4355 5.5198,-3.6953 8.9161,-3.9826 1.2501,-0.1058 2.2571,-0.045 3.7836,0.2273 l 1.1946,0.2134 18.88,0.1954 18.88,0.1954 1.7843,0.3922 c 1.5764,0.3465 1.8729,0.4353 2.5444,0.7618 1.4834,0.7212 2.7471,1.7454 3.6326,2.9439 0.2373,0.3211 2.4094,3.9469 4.8269,8.0574 2.4176,4.1105 4.4288,7.4841 4.4693,7.4969 0.041,0.013 2.5795,-1.4328 5.6419,-3.2124 3.0625,-1.7795 5.5789,-3.226 5.592,-3.2144 0.026,0.023 -15.8926,28.7993 -15.9823,28.8911 -0.054,0.056 -34.5095,1.7738 -34.7624,1.7337 -0.07,-0.011 2.7616,-1.6632 6.2939,-3.671 3.5321,-2.0079 6.4377,-3.6883 6.4569,-3.7344 0.041,-0.097 -11.6555,-19.9814 -11.7441,-19.9659 -0.033,0.01 -4.0362,7.1734 -8.8967,15.9282 -4.8607,8.7549 -8.8615,15.941 -8.8909,15.9691 -0.029,0.028 -6.6411,-3.5727 -14.6928,-8.002 z"
           id="path6230"
           inkscape:connector-curvature="0"
           transform="matrix(1.2091919,-0.70995512,0.70995512,1.2091919,-2157.7258,3339.4875)" />
        <path
           style="opacity:1;fill:none;fill-opacity:1;fill-rule:nonzero;stroke:#941680;stroke-width:20.16652489;stroke-linecap:round;stroke-linejoin:round;stroke-miterlimit:4;stroke-dasharray:none;stroke-dashoffset:0;stroke-opacity:1;paint-order:normal"
           d="m 5599.6531,1498.7107 a 82.844032,82.844032 0 0 1 -82.844,82.844 82.844032,82.844032 0 0 1 -82.8441,-82.844 82.844032,82.844032 0 0 1 82.8441,-82.844 82.844032,82.844032 0 0 1 82.844,82.844 z"
           id="path6255"
           inkscape:connector-curvature="0" />
        <path
           style="opacity:1;fill:#941680;fill-opacity:1;fill-rule:nonzero;stroke:none;stroke-width:26.68327332;stroke-linecap:round;stroke-linejoin:round;stroke-miterlimit:4;stroke-dasharray:none;stroke-dashoffset:0;stroke-opacity:1;paint-order:normal"
           d="m 5541.168,1418.5197 a 24.35885,24.35885 59.353394 0 1 -24.3589,24.3588 24.35885,24.35885 59.353394 0 1 -24.3589,-24.3588 24.35885,24.35885 59.353394 0 1 24.3589,-24.3588 24.35885,24.35885 59.353394 0 1 24.3589,24.3588 z"
           id="path6255-6"
           inkscape:connector-curvature="0" />
        <path
           style="opacity:1;fill:#941680;fill-opacity:1;fill-rule:nonzero;stroke:none;stroke-width:25.59361839;stroke-linecap:round;stroke-linejoin:round;stroke-miterlimit:4;stroke-dasharray:none;stroke-dashoffset:0;stroke-opacity:1;paint-order:normal"
           d="m 5554.2159,1498.7107 a 37.406903,37.406903 62.182595 0 1 -37.4068,37.4068 37.406903,37.406903 62.182595 0 1 -37.4068,-37.4068 37.406903,37.406903 62.182595 0 1 37.4068,-37.4068 37.406903,37.406903 62.182595 0 1 37.4068,37.4068 z"
           id="path6255-6-7"
           inkscape:connector-curvature="0" />
      </g>
    </g>
  </g>
  <g
     id="g6920"
     inkscape:export-xdpi="162"
     inkscape:export-ydpi="162"
     transform="translate(-4908.5451,-466.61672)" />
</svg>
