<?xml version="1.0" encoding="UTF-8" standalone="no"?>
<!-- Created with Inkscape (http://www.inkscape.org/) -->

<svg
   xmlns:osb="http://www.openswatchbook.org/uri/2009/osb"
   xmlns:dc="http://purl.org/dc/elements/1.1/"
   xmlns:cc="http://creativecommons.org/ns#"
   xmlns:rdf="http://www.w3.org/1999/02/22-rdf-syntax-ns#"
   xmlns:svg="http://www.w3.org/2000/svg"
   xmlns="http://www.w3.org/2000/svg"
   xmlns:sodipodi="http://sodipodi.sourceforge.net/DTD/sodipodi-0.dtd"
   xmlns:inkscape="http://www.inkscape.org/namespaces/inkscape"
   inkscape:version="0.92.3 (2405546, 2018-03-11)"
   sodipodi:docname="Party.svg"
   viewBox="0 0 589.6627 735.33888"
   height="194.55841mm"
   width="156.01492mm"
   id="svg2"
   version="1.1"
   inkscape:export-filename="D:\Flori\Offiziell\OvGU\FaRa\Logo.png"
   inkscape:export-xdpi="162"
   inkscape:export-ydpi="162">
  <sodipodi:namedview
     units="mm"
     inkscape:current-layer="g6920"
     inkscape:window-maximized="1"
     inkscape:window-y="-8"
     inkscape:window-x="-8"
     inkscape:cy="272.79703"
     inkscape:cx="-164.86905"
     inkscape:zoom="0.70710678"
     showgrid="false"
     id="namedview4"
     inkscape:window-height="1017"
     inkscape:window-width="1920"
     inkscape:pageshadow="2"
     inkscape:pageopacity="0"
     guidetolerance="10"
     gridtolerance="10"
     objecttolerance="10"
     borderopacity="1"
     bordercolor="#666666"
     pagecolor="#ffffff"
     showguides="false"
     fit-margin-top="0"
     fit-margin-left="0"
     fit-margin-right="0"
     fit-margin-bottom="0" />
  <metadata
     id="metadata8">
    <rdf:RDF>
      <cc:Work
         rdf:about="">
        <dc:format>image/svg+xml</dc:format>
        <dc:type
           rdf:resource="http://purl.org/dc/dcmitype/StillImage" />
        <dc:title></dc:title>
      </cc:Work>
    </rdf:RDF>
  </metadata>
  <defs
     id="defs6">
    <linearGradient
       osb:paint="solid"
       id="linearGradient4047">
      <stop
         id="stop4045"
         offset="0"
         style="stop-color:#941680;stop-opacity:1;" />
    </linearGradient>
    <linearGradient
       osb:paint="solid"
       id="linearGradient3784">
      <stop
         id="stop3782"
         offset="0"
         style="stop-color:#941680;stop-opacity:1;" />
    </linearGradient>
  </defs>
  <text
     id="text2018-0-0-1"
     y="54.359375"
     x="292.73502"
     style="font-style:normal;font-variant:normal;font-weight:normal;font-stretch:normal;font-size:74.66666412px;line-height:1.25;font-family:Arial;-inkscape-font-specification:'Arial, Normal';font-variant-ligatures:normal;font-variant-caps:normal;font-variant-numeric:normal;font-feature-settings:normal;text-align:center;letter-spacing:0px;word-spacing:0px;writing-mode:lr-tb;text-anchor:middle;fill:#000000;fill-opacity:1;stroke:none"
     xml:space="preserve"><tspan
       y="54.359375"
       x="292.73502"
       sodipodi:role="line"
       id="tspan6521-4">Party</tspan></text>
  <g
     id="g6920"
     inkscape:export-xdpi="162"
     inkscape:export-ydpi="162"
     transform="translate(-6255.4813,-465.70526)">
    <path
       style="opacity:1;fill:#941680;fill-opacity:1;stroke:#941680;stroke-width:14.38223648;stroke-miterlimit:4;stroke-dasharray:none;stroke-opacity:1"
       d="m 6262.6724,906.21384 c 0,158.85696 128.7774,287.63916 287.6393,287.63916 53.9245,0 101.129,-36.2177 115.0858,-88.3047 13.9568,-52.087 -8.812,-107.05677 -55.512,-134.01886 -46.7,-26.96238 -105.6861,-19.19761 -143.8166,18.93287 -34.0744,34.07439 -85.3243,44.26709 -129.8448,25.82619 -44.5205,-18.44089 -73.5471,-61.88151 -73.5517,-110.07466 z"
       id="path1190-8-4-2"
       inkscape:connector-curvature="0"
       inkscape:export-xdpi="162.80484"
       inkscape:export-ydpi="162.80484" />
    <path
       id="path1125-0-2-3-0"
       style="opacity:0.97000002;fill:none;fill-opacity:1;fill-rule:nonzero;stroke:#941680;stroke-width:14.38223648;stroke-linecap:round;stroke-linejoin:round;stroke-miterlimit:4;stroke-dasharray:none;stroke-dashoffset:0;stroke-opacity:1;paint-order:normal"
       d="m 6262.673,906.21223 c 0,53.92447 36.2188,101.12587 88.3061,115.08267 52.087,13.9568 107.0544,-8.8115 134.0165,-55.51145 26.9624,-46.69999 19.1966,-105.68729 -18.9339,-143.81776 -34.0744,-34.0744 -44.2677,-85.31974 -25.8267,-129.84024 18.4409,-44.52051 61.8844,-73.54875 110.0779,-73.55335 -158.857,0 -287.6399,128.77826 -287.6399,287.64013 z"
       inkscape:connector-curvature="0"
       sodipodi:nodetypes="scscccs"
       inkscape:export-xdpi="162.80484"
       inkscape:export-ydpi="162.80484" />
    <path
       id="path1125-5-5-5-00"
       style="opacity:0.97000002;fill:none;fill-opacity:1;fill-rule:nonzero;stroke:#941680;stroke-width:14.38199997;stroke-linecap:round;stroke-linejoin:round;stroke-miterlimit:4;stroke-dasharray:none;stroke-dashoffset:0;stroke-opacity:1;paint-order:normal"
       d="m 6837.953,906.21211 c 0,-53.92447 -36.2191,-101.12582 -88.3061,-115.08263 -52.087,-13.95681 -107.0545,8.81142 -134.0165,55.51141 -26.9624,46.69998 -19.1966,105.68729 18.9339,143.81776 34.0744,34.07445 44.2676,85.31975 25.8267,129.84025 -18.4409,44.5205 -61.8847,73.5487 -110.0779,73.5533 158.857,0 287.6399,-128.7782 287.6399,-287.64009 z"
       inkscape:connector-curvature="0"
       sodipodi:nodetypes="scscccs"
       inkscape:export-xdpi="162.80484"
       inkscape:export-ydpi="162.80484" />
    <path
       style="opacity:1;fill:#941680;fill-opacity:1;stroke:#941680;stroke-width:14.38223648;stroke-linecap:round;stroke-linejoin:miter;stroke-miterlimit:4;stroke-dasharray:none;stroke-opacity:1"
       d="m 6550.3117,618.57475 c -53.9245,2e-5 -101.1235,36.2176 -115.0803,88.30468 -13.9568,52.08711 8.812,107.05093 55.512,134.01322 46.6999,26.96232 105.6861,19.19761 143.8166,-18.93286 34.0744,-34.07448 85.3186,-44.2672 129.8391,-25.82624 44.5205,18.44093 73.547,61.88691 73.5516,110.08029 0,-158.85707 -128.7771,-287.63909 -287.639,-287.63909 z"
       id="path1183-2-3-60"
       inkscape:connector-curvature="0"
       inkscape:export-xdpi="162.80484"
       inkscape:export-ydpi="162.80484" />
    <ellipse
       inkscape:export-ydpi="162"
       inkscape:export-xdpi="162"
       style="opacity:1;fill:#941680;fill-opacity:1;fill-rule:nonzero;stroke:#ffffff;stroke-width:14.38199997;stroke-linecap:round;stroke-linejoin:round;stroke-miterlimit:4;stroke-dasharray:none;stroke-dashoffset:0;stroke-opacity:1;paint-order:normal"
       id="path1199-2-1-2"
       cx="6550.3125"
       cy="906.21252"
       rx="99.844109"
       ry="99.844269" />
    <path
       inkscape:export-ydpi="162"
       inkscape:export-xdpi="162"
       inkscape:connector-curvature="0"
       id="path6807"
       d="m 6320.6278,980.38332 c -4.5217,-0.9837 -8.4447,-4.396 -10.2467,-8.9126 -0.4853,-1.2164 -0.5297,-3.5687 -0.6659,-35.25421 l -0.1459,-33.95084 -1.6524,-0.51125 c -0.9089,-0.28116 -2.1176,-0.7987 -2.6862,-1.15005 -1.6006,-0.98928 -3.5843,-3.38142 -4.3257,-5.21645 l -0.6722,-1.6635 v -17.65196 c 0,-17.41138 0.01,-17.67985 0.6464,-19.70633 0.3555,-1.13001 1.1549,-2.84133 1.7765,-3.80308 3.3909,-5.24634 10.4384,-7.99577 16.3961,-6.3967 0.8826,0.23691 1.6375,0.43229 1.6776,0.43418 0.04,0 0.073,-0.20314 0.073,-0.45565 0,-1.13315 1.6144,-5.09405 2.808,-6.88962 2.2389,-3.36777 5.7363,-5.88919 9.8838,-7.12557 2.3702,-0.70663 6.9664,-0.70663 9.3366,0 3.7118,1.10651 7.332,3.60805 9.5194,6.57789 l 0.7383,1.00239 1.5818,-0.63033 c 2.2936,-0.91404 3.9058,-1.21401 6.5418,-1.21716 4.6559,-0.006 8.6571,1.5875 12.0677,4.80487 l 2.0085,1.89471 1.2772,-0.4674 c 1.9851,-0.72638 6.1591,-0.86 8.4169,-0.26936 5.3264,1.39337 9.9719,6.20975 11.0662,11.47318 0.7023,3.37809 0.1648,7.01516 -1.4681,9.93326 -0.8638,1.54378 -0.8679,1.57261 -0.4168,2.89669 0.3509,1.02961 0.4557,2.62673 0.4557,6.9404 v 5.60304 l 10.4307,0.1504 c 8.5723,0.12364 10.7425,0.23827 12.1813,0.64326 4.6037,1.29595 8.0201,4.20616 10.2012,8.68976 0.7347,1.51031 1.6154,3.94736 1.98,5.47885 0.6529,2.74344 0.6565,2.88868 0.6565,26.53751 0,21.83048 -0.043,23.9793 -0.5269,26.22276 -1.6588,7.69337 -5.0973,12.12241 -11.1927,14.41731 -1.611,0.6065 -2.2846,0.6485 -12.6429,0.7887 l -10.9413,0.148 -0.1902,3.2095 c -0.1316,2.2228 -0.381,3.6905 -0.8111,4.7744 -1.7568,4.4268 -5.7363,7.757 -10.4649,8.7574 -2.4072,0.5093 -60.2931,0.411 -62.6713,-0.1064 z m 63.2017,-6.5991 c 0.8686,-0.3737 1.9443,-1.1674 2.6157,-1.9301 2.2112,-2.512 2.0573,1.6068 1.975,-52.89681 l -0.074,-48.86606 h -9.0448 -9.0447 l -0.187,2.91769 c -0.2944,4.59234 -1.7457,7.97489 -4.8175,11.22832 -2.0129,2.13192 -4.1246,3.51693 -7.0334,4.61323 -1.6682,0.62873 -2.4766,0.74495 -5.3223,0.76525 -2.0513,0.0148 -3.9223,-0.13421 -4.8141,-0.38298 -3.5816,-0.99901 -7.6057,-3.75709 -9.836,-6.74141 -0.6599,-0.88301 -0.8356,-0.97343 -1.2989,-0.66824 -4.0502,2.66809 -7.8942,3.64911 -11.8259,3.01808 -1.0745,-0.17248 -2.1404,-0.38529 -2.3687,-0.47293 -0.345,-0.13236 -0.441,0.64558 -0.5675,4.5984 -0.1064,3.3187 -0.2954,5.15486 -0.625,6.07068 -0.67,1.86131 -2.4243,4.05962 -4.191,5.2518 l -1.5133,1.0212 0.066,33.84498 0.066,33.8449 0.6309,1.1671 c 0.5743,1.0623 1.724,2.3015 3.1054,3.3468 1.3032,0.9863 2.7925,1.0302 32.8208,0.9672 l 29.8089,-0.062 z m -55.6212,-19.68834 c -0.5002,-0.24681 -1.0582,-0.77515 -1.2401,-1.17415 -0.2385,-0.52377 -0.3305,-8.23404 -0.3305,-27.72269 V 898.2019 l 0.8529,-0.85287 c 1.1897,-1.18975 2.8449,-1.1904 4.1755,0 l 0.9528,0.85127 0.077,26.71924 c 0.086,29.71595 0.1684,28.38677 -1.8082,29.21265 -1.2678,0.5297 -1.5428,0.52614 -2.6799,-0.035 z m 15.152,0.0463 c -1.9363,-0.86587 -1.8425,0.59045 -1.8425,-28.58168 0,-15.74561 0.1105,-26.69117 0.2739,-27.12078 0.8054,-2.11827 3.3467,-2.65456 4.9555,-1.04576 l 0.8977,0.89773 v 27.10726 27.10731 l -0.8023,0.88064 c -0.9579,1.05134 -2.212,1.32331 -3.4823,0.75528 z m 14.9292,-0.032 c -1.8461,-0.91126 -1.7371,0.70787 -1.8347,-27.27006 -0.049,-14.04129 -0.01,-26.24127 0.1002,-27.11105 0.2515,-2.10273 1.309,-3.23274 3.0253,-3.23274 0.8969,0 1.4165,0.20695 2.1378,0.85133 l 0.9528,0.85128 0.079,26.71579 c 0.088,29.71969 0.1702,28.38885 -1.8096,29.2161 -1.2626,0.52756 -1.5446,0.52537 -2.6507,-0.0208 z m 14.9127,0 c -1.7098,-0.89162 -1.613,0.81846 -1.6231,-28.68052 l -0.01,-27.2296 0.8529,-0.85287 c 1.1898,-1.18975 2.8449,-1.1904 4.1755,0 l 0.9528,0.85127 0.079,26.7158 c 0.088,29.71969 0.1702,28.38885 -1.8097,29.21609 -1.2764,0.53332 -1.5638,0.5313 -2.6181,-0.0184 z m 43.7642,2.54491 c 2.9062,-1.31553 5.207,-4.54316 6.2802,-8.80978 0.3275,-1.30218 0.4036,-6.17041 0.4036,-25.82133 V 897.8073 l -0.8463,-2.58218 c -0.9612,-2.93264 -2.4432,-5.12934 -4.3034,-6.37866 -2.3554,-1.58193 -3.2419,-1.68866 -14.0203,-1.68866 h -9.8734 l 0.079,5.6165 0.079,5.61651 5.5436,0.14589 c 5.3362,0.14044 5.6058,0.17645 7.2074,0.96294 3.5007,1.71909 5.5272,5.18636 6.098,10.43365 0.4905,4.50821 0.1837,25.64019 -0.401,27.62551 -0.9432,3.20277 -2.564,5.65281 -4.5823,6.92693 -2.0567,1.29833 -3.8147,1.60898 -9.1045,1.60898 h -4.9071 v 5.70325 5.70318 l 10.4307,-0.0867 c 10.1731,-0.0845 10.4673,-0.10329 11.9163,-0.75925 z m -11.6449,-17.43582 c 0.4525,-0.3313 1.0853,-1.11908 1.4062,-1.7506 0.5595,-1.10093 0.5836,-1.7255 0.5836,-15.15308 0,-13.42752 -0.024,-14.05215 -0.5836,-15.15303 -1.1071,-2.17849 -1.5833,-2.34093 -7.1686,-2.44512 l -4.9397,-0.0921 v 17.69035 17.69034 l 4.9397,-0.0921 c 4.4468,-0.083 5.0219,-0.1523 5.7624,-0.69452 z m -91.8103,-43.67317 c 2.1813,-1.48462 2.1689,-1.43093 2.3311,-10.08628 0.1557,-8.30618 0.2162,-8.64603 1.6791,-9.42895 1.2242,-0.65518 2.5263,-0.39194 4.3473,0.87898 2.2612,1.57819 4.4607,2.14265 6.8497,1.75796 0.9846,-0.15859 2.1744,-0.48699 2.644,-0.72983 1.3045,-0.67464 3.0135,-2.32824 4.0083,-3.87848 1.3431,-2.09299 2.8329,-2.58004 4.5987,-1.50337 0.7531,0.45922 1.0453,0.94804 1.5253,2.55186 2.5632,8.56498 12.7608,11.30237 18.9708,5.09238 2.6244,-2.62442 3.5012,-5.48046 3.5125,-11.4418 0.01,-3.34439 0.2968,-4.03992 1.9494,-4.66823 0.4017,-0.15271 5.4859,-0.27392 11.4926,-0.27392 h 10.7723 l 0.703,-1.09411 c 2.1185,-3.29681 1.6348,-7.5222 -1.1946,-10.4355 -1.686,-1.73606 -3.884,-2.61854 -6.5026,-2.61071 -1.9321,0.006 -2.4442,0.13355 -4.3755,1.09221 -1.203,0.5971 -2.4112,1.08569 -2.6851,1.08569 -1.0036,0 -2.0037,-0.70876 -2.8447,-2.01605 -1.2383,-1.92497 -3.4129,-3.94594 -5.2665,-4.89457 -1.475,-0.7548 -1.8642,-0.82078 -4.8142,-0.81597 -3.4594,0.006 -3.5012,0.0184 -6.9252,2.11257 -1.3822,0.84534 -1.8582,0.99349 -2.7351,0.85122 -1.425,-0.23127 -1.912,-0.73267 -3.1123,-3.20455 -3.9311,-8.09575 -14.5974,-9.10893 -19.5894,-1.86078 -1.8623,2.7041 -2.4297,6.0228 -1.6337,9.55675 0.3179,1.41183 0.3033,1.74621 -0.1113,2.548 -0.5232,1.01182 -1.7958,1.80809 -2.8896,1.80809 -0.3852,0 -1.2124,-0.39537 -1.838,-0.87856 -4.3902,-3.39091 -6.9608,-3.91426 -10.791,-2.19694 -1.915,0.85857 -3.5027,2.46304 -4.4622,4.5091 l -0.7644,1.62998 v 16.94368 16.94373 l 0.773,1.1681 c 1.4095,2.13013 4.4074,2.82964 6.3783,1.4883 z"
       style="fill:#941680;fill-opacity:1;stroke-width:0.29176697" />
    <path
       inkscape:export-ydpi="162"
       inkscape:export-xdpi="162"
       inkscape:connector-curvature="0"
       id="path6809"
       d="m 6499.465,780.20936 c -7.2511,-1.75784 -13.4768,-3.32735 -13.8349,-3.48781 -1.3225,-0.59251 -1.0205,-2.92742 0.4276,-3.30611 0.3006,-0.0786 3.2375,0.49108 6.5264,1.26596 3.2889,0.77492 6.0059,1.38196 6.0378,1.349 0.086,-0.0889 10.0718,-41.20853 10.0718,-41.47385 0,-0.12475 -0.4965,-0.50585 -1.1032,-0.84687 -5.9017,-3.31692 -9.4526,-13.35252 -9.4388,-26.67608 0.012,-9.86087 1.3876,-17.70422 5.5874,-31.81734 4.2,-14.11313 7.0214,-21.63755 8.2326,-21.95428 0.577,-0.15089 3.0182,0.41373 23.8219,5.50964 12.166,2.98011 11.2588,2.70047 11.5903,3.57224 0.7654,2.01355 -2.3704,21.279 -5.4753,33.63764 -5.4486,21.68698 -16.5538,37.52831 -27.444,39.14802 -2.2513,0.33484 -2.2518,0.33509 -2.5308,1.39821 -0.1533,0.5848 -2.4096,9.8305 -5.0136,20.54595 -2.6042,10.71551 -4.7906,19.57541 -4.8587,19.68874 -0.1458,0.24247 0.5537,0.43459 6.7786,1.86166 2.5782,0.59108 4.9843,1.26058 5.3467,1.4878 1.3493,0.84565 0.5161,3.37572 -1.0905,3.31145 -0.2462,-0.0104 -6.3803,-1.45614 -13.6313,-3.21397 z m 17.3162,-49.33314 c 8.2572,-3.78028 16.9125,-18.27373 21.3721,-35.78819 1.4438,-5.67026 3.3224,-14.76492 3.0769,-14.89512 -0.5286,-0.28011 -32.8783,-7.83718 -33.0054,-7.71016 -0.4741,0.47414 -4.3924,15.24439 -5.109,19.25803 -1.4442,8.09203 -1.8331,16.8229 -1.0297,23.11868 1.1957,9.36985 4.3276,15.27381 8.8822,16.7443 1.3368,0.43158 4.0125,0.0967 5.8129,-0.72754 z m -7.0073,-10.36347 c -1.5943,-1.76174 -2.3908,-11.44732 -1.6553,-20.12928 0.5796,-6.84102 2.2048,-15.93317 3.103,-17.35864 0.5342,-0.84794 1.8741,-0.87428 2.6188,-0.0515 0.5386,0.59514 0.5362,0.6724 -0.1142,3.7354 -1.8531,8.71832 -2.5362,15.38865 -2.3083,22.53833 0.1453,4.55813 0.3883,6.49284 1.2295,9.78796 0.3941,1.54361 -1.7945,2.66928 -2.873,1.47767 z m 33.173,-49.58444 c 0.3442,-2.49132 0.6924,-4.94786 0.7738,-5.45898 0.081,-0.51113 0.045,-0.99142 -0.081,-1.06733 -0.3465,-0.20904 -29.2539,-7.23201 -29.7679,-7.23201 -0.2969,0 -0.8345,1.00912 -1.5996,3.00297 -1.3062,3.404 -2.836,7.84796 -2.8421,8.25636 0,0.15006 7.313,2.00141 16.256,4.11413 14.0522,3.3197 16.2854,3.77834 16.4474,3.37791 0.1027,-0.25485 0.4691,-2.50172 0.8134,-4.99305 z m 43.469,112.02175 c -0.9062,-0.78141 -1.0678,-1.65878 -0.4469,-2.42555 0.4214,-0.5204 1.6097,-0.90892 5.793,-1.8941 2.8946,-0.68168 5.6023,-1.32505 6.0173,-1.42971 l 0.7543,-0.19025 -4.8739,-20.00272 c -2.6807,-11.00146 -4.9632,-20.34896 -5.0723,-20.77221 -0.181,-0.70267 -0.3879,-0.79774 -2.3803,-1.09408 -4.8782,-0.72555 -9.5091,-3.93647 -14.2112,-9.85359 -4.5995,-5.7879 -9.1031,-14.89382 -11.8877,-24.03562 -2.6068,-8.55809 -6.0614,-26.20146 -6.8781,-35.12816 -0.2484,-2.71569 -0.2254,-3.30761 0.1509,-3.8819 0.2442,-0.37266 0.5134,-0.67758 0.5983,-0.67758 0.085,0 7.7472,-1.85534 17.0273,-4.12295 10.5004,-2.56585 17.14,-4.05588 17.5803,-3.94537 0.9288,0.23311 1.8786,2.35972 4.5193,10.11913 5.1617,15.16691 8.0219,26.43592 9.0349,35.59619 0.4818,4.35676 0.3976,13.26729 -0.1609,17.0269 -1.2503,8.41549 -4.3404,14.65434 -8.6374,17.4387 -0.7947,0.51496 -1.4449,1.00472 -1.4449,1.08836 0,0.37867 10.0049,41.19996 10.1278,41.32288 0.076,0.0763 2.823,-0.49325 6.104,-1.2655 3.5171,-0.82781 6.2201,-1.3232 6.586,-1.20707 1.2754,0.40483 1.5403,2.43906 0.3969,3.04859 -0.4743,0.2528 -24.7399,6.20027 -27.0376,6.62684 -0.7844,0.14563 -1.1916,0.0619 -1.6591,-0.34123 z m 4.1669,-51.98328 c 1.7207,-0.80875 3.9844,-3.31472 5.07,-5.61256 2.2259,-4.71112 3.0886,-9.77885 3.0789,-18.08589 -0.012,-9.80166 -1.0094,-15.73793 -5.1223,-30.46916 -0.6523,-2.33646 -1.2713,-4.33904 -1.3755,-4.45016 -0.1814,-0.19349 -32.7254,7.4446 -33.0338,7.75305 -0.4266,0.42663 3.444,16.98535 5.1989,22.24085 4.9015,14.67904 13.0354,26.23204 20.3341,28.88157 1.5232,0.55295 4.3943,0.42648 5.8497,-0.2577 z m -1.8939,-10.4446 c -0.793,-0.64219 -0.8237,-1.3569 -0.1729,-4.0252 0.3425,-1.40443 0.5495,-3.85146 0.6567,-7.76378 0.2082,-7.59005 -0.2699,-12.07042 -2.4497,-22.95837 l -0.5199,-2.59674 0.6826,-0.55272 c 0.8588,-0.6954 1.6391,-0.70308 2.3193,-0.0228 0.5093,0.50927 1.5857,4.93161 2.4022,9.87069 1.1118,6.72347 1.5041,16.62946 0.8646,21.83414 -0.3511,2.85763 -1.0849,5.72279 -1.5633,6.10388 -0.74,0.58952 -1.5769,0.63136 -2.2196,0.11091 z m -11.7327,-48.44855 c 7.654,-1.798 14.0137,-3.35412 14.1328,-3.45804 0.1191,-0.10387 -0.4916,-2.16137 -1.357,-4.57213 -2.2586,-6.29126 -2.5189,-6.87431 -3.0662,-6.86719 -0.2645,0.003 -7.0727,1.62108 -15.1295,3.59472 l -14.6486,3.5885 0.091,1.31255 c 0.1027,1.47593 1.1749,9.18334 1.4088,10.12982 l 0.1518,0.61401 2.2501,-0.53655 c 1.2375,-0.29511 8.5124,-2.00769 16.1663,-3.80569 z m -33.8699,-20.84984 c -0.9953,-0.54431 -7.7038,-6.97978 -7.8912,-7.57009 -0.2245,-0.70732 0.513,-1.89811 1.3375,-2.15983 0.3665,-0.11634 0.9041,0 1.3533,0.29535 1.2485,0.81795 7.3962,6.90458 7.5897,7.51411 0.2207,0.69548 -0.5017,1.8749 -1.2717,2.07629 -0.3099,0.081 -0.8127,0.0104 -1.1176,-0.15583 z m 11.9687,-0.27947 c -0.1611,-0.20142 -0.392,-0.68854 -0.5131,-1.0825 -0.1969,-0.64006 0.194,-1.1149 3.6734,-4.46303 2.1415,-2.06074 4.1519,-3.82878 4.4677,-3.92897 0.755,-0.23966 2.0841,0.75441 2.217,1.65814 0.083,0.56464 -0.6281,1.39335 -3.8087,4.43834 -3.3057,3.16477 -4.0524,3.74403 -4.827,3.74413 -0.504,5e-5 -1.0481,-0.16468 -1.2093,-0.36611 z m -6.5421,-5.08703 c -0.3323,-0.40271 -0.3944,-1.55255 -0.3132,-5.79913 0.055,-2.91326 0.2169,-5.51322 0.3584,-5.77772 0.3926,-0.73345 1.6834,-0.94422 2.5011,-0.4084 0.6966,0.4564 0.7014,0.49574 0.6971,5.65312 0,6.00093 -0.1661,6.60981 -1.7853,6.74643 -0.711,0.06 -1.1759,-0.0721 -1.4581,-0.4143 z"
       style="fill:#ffffff;fill-opacity:1;stroke-width:0.29297274" />
    <path
       inkscape:export-ydpi="162"
       inkscape:export-xdpi="162"
       inkscape:connector-curvature="0"
       id="path6822"
       d="m 6699.9277,963.60617 c -2.0807,-1.4161 -1.7671,0.1294 -6.0596,-29.86867 l -3.9591,-27.66886 -5.9117,-26.5779 c -4.0163,-18.05672 -5.8559,-26.8542 -5.7376,-27.43983 0.2701,-1.33921 1.406,-2.87935 2.5096,-3.40304 0.9202,-0.43668 4.7025,-0.4759 45.8829,-0.4759 41.1804,0 44.9627,0.0392 45.8829,0.4759 1.1047,0.52418 2.237,2.06089 2.5148,3.41263 0.124,0.60334 -1.6315,9.0043 -5.7038,27.29619 l -5.8829,26.42462 -3.909,27.38511 c -2.15,15.06185 -4.0408,27.73305 -4.2019,28.15825 -0.1611,0.4252 -0.5752,1.0763 -0.9202,1.4468 -1.4407,1.5474 -0.1962,1.4812 -27.8668,1.4812 h -25.6877 z m 46.8466,-9.1945 c 0.01,-0.1975 0.5714,-4.2381 1.2585,-8.97899 0.6872,-4.74092 1.2326,-8.63998 1.2121,-8.66455 -0.02,-0.0243 -0.9659,0.63651 -2.1006,1.46912 -12.0851,8.86682 -28.6617,8.88552 -40.9766,0.0466 l -2.2391,-1.60714 0.1614,0.9301 c 0.2576,1.48374 2.4492,16.60516 2.4492,16.89856 0,0.1601 7.9884,0.2657 20.113,0.2657 15.8939,0 20.1149,-0.075 20.1221,-0.3592 z m -15.0099,-19.63319 c 8.2663,-1.69453 15.661,-7.96447 18.599,-15.76991 0.3841,-1.02055 2.6458,-10.62044 5.0259,-21.33318 2.3801,-10.71268 4.3959,-19.70389 4.4796,-19.98042 0.1441,-0.47635 -1.2344,-0.50284 -26.1578,-0.50284 h -26.3099 v -4.88456 -4.88462 h 27.371 27.371 l 0.9781,-4.52542 c 0.5379,-2.48897 1.0353,-4.68704 1.1052,-4.88455 0.1013,-0.28618 -7.5346,-0.35915 -37.5629,-0.35915 -35.7599,0 -37.6826,0.0255 -37.5431,0.50278 0.081,0.2766 3.0673,13.67947 6.6366,29.78426 6.5847,29.71009 7.0662,31.56281 9.1027,35.01641 3.3984,5.76308 9.847,10.38067 16.4768,11.79828 2.6987,0.57708 7.6714,0.588 10.4278,0.023 z"
       style="fill:#941680;fill-opacity:1;stroke-width:0.28732845" />
    <path
       inkscape:export-ydpi="162"
       inkscape:export-xdpi="162"
       inkscape:connector-curvature="0"
       id="path6835"
       d="m 6533.3366,1172.4195 c -1.1565,-0.4053 -1.9007,-1.4347 -1.9007,-2.6292 0,-1.9434 1.4591,-3.0241 4.083,-3.0241 h 1.4416 v -4.426 -4.4261 l 0.7601,-0.851 0.7601,-0.851 9.2077,-0.1304 9.2077,-0.1303 0.066,-15.6357 0.066,-15.6357 -15.2803,-19.6751 c -8.4042,-10.8212 -15.4868,-19.9385 -15.7391,-20.2607 l -0.4589,-0.5858 -1.6568,0.7685 c -3.0031,1.3929 -5.6724,1.9354 -9.605,1.9519 -4.8495,0.021 -8.3593,-0.9046 -12.234,-3.224 -7.3041,-4.3724 -11.5526,-11.9023 -11.5526,-20.4755 0,-6.677 2.479,-12.499 7.2748,-17.085 4.0334,-3.8569 8.5462,-5.9325 14.1573,-6.5114 11.5661,-1.1933 22.4696,6.4714 25.3187,17.7982 l 0.5736,2.2802 h 24.7316 24.7315 l 1.7733,-3.7135 c 5.4851,-11.4869 5.9729,-12.4106 6.7709,-12.8233 1.7448,-0.9023 3.6073,-0.2159 4.1879,1.5435 0.4111,1.2454 0.2482,1.6915 -3.2132,8.8041 l -3.0119,6.1892 h 7.0881 c 6.566,0 7.1495,0.038 7.9209,0.5087 0.5594,0.3411 0.9348,0.8483 1.1435,1.545 0.2697,0.8999 0.2444,1.1688 -0.1906,2.0321 -0.2759,0.5471 -4.6089,6.2719 -9.629,12.7217 -5.0202,6.4497 -15.4821,19.9075 -23.2488,29.9062 l -14.1212,18.1795 v 15.7631 15.7632 h 8.8732 c 7.5448,0 8.9914,0.061 9.6626,0.4082 1.2834,0.6637 1.5301,1.6677 1.5301,6.2286 v 4.0476 h 1.2378 c 1.8449,0 3.0982,0.4374 3.7023,1.2858 1.1421,1.6039 0.3599,3.9191 -1.4985,4.4353 -1.4647,0.4068 -51.7595,0.341 -52.9304,-0.069 z m 43.4951,-8.1308 v -2.4776 l -17.0039,0.067 -17.0038,0.067 -0.075,2.4106 -0.075,2.4105 h 17.0788 17.0788 z m -9.2028,-55.583 7.6056,-9.8248 -7.3833,-0.1303 c -6.7411,-0.1189 -7.4301,-0.1726 -7.9215,-0.6178 -1.3985,-1.2667 -1.234,-3.6682 0.3159,-4.6133 0.7682,-0.4684 1.4129,-0.5001 10.2015,-0.502 h 9.3814 l 2.1347,-2.8004 2.1347,-2.8003 -24.132,-0.067 c -13.2725,-0.036 -24.1812,-0.017 -24.2414,0.043 -0.124,0.124 23.9615,31.1717 24.1663,31.1519 0.073,-0.01 3.555,-4.4339 7.7381,-9.8375 z m -17.6099,-10.3187 c -0.8424,-0.4669 -1.3113,-1.3868 -1.3224,-2.5941 -0.01,-0.8003 0.17,-1.1826 0.8768,-1.8893 1.8028,-1.8029 4.4839,-0.7999 4.7755,1.7865 0.1277,1.1333 0.071,1.2893 -0.7814,2.1414 -0.7395,0.7395 -1.1152,0.9174 -1.9224,0.9099 -0.5518,-0.01 -1.2836,-0.1646 -1.6261,-0.3544 z m 30.4793,-24.6725 c 2.0682,-4.3103 3.7995,-7.9456 3.8472,-8.0785 0.053,-0.1476 -12.7069,-0.2416 -32.7916,-0.2416 -21.0619,0 -32.8473,0.091 -32.7917,0.252 0.048,0.1387 0.9041,1.3114 1.9027,2.606 l 1.8158,2.3539 h 18.3282 c 19.8832,0 19.3387,-0.039 20.1218,1.4246 0.7072,1.3215 0.1943,3.3774 -0.9882,3.9609 -0.2422,0.1195 -7.7375,0.2759 -16.6561,0.3476 l -16.2156,0.1303 1.9637,2.5408 1.9637,2.5408 h 22.8699 22.8699 z m -13.28,2.2613 c -1.7644,-0.978 -1.783,-3.9008 -0.031,-4.9355 1.2396,-0.7323 2.5266,-0.5682 3.5469,0.4521 0.7263,0.7263 0.886,1.0832 0.886,1.9805 0,0.8972 -0.1597,1.2541 -0.886,1.9805 -0.7068,0.7068 -1.0891,0.8841 -1.8894,0.8768 -0.5518,-0.01 -1.2835,-0.1646 -1.626,-0.3544 z m 27.5968,-2.2887 c 3.3669,-4.3253 6.1608,-7.9606 6.2086,-8.0785 0.151,-0.3727 -9.7574,-0.2627 -10.0507,0.1115 -0.2118,0.2704 -7.1263,14.4728 -7.5489,15.5055 -0.1016,0.2482 0.5096,0.3257 2.568,0.3257 h 2.7013 z m -75.0539,6.5726 c 0.9316,-0.3176 1.7756,-0.6552 1.8755,-0.7504 0.1,-0.095 -2.5056,-3.6283 -5.7899,-7.8515 -3.2843,-4.2231 -6.0432,-8.005 -6.1309,-8.4042 -0.2335,-1.0635 0.08,-2.1396 0.8284,-2.843 l 0.6587,-0.619 10.2989,-0.074 10.2988,-0.074 -0.1684,-0.7079 c -0.9436,-3.9658 -3.6996,-8.0065 -7.0038,-10.2684 -5.7598,-3.9429 -12.4796,-4.4195 -18.6789,-1.3246 -1.4383,0.718 -2.5464,1.5616 -4.1958,3.1942 -3.52,3.4841 -5.0901,6.9193 -5.3717,11.753 -0.4886,8.3843 5.0672,16.0151 13.272,18.2288 2.6321,0.7102 7.6397,0.5817 10.1071,-0.2592 z"
       style="fill:#ffffff;fill-opacity:1;stroke-width:0.26059586" />
    <text
       xml:space="preserve"
       style="font-style:normal;font-variant:normal;font-weight:bold;font-stretch:normal;font-size:65.29538727px;line-height:1.25;font-family:Arial;-inkscape-font-specification:'Arial, Bold';font-variant-ligatures:normal;font-variant-caps:normal;font-variant-numeric:normal;font-feature-settings:normal;text-align:start;letter-spacing:0px;word-spacing:0px;writing-mode:lr-tb;text-anchor:start;fill:#ffffff;fill-opacity:1;stroke:none;stroke-width:0.87449187"
       x="6548.4795"
       y="922.71173"
       id="text1230-9"><tspan
         sodipodi:role="line"
         x="6548.4795"
         y="922.71173"
         style="font-style:normal;font-variant:normal;font-weight:bold;font-stretch:normal;font-size:65.29538727px;line-height:1;font-family:Arial;-inkscape-font-specification:'Arial, Bold';font-variant-ligatures:normal;font-variant-caps:normal;font-variant-numeric:normal;font-feature-settings:normal;text-align:center;writing-mode:lr-tb;text-anchor:middle;fill:#ffffff;fill-opacity:1;stroke-width:0.87449187"
         id="tspan1232-2">Party</tspan></text>
  </g>
  <text
     xml:space="preserve"
     style="font-style:normal;font-variant:normal;font-weight:normal;font-stretch:normal;font-size:74.66666412px;line-height:1.25;font-family:Arial;-inkscape-font-specification:'Arial, Normal';font-variant-ligatures:normal;font-variant-caps:normal;font-variant-numeric:normal;font-feature-settings:normal;text-align:start;letter-spacing:0px;word-spacing:0px;writing-mode:lr-tb;text-anchor:start;fill:#000000;fill-opacity:1;stroke:none"
     x="-866.9129"
     y="800.3927"
     id="text1052"><tspan
       sodipodi:role="line"
       id="tspan1050"
       x="-866.9129"
       y="867.64905" /></text>
</svg>
