<?xml version="1.0" encoding="UTF-8" standalone="no"?>
<!-- Created with Inkscape (http://www.inkscape.org/) -->

<svg
   xmlns:osb="http://www.openswatchbook.org/uri/2009/osb"
   xmlns:dc="http://purl.org/dc/elements/1.1/"
   xmlns:cc="http://creativecommons.org/ns#"
   xmlns:rdf="http://www.w3.org/1999/02/22-rdf-syntax-ns#"
   xmlns:svg="http://www.w3.org/2000/svg"
   xmlns="http://www.w3.org/2000/svg"
   xmlns:sodipodi="http://sodipodi.sourceforge.net/DTD/sodipodi-0.dtd"
   xmlns:inkscape="http://www.inkscape.org/namespaces/inkscape"
   inkscape:version="0.92.3 (2405546, 2018-03-11)"
   sodipodi:docname="SGA.svg"
   viewBox="0 0 589.6627 1463.9885"
   height="387.34695mm"
   width="156.01492mm"
   id="svg2"
   version="1.1"
   inkscape:export-filename="D:\Flori\Offiziell\OvGU\FaRa\Logo.png"
   inkscape:export-xdpi="162"
   inkscape:export-ydpi="162">
  <sodipodi:namedview
     units="mm"
     inkscape:current-layer="g6920"
     inkscape:window-maximized="1"
     inkscape:window-y="-8"
     inkscape:window-x="-8"
     inkscape:cy="1096.6165"
     inkscape:cx="488.3195"
     inkscape:zoom="0.1767767"
     showgrid="false"
     id="namedview4"
     inkscape:window-height="1017"
     inkscape:window-width="1920"
     inkscape:pageshadow="2"
     inkscape:pageopacity="0"
     guidetolerance="10"
     gridtolerance="10"
     objecttolerance="10"
     borderopacity="1"
     bordercolor="#666666"
     pagecolor="#ffffff"
     showguides="false"
     fit-margin-top="0"
     fit-margin-left="0"
     fit-margin-right="0"
     fit-margin-bottom="0" />
  <metadata
     id="metadata8">
    <rdf:RDF>
      <cc:Work
         rdf:about="">
        <dc:format>image/svg+xml</dc:format>
        <dc:type
           rdf:resource="http://purl.org/dc/dcmitype/StillImage" />
        <dc:title></dc:title>
      </cc:Work>
    </rdf:RDF>
  </metadata>
  <defs
     id="defs6">
    <linearGradient
       osb:paint="solid"
       id="linearGradient4047">
      <stop
         id="stop4045"
         offset="0"
         style="stop-color:#941680;stop-opacity:1;" />
    </linearGradient>
    <linearGradient
       osb:paint="solid"
       id="linearGradient3784">
      <stop
         id="stop3782"
         offset="0"
         style="stop-color:#941680;stop-opacity:1;" />
    </linearGradient>
  </defs>
  <g
     id="g5889"
     inkscape:export-xdpi="162"
     inkscape:export-ydpi="162"
     transform="translate(-2336.801,-465.70526)">
    <g
       transform="translate(-3.7451908e-5)"
       id="g5711">
      <path
         inkscape:export-ydpi="162.80484"
         inkscape:export-xdpi="162.80484"
         style="fill:#941680;fill-opacity:1;stroke:#941680;stroke-width:0.28967798;stroke-opacity:1"
         d="m 2785.9927,971.79676 c 0,-0.10384 4.4389,-12.46771 9.8642,-27.47531 5.4252,-15.00764 9.8248,-27.5625 9.7767,-27.8997 l -0.086,-0.61312 -17.0188,-0.0745 c -9.3602,-0.0411 -17.0165,-0.17172 -17.0142,-0.28965 0,-0.25054 0.3676,-0.71126 15.2225,-19.3526 6.2033,-7.78461 15.4894,-19.43802 20.6353,-25.89654 5.1463,-6.45849 13.0787,-16.41119 17.6278,-22.11715 4.5491,-5.70592 8.3276,-10.31801 8.3966,-10.24907 0.069,0.069 -0.9771,3.17322 -2.3245,6.89833 -14.0626,38.87918 -17.2814,47.9183 -17.2051,48.31476 0.081,0.41493 1.8182,0.46898 17.2483,0.53617 9.4376,0.0411 17.1594,0.13491 17.1594,0.20883 0,0.14009 -61.1771,77.03118 -61.8795,77.77414 -0.2215,0.23328 -0.4013,0.33922 -0.4013,0.23529 z"
         id="path968-5-7-5"
         inkscape:connector-curvature="0" />
      <path
         inkscape:export-ydpi="162.80484"
         inkscape:export-xdpi="162.80484"
         inkscape:connector-curvature="0"
         id="path1190-8-4-1"
         d="m 2343.9922,906.86349 c 0,158.85701 128.7774,287.63911 287.6393,287.63911 53.9245,0 101.129,-36.2177 115.0858,-88.3047 13.9568,-52.087 -8.812,-107.05672 -55.512,-134.01881 -46.7,-26.96238 -105.6861,-19.19761 -143.8166,18.93287 -34.0744,34.07444 -85.3243,44.26714 -129.8448,25.82624 -44.5205,-18.44094 -73.5471,-61.88156 -73.5517,-110.07471 z"
         style="opacity:1;fill:#941680;fill-opacity:1;stroke:#941680;stroke-width:14.38223648;stroke-miterlimit:4;stroke-dasharray:none;stroke-opacity:1" />
      <path
         inkscape:export-ydpi="162.80484"
         inkscape:export-xdpi="162.80484"
         inkscape:connector-curvature="0"
         id="path989-5-4-3"
         d="m 2622.2885,1035.5671 c 6.0175,-0.2117 10.2125,6.4849 13.6577,10.8203 10.5692,13.3004 14.5821,30.8487 13.8092,47.2817 -0.2646,5.655 1.2703,12.6253 7.0056,13.6743 7.1017,-0.4734 4.8957,-8.8058 5.4552,-13.6406 0.8273,-8.7453 9.0959,-2.0464 10.6293,3.2978 2.4971,8.7026 7.8044,16.6285 8.0676,25.8936 1.249,16.9098 -7.6329,32.5887 -19.7589,44.8322 -4.9434,4.9915 -17.0913,5.3503 -12.1743,-2.8653 3.1909,-7.7975 -0.2531,-16.7634 -6.8427,-21.9048 -7.9713,-6.2194 -19.5326,-7.8477 -25.1241,-16.6014 -2.873,-4.498 -1.2673,-19.2022 -9.9214,-14.5114 -4.7534,4.591 -4.4036,11.8756 -5.3821,17.9441 -0.7942,15.119 6.0267,30.5099 18.1687,39.8152 3.125,2.3948 -1.5354,4.2952 -4.7415,3.2079 -27.2693,-9.2475 -42.1198,-43.9865 -26.6296,-68.2819 10.1499,-15.9197 28.1924,-26.3243 33.905,-45.04 2.3834,-7.8079 -0.032,-16.018 -2.8146,-23.3824 0.9372,-0.3392 1.8314,-0.5091 2.6909,-0.5393 z"
         style="fill:#ffffff;fill-opacity:1;stroke:none;stroke-width:2.8764472;stroke-miterlimit:4;stroke-dasharray:none;stroke-opacity:1" />
      <path
         inkscape:export-ydpi="162.80484"
         inkscape:export-xdpi="162.80484"
         inkscape:connector-curvature="0"
         id="path1027-7-4-0"
         d="m 2412.8149,972.44629 c -7.6154,-1.40618 -10.8004,-2.88275 -13.9594,-6.47132 -3.6099,-4.1013 -4.854,-7.90039 -4.7953,-14.64627 0.081,-9.27424 5.1261,-21.00531 14.3831,-33.44166 5.1537,-6.92378 15.9528,-18.34158 22.5019,-23.7913 l 3.777,-3.14306 -4.5327,1.54402 c -23.0892,7.86547 -43.9949,29.49339 -50.6151,52.36353 -1.2202,4.21584 -1.3246,4.33875 -2.3923,2.81443 -2.4344,-3.47535 -5.5073,-11.45553 -6.7243,-17.46164 -2.6144,-12.90245 -0.055,-25.06602 8.042,-38.2 5.2731,-8.5549 19.7324,-23.32988 28.2717,-28.88911 24.9239,-16.22578 60.0136,-24.72533 91.1894,-22.08818 5.9359,0.50211 11.9609,1.15958 13.3885,1.46098 l 2.596,0.54805 -3.8482,2.8247 c -2.1162,1.55359 -6.514,5.65762 -9.7724,9.12009 -9.1508,9.72406 -13.4376,17.8888 -15.7189,29.93881 -5.3381,28.19937 -10.5897,44.11501 -19.6904,59.67492 -5.4167,9.26141 -16.2042,20.01749 -23.7722,23.7034 -9.1741,4.46807 -18.8735,5.88541 -28.3284,4.13961 z"
         style="fill:#941680;fill-opacity:1;stroke:#941680;stroke-width:0.75542152;stroke-opacity:1" />
      <path
         inkscape:export-ydpi="162.80484"
         inkscape:export-xdpi="162.80484"
         sodipodi:nodetypes="scscccs"
         inkscape:connector-curvature="0"
         d="m 2343.9928,906.86188 c 0,53.92447 36.2188,101.12582 88.3061,115.08262 52.087,13.9568 107.0545,-8.8114 134.0165,-55.5114 26.9624,-46.69999 19.1966,-105.68729 -18.9339,-143.81776 -34.0744,-34.0744 -44.2676,-85.31974 -25.8267,-129.84024 18.4409,-44.52051 61.8844,-73.54875 110.0779,-73.55335 -158.857,0 -287.6399,128.77826 -287.6399,287.64013 z"
         style="opacity:0.97000002;fill:none;fill-opacity:1;fill-rule:nonzero;stroke:#941680;stroke-width:14.38223648;stroke-linecap:round;stroke-linejoin:round;stroke-miterlimit:4;stroke-dasharray:none;stroke-dashoffset:0;stroke-opacity:1;paint-order:normal"
         id="path1125-0-2-3-2" />
      <path
         inkscape:export-ydpi="162.80484"
         inkscape:export-xdpi="162.80484"
         sodipodi:nodetypes="scscccs"
         inkscape:connector-curvature="0"
         d="m 2919.2728,906.86176 c 0,-53.92447 -36.2191,-101.12582 -88.3061,-115.08263 -52.087,-13.95681 -107.0544,8.81142 -134.0165,55.51141 -26.9624,46.69998 -19.1966,105.68729 18.9339,143.81776 34.0744,34.0744 44.2677,85.3197 25.8267,129.8403 -18.4409,44.5205 -61.8847,73.5487 -110.0779,73.5533 158.857,0 287.6399,-128.7783 287.6399,-287.64014 z"
         style="opacity:0.97000002;fill:none;fill-opacity:1;fill-rule:nonzero;stroke:#941680;stroke-width:14.38199997;stroke-linecap:round;stroke-linejoin:round;stroke-miterlimit:4;stroke-dasharray:none;stroke-dashoffset:0;stroke-opacity:1;paint-order:normal"
         id="path1125-5-5-5-1" />
      <path
         inkscape:export-ydpi="162.80484"
         inkscape:export-xdpi="162.80484"
         inkscape:connector-curvature="0"
         id="path1183-2-3-4"
         d="m 2631.6315,619.2244 c -53.9245,2e-5 -101.1235,36.2176 -115.0803,88.30468 -13.9568,52.08711 8.812,107.05093 55.512,134.01322 46.6999,26.96232 105.6861,19.19761 143.8166,-18.93286 34.0744,-34.07448 85.3186,-44.2672 129.8391,-25.82624 44.5205,18.44093 73.547,61.88691 73.5516,110.08029 0,-158.85707 -128.7771,-287.63909 -287.639,-287.63909 z"
         style="opacity:1;fill:#941680;fill-opacity:1;stroke:#941680;stroke-width:14.38223648;stroke-linecap:round;stroke-linejoin:miter;stroke-miterlimit:4;stroke-dasharray:none;stroke-opacity:1" />
      <path
         inkscape:export-ydpi="162.80484"
         inkscape:export-xdpi="162.80484"
         inkscape:connector-curvature="0"
         id="path1195-6-8-4"
         d="m 2642.3676,640.18054 c 12.1052,29.10485 37.8488,51.60948 43.9081,83.35099 3.3746,17.67925 -2.3199,39.21469 -19.7351,47.48908 -22.8924,10.87691 -50.4802,2.44112 -61.6126,-20.71344 -6.4916,-13.50199 -5.8518,-30.05177 -1.0315,-43.28075 8.8756,-24.35833 27.5731,-43.47885 38.4711,-66.84588 z"
         style="opacity:1;fill:#941680;fill-opacity:1;stroke:#ffffff;stroke-width:14.38223648;stroke-linecap:round;stroke-linejoin:miter;stroke-miterlimit:4;stroke-dasharray:none;stroke-opacity:1" />
      <path
         inkscape:export-ydpi="162.80484"
         inkscape:export-xdpi="162.80484"
         inkscape:connector-curvature="0"
         id="path1197-5-7-8"
         d="m 2621.0712,731.03431 c 2.4571,12.21245 9.6652,19.39355 19.5768,20.08531"
         style="opacity:1;fill:none;stroke:#ffffff;stroke-width:14.38223648;stroke-linecap:round;stroke-linejoin:miter;stroke-miterlimit:4;stroke-dasharray:none;stroke-opacity:1" />
      <ellipse
         ry="99.844269"
         rx="99.844109"
         cy="906.86218"
         cx="2631.6323"
         id="path1199-2-1-4"
         style="opacity:1;fill:#941680;fill-opacity:1;fill-rule:nonzero;stroke:#ffffff;stroke-width:14.38199997;stroke-linecap:round;stroke-linejoin:round;stroke-miterlimit:4;stroke-dasharray:none;stroke-dashoffset:0;stroke-opacity:1;paint-order:normal" />
      <path
         style="fill:#ffffff;fill-opacity:1;stroke:none;stroke-width:0.99999994;stroke-miterlimit:4;stroke-dasharray:none;stroke-opacity:1"
         d="m 2572.0286,965.6041 c -0.2955,-1.10771 -6.8601,-28.13422 -8.8086,-36.26524 -0.7091,-2.9591 -1.7782,-7.37223 -2.3758,-9.80693 -1.9668,-8.01344 -2.4352,-10.00009 -2.3725,-10.0628 0.078,-0.078 -0.2047,-0.46142 2.4492,3.32053 2.6063,3.71395 5.0277,7.14242 8.6581,12.25867 1.3821,1.94776 4.4424,6.28361 6.8007,9.6352 2.7782,3.94843 4.3596,6.08127 4.492,6.05819 0.1751,-0.0305 0.1991,-0.42527 0.1677,-2.75673 -0.047,-3.47405 -0.3821,-20.61586 -0.6461,-33.02726 -0.2198,-10.33569 -0.5249,-25.08128 -0.7455,-36.02688 -0.076,-3.7457 -0.2026,-9.92737 -0.2825,-13.73705 -0.08,-3.80967 -0.1177,-6.95421 -0.084,-6.98787 0.034,-0.0336 0.1842,0.3558 0.3346,0.86545 0.1504,0.50965 0.9904,3.37837 1.8666,6.37494 0.8763,2.99656 2.7259,9.30978 4.1104,14.02936 4.2082,14.3452 4.817,16.4253 5.2426,17.91128 0.2253,0.7866 0.6764,2.31894 1.0024,3.40519 0.326,1.08626 0.8673,2.92506 1.2028,4.08622 0.3356,1.16117 2.2651,7.75021 4.2877,14.64231 2.0227,6.89209 4.083,13.94083 4.5785,15.66385 0.9913,3.44763 1.095,3.74571 1.3028,3.74571 0.1832,0 0.2958,-0.28155 0.8714,-2.17932 1.0585,-3.48948 12.2985,-40.09906 15.1594,-49.3752 1.6866,-5.46873 3.3992,-11.04643 3.8057,-12.39488 0.4065,-1.34846 0.8864,-2.91144 1.0665,-3.47329 0.1801,-0.56186 1.1963,-3.8717 2.2581,-7.35521 1.727,-5.66569 2.1735,-6.98558 2.1735,-6.42453 0,0.17583 0.5261,5.04289 0.8858,8.19523 0.1974,1.7293 0.4775,4.27257 2.723,24.72166 0.4936,4.49484 1.111,10.10318 1.372,12.46298 0.261,2.35979 0.5607,5.11799 0.6659,6.12933 0.2756,2.64925 0.7258,6.74441 0.9583,8.71728 0.1104,0.93643 0.5392,4.82856 0.9531,8.64917 0.872,8.05075 0.8416,7.83193 1.0867,7.83193 0.1032,0 0.6015,-0.59761 1.1073,-1.32802 2.095,-3.02552 21.4371,-31.06755 24.0745,-34.90316 3.289,-4.78318 2.9317,-4.28555 3.016,-4.20122 0.065,0.0654 -0.2692,1.96771 -4.4281,25.17717 -2.6473,14.77369 -2.521,14.01173 -2.3518,14.18092 0.1378,0.13777 0.4462,0.0924 4.7383,-0.69764 0.7492,-0.13789 3.538,-0.64999 6.1975,-1.13801 2.6594,-0.48801 7.6548,-1.40873 11.1009,-2.04603 3.446,-0.6373 10.1576,-1.8676 14.9147,-2.73399 4.757,-0.86639 8.7871,-1.60637 8.9556,-1.64439 0.4287,-0.0967 0.3851,0.0727 -0.2155,0.83767 -0.287,0.36563 -3.7313,4.80208 -7.6539,9.85878 -8.1894,10.55702 -11.2047,14.44224 -18.1291,23.35958 -2.7341,3.52096 -6.6777,8.60831 -8.7635,11.30522 -2.0857,2.69691 -3.9476,5.07202 -4.1375,5.27804 l -0.3451,0.37457 h -15.1082 c -13.0122,0 -15.0978,-0.0269 -15.0337,-0.19388 0.041,-0.10664 1.0169,-1.40912 2.1687,-2.89441 1.1519,-1.48528 4.5997,-5.94908 7.6619,-9.91953 3.0622,-3.97044 6.1381,-7.95451 6.8354,-8.85348 0.6972,-0.89897 1.2678,-1.70455 1.2679,-1.79018 10e-5,-0.0856 -0.076,-0.18277 -0.17,-0.21588 -0.094,-0.0331 -1.9784,0.2668 -4.1884,0.66645 -2.21,0.39966 -5.2133,0.93611 -6.6742,1.19211 -1.4608,0.256 -4.3957,0.77905 -6.522,1.16232 -2.1263,0.38327 -3.8958,0.66709 -3.9322,0.6307 -0.036,-0.0364 0.6509,-4.12185 1.5272,-9.0788 0.9343,-5.28431 1.5431,-9.06291 1.4719,-9.13418 -0.071,-0.0713 -0.2359,0.006 -0.3979,0.18671 -0.1519,0.16955 -2.2573,3.15841 -4.6786,6.64192 -7.4536,10.72335 -8.0575,11.57763 -8.1848,11.57763 -0.068,0 -0.1238,-0.10726 -0.1244,-0.23836 -7e-4,-0.1311 -0.06,-0.75936 -0.1327,-1.39613 -0.1862,-1.6385 -1.4442,-13.47709 -1.8382,-17.29835 -0.1815,-1.76048 -0.4251,-4.05898 -0.5412,-5.10778 -0.1161,-1.04879 -0.4263,-3.92958 -0.6892,-6.40175 -0.263,-2.47216 -0.5094,-4.63275 -0.5474,-4.80131 -0.1577,-0.69845 -0.4385,-0.25957 -1.0024,1.56639 -0.3181,1.03006 -0.9399,3.03742 -1.3817,4.46079 -0.4418,1.42337 -1.2092,3.90575 -1.7054,5.5164 -0.4961,1.61066 -1.1687,3.78657 -1.4945,4.83537 -0.3258,1.04879 -1.0798,3.50053 -1.6755,5.4483 -3.4526,11.28799 -4.693,15.26778 -4.7905,15.3711 -0.06,0.0637 -0.1432,0.002 -0.1846,-0.13621 -0.041,-0.13864 -1.0013,-3.43933 -2.1331,-7.33486 -1.1319,-3.89554 -2.4486,-8.4006 -2.926,-10.01125 -1.0494,-3.54001 -5.0326,-17.1215 -5.4128,-18.45611 -0.3181,-1.11635 -0.4661,-1.43018 -0.6744,-1.43018 -0.1627,0 -0.1386,1.9108 0.2292,18.11559 0.3703,16.31292 0.5032,23.36526 0.4563,24.21554 l -0.047,0.85597 -5.0247,-7.22367 c -2.7636,-3.97301 -5.108,-7.22366 -5.2099,-7.22366 -0.3083,0 -0.562,-1.14747 2.6652,12.05436 0.6775,2.77183 1.7535,7.1543 2.391,9.73884 0.6374,2.58454 1.1593,4.74513 1.1596,4.80131 3e-4,0.0562 -4.165,0.10216 -9.2562,0.10216 h -9.2569 z"
         id="path1476"
         inkscape:connector-curvature="0" />
    </g>
    <text
       xml:space="preserve"
       style="font-style:normal;font-variant:normal;font-weight:normal;font-stretch:normal;font-size:74.66666412px;line-height:1.25;font-family:Arial;-inkscape-font-specification:'Arial, Normal';font-variant-ligatures:normal;font-variant-caps:normal;font-variant-numeric:normal;font-feature-settings:normal;text-align:start;letter-spacing:0px;word-spacing:0px;writing-mode:lr-tb;text-anchor:start;fill:#000000;fill-opacity:1;stroke:none"
       x="2551.0413"
       y="520.06464"
       id="text1921"><tspan
         sodipodi:role="line"
         id="tspan1919"
         x="2551.0413"
         y="520.06464">SGA</tspan></text>
    <g
       transform="translate(-3.7451908e-5,17.1187)"
       id="g5727">
      <path
         inkscape:export-ydpi="162.80484"
         inkscape:export-xdpi="162.80484"
         inkscape:connector-curvature="0"
         id="path1190-8-4-1-8"
         d="m 2343.9922,1617.7447 c 0,158.857 128.7774,287.6392 287.6393,287.6392 53.9245,0 101.129,-36.2177 115.0858,-88.3047 13.9568,-52.087 -8.812,-107.0568 -55.512,-134.0189 -46.7,-26.9623 -105.6861,-19.1976 -143.8166,18.9329 -34.0744,34.0744 -85.3243,44.2671 -129.8448,25.8262 -44.5205,-18.4409 -73.5471,-61.8815 -73.5517,-110.0747 z"
         style="opacity:1;fill:#941680;fill-opacity:1;stroke:#941680;stroke-width:14.38223648;stroke-miterlimit:4;stroke-dasharray:none;stroke-opacity:1" />
      <path
         inkscape:export-ydpi="162.80484"
         inkscape:export-xdpi="162.80484"
         inkscape:connector-curvature="0"
         id="path989-5-4-3-7"
         d="m 2622.2885,1746.4483 c 6.0175,-0.2117 10.2125,6.485 13.6577,10.8204 10.5692,13.3004 14.5821,30.8486 13.8092,47.2816 -0.2646,5.6551 1.2703,12.6253 7.0056,13.6744 7.1017,-0.4734 4.8957,-8.8058 5.4552,-13.6407 0.8273,-8.7452 9.0959,-2.0464 10.6293,3.2978 2.4971,8.7027 7.8044,16.6286 8.0676,25.8937 1.249,16.9098 -7.6329,32.5886 -19.7589,44.8321 -4.9434,4.9916 -17.0913,5.3503 -12.1743,-2.8652 3.1909,-7.7975 -0.2531,-16.7634 -6.8427,-21.9048 -7.9713,-6.2194 -19.5326,-7.8478 -25.1241,-16.6014 -2.873,-4.498 -1.2673,-19.2023 -9.9214,-14.5115 -4.7534,4.5911 -4.4036,11.8756 -5.3821,17.9441 -0.7942,15.1191 6.0267,30.51 18.1687,39.8152 3.125,2.3949 -1.5354,4.2952 -4.7415,3.208 -27.2693,-9.2476 -42.1198,-43.9865 -26.6296,-68.282 10.1499,-15.9196 28.1924,-26.3243 33.905,-45.04 2.3834,-7.8078 -0.032,-16.0179 -2.8146,-23.3824 0.9372,-0.3391 1.8314,-0.509 2.6909,-0.5393 z"
         style="fill:#ffffff;fill-opacity:1;stroke:none;stroke-width:2.8764472;stroke-miterlimit:4;stroke-dasharray:none;stroke-opacity:1" />
      <path
         inkscape:export-ydpi="162.80484"
         inkscape:export-xdpi="162.80484"
         sodipodi:nodetypes="scscccs"
         inkscape:connector-curvature="0"
         d="m 2343.9928,1617.7431 c 0,53.9245 36.2188,101.1259 88.3061,115.0827 52.087,13.9568 107.0545,-8.8115 134.0165,-55.5114 26.9624,-46.7 19.1966,-105.6873 -18.9339,-143.8178 -34.0744,-34.0744 -44.2676,-85.3197 -25.8267,-129.8402 18.4409,-44.5206 61.8844,-73.5488 110.0779,-73.5534 -158.857,0 -287.6399,128.7783 -287.6399,287.6401 z"
         style="opacity:0.97000002;fill:none;fill-opacity:1;fill-rule:nonzero;stroke:#941680;stroke-width:14.38199997;stroke-linecap:round;stroke-linejoin:round;stroke-miterlimit:4;stroke-dasharray:none;stroke-dashoffset:0;stroke-opacity:1;paint-order:normal"
         id="path1125-0-2-3-2-2" />
      <path
         inkscape:export-ydpi="162.80484"
         inkscape:export-xdpi="162.80484"
         sodipodi:nodetypes="scscccs"
         inkscape:connector-curvature="0"
         d="m 2919.2728,1617.743 c 0,-53.9245 -36.2191,-101.1258 -88.3061,-115.0826 -52.087,-13.9568 -107.0544,8.8114 -134.0165,55.5114 -26.9624,46.7 -19.1966,105.6873 18.9339,143.8178 34.0744,34.0744 44.2677,85.3197 25.8267,129.8402 -18.4409,44.5205 -61.8847,73.5487 -110.0779,73.5533 158.857,0 287.6399,-128.7782 287.6399,-287.6401 z"
         style="opacity:0.97000002;fill:none;fill-opacity:1;fill-rule:nonzero;stroke:#941680;stroke-width:14.38199997;stroke-linecap:round;stroke-linejoin:round;stroke-miterlimit:4;stroke-dasharray:none;stroke-dashoffset:0;stroke-opacity:1;paint-order:normal"
         id="path1125-5-5-5-1-3" />
      <path
         inkscape:export-ydpi="162.80484"
         inkscape:export-xdpi="162.80484"
         inkscape:connector-curvature="0"
         id="path1183-2-3-4-6"
         d="m 2631.6315,1330.1056 c -53.9245,10e-5 -101.1235,36.2176 -115.0803,88.3047 -13.9568,52.0871 8.812,107.051 55.512,134.0133 46.6999,26.9623 105.6861,19.1976 143.8166,-18.9329 34.0744,-34.0745 85.3186,-44.2672 129.8391,-25.8262 44.5205,18.4409 73.547,61.8869 73.5516,110.0802 0,-158.857 -128.7771,-287.6391 -287.639,-287.6391 z"
         style="opacity:1;fill:#941680;fill-opacity:1;stroke:#941680;stroke-width:14.38199997;stroke-linecap:round;stroke-linejoin:miter;stroke-miterlimit:4;stroke-dasharray:none;stroke-opacity:1" />
      <path
         inkscape:export-ydpi="162.80484"
         inkscape:export-xdpi="162.80484"
         inkscape:connector-curvature="0"
         id="path1195-6-8-4-2"
         d="m 2642.3676,1351.0618 c 12.1052,29.1048 37.8488,51.6095 43.9081,83.351 3.3746,17.6792 -2.3199,39.2147 -19.7351,47.4891 -22.8924,10.8769 -50.4802,2.4411 -61.6126,-20.7135 -6.4916,-13.502 -5.8518,-30.0517 -1.0315,-43.2807 8.8756,-24.3584 27.5731,-43.4789 38.4711,-66.8459 z"
         style="opacity:1;fill:#941680;fill-opacity:1;stroke:#ffffff;stroke-width:14.38223648;stroke-linecap:round;stroke-linejoin:miter;stroke-miterlimit:4;stroke-dasharray:none;stroke-opacity:1" />
      <path
         inkscape:export-ydpi="162.80484"
         inkscape:export-xdpi="162.80484"
         inkscape:connector-curvature="0"
         id="path1197-5-7-8-9"
         d="m 2621.0712,1441.9156 c 2.4571,12.2124 9.6652,19.3935 19.5768,20.0853"
         style="opacity:1;fill:none;stroke:#ffffff;stroke-width:14.38223648;stroke-linecap:round;stroke-linejoin:miter;stroke-miterlimit:4;stroke-dasharray:none;stroke-opacity:1" />
      <ellipse
         ry="99.844269"
         rx="99.844109"
         cy="1617.7434"
         cx="2631.6323"
         id="path1199-2-1-4-4"
         style="opacity:1;fill:#941680;fill-opacity:1;fill-rule:nonzero;stroke:#ffffff;stroke-width:14.38199997;stroke-linecap:round;stroke-linejoin:round;stroke-miterlimit:4;stroke-dasharray:none;stroke-dashoffset:0;stroke-opacity:1;paint-order:normal" />
      <path
         style="fill:#941680;fill-opacity:1;stroke:none;stroke-width:0.99999994;stroke-miterlimit:4;stroke-dasharray:none;stroke-opacity:1"
         d="m 2756.0286,1676.4854 c -0.2955,-1.1078 -6.8601,-28.1343 -8.8086,-36.2653 -0.7091,-2.9591 -1.7782,-7.3722 -2.3758,-9.8069 -1.9668,-8.0135 -2.4352,-10.0001 -2.3725,-10.0628 0.078,-0.078 -0.2047,-0.4614 2.4492,3.3205 2.6063,3.714 5.0277,7.1424 8.6581,12.2587 1.3821,1.9477 4.4424,6.2836 6.8007,9.6352 2.7782,3.9484 4.3596,6.0813 4.492,6.0582 0.1751,-0.031 0.1991,-0.4253 0.1677,-2.7568 -0.047,-3.474 -0.3821,-20.6158 -0.6461,-33.0272 -0.2198,-10.3357 -0.5249,-25.0813 -0.7455,-36.0269 -0.076,-3.7457 -0.2026,-9.9274 -0.2825,-13.737 -0.08,-3.8097 -0.1177,-6.9543 -0.084,-6.9879 0.034,-0.034 0.1842,0.3558 0.3346,0.8654 0.1504,0.5097 0.9904,3.3784 1.8666,6.375 0.8763,2.9965 2.7259,9.3097 4.1104,14.0293 4.2082,14.3452 4.817,16.4253 5.2426,17.9113 0.2253,0.7866 0.6764,2.3189 1.0024,3.4052 0.326,1.0863 0.8673,2.9251 1.2028,4.0862 0.3356,1.1612 2.2651,7.7502 4.2877,14.6423 2.0227,6.8921 4.083,13.9409 4.5785,15.6639 0.9913,3.4476 1.095,3.7457 1.3028,3.7457 0.1832,0 0.2958,-0.2816 0.8714,-2.1793 1.0585,-3.4895 12.2985,-40.0991 15.1594,-49.3752 1.6866,-5.4688 3.3992,-11.0465 3.8057,-12.3949 0.4065,-1.3485 0.8864,-2.9114 1.0665,-3.4733 0.1801,-0.5619 1.1963,-3.8717 2.2581,-7.3552 1.727,-5.6657 2.1735,-6.9856 2.1735,-6.4245 0,0.1758 0.5261,5.0428 0.8858,8.1952 0.1974,1.7293 0.4775,4.2726 2.723,24.7216 0.4936,4.4949 1.111,10.1032 1.372,12.463 0.261,2.3598 0.5607,5.118 0.6659,6.1294 0.2756,2.6492 0.7258,6.7444 0.9583,8.7172 0.1104,0.9365 0.5392,4.8286 0.9531,8.6492 0.872,8.0508 0.8416,7.8319 1.0867,7.8319 0.1032,0 0.6015,-0.5976 1.1073,-1.328 2.095,-3.0255 21.4371,-31.0675 24.0745,-34.9031 3.289,-4.7832 2.9317,-4.2856 3.016,-4.2013 0.065,0.065 -0.2692,1.9677 -4.4281,25.1772 -2.6473,14.7737 -2.521,14.0117 -2.3518,14.1809 0.1378,0.1378 0.4462,0.092 4.7383,-0.6976 0.7492,-0.1379 3.538,-0.65 6.1975,-1.138 2.6594,-0.488 7.6548,-1.4087 11.1009,-2.0461 3.446,-0.6373 10.1576,-1.8675 14.9147,-2.7339 4.757,-0.8664 8.7871,-1.6064 8.9556,-1.6444 0.4287,-0.097 0.3851,0.073 -0.2155,0.8376 -0.287,0.3657 -3.7313,4.8021 -7.6539,9.8588 -8.1894,10.557 -11.2047,14.4423 -18.1291,23.3596 -2.7341,3.521 -6.6777,8.6083 -8.7635,11.3052 -2.0857,2.6969 -3.9476,5.072 -4.1375,5.2781 l -0.3451,0.3745 h -15.1082 c -13.0122,0 -15.0978,-0.027 -15.0337,-0.1938 0.041,-0.1067 1.0169,-1.4092 2.1687,-2.8945 1.1519,-1.4852 4.5997,-5.949 7.6619,-9.9195 3.0622,-3.9704 6.1381,-7.9545 6.8354,-8.8535 0.6972,-0.8989 1.2678,-1.7045 1.2679,-1.7901 10e-5,-0.086 -0.076,-0.1828 -0.17,-0.2159 -0.094,-0.033 -1.9784,0.2668 -4.1884,0.6664 -2.21,0.3997 -5.2133,0.9361 -6.6742,1.1921 -1.4608,0.256 -4.3957,0.7791 -6.522,1.1624 -2.1263,0.3832 -3.8958,0.667 -3.9322,0.6306 -0.036,-0.036 0.6509,-4.1218 1.5272,-9.0787 0.9343,-5.2844 1.5431,-9.063 1.4719,-9.1342 -0.071,-0.071 -0.2359,0.01 -0.3979,0.1867 -0.1519,0.1695 -2.2573,3.1584 -4.6786,6.6419 -7.4536,10.7234 -8.0575,11.5776 -8.1848,11.5776 -0.068,0 -0.1238,-0.1072 -0.1244,-0.2383 -7e-4,-0.1311 -0.06,-0.7594 -0.1327,-1.3962 -0.1862,-1.6385 -1.4442,-13.4771 -1.8382,-17.2983 -0.1815,-1.7605 -0.4251,-4.059 -0.5412,-5.1078 -0.1161,-1.0488 -0.4263,-3.9296 -0.6892,-6.4017 -0.263,-2.4722 -0.5094,-4.6328 -0.5474,-4.8014 -0.1577,-0.6984 -0.4385,-0.2595 -1.0024,1.5664 -0.3181,1.0301 -0.9399,3.0375 -1.3817,4.4608 -0.4418,1.4234 -1.2092,3.9058 -1.7054,5.5164 -0.4961,1.6107 -1.1687,3.7866 -1.4945,4.8354 -0.3258,1.0488 -1.0798,3.5005 -1.6755,5.4483 -3.4526,11.288 -4.693,15.2678 -4.7905,15.3711 -0.06,0.064 -0.1432,0 -0.1846,-0.1362 -0.041,-0.1387 -1.0013,-3.4393 -2.1331,-7.3349 -1.1319,-3.8955 -2.4486,-8.4006 -2.926,-10.0112 -1.0494,-3.54 -5.0326,-17.1215 -5.4128,-18.4561 -0.3181,-1.1164 -0.4661,-1.4302 -0.6744,-1.4302 -0.1627,0 -0.1386,1.9108 0.2292,18.1156 0.3703,16.3129 0.5032,23.3652 0.4563,24.2155 l -0.047,0.856 -5.0247,-7.2237 c -2.7636,-3.973 -5.108,-7.2236 -5.2099,-7.2236 -0.3083,0 -0.562,-1.1475 2.6652,12.0543 0.6775,2.7718 1.7535,7.1543 2.391,9.7389 0.6374,2.5845 1.1593,4.7451 1.1596,4.8013 3e-4,0.056 -4.165,0.1021 -9.2562,0.1021 h -9.2569 z"
         id="path1476-9"
         inkscape:connector-curvature="0" />
      <path
         sodipodi:nodetypes="cccccccccccscccsscccssscc"
         inkscape:connector-curvature="0"
         d="m 2584.6876,1580.9721 12.1194,14.8493 m 79.7802,-13.5994 -12.1196,14.8495 m -32.8353,-38.925 v 21.0001 m 41.1396,49.7507 h 17.1393 m -116.5577,-0.2901 h 17.1394 m 28.4747,23.0595 v -19.092 c 0,-8.5166 0.4062,-10.8347 4.8365,-16.9614 m 47.1722,38.0956 c 1.598,3.3911 1.598,7.5692 0,10.9602 -1.5979,3.3912 -4.5509,5.4802 -7.7467,5.4802 h -63.1942 c -3.1958,0 -6.1489,-2.089 -7.7469,-5.4802 -1.5978,-3.391 -1.5978,-7.5691 0,-10.9602 1.598,-3.3912 4.5511,-5.4802 7.7469,-5.4802 v -17.5002 c 0,-21.3815 14.1464,-38.7145 31.597,-38.7145 17.4506,0 31.5972,17.333 31.5972,38.7145 v 17.5002 c 3.1958,0 6.1488,2.089 7.7467,5.4802 z"
         style="fill:none;stroke:#ffffff;stroke-width:14.38199997;stroke-linecap:butt;stroke-linejoin:miter;stroke-miterlimit:4;stroke-dasharray:none;stroke-opacity:1"
         id="path1934-2-9-4-1-0" />
      <g
         transform="translate(8,14.0745)"
         id="g2100">
        <path
           sodipodi:type="star"
           style="opacity:1;fill:none;fill-opacity:1;fill-rule:nonzero;stroke:#941680;stroke-width:14.38199997;stroke-linecap:butt;stroke-linejoin:round;stroke-miterlimit:4;stroke-dasharray:none;stroke-dashoffset:0;stroke-opacity:1;paint-order:normal"
           id="path2091"
           sodipodi:sides="3"
           sodipodi:cx="2445"
           sodipodi:cy="1621.4116"
           sodipodi:r1="71.941521"
           sodipodi:r2="28.34096"
           sodipodi:arg1="0.51583758"
           sodipodi:arg2="1.5630351"
           inkscape:flatsided="true"
           inkscape:rounded="0"
           inkscape:randomized="0"
           d="m 2507.5805,1656.8978 -124.6026,0.967 61.4638,-108.3925 z"
           inkscape:transform-center-y="-14.170439"
           inkscape:transform-center-x="1.7036523e-006" />
        <text
           xml:space="preserve"
           style="font-style:normal;font-variant:normal;font-weight:normal;font-stretch:normal;font-size:74.66666412px;line-height:1.25;font-family:Arial;-inkscape-font-specification:'Arial, Normal';font-variant-ligatures:normal;font-variant-caps:normal;font-variant-numeric:normal;font-feature-settings:normal;text-align:start;letter-spacing:0px;word-spacing:0px;writing-mode:lr-tb;text-anchor:start;fill:#941680;fill-opacity:1;stroke:none"
           x="2434.7974"
           y="1640.5197"
           id="text2095"><tspan
             sodipodi:role="line"
             id="tspan2093"
             x="2434.7974"
             y="1640.5197">!</tspan></text>
      </g>
    </g>
  </g>
  <g
     id="g6920"
     inkscape:export-xdpi="162"
     inkscape:export-ydpi="162"
     transform="translate(-2336.801,-465.70526)" />
</svg>
