<?xml version="1.0" encoding="UTF-8" standalone="no"?>
<!-- Created with Inkscape (http://www.inkscape.org/) -->

<svg
   xmlns:osb="http://www.openswatchbook.org/uri/2009/osb"
   xmlns:dc="http://purl.org/dc/elements/1.1/"
   xmlns:cc="http://creativecommons.org/ns#"
   xmlns:rdf="http://www.w3.org/1999/02/22-rdf-syntax-ns#"
   xmlns:svg="http://www.w3.org/2000/svg"
   xmlns="http://www.w3.org/2000/svg"
   xmlns:sodipodi="http://sodipodi.sourceforge.net/DTD/sodipodi-0.dtd"
   xmlns:inkscape="http://www.inkscape.org/namespaces/inkscape"
   inkscape:version="0.92.3 (2405546, 2018-03-11)"
   sodipodi:docname="VST.svg"
   viewBox="0 0 589.66265 589.66311"
   height="156.01503mm"
   width="156.01491mm"
   id="svg2"
   version="1.1"
   inkscape:export-filename="D:\Flori\Offiziell\OvGU\FaRa\Logo.png"
   inkscape:export-xdpi="162"
   inkscape:export-ydpi="162">
  <sodipodi:namedview
     units="mm"
     inkscape:current-layer="svg2"
     inkscape:window-maximized="1"
     inkscape:window-y="-8"
     inkscape:window-x="-8"
     inkscape:cy="-1432.2689"
     inkscape:cx="3017.8605"
     inkscape:zoom="0.125"
     showgrid="false"
     id="namedview4"
     inkscape:window-height="1017"
     inkscape:window-width="1920"
     inkscape:pageshadow="2"
     inkscape:pageopacity="0"
     guidetolerance="10"
     gridtolerance="10"
     objecttolerance="10"
     borderopacity="1"
     bordercolor="#666666"
     pagecolor="#ffffff"
     showguides="false"
     fit-margin-top="0"
     fit-margin-left="0"
     fit-margin-right="0"
     fit-margin-bottom="0" />
  <metadata
     id="metadata8">
    <rdf:RDF>
      <cc:Work
         rdf:about="">
        <dc:format>image/svg+xml</dc:format>
        <dc:type
           rdf:resource="http://purl.org/dc/dcmitype/StillImage" />
        <dc:title></dc:title>
      </cc:Work>
    </rdf:RDF>
  </metadata>
  <defs
     id="defs6">
    <linearGradient
       osb:paint="solid"
       id="linearGradient4047">
      <stop
         id="stop4045"
         offset="0"
         style="stop-color:#941680;stop-opacity:1;" />
    </linearGradient>
    <linearGradient
       osb:paint="solid"
       id="linearGradient3784">
      <stop
         id="stop3782"
         offset="0"
         style="stop-color:#941680;stop-opacity:1;" />
    </linearGradient>
  </defs>
  <path
     inkscape:export-ydpi="162.80484"
     inkscape:export-xdpi="162.80484"
     style="fill:#941680;fill-opacity:1;stroke:#941680;stroke-width:0.28967798;stroke-opacity:1"
     d="m 449.19152,359.76613 c 0,-0.10384 4.4389,-12.46771 9.8642,-27.47531 5.4253,-15.00764 9.8248,-27.5625 9.7768,-27.8997 l -0.086,-0.61312 -17.0187,-0.0745 c -9.3603,-0.0411 -17.0165,-0.17172 -17.0142,-0.28965 0,-0.25054 0.3676,-0.71126 15.2224,-19.3526 6.2034,-7.78461 15.4894,-19.43802 20.6354,-25.89654 5.1462,-6.45849 13.0786,-16.41119 17.6277,-22.11715 4.5491,-5.70592 8.3276,-10.31801 8.3966,-10.24907 0.069,0.069 -0.9771,3.17322 -2.3244,6.89833 -14.0627,38.87918 -17.2814,47.9183 -17.2052,48.31476 0.081,0.41493 1.8182,0.46898 17.2483,0.53617 9.4376,0.0411 17.1595,0.13491 17.1595,0.20883 0,0.14009 -61.1772,77.03118 -61.8796,77.77414 -0.2215,0.23328 -0.4013,0.33922 -0.4013,0.23529 z"
     id="path968"
     inkscape:connector-curvature="0" />
  <path
     inkscape:export-ydpi="162.80484"
     inkscape:export-xdpi="162.80484"
     inkscape:connector-curvature="0"
     id="path1190"
     d="m 7.1911182,294.83286 c 0,158.85695 128.7774018,287.63915 287.6392018,287.63915 53.9245,0 101.129,-36.2177 115.0858,-88.3047 13.9569,-52.087 -8.812,-107.05676 -55.5119,-134.01885 -46.7,-26.96238 -105.6862,-19.19761 -143.8167,18.93287 -34.0743,34.07438 -85.3243,44.26708 -129.844802,25.82618 C 36.222218,386.46663 7.1957182,343.02601 7.1911182,294.83286 Z"
     style="opacity:1;fill:#941680;fill-opacity:1;stroke:#941680;stroke-width:14.38223648;stroke-miterlimit:4;stroke-dasharray:none;stroke-opacity:1" />
  <path
     inkscape:export-ydpi="162.80484"
     inkscape:export-xdpi="162.80484"
     inkscape:connector-curvature="0"
     id="path989"
     d="m 285.48742,423.53641 c 6.0175,-0.2117 10.2125,6.485 13.6576,10.8204 10.5692,13.3004 14.5822,30.8486 13.8093,47.2816 -0.2647,5.6551 1.2702,12.6253 7.0055,13.6744 7.1017,-0.4734 4.8958,-8.8058 5.4552,-13.6407 0.8273,-8.7452 9.0959,-2.0464 10.6294,3.2978 2.497,8.7027 7.8044,16.6286 8.0675,25.8937 1.249,16.9098 -7.6329,32.5886 -19.7588,44.8321 -4.9435,4.9916 -17.0913,5.3503 -12.1743,-2.8652 3.1908,-7.7975 -0.2531,-16.7634 -6.8428,-21.9048 -7.9712,-6.2194 -19.5325,-7.8478 -25.124,-16.6014 -2.873,-4.498 -1.2674,-19.2023 -9.9215,-14.5115 -4.7533,4.5911 -4.4035,11.8757 -5.3821,17.9441 -0.7942,15.1191 6.0267,30.51 18.1688,39.8152 3.125,2.3949 -1.5355,4.2952 -4.7416,3.208 -27.2692,-9.2476 -42.1198,-43.9865 -26.6295,-68.282 10.1498,-15.9196 28.1923,-26.3242 33.9049,-45.04 2.3835,-7.8078 -0.032,-16.0179 -2.8146,-23.3823 0.9372,-0.3392 1.8315,-0.5091 2.691,-0.5394 z"
     style="fill:#ffffff;fill-opacity:1;stroke:none;stroke-width:2.8764472;stroke-miterlimit:4;stroke-dasharray:none;stroke-opacity:1" />
  <path
     inkscape:export-ydpi="162.80484"
     inkscape:export-xdpi="162.80484"
     inkscape:connector-curvature="0"
     id="path1027"
     d="m 76.013818,360.41566 c -7.6154,-1.40618 -10.8005,-2.88275 -13.9594,-6.47132 -3.61,-4.1013 -4.854,-7.90039 -4.7953,-14.64627 0.08,-9.27424 5.1261,-21.00531 14.3831,-33.44166 5.1537,-6.92378 15.9527,-18.34158 22.5018,-23.7913 l 3.7771,-3.14306 -4.5327,1.54402 c -23.0893,7.86547 -43.995,29.49339 -50.6151,52.36353 -1.2202,4.21584 -1.3246,4.33875 -2.3924,2.81443 -2.4343,-3.47535 -5.5072,-11.45553 -6.7242,-17.46164 -2.6144,-12.90245 -0.055,-25.06602 8.0419,-38.2 5.2731,-8.5549 19.7325,-23.32988 28.2718,-28.88911 24.9238,-16.22578 60.013602,-24.72533 91.189402,-22.08818 5.9358,0.50211 11.9608,1.15958 13.3884,1.46098 l 2.596,0.54805 -3.8481,2.8247 c -2.1162,1.55359 -6.514,5.65762 -9.7725,9.12009 -9.1508,9.72406 -13.4376,17.8888 -15.7189,29.93881 -5.3381,28.19937 -10.5896,44.11501 -19.6904,59.67492 -5.4166,9.26141 -16.2042,20.01749 -23.7721,23.7034 -9.174202,4.46807 -18.873502,5.88541 -28.328402,4.13961 z"
     style="fill:#941680;fill-opacity:1;stroke:#941680;stroke-width:0.75542152;stroke-opacity:1" />
  <path
     inkscape:export-ydpi="162.80484"
     inkscape:export-xdpi="162.80484"
     sodipodi:nodetypes="scscccs"
     inkscape:connector-curvature="0"
     d="m 7.1916182,294.83125 c 0,53.92447 36.2187998,101.12586 88.3060998,115.08266 52.087002,13.9568 107.054502,-8.8114 134.016602,-55.51144 26.9624,-46.69999 19.1965,-105.68729 -18.934,-143.81776 -34.0743,-34.0744 -44.2676,-85.31974 -25.8267,-129.840242 18.4409,-44.52051 61.8845,-73.5487498 110.0779,-73.5533498 -158.857,0 -287.6399018,128.7782618 -287.6399018,287.6401318 z"
     style="opacity:0.97000002;fill:none;fill-opacity:1;fill-rule:nonzero;stroke:#941680;stroke-width:14.38223648;stroke-linecap:round;stroke-linejoin:round;stroke-miterlimit:4;stroke-dasharray:none;stroke-dashoffset:0;stroke-opacity:1;paint-order:normal"
     id="path1125-0" />
  <path
     inkscape:export-ydpi="162.80484"
     inkscape:export-xdpi="162.80484"
     sodipodi:nodetypes="scscccs"
     inkscape:connector-curvature="0"
     d="m 582.47162,294.83113 c 0,-53.92447 -36.2191,-101.12582 -88.3061,-115.08263 -52.0869,-13.95681 -107.0544,8.81142 -134.0165,55.51141 -26.9624,46.69998 -19.1965,105.68729 18.9339,143.81776 34.0744,34.07444 44.2677,85.31974 25.8268,129.84024 -18.4409,44.5205 -61.8848,73.5487 -110.0779,73.5534 158.857,0 287.6398,-128.7783 287.6398,-287.64018 z"
     style="opacity:0.97000002;fill:none;fill-opacity:1;fill-rule:nonzero;stroke:#941680;stroke-width:14.38199997;stroke-linecap:round;stroke-linejoin:round;stroke-miterlimit:4;stroke-dasharray:none;stroke-dashoffset:0;stroke-opacity:1;paint-order:normal"
     id="path1125-5" />
  <path
     inkscape:export-ydpi="162.80484"
     inkscape:export-xdpi="162.80484"
     inkscape:connector-curvature="0"
     id="path1183"
     d="m 294.83032,7.1937682 c -53.9244,2e-5 -101.1235,36.2175998 -115.0803,88.3046798 -13.9568,52.087112 8.812,107.050932 55.512,134.013222 46.7,26.96232 105.6861,19.19761 143.8166,-18.93286 34.0744,-34.07448 85.3186,-44.2672 129.8391,-25.82624 44.5205,18.44093 73.547,61.88691 73.5516,110.08029 0,-158.85707 -128.7771,-287.6390918 -287.639,-287.6390918 z"
     style="opacity:1;fill:#941680;fill-opacity:1;stroke:#941680;stroke-width:14.38223648;stroke-linecap:round;stroke-linejoin:miter;stroke-miterlimit:4;stroke-dasharray:none;stroke-opacity:1" />
  <path
     inkscape:export-ydpi="162.80484"
     inkscape:export-xdpi="162.80484"
     inkscape:connector-curvature="0"
     id="path1195"
     d="m 305.56642,28.149908 c 12.1052,29.10485 37.8489,51.60948 43.9081,83.350992 3.3747,17.67925 -2.3198,39.21469 -19.735,47.48908 -22.8925,10.87691 -50.4802,2.44112 -61.6126,-20.71344 -6.4916,-13.50199 -5.8519,-30.05177 -1.0315,-43.280752 8.8755,-24.35833 27.573,-43.47885 38.471,-66.84588 z"
     style="opacity:1;fill:#941680;fill-opacity:1;stroke:#ffffff;stroke-width:14.38223648;stroke-linecap:round;stroke-linejoin:miter;stroke-miterlimit:4;stroke-dasharray:none;stroke-opacity:1" />
  <path
     inkscape:export-ydpi="162.80484"
     inkscape:export-xdpi="162.80484"
     inkscape:connector-curvature="0"
     id="path1197"
     d="m 284.27002,119.00368 c 2.4571,12.21245 9.6652,19.39355 19.5769,20.08531"
     style="opacity:1;fill:none;stroke:#ffffff;stroke-width:14.38223648;stroke-linecap:round;stroke-linejoin:miter;stroke-miterlimit:4;stroke-dasharray:none;stroke-opacity:1" />
  <ellipse
     ry="99.844269"
     rx="99.844109"
     cy="294.83157"
     cx="294.83136"
     id="path1199"
     style="opacity:1;fill:#941680;fill-opacity:1;fill-rule:nonzero;stroke:#ffffff;stroke-width:14.38199997;stroke-linecap:round;stroke-linejoin:round;stroke-miterlimit:4;stroke-dasharray:none;stroke-dashoffset:0;stroke-opacity:1;paint-order:normal" />
  <text
     id="text1230"
     y="321.53726"
     x="222.93547"
     style="font-style:normal;font-variant:normal;font-weight:bold;font-stretch:normal;font-size:74.66666412px;line-height:1.25;font-family:Arial;-inkscape-font-specification:'Arial, Bold';font-variant-ligatures:normal;font-variant-caps:normal;font-variant-numeric:normal;font-feature-settings:normal;text-align:start;letter-spacing:0px;word-spacing:0px;writing-mode:lr-tb;text-anchor:start;fill:#ffffff;fill-opacity:1;stroke:none"
     xml:space="preserve"><tspan
       id="tspan1232"
       style="font-style:normal;font-variant:normal;font-weight:bold;font-stretch:normal;font-size:74.66666412px;line-height:1;font-family:Arial;-inkscape-font-specification:'Arial, Bold';font-variant-ligatures:normal;font-variant-caps:normal;font-variant-numeric:normal;font-feature-settings:normal;text-align:start;writing-mode:lr-tb;text-anchor:start;fill:#ffffff;fill-opacity:1"
       y="321.53726"
       x="222.93547"
       sodipodi:role="line">VST</tspan></text>
  <g
     id="g6920"
     inkscape:export-xdpi="162"
     inkscape:export-ydpi="162"
     transform="translate(-1050.9288,-604.38149)" />
</svg>
