<?xml version="1.0" encoding="UTF-8" standalone="no"?>
<!-- Created with Inkscape (http://www.inkscape.org/) -->

<svg
   xmlns:osb="http://www.openswatchbook.org/uri/2009/osb"
   xmlns:dc="http://purl.org/dc/elements/1.1/"
   xmlns:cc="http://creativecommons.org/ns#"
   xmlns:rdf="http://www.w3.org/1999/02/22-rdf-syntax-ns#"
   xmlns:svg="http://www.w3.org/2000/svg"
   xmlns="http://www.w3.org/2000/svg"
   xmlns:sodipodi="http://sodipodi.sourceforge.net/DTD/sodipodi-0.dtd"
   xmlns:inkscape="http://www.inkscape.org/namespaces/inkscape"
   inkscape:version="0.92.3 (2405546, 2018-03-11)"
   sodipodi:docname="WVET.svg"
   viewBox="0 0 589.6627 1463.0771"
   height="387.1058mm"
   width="156.01492mm"
   id="svg2"
   version="1.1"
   inkscape:export-filename="D:\Flori\Offiziell\OvGU\FaRa\Logo.png"
   inkscape:export-xdpi="162"
   inkscape:export-ydpi="162">
  <sodipodi:namedview
     units="mm"
     inkscape:current-layer="g6920"
     inkscape:window-maximized="1"
     inkscape:window-y="-8"
     inkscape:window-x="-8"
     inkscape:cy="1005.986"
     inkscape:cx="-1418.0317"
     inkscape:zoom="0.125"
     showgrid="false"
     id="namedview4"
     inkscape:window-height="1017"
     inkscape:window-width="1920"
     inkscape:pageshadow="2"
     inkscape:pageopacity="0"
     guidetolerance="10"
     gridtolerance="10"
     objecttolerance="10"
     borderopacity="1"
     bordercolor="#666666"
     pagecolor="#ffffff"
     showguides="false"
     fit-margin-top="0"
     fit-margin-left="0"
     fit-margin-right="0"
     fit-margin-bottom="0" />
  <metadata
     id="metadata8">
    <rdf:RDF>
      <cc:Work
         rdf:about="">
        <dc:format>image/svg+xml</dc:format>
        <dc:type
           rdf:resource="http://purl.org/dc/dcmitype/StillImage" />
        <dc:title></dc:title>
      </cc:Work>
    </rdf:RDF>
  </metadata>
  <defs
     id="defs6">
    <linearGradient
       osb:paint="solid"
       id="linearGradient4047">
      <stop
         id="stop4045"
         offset="0"
         style="stop-color:#941680;stop-opacity:1;" />
    </linearGradient>
    <linearGradient
       osb:paint="solid"
       id="linearGradient3784">
      <stop
         id="stop3782"
         offset="0"
         style="stop-color:#941680;stop-opacity:1;" />
    </linearGradient>
  </defs>
  <g
     id="g5954"
     inkscape:export-xdpi="162"
     inkscape:export-ydpi="162"
     transform="translate(-3622.6731,-466.61672)">
    <g
       transform="translate(-6.5727523e-5)"
       id="g5788">
      <path
         inkscape:export-ydpi="162.80484"
         inkscape:export-xdpi="162.80484"
         style="fill:#941680;fill-opacity:1;stroke:#941680;stroke-width:0.28967798;stroke-opacity:1"
         d="m 4071.8647,971.79676 c 0,-0.10384 4.439,-12.46771 9.8642,-27.47531 5.4253,-15.00764 9.8249,-27.5625 9.7768,-27.8997 l -0.086,-0.61312 -17.0188,-0.0745 c -9.3602,-0.0411 -17.0165,-0.17172 -17.0142,-0.28965 0,-0.25054 0.3676,-0.71126 15.2225,-19.3526 6.2033,-7.78461 15.4894,-19.43802 20.6353,-25.89654 5.1463,-6.45849 13.0787,-16.41119 17.6278,-22.11715 4.5491,-5.70592 8.3276,-10.31801 8.3966,-10.24907 0.069,0.069 -0.9771,3.17322 -2.3245,6.89833 -14.0626,38.87918 -17.2814,47.9183 -17.2051,48.31476 0.081,0.41493 1.8182,0.46898 17.2483,0.53617 9.4376,0.0411 17.1594,0.13491 17.1594,0.20883 0,0.14009 -61.1771,77.03118 -61.8795,77.77414 -0.2215,0.23328 -0.4013,0.33922 -0.4013,0.23529 z"
         id="path968-5-7-1"
         inkscape:connector-curvature="0" />
      <path
         inkscape:export-ydpi="162.80484"
         inkscape:export-xdpi="162.80484"
         inkscape:connector-curvature="0"
         id="path1190-8-4-6"
         d="m 3629.8643,906.86349 c 0,158.85701 128.7774,287.63911 287.6393,287.63911 53.9245,0 101.129,-36.2177 115.0858,-88.3047 13.9568,-52.087 -8.812,-107.05672 -55.512,-134.01881 -46.7,-26.96238 -105.6861,-19.19761 -143.8166,18.93287 -34.0744,34.07444 -85.3243,44.26714 -129.8448,25.82624 -44.5205,-18.44094 -73.5471,-61.88156 -73.5517,-110.07471 z"
         style="opacity:1;fill:#941680;fill-opacity:1;stroke:#941680;stroke-width:14.38223648;stroke-miterlimit:4;stroke-dasharray:none;stroke-opacity:1" />
      <path
         inkscape:export-ydpi="162.80484"
         inkscape:export-xdpi="162.80484"
         inkscape:connector-curvature="0"
         id="path989-5-4-2"
         d="m 3908.1606,1035.5671 c 6.0175,-0.2117 10.2125,6.4849 13.6577,10.8203 10.5692,13.3004 14.5821,30.8487 13.8092,47.2817 -0.2646,5.655 1.2703,12.6253 7.0056,13.6743 7.1017,-0.4734 4.8957,-8.8058 5.4552,-13.6406 0.8273,-8.7453 9.0959,-2.0464 10.6293,3.2978 2.4971,8.7026 7.8044,16.6285 8.0676,25.8936 1.249,16.9098 -7.6329,32.5887 -19.7589,44.8322 -4.9435,4.9915 -17.0913,5.3503 -12.1743,-2.8653 3.1909,-7.7975 -0.2531,-16.7634 -6.8427,-21.9048 -7.9713,-6.2194 -19.5326,-7.8477 -25.1241,-16.6014 -2.873,-4.498 -1.2673,-19.2022 -9.9214,-14.5114 -4.7534,4.591 -4.4036,11.8756 -5.3821,17.9441 -0.7942,15.119 6.0267,30.5099 18.1687,39.8152 3.125,2.3948 -1.5354,4.2952 -4.7415,3.2079 -27.2693,-9.2475 -42.1198,-43.9865 -26.6296,-68.2819 10.1499,-15.9197 28.1924,-26.3243 33.905,-45.04 2.3834,-7.8079 -0.032,-16.018 -2.8146,-23.3824 0.9371,-0.3392 1.8314,-0.5091 2.6909,-0.5393 z"
         style="fill:#ffffff;fill-opacity:1;stroke:none;stroke-width:2.8764472;stroke-miterlimit:4;stroke-dasharray:none;stroke-opacity:1" />
      <path
         inkscape:export-ydpi="162.80484"
         inkscape:export-xdpi="162.80484"
         inkscape:connector-curvature="0"
         id="path1027-7-4-4"
         d="m 3698.687,972.44629 c -7.6154,-1.40618 -10.8005,-2.88275 -13.9594,-6.47132 -3.6099,-4.1013 -4.854,-7.90039 -4.7953,-14.64627 0.081,-9.27424 5.1261,-21.00531 14.3831,-33.44166 5.1537,-6.92378 15.9528,-18.34158 22.5019,-23.7913 l 3.777,-3.14306 -4.5327,1.54402 c -23.0892,7.86547 -43.9949,29.49339 -50.6151,52.36353 -1.2202,4.21584 -1.3246,4.33875 -2.3923,2.81443 -2.4344,-3.47535 -5.5073,-11.45553 -6.7243,-17.46164 -2.6144,-12.90245 -0.055,-25.06602 8.042,-38.2 5.2731,-8.5549 19.7324,-23.32988 28.2717,-28.88911 24.9239,-16.22578 60.0136,-24.72533 91.1894,-22.08818 5.9359,0.50211 11.9609,1.15958 13.3885,1.46098 l 2.596,0.54805 -3.8482,2.8247 c -2.1161,1.55359 -6.514,5.65762 -9.7724,9.12009 -9.1508,9.72406 -13.4376,17.8888 -15.7189,29.93881 -5.3381,28.19937 -10.5897,44.11501 -19.6904,59.67492 -5.4167,9.26141 -16.2042,20.01749 -23.7722,23.7034 -9.1741,4.46807 -18.8735,5.88541 -28.3284,4.13961 z"
         style="fill:#941680;fill-opacity:1;stroke:#941680;stroke-width:0.75542152;stroke-opacity:1" />
      <path
         inkscape:export-ydpi="162.80484"
         inkscape:export-xdpi="162.80484"
         sodipodi:nodetypes="scscccs"
         inkscape:connector-curvature="0"
         d="m 3629.8649,906.86188 c 0,53.92447 36.2188,101.12582 88.3061,115.08262 52.087,13.9568 107.0545,-8.8114 134.0165,-55.5114 26.9624,-46.69999 19.1966,-105.68729 -18.9339,-143.81776 -34.0744,-34.0744 -44.2677,-85.31974 -25.8267,-129.84024 18.4409,-44.52051 61.8844,-73.54875 110.0779,-73.55335 -158.857,0 -287.6399,128.77826 -287.6399,287.64013 z"
         style="opacity:0.97000002;fill:none;fill-opacity:1;fill-rule:nonzero;stroke:#941680;stroke-width:14.38223648;stroke-linecap:round;stroke-linejoin:round;stroke-miterlimit:4;stroke-dasharray:none;stroke-dashoffset:0;stroke-opacity:1;paint-order:normal"
         id="path1125-0-2-3-9" />
      <path
         inkscape:export-ydpi="162.80484"
         inkscape:export-xdpi="162.80484"
         sodipodi:nodetypes="scscccs"
         inkscape:connector-curvature="0"
         d="m 4205.1449,906.86176 c 0,-53.92447 -36.2191,-101.12582 -88.3061,-115.08263 -52.087,-13.95681 -107.0544,8.81142 -134.0165,55.51141 -26.9624,46.69998 -19.1966,105.68729 18.9339,143.81776 34.0744,34.0744 44.2676,85.3197 25.8267,129.8403 -18.4409,44.5205 -61.8847,73.5487 -110.0779,73.5533 158.857,0 287.6399,-128.7783 287.6399,-287.64014 z"
         style="opacity:0.97000002;fill:none;fill-opacity:1;fill-rule:nonzero;stroke:#941680;stroke-width:14.38199997;stroke-linecap:round;stroke-linejoin:round;stroke-miterlimit:4;stroke-dasharray:none;stroke-dashoffset:0;stroke-opacity:1;paint-order:normal"
         id="path1125-5-5-5-34" />
      <path
         inkscape:export-ydpi="162.80484"
         inkscape:export-xdpi="162.80484"
         inkscape:connector-curvature="0"
         id="path1183-2-3-8"
         d="m 3917.5036,619.2244 c -53.9245,2e-5 -101.1235,36.2176 -115.0803,88.30468 -13.9568,52.08711 8.812,107.05093 55.512,134.01322 46.6999,26.96232 105.6861,19.19761 143.8166,-18.93286 34.0744,-34.07448 85.3186,-44.2672 129.8391,-25.82624 44.5205,18.44093 73.547,61.88691 73.5516,110.08029 0,-158.85707 -128.7771,-287.63909 -287.639,-287.63909 z"
         style="opacity:1;fill:#941680;fill-opacity:1;stroke:#941680;stroke-width:14.38223648;stroke-linecap:round;stroke-linejoin:miter;stroke-miterlimit:4;stroke-dasharray:none;stroke-opacity:1" />
      <path
         inkscape:export-ydpi="162.80484"
         inkscape:export-xdpi="162.80484"
         inkscape:connector-curvature="0"
         id="path1195-6-8-0"
         d="m 3928.2397,640.18054 c 12.1052,29.10485 37.8488,51.60948 43.9081,83.35099 3.3746,17.67925 -2.3199,39.21469 -19.7351,47.48908 -22.8924,10.87691 -50.4802,2.44112 -61.6126,-20.71344 -6.4916,-13.50199 -5.8518,-30.05177 -1.0315,-43.28075 8.8756,-24.35833 27.5731,-43.47885 38.4711,-66.84588 z"
         style="opacity:1;fill:#941680;fill-opacity:1;stroke:#ffffff;stroke-width:14.38223648;stroke-linecap:round;stroke-linejoin:miter;stroke-miterlimit:4;stroke-dasharray:none;stroke-opacity:1" />
      <path
         inkscape:export-ydpi="162.80484"
         inkscape:export-xdpi="162.80484"
         inkscape:connector-curvature="0"
         id="path1197-5-7-72"
         d="m 3906.9433,731.03431 c 2.4571,12.21245 9.6651,19.39355 19.5768,20.08531"
         style="opacity:1;fill:none;stroke:#ffffff;stroke-width:14.38223648;stroke-linecap:round;stroke-linejoin:miter;stroke-miterlimit:4;stroke-dasharray:none;stroke-opacity:1" />
      <ellipse
         ry="99.844269"
         rx="99.844109"
         cy="906.86218"
         cx="3917.5044"
         id="path1199-2-1-7"
         style="opacity:1;fill:#941680;fill-opacity:1;fill-rule:nonzero;stroke:#ffffff;stroke-width:14.38199997;stroke-linecap:round;stroke-linejoin:round;stroke-miterlimit:4;stroke-dasharray:none;stroke-dashoffset:0;stroke-opacity:1;paint-order:normal" />
      <path
         style="fill:#fcfcfc;fill-opacity:1;stroke:none;stroke-width:0.32413876"
         d="m 3866.8333,963.99136 c -0.55,-0.24588 -1.3158,-0.84855 -1.7017,-1.33927 -0.6753,-0.85842 -0.7019,-1.1859 -0.7019,-8.64394 0,-6.10137 0.099,-7.93806 0.464,-8.627 0.5541,-1.0455 9.117,-9.56435 10.1303,-10.07829 1.6352,-0.82937 3.9457,-0.0707 4.7968,1.57514 0.4133,0.79921 0.4909,2.82714 0.487,12.71696 -0.01,12.64845 -0.016,12.73727 -1.7195,14.00385 -0.8204,0.60997 -1.4176,0.68772 -5.8345,0.75957 -3.6283,0.059 -5.1832,-0.0374 -5.9205,-0.36702 z m 21.9372,0.04 c -0.6073,-0.22073 -1.4095,-0.81301 -1.7828,-1.31618 -0.6663,-0.89826 -0.6804,-1.23613 -0.7773,-18.63798 -0.054,-9.74772 0,-18.37951 0.1101,-19.18176 0.1935,-1.35175 0.5686,-1.82155 5.1195,-6.41198 5.5737,-5.62226 6.3863,-6.10375 8.5323,-5.05573 2.4883,1.2152 2.3829,0.0957 2.3629,25.08154 -0.013,16.32971 -0.1202,22.49559 -0.4047,23.30763 -0.7541,2.15202 -1.5964,2.45169 -7.1357,2.5386 -3.2834,0.0515 -5.2875,-0.0563 -6.0243,-0.32414 z m 22.1553,0.0627 c -0.5447,-0.15829 -1.3469,-0.66736 -1.7828,-1.13126 l -0.7925,-0.84345 -0.087,-24.52678 c -0.064,-17.97264 0.013,-24.76811 0.287,-25.42988 0.5892,-1.42232 1.7914,-2.17767 3.4661,-2.17767 1.4612,0 1.5059,0.0339 6.303,4.78105 2.6573,2.62957 5.0386,5.17492 5.2916,5.65633 0.3832,0.72886 0.4602,4.2598 0.4602,21.10634 v 20.23106 l -0.7027,0.89333 c -1.1727,1.49079 -2.3903,1.79027 -7.1473,1.75797 -2.3679,-0.0161 -4.7509,-0.15875 -5.2955,-0.31704 z m 21.981,0.11788 c -0.3996,-0.0771 -1.1654,-0.57894 -1.7017,-1.11528 l -0.9752,-0.97517 v -19.60155 c 0,-16.22318 0.079,-19.75242 0.4563,-20.47685 0.251,-0.4814 2.5484,-2.9312 5.1052,-5.444 3.2699,-3.21351 4.9342,-4.62236 5.6107,-4.74958 1.3515,-0.25411 3.069,0.40351 3.8693,1.48155 0.6729,0.9065 0.68,1.13219 0.7632,24.31041 0.078,21.77979 0.044,23.47375 -0.4862,24.52989 -0.9636,1.91731 -2.1486,2.27461 -7.3771,2.22433 -2.4959,-0.024 -4.8649,-0.10669 -5.2645,-0.18375 z m 21.3968,-0.23756 c -0.5759,-0.25839 -1.3411,-0.9521 -1.7005,-1.54158 -0.6427,-1.05415 -0.6535,-1.56443 -0.6547,-31.00563 0,-26.41587 0.058,-30.05875 0.5031,-30.99663 0.6986,-1.47215 9.5401,-10.12329 10.6241,-10.39537 1.4407,-0.36158 3.0254,0.11723 3.9245,1.1857 l 0.8299,0.98626 v 34.689 c 0,37.75608 0.097,35.70413 -1.7395,36.92151 -1.0246,0.67932 -10.3459,0.80327 -11.7869,0.15674 z m -95.9194,-34.27817 c -4.2544,-4.20598 -4.7975,-5.15107 -4.028,-7.00883 0.5753,-1.38893 50.2399,-50.86687 51.3223,-51.12946 2.1946,-0.53239 2.5864,-0.23588 11.587,8.76957 8.8006,8.80533 9.7361,9.53796 11.604,9.08772 0.5717,-0.13781 5.3885,-4.71829 13.9208,-13.23798 7.1756,-7.16499 13.0466,-13.1589 13.0466,-13.3198 0,-0.1609 -1.2174,-1.55541 -2.7054,-3.09893 -2.9021,-3.01045 -3.325,-3.92261 -2.6925,-5.808 0.7519,-2.24137 0.978,-2.30103 13.2417,-3.49326 6.1151,-0.59449 11.9433,-1.10781 12.9517,-1.14071 2.1168,-0.0691 3.2206,0.49011 4.0204,2.03668 0.4851,0.93815 0.4412,1.80996 -0.6725,13.36766 -0.7658,7.94727 -1.363,12.73144 -1.6717,13.39247 -0.6134,1.31317 -2.3697,2.1849 -3.8445,1.90822 -0.688,-0.12908 -1.8569,-0.90512 -3.2094,-2.13077 -2.2509,-2.03986 -3.1943,-2.47026 -4.6402,-2.11692 -0.5981,0.14616 -6.8137,6.13013 -18.8907,18.18691 l -17.9993,17.96907 h -1.4855 c -1.938,0 -2.036,-0.0815 -11.7733,-9.79285 -8.4986,-8.47586 -8.9329,-8.78861 -10.9715,-7.90077 -0.5851,0.25478 -9.2594,8.6991 -19.9955,19.46521 -10.4291,10.45837 -19.3559,19.22457 -19.8373,19.48046 -0.4815,0.25589 -1.4166,0.46525 -2.0781,0.46525 -1.1031,0 -1.5335,-0.32702 -5.1991,-3.95094 z"
         id="path1671"
         inkscape:connector-curvature="0" />
    </g>
    <text
       xml:space="preserve"
       style="font-style:normal;font-variant:normal;font-weight:normal;font-stretch:normal;font-size:74.66666412px;line-height:1.25;font-family:Arial;-inkscape-font-specification:'Arial, Normal';font-variant-ligatures:normal;font-variant-caps:normal;font-variant-numeric:normal;font-feature-settings:normal;text-align:start;letter-spacing:0px;word-spacing:0px;writing-mode:lr-tb;text-anchor:start;fill:#000000;fill-opacity:1;stroke:none"
       x="3809.8977"
       y="520.06464"
       id="text1929"><tspan
         sodipodi:role="line"
         id="tspan1927"
         x="3809.8977"
         y="520.06464">WVET</tspan></text>
    <g
       transform="translate(22.760434,11.710909)"
       id="g5775">
      <path
         inkscape:export-ydpi="162.80484"
         inkscape:export-xdpi="162.80484"
         style="fill:#941680;fill-opacity:1;stroke:#941680;stroke-width:0.28967798;stroke-opacity:1"
         d="m 4049.1042,1688.0859 c 0,-0.1038 4.439,-12.4677 9.8642,-27.4753 5.4253,-15.0076 9.8249,-27.5625 9.7768,-27.8997 l -0.086,-0.6131 -17.0188,-0.075 c -9.3602,-0.041 -17.0165,-0.1717 -17.0142,-0.2897 0,-0.2505 0.3676,-0.7112 15.2225,-19.3526 6.2033,-7.7846 15.4894,-19.438 20.6353,-25.8965 5.1463,-6.4585 13.0787,-16.4112 17.6278,-22.1172 4.5491,-5.7059 8.3276,-10.318 8.3966,-10.249 0.069,0.069 -0.9771,3.1732 -2.3245,6.8983 -14.0626,38.8792 -17.2814,47.9183 -17.2051,48.3148 0.081,0.4149 1.8182,0.4689 17.2483,0.5361 9.4376,0.041 17.1594,0.1349 17.1594,0.2089 0,0.14 -61.1771,77.0311 -61.8795,77.7741 -0.2215,0.2333 -0.4013,0.3392 -0.4013,0.2353 z"
         id="path968-5-7-1-0"
         inkscape:connector-curvature="0" />
      <path
         inkscape:export-ydpi="162.80484"
         inkscape:export-xdpi="162.80484"
         inkscape:connector-curvature="0"
         id="path1190-8-4-6-7"
         d="m 3607.1038,1623.1526 c 0,158.857 128.7774,287.6391 287.6393,287.6391 53.9245,0 101.129,-36.2177 115.0858,-88.3047 13.9568,-52.087 -8.812,-107.0567 -55.512,-134.0188 -46.7,-26.9623 -105.6861,-19.1976 -143.8166,18.9329 -34.0744,34.0744 -85.3243,44.2671 -129.8448,25.8262 -44.5205,-18.4409 -73.5471,-61.8815 -73.5517,-110.0747 z"
         style="opacity:1;fill:#941680;fill-opacity:1;stroke:#941680;stroke-width:14.38223648;stroke-miterlimit:4;stroke-dasharray:none;stroke-opacity:1" />
      <path
         inkscape:export-ydpi="162.80484"
         inkscape:export-xdpi="162.80484"
         sodipodi:nodetypes="scscccs"
         inkscape:connector-curvature="0"
         d="m 3607.1044,1623.151 c 0,53.9245 36.2188,101.1258 88.3061,115.0826 52.087,13.9568 107.0545,-8.8114 134.0165,-55.5114 26.9624,-46.6999 19.1966,-105.6872 -18.9339,-143.8177 -34.0744,-34.0744 -44.2677,-85.3198 -25.8267,-129.8403 18.4409,-44.5205 61.8844,-73.5487 110.0779,-73.5533 -158.857,0 -287.6399,128.7783 -287.6399,287.6401 z"
         style="opacity:0.97000002;fill:none;fill-opacity:1;fill-rule:nonzero;stroke:#941680;stroke-width:14.38223648;stroke-linecap:round;stroke-linejoin:round;stroke-miterlimit:4;stroke-dasharray:none;stroke-dashoffset:0;stroke-opacity:1;paint-order:normal"
         id="path1125-0-2-3-9-2" />
      <path
         inkscape:export-ydpi="162.80484"
         inkscape:export-xdpi="162.80484"
         sodipodi:nodetypes="scscccs"
         inkscape:connector-curvature="0"
         d="m 4182.3844,1623.1509 c 0,-53.9245 -36.2191,-101.1258 -88.3061,-115.0826 -52.087,-13.9568 -107.0544,8.8114 -134.0165,55.5114 -26.9624,46.7 -19.1966,105.6873 18.9339,143.8177 34.0744,34.0744 44.2676,85.3197 25.8267,129.8403 -18.4409,44.5205 -61.8847,73.5487 -110.0779,73.5533 158.857,0 287.6399,-128.7783 287.6399,-287.6401 z"
         style="opacity:0.97000002;fill:none;fill-opacity:1;fill-rule:nonzero;stroke:#941680;stroke-width:14.38199997;stroke-linecap:round;stroke-linejoin:round;stroke-miterlimit:4;stroke-dasharray:none;stroke-dashoffset:0;stroke-opacity:1;paint-order:normal"
         id="path1125-5-5-5-34-2" />
      <path
         inkscape:export-ydpi="162.80484"
         inkscape:export-xdpi="162.80484"
         inkscape:connector-curvature="0"
         id="path1183-2-3-8-4"
         d="m 3894.7431,1335.5135 c -53.9245,10e-5 -101.1235,36.2176 -115.0803,88.3047 -13.9568,52.0871 8.812,107.051 55.512,134.0132 46.6999,26.9624 105.6861,19.1977 143.8166,-18.9328 34.0744,-34.0745 85.3186,-44.2672 129.8391,-25.8263 44.5205,18.441 73.547,61.887 73.5516,110.0803 0,-158.857 -128.7771,-287.6391 -287.639,-287.6391 z"
         style="opacity:1;fill:#941680;fill-opacity:1;stroke:#941680;stroke-width:14.38223648;stroke-linecap:round;stroke-linejoin:miter;stroke-miterlimit:4;stroke-dasharray:none;stroke-opacity:1" />
      <path
         inkscape:export-ydpi="162.80484"
         inkscape:export-xdpi="162.80484"
         inkscape:connector-curvature="0"
         id="path1195-6-8-0-1"
         d="m 3905.4792,1356.4697 c 12.1052,29.1048 37.8488,51.6095 43.9081,83.351 3.3746,17.6792 -2.3199,39.2147 -19.7351,47.4891 -22.8924,10.8769 -50.4802,2.4411 -61.6126,-20.7135 -6.4916,-13.502 -5.8518,-30.0518 -1.0315,-43.2807 8.8756,-24.3584 27.5731,-43.4789 38.4711,-66.8459 z"
         style="opacity:1;fill:#941680;fill-opacity:1;stroke:#ffffff;stroke-width:14.38223648;stroke-linecap:round;stroke-linejoin:miter;stroke-miterlimit:4;stroke-dasharray:none;stroke-opacity:1" />
      <path
         inkscape:export-ydpi="162.80484"
         inkscape:export-xdpi="162.80484"
         inkscape:connector-curvature="0"
         id="path1197-5-7-72-6"
         d="m 3884.1828,1447.3235 c 2.4571,12.2124 9.6651,19.3935 19.5768,20.0853"
         style="opacity:1;fill:none;stroke:#ffffff;stroke-width:14.38223648;stroke-linecap:round;stroke-linejoin:miter;stroke-miterlimit:4;stroke-dasharray:none;stroke-opacity:1" />
      <ellipse
         ry="99.844269"
         rx="99.844109"
         cy="1623.1512"
         cx="3894.7439"
         id="path1199-2-1-7-6"
         style="opacity:1;fill:#941680;fill-opacity:1;fill-rule:nonzero;stroke:#ffffff;stroke-width:14.38199997;stroke-linecap:round;stroke-linejoin:round;stroke-miterlimit:4;stroke-dasharray:none;stroke-dashoffset:0;stroke-opacity:1;paint-order:normal" />
      <path
         style="fill:#fcfcfc;fill-opacity:1;stroke:none;stroke-width:0.32413876"
         d="m 3844.0728,1680.2805 c -0.55,-0.2459 -1.3158,-0.8485 -1.7017,-1.3393 -0.6753,-0.8584 -0.7019,-1.1859 -0.7019,-8.6439 0,-6.1014 0.099,-7.9381 0.464,-8.627 0.5541,-1.0455 9.117,-9.5644 10.1303,-10.0783 1.6352,-0.8294 3.9457,-0.071 4.7968,1.5751 0.4133,0.7993 0.4909,2.8272 0.487,12.717 -0.01,12.6485 -0.016,12.7373 -1.7195,14.0039 -0.8204,0.6099 -1.4176,0.6877 -5.8345,0.7595 -3.6283,0.059 -5.1832,-0.037 -5.9205,-0.367 z m 21.9372,0.04 c -0.6073,-0.2207 -1.4095,-0.813 -1.7828,-1.3162 -0.6663,-0.8982 -0.6804,-1.2361 -0.7773,-18.638 -0.054,-9.7477 0,-18.3795 0.1101,-19.1817 0.1935,-1.3518 0.5686,-1.8216 5.1195,-6.412 5.5737,-5.6223 6.3863,-6.1037 8.5323,-5.0557 2.4883,1.2152 2.3829,0.096 2.3629,25.0815 -0.013,16.3297 -0.1202,22.4956 -0.4047,23.3076 -0.7541,2.1521 -1.5964,2.4517 -7.1357,2.5386 -3.2834,0.052 -5.2875,-0.056 -6.0243,-0.3241 z m 22.1553,0.063 c -0.5447,-0.1583 -1.3469,-0.6674 -1.7828,-1.1313 l -0.7925,-0.8434 -0.087,-24.5268 c -0.064,-17.9726 0.013,-24.7681 0.287,-25.4299 0.5892,-1.4223 1.7914,-2.1776 3.4661,-2.1776 1.4612,0 1.5059,0.034 6.303,4.781 2.6573,2.6296 5.0386,5.1749 5.2916,5.6563 0.3832,0.7289 0.4602,4.2598 0.4602,21.1064 v 20.231 l -0.7027,0.8934 c -1.1727,1.4908 -2.3903,1.7902 -7.1473,1.7579 -2.3679,-0.016 -4.7509,-0.1587 -5.2955,-0.317 z m 21.981,0.1179 c -0.3996,-0.077 -1.1654,-0.579 -1.7017,-1.1153 l -0.9752,-0.9752 v -19.6015 c 0,-16.2232 0.079,-19.7524 0.4563,-20.4769 0.251,-0.4814 2.5484,-2.9312 5.1052,-5.444 3.2699,-3.2135 4.9342,-4.6223 5.6107,-4.7495 1.3515,-0.2542 3.069,0.4035 3.8693,1.4815 0.6729,0.9065 0.68,1.1322 0.7632,24.3104 0.078,21.7798 0.044,23.4738 -0.4862,24.5299 -0.9636,1.9173 -2.1486,2.2746 -7.3771,2.2243 -2.4959,-0.024 -4.8649,-0.1067 -5.2645,-0.1837 z m 21.3968,-0.2376 c -0.5759,-0.2584 -1.3411,-0.9521 -1.7005,-1.5416 -0.6427,-1.0541 -0.6535,-1.5644 -0.6547,-31.0056 0,-26.4159 0.058,-30.0587 0.5031,-30.9966 0.6986,-1.4722 9.5401,-10.1233 10.6241,-10.3954 1.4407,-0.3616 3.0254,0.1172 3.9245,1.1857 l 0.8299,0.9863 v 34.689 c 0,37.7561 0.097,35.7041 -1.7395,36.9215 -1.0246,0.6793 -10.3459,0.8033 -11.7869,0.1567 z m -95.9194,-34.2781 c -4.2544,-4.206 -4.7975,-5.1511 -4.028,-7.0089 0.5753,-1.3889 50.2399,-50.8668 51.3223,-51.1294 2.1946,-0.5324 2.5864,-0.2359 11.587,8.7695 8.8006,8.8054 9.7361,9.538 11.604,9.0878 0.5717,-0.1379 5.3885,-4.7183 13.9208,-13.238 7.1756,-7.165 13.0466,-13.1589 13.0466,-13.3198 0,-0.1609 -1.2174,-1.5554 -2.7054,-3.099 -2.9021,-3.0104 -3.325,-3.9226 -2.6925,-5.808 0.7519,-2.2413 0.978,-2.301 13.2417,-3.4932 6.1151,-0.5945 11.9433,-1.1078 12.9517,-1.1407 2.1168,-0.069 3.2206,0.4901 4.0204,2.0367 0.4851,0.9381 0.4412,1.8099 -0.6725,13.3676 -0.7658,7.9473 -1.363,12.7315 -1.6717,13.3925 -0.6134,1.3132 -2.3697,2.1849 -3.8445,1.9082 -0.688,-0.1291 -1.8569,-0.9051 -3.2094,-2.1308 -2.2509,-2.0398 -3.1943,-2.4702 -4.6402,-2.1169 -0.5981,0.1462 -6.8137,6.1301 -18.8907,18.1869 l -17.9993,17.9691 h -1.4855 c -1.938,0 -2.036,-0.082 -11.7733,-9.7929 -8.4986,-8.4758 -8.9329,-8.7886 -10.9715,-7.9007 -0.5851,0.2548 -9.2594,8.6991 -19.9955,19.4652 -10.4291,10.4584 -19.3559,19.2246 -19.8373,19.4804 -0.4815,0.2559 -1.4166,0.4653 -2.0781,0.4653 -1.1031,0 -1.5335,-0.327 -5.1991,-3.9509 z"
         id="path1671-0"
         inkscape:connector-curvature="0" />
      <text
         id="text2275"
         y="1680.4169"
         x="3667.0586"
         style="font-style:normal;font-variant:normal;font-weight:normal;font-stretch:normal;font-size:160px;line-height:1.25;font-family:Arial;-inkscape-font-specification:'Arial, Normal';font-variant-ligatures:normal;font-variant-caps:normal;font-variant-numeric:normal;font-feature-settings:normal;text-align:start;letter-spacing:0px;word-spacing:0px;writing-mode:lr-tb;text-anchor:start;fill:#941680;fill-opacity:1;stroke:none"
         xml:space="preserve"><tspan
           style="font-style:normal;font-variant:normal;font-weight:normal;font-stretch:normal;font-size:160px;font-family:Arial;-inkscape-font-specification:'Arial, Normal';font-variant-ligatures:normal;font-variant-caps:normal;font-variant-numeric:normal;font-feature-settings:normal;text-align:start;writing-mode:lr-tb;text-anchor:start;fill:#941680;fill-opacity:1"
           y="1680.4169"
           x="3667.0586"
           id="tspan2273"
           sodipodi:role="line">€</tspan></text>
      <g
         transform="matrix(0.49125498,0.10630254,-0.10630254,0.49125498,1519.8342,625.46293)"
         id="g4115"
         style="stroke:#ffffff;stroke-width:28.6137886;stroke-linecap:round;stroke-linejoin:round;stroke-miterlimit:4;stroke-dasharray:none;stroke-opacity:1">
        <path
           id="path4075"
           style="fill:#941680;fill-opacity:1;stroke:#ffffff;stroke-width:28.6137886;stroke-linecap:round;stroke-linejoin:round;stroke-miterlimit:4;stroke-dasharray:none;stroke-opacity:1"
           d="m 4962.4458,1372.7366 c 0,0 55.7522,-176.2315 55.7522,-176.2315 0,0 170.0469,2.207 170.0469,2.207 0,0 54.7433,226.0291 54.7433,226.0291 0,0 -280.5424,-52.0046 -280.5424,-52.0046"
           inkscape:connector-curvature="0"
           sodipodi:nodetypes="ccccc" />
        <path
           style="fill:none;stroke:#ffffff;stroke-width:28.6137886;stroke-linecap:round;stroke-linejoin:round;stroke-miterlimit:4;stroke-dasharray:none;stroke-opacity:1"
           d="m 5125.92,1197.8871 c 0,0 7.9416,206.7182 7.9416,206.7182"
           id="path4087"
           inkscape:connector-curvature="0" />
        <path
           style="fill:none;stroke:#ffffff;stroke-width:28.6137886;stroke-linecap:round;stroke-linejoin:round;stroke-miterlimit:4;stroke-dasharray:none;stroke-opacity:1"
           d="m 5069.4848,1197.3127 c 0,0 -27.8791,189.6873 -27.8791,189.6873"
           id="path4085"
           inkscape:connector-curvature="0" />
        <path
           style="fill:none;stroke:#ffffff;stroke-width:28.6137886;stroke-linecap:round;stroke-linejoin:round;stroke-miterlimit:4;stroke-dasharray:none;stroke-opacity:1"
           d="m 4986.9097,1294.9236 c 0,0 230.6549,24.6833 230.6549,24.6833"
           id="path4083"
           inkscape:connector-curvature="0" />
        <path
           style="fill:none;stroke:#ffffff;stroke-width:28.6137886;stroke-linecap:round;stroke-linejoin:round;stroke-miterlimit:4;stroke-dasharray:none;stroke-opacity:1"
           d="m 5004.6712,1238.8475 c 0,0 195.8299,10.3327 195.8299,10.3327"
           id="path4081"
           inkscape:connector-curvature="0" />
      </g>
    </g>
  </g>
  <g
     id="g6920"
     inkscape:export-xdpi="162"
     inkscape:export-ydpi="162"
     transform="translate(-3622.6731,-466.61672)" />
</svg>
